<?xml version="1.0" encoding="utf-8"?>
<!-- Generator: Adobe Illustrator 24.3.0, SVG Export Plug-In . SVG Version: 6.00 Build 0)  -->
<svg version="1.1" id="Layer_1" xmlns="http://www.w3.org/2000/svg" xmlns:xlink="http://www.w3.org/1999/xlink" x="0px" y="0px"
	 viewBox="0 0 323.49 35.59" style="enable-background:new 0 0 323.49 35.59;" xml:space="preserve">
<style type="text/css">
	.st0{fill:#F5A571;}
</style>
<g>
	<path class="st0" d="M119.58,25.66c-0.19,0.7-0.19,0.7-0.98,1.2c-0.05,0.03-0.13,0.05-0.16,0.1c-0.27,0.5-0.58,0.57-1.14,0.34
		c-0.45-0.18-0.41,0.28-0.31,0.6c-0.59-0.04-1.12-0.13-1.57,0.41c-0.17,0.2-0.65,0.25-1.01,0.07c-0.28-0.14-0.46,0.04-0.54,0.26
		c-0.06,0.17,0.23,0.45-0.23,0.46c-0.33,0.01-0.64,0.07-0.77-0.34c-0.05-0.15-0.15-0.25-0.3-0.29c-0.15,0.35,0.01,0.61,0.35,0.93
		c-0.57-0.06-1.07-0.24-1.29,0.52c-0.17-0.64-0.36-0.61-0.71-0.31c-0.42,0.36-1,0.38-1.54,0.45c-0.09,0.01-0.19-0.02-0.18-0.12
		c0-0.06,0.08-0.13,0.15-0.18c0.25-0.18,0.63-0.03,0.98-0.46c-0.89,0.26-1.66-0.38-2.38,0.29c-0.18,0.17-0.58,0.24-0.9,0.03
		c-0.22-0.14-0.49-0.08-0.66,0.06c-0.47,0.37-0.86,0.44-1.2-0.15c-0.07-0.13-0.31-0.17-0.4-0.06c-0.61,0.77-0.83,0.07-1.17-0.32
		c-0.05,0.45-0.41,0.48-0.7,0.62c-0.11-0.24,0.09-0.3,0.15-0.41c0.05-0.1,0.1-0.21,0.01-0.29c-0.13-0.11-0.23-0.03-0.29,0.1
		c-0.2,0.4-0.54-0.17-0.81,0.15c-0.32,0.37-0.48,0-0.66-0.24c-0.08-0.11-0.2-0.35-0.33-0.01c-0.03,0.09-0.21,0.07-0.28,0.01
		c-0.79-0.73-2.06-0.52-2.79-1.39c-0.07-0.08-0.24-0.12-0.35-0.11c-0.42,0.05-0.64-0.05-0.53-0.54c0.03-0.14-0.1-0.23-0.24-0.24
		c-0.29-0.03-0.3,0.25-0.45,0.47c-0.22-0.38-0.17-0.92-0.71-1.04c-0.23-0.05-0.41-0.32-0.67-0.05c-0.14,0.14-0.28-0.03-0.38-0.12
		c-0.32-0.28-0.68-0.51-0.93-0.88c-0.15-0.22-0.4-0.36-0.68-0.42c-0.08-0.02-0.23,0-0.23-0.01c-0.1-0.73-0.87-0.51-1.23-0.87
		c-0.16-0.16-0.4-0.22-0.48-0.01c-0.15,0.39-0.4,0.3-0.71,0.33c-0.68,0.06-1.14,0.59-1.65,0.99c-0.06,0.05-0.12,0.2-0.14,0.2
		c-0.81-0.26-1.04,0.74-1.7,0.78c-0.06,0-0.14,0.01-0.18-0.02c-0.54-0.48-0.85,0.03-1.2,0.29c-0.18,0.14-0.39,0.15-0.58,0.2
		c-0.14,0.03-0.31-0.03-0.4,0.12c-0.25,0.42-0.51,0.52-1.02,0.29c-0.38-0.18-0.77,0.35-1.23,0.39c-0.43,0.03-0.86,0.51-1.24-0.06
		c-0.25,0.08-0.11,0.26-0.15,0.38c-0.03,0.1-0.17,0.24-0.17,0.23c-0.25-0.45-0.75,0-0.95-0.2c-0.6-0.6-0.68,0.03-0.99,0.27
		c0.21,0.2,0.27-0.01,0.37-0.03c0.2-0.04,0.37,0.05,0.4,0.22c0.03,0.17-0.18,0.2-0.32,0.23c-0.63,0.16-0.84,0.03-0.72-0.57
		c-0.39,0.44-0.64,0.34-0.99,0.01c-0.27-0.25-0.59,0.15-0.77,0.34c-0.2,0.2-0.4,0.27-0.61,0.22c-0.48-0.12-0.93-0.13-1.42-0.02
		c-0.32,0.07-0.65-0.03-0.94-0.26c-0.42-0.33-0.92-0.38-1.42-0.16c-0.61,0.27-1.21,0.04-1.8-0.09c-0.25-0.05-0.43-0.09-0.64,0.05
		c-0.05,0.04-0.11,0.07-0.16,0.11c-0.38,0.33-0.6-0.59-0.76-0.2c-0.28,0.66-0.46,0.17-0.69,0.05c-0.09-0.05-0.24-0.14-0.28-0.03
		c-0.19,0.51-0.61,0.3-0.83,0.16c-0.33-0.2,0.12-0.46,0.11-0.7c-0.05-0.03-0.1-0.07-0.11-0.06c-0.86,0.78-1.66,0.2-2.53-0.02
		c-1.06-0.27-1.95-0.92-2.96-1.29c-0.45-0.16-1.18-0.15-1.42-0.81c-0.04-0.12-0.18-0.17-0.32-0.16c-0.41,0.01-0.78,0.1-1.18-0.25
		c-0.33-0.28-0.65,0.36-1.05,0.41c-0.15,0.02-0.27,0.19-0.42,0.27c-0.43,0.21-0.6,0.4,0.12,0.57c-0.31,0.21-0.49,0.56-0.79,0.08
		c-0.09-0.14-0.3-0.07-0.33,0.01c-0.2,0.67-1.24,0.68-1.11,1.58c-0.41-0.13-0.64-0.79-1.07-0.22c-0.04,0.05-0.31,0.13-0.03,0.24
		c0.15,0.06,0.21,0.14,0.12,0.28c-0.09,0.14-0.19,0.23-0.37,0.15c-0.09-0.04-0.24-0.17-0.28-0.08c-0.4,0.89-0.59-0.18-0.9-0.07
		c-0.21,0.08,0.14,0.26-0.04,0.34c-0.05,0.02-0.14-0.05-0.21-0.09c-0.21-0.12-0.21-0.62-0.6-0.37c-0.32,0.21-0.7,0.44-0.57,0.94
		c0.01,0.03-0.04,0.07-0.11,0.17c-0.11-0.34-0.55-0.35-0.6-0.75c-0.01-0.1-0.16-0.23-0.33-0.03c-0.24,0.27-0.38-0.01-0.68,0.13
		c-0.44,0.21-1.13-0.32-1.35,0.45c-0.04,0.14-0.14,0.29-0.32,0.22c-0.15-0.06-0.08-0.22-0.08-0.33c0-0.19,0.02-0.42-0.21-0.48
		c-0.22-0.07-0.25,0.18-0.34,0.31c-0.22,0.29-0.52,0.36-0.84,0.26c-0.31-0.1-0.58-0.64-0.91-0.04c-0.52-0.49-1.01-0.13-1.54,0.01
		c-0.22,0.06,0.07-0.3-0.14-0.4c-0.31,0.09-0.51,0.84-1,0.2c-0.08-0.1-0.23,0.07-0.31,0.15c-0.3,0.33-0.7,0.23-1.07,0.25
		c-0.12,0.01-0.22-0.03-0.16-0.19c0.19-0.5-0.09-0.43-0.4-0.33c-0.06,0.02-0.15,0.09-0.17,0.07c-0.56-0.57-1.08,0.29-1.67-0.05
		c-0.02-0.11,0.29-0.07,0.26-0.31c-0.52,0.06-1.05-0.28-1.58,0.06c-0.09,0.06-0.32,0.06-0.35,0c-0.49-0.71-1.26-0.35-1.89-0.49
		c-0.34-0.08-0.73-0.01-0.94-0.4c-0.07-0.13-0.17-0.13-0.32-0.1c-0.69,0.12-1.15-0.24-1.26-1.03c-0.2,0.27-0.32,1.15-0.67,0.17
		c-0.38,0.21-0.67-0.51-1.08-0.11c-0.03,0.03-0.07,0.05-0.1,0.07c-0.16-0.51-0.78-0.28-1.02-0.64c-0.47-0.71-0.91-0.81-1.57-0.3
		c-0.28,0.22-0.88,0.14-0.72,0.85c-0.49-0.78-1.15-0.2-1.68-0.35c-0.02-0.01-0.12,0.12-0.12,0.19c0,0.53-0.06,0.64-0.64,0.74
		c-0.23,0.04-0.32,0.17-0.32,0.32c0,0.46-0.26,0.42-0.53,0.29c-0.27-0.13-0.52-0.09-0.8-0.04c-0.76,0.13-1.52,0.18-2.26-0.14
		c-0.26-0.11-1.5,0.44-1.68,0.77c0-0.89-0.54-0.4-0.86-0.39c-0.21,0.01-0.42,0.27-0.44-0.2c-0.02-0.31-0.21-0.07-0.34,0
		c-0.17,0.09-0.43,0.69-0.5-0.08c-0.02-0.16-0.26-0.09-0.39-0.06c-0.34,0.07-0.54,0-0.45-0.49c-0.51,0.44-0.91,0.52-1.46,0.2
		c-0.55-0.33-1.21-0.49-1.84-0.67c-0.2-0.06-0.33-0.16-0.48-0.27c-0.32-0.23-0.62-0.49-1.08-0.35c-0.31,0.09-0.44-0.23-0.59-0.39
		c-0.27-0.28-0.45-0.49-0.71,0.14c0.1-0.79-0.39-0.78-0.83-1.01c-0.62-0.33-1.24-0.69-1.84-1.08c-0.33-0.22-0.62-0.51-1.08-0.44
		c-0.33,0.05-0.18-0.32-0.36-0.44c-0.41-0.28-0.84-0.5-1.05-1.03c-0.07-0.17-0.43-0.26-0.65-0.49c-0.39-0.42-0.7-0.93-1.21-1.25
		c-0.49-0.3-0.5-0.98-0.99-1.29c0.34-0.55-0.64-1-0.12-1.56c0.02-0.02,0.01-0.1,0.01-0.1c-0.24-0.03-0.6-0.2-0.48-0.35
		c0.36-0.46,0.07-1.1,0.5-1.53c0.27-0.27,0.5-0.52,0.91-0.34c0.39,0.17,0.56,0,0.6-0.37c0.02-0.14-0.04-0.32,0.18-0.33
		c0.14,0,0.31-0.05,0.37,0.16c0.1,0.35,0.3,0.25,0.54,0.16c0.53-0.22,0.99,0.03,1.01,0.58c0.02,0.61,0.41,0.96,0.72,1.43
		c0.25,0.38,0.88,0.74,0.79,1.01c-0.27,0.75,0.45,0.7,0.66,1.03c0.26,0.43,0.65,0.73,1.12,0.94c0.33,0.15,0.53,0.48,0.75,0.76
		c0.27,0.34,0.58,0.64,1.07,0.5c0.42-0.12,0.51,0.29,0.76,0.43c0.36,0.22,0.58,0.82,1.16,0.31c0.14-0.13,1.25,0.71,1.32,0.97
		c0.06,0.27,0.22,0.09,0.3,0.05c0.33-0.18,0.64-0.3,0.98,0c0.26,0.23,0.79-0.03,0.94,0.47c0.01,0.05,0.11,0.13,0.11,0.13
		c0.48-0.35,0.97,0.15,1.5-0.05c0.3-0.11,0.86-0.27,1.2,0.22c0.13,0.19,0.49,0.02,0.59-0.26c0.05-0.14,0.15-0.12,0.25-0.14
		c0.28-0.06,0.41,0.12,0.54,0.46c0.14-0.52,0.39-0.67,0.84-0.77c0.59-0.13,1.12-0.53,1.72-0.84c-0.39-0.47-0.63-1.04-1.2-1.38
		c-0.18-0.11-0.43-0.36-0.22-0.7c0.15-0.25-0.16-0.37-0.24-0.53c-0.23-0.47-0.2-1-0.38-1.48c-0.08-0.22,0.03-0.51-0.24-0.68
		c-0.07-0.05-0.06-0.19,0.03-0.22c0.66-0.2,0.33-0.61,0.22-0.97c-0.04-0.12-0.14-0.28-0.09-0.35c0.54-0.83-0.15-1.7,0.06-2.47
		c0.11-0.41,0.14-0.87,0.28-1.29c0.18-0.56,0.47-1.1,0.58-1.67c0.05-0.26,0.12-0.4,0.3-0.54c0.38-0.29,0.65-0.69,0.84-1.1
		c0.19-0.43,0.56-0.58,0.87-0.83c0.06-0.05,0.19-0.13,0.22-0.1c0.77,0.57,1.3-0.36,1.99-0.32c0.71,0.04,1.49-0.3,2.07-0.16
		c0.76,0.17,1.65,0.21,2.3,0.77c0.14,0.12,0.27,0.08,0.41,0.07c0.17-0.02,0.36-0.05,0.45,0.13c0.16,0.33,0.44,0.47,0.76,0.51
		c0.6,0.07,0.48,0.79,0.94,0.99c0.12,0.05-0.05,0.15-0.15,0.17c-0.16,0.03-0.11,0.14-0.1,0.24c0.01,0.11,0.08,0.11,0.18,0.11
		c0.68-0.05,1.02,0.18,1,0.86c-0.01,0.53,0.3,0.93,0.39,1.42c0.04,0.23,0.15,0.41,0.01,0.64c-0.06,0.1-0.05,0.2,0.03,0.29
		c0.55,0.63,0.42,1.35,0.36,2.09c-0.04,0.58,0.07,1.17-0.31,1.69c-0.09,0.12,0.05,0.28,0.11,0.41c0.08,0.2,0.09,0.39-0.17,0.45
		c-0.27,0.06-0.26,0.24-0.23,0.43c0.02,0.17,0,0.3-0.18,0.35c-0.44,0.13-0.38,0.37-0.14,0.65c0.1,0.12,0.11,0.2-0.04,0.3
		c-0.36,0.23-0.44,0.61-0.56,1c-0.07,0.23-0.44,0.39-0.58,0.69c-0.11,0.24,0.07,0.97,0.34,1.02c0.31,0.06,0.5,0.13,0.34,0.48
		c-0.01,0.03,0,0.08-0.01,0.12c0.31-0.1,0.63-0.02,0.87,0.13c0.27,0.16,0.46,0.39,0.72,0.01c0.06-0.08,0.2-0.25,0.26-0.03
		c0.1,0.34,0.38,0.28,0.6,0.32c0.66,0.14,1.32,0.36,1.95,0.46c0.46,0.07,1.13,0.3,1.64-0.11c0.09-0.08,0.33-0.09,0.32,0.03
		c-0.07,0.7,0.38,0.34,0.64,0.31c0.2-0.02,0.37-0.02,0.53,0.11c0.06,0.05,0.15,0.16,0.19,0.14c0.66-0.29,1.31,0.22,1.96,0.03
		c0.24-0.07,0.49-0.13,0.73,0.04c0.09,0.06,0.25,0.08,0.28-0.02c0.12-0.43,0.37-0.13,0.57-0.12c0.02,0,0.04,0.01,0.06,0
		c0.74-0.29,1.42,0.24,2.14,0.18c0.4-0.03,0.96,0.31,1.08-0.45c0.01-0.09,0.18-0.11,0.28-0.06c0.43,0.21,1.32,0.41,1.7,0.45
		c0.24,0.02,0.11-0.1,0.11-0.17c-0.01-0.13,0.05-0.2,0.16-0.24c1.38-0.45,2.41-1.4,3.43-2.37c0.29-0.27,0.27-0.41-0.05-0.61
		c-0.36-0.22-0.5-0.55-0.46-0.98c0.03-0.32-0.35-0.49-0.5-0.66c-0.5-0.56-0.03-0.59,0.26-0.77c0.03-0.02,0.05-0.06,0.1-0.13
		c-0.25-0.28-0.75-0.15-0.94-0.54c-0.08-0.16-0.23-0.21,0-0.38c0.3-0.22,0.25-0.51,0.03-0.77c-0.21-0.24-0.13-0.52-0.18-0.79
		c-0.21-1.17,0.27-2.28,0.2-3.44c-0.06-1,0.51-1.84,0.93-2.71c0.37-0.77,0.86-1.45,1.29-2.17c0.28-0.47,0.91-0.53,1.07-1.11
		c0.04-0.16,0.28,0.02,0.3,0.22c0.03,0.37,0.17,0.31,0.35,0.09c0.46-0.57,1.03-0.91,1.77-1.02c0.36-0.05,0.64-0.46,1.06-0.35
		c0.1,0.23-0.34,0.16-0.16,0.43c1-0.05,1.96,0.05,2.96,0.42c0.74,0.28,1.37,0.72,2.04,1.07c0.35,0.19,0.56,0.74,1.03,0.92
		c0.02,0.01,0.05,0.03,0.05,0.04c-0.22,1.09,1.04,1.75,0.81,2.84c-0.02,0.08,0,0.11,0.08,0.13c0.75,0.21-0.03,0.35-0.04,0.58
		c0.48-0.09,0.56,0.12,0.62,0.57c0.08,0.67-0.15,1.32-0.02,1.98c0.05,0.24-0.37,0.2-0.39,0.61c-0.02,0.42-0.24,0.98-0.32,1.41
		c-0.14,0.75-0.49,1.31-0.92,1.84c-0.37,0.46-0.47,1.19-1.34,1.27c0.4,0.24,0.42,0.42,0.1,0.66c-0.3,0.22-0.49,0.56-0.73,0.84
		c-0.29,0.35,0.14,0.59,0.41,0.73c0.2,0.11,0.56,0.01,0.34,0.43c0.34-0.06,0.34,0.6,0.82,0.33c0.39-0.22,0.83-0.21,1.08,0.29
		c0.04,0.07,0.13,0.19,0.15,0.18c0.76-0.29,1.41,0.51,2.17,0.22c0.24-0.09,0.07,0.33,0.34,0.34c0.4,0,0.77,0.31,1.21,0.01
		c0.25-0.17,0.5,0.3,0.88,0.13c0.38-0.17,0.8-0.12,1.22,0.05c0.31,0.12,0.66,0.21,0.98-0.14c0.39-0.45,0.34,0.32,0.63,0.28
		c0.31-0.04,0.11-0.6,0.54-0.49c0.04,0.01,0.09,0.05,0.09,0.08c0,0.78,0.49,0.3,0.79,0.31c0.17,0,0.33,0.02,0.5,0.04
		c0.13,0.01,0.34,0.08,0.36,0.04c0.49-0.89,0.92,0.09,1.38,0.03c0.04-0.01,0.11,0.05,0.11,0.04c0.41-0.57,1.34-0.02,1.67-0.75
		c0.07-0.14,0.15-0.2,0.29-0.16c0.11,0.03,0.18,0.13,0.17,0.24c-0.07,0.43,0.15,0.39,0.37,0.2c0.52-0.43,1.34-0.31,1.75-0.97
		c0.06-0.1,0.36-0.11,0.54-0.08c0.64,0.1,1.14-0.24,1.68-0.46c0.56-0.24,1.09-0.57,1.73-0.57c0.43,0,0.81-0.1,1.13-0.45
		c0.25-0.26,0.54-0.52,0.96-0.57c0.4-0.05,0.47-0.39,0.45-0.72c-0.03-0.3,0.08-0.66-0.42-0.77c-0.4-0.08-0.47-0.41-0.12-0.66
		c0.23-0.16,0.25-0.31,0.16-0.52c-0.12-0.28-0.2-0.56,0.09-0.8c0.19-0.16,0.06-0.3-0.05-0.35c-0.5-0.21-0.24-0.56-0.22-0.9
		c0.03-0.48,0.33-1-0.15-1.49c-0.05-0.05-0.03-0.76,0.11-1.02c0.38-0.71,0.31-1.52,0.61-2.25c0.24-0.59,0.46-1.21,0.77-1.76
		c0.35-0.63,0.65-1.37,1.39-1.63c0.54-0.19,0.64-0.76,1.05-1.03c0.26,0.21-0.21,0.32-0.01,0.49c0.82-0.36,0.82-0.36,0.82-0.74
		c0.64,0.07,1.29,0.27,1.84-0.31c0.11-0.12,0.32-0.16,0.35,0.04c0.06,0.44,0.32,0.35,0.6,0.29c0.6-0.13,1.29,0.14,1.81-0.4
		c0.02-0.02,0.11-0.03,0.12-0.02c0.18,0.69,0.87,0.37,1.28,0.62c0.46,0.28,1.05,0.32,1.58,0.56c0.46,0.21,0.45,0.44,0.29,0.77
		c-0.11,0.23-0.11,0.39,0.03,0.63c0.45,0.75,0.81,1.48,0.92,2.43c0.08,0.74-0.16,1.39-0.08,2.09c0.02,0.2-0.08,0.4,0.11,0.58
		c0.21,0.21,0.24,0.43-0.07,0.62c-0.07,0.04-0.12,0.17-0.13,0.27c-0.07,0.92-0.6,2.35-0.89,3.2c-0.25,0.74-0.71,0.99-1.36,1.12
		c-0.11,0.02-0.26,0.07-0.21,0.18c0.22,0.45-0.24,0.27-0.36,0.37c0.04,0.32,0.44,0.05,0.48,0.35c-0.09,0.2-0.3,0.18-0.43,0.15
		c-0.53-0.14-0.8,0.07-1.03,0.55c-0.13,0.27-0.46,0.43-0.24,0.79c0.28,0.45,0.34,1.11,1.03,1.17c0.37,0.03,0.59,0.17,0.68,0.52
		c0.09,0.33,0.38,0.43,0.64,0.57c0.51,0.28,1.12,0.42,1.42,1c0.09,0.18,0.16,0.12,0.33,0.02c0.39-0.22,0.77-0.47,1.25-0.03
		c0.33,0.3,0.94,0.17,1.27,0.57c0.36-0.57,0.58,0.05,0.87,0.09c0.46,0.08,0.94,0.49,1.38-0.07c0.03-0.04,0.41-0.35,0.38,0.14
		c-0.01,0.17,0.1,0.18,0.26,0.13c0.73-0.22,1.46-0.05,2.18-0.07c0.71-0.02,1.51-0.08,2.22-0.37c0.6-0.24,1.18-0.5,1.8-0.7
		c0.98-0.31,1.9-0.87,2.89-1.11c0.75-0.18,1.3-0.71,2.01-0.92c0.37-0.11,0.79,0.21,1.14-0.17c0.1-0.1,0.27-0.03,0.17-0.32
		c-0.1-0.28,0.28-0.41,0.5-0.57c0.14-0.11,0.41-0.19,0.34-0.4c-0.07-0.2-0.23-0.43-0.51-0.39c-0.16,0.02-0.3,0.06-0.33-0.15
		c-0.03-0.21,0.04-0.36,0.27-0.44c0.42-0.14,0.4-0.32,0.04-0.53c-0.37-0.22-0.46-0.52-0.39-0.95c0.1-0.62,0.13-1.25,0.17-1.88
		c0.01-0.12,0-0.28-0.06-0.37c-0.18-0.23-0.04-0.43-0.04-0.64c0-0.7,0.43-1.2,0.59-1.81c0.11-0.43,0.27-0.85,0.32-1.3
		c0.01-0.14,0.09-0.31,0.19-0.39c0.73-0.57,0.92-1.44,1.3-2.21c0.11-0.23,0.17-0.48,0.5-0.5c0.29-0.01,0.4-0.28,0.46-0.46
		c0.2-0.54,0.76-0.71,1.06-1.14c0.05-0.07,0.21-0.12,0.29-0.09c0.53,0.17,0.94-0.16,1.39-0.31c0.48-0.16,0.9-0.73,1.48-0.15
		c0.14,0.14,0.37-0.15,0.57-0.2c0.23-0.06,0.48-0.4,0.65,0.07c0.64-0.36,1.21,0.65,1.87,0.11c0.11-0.09,0.24-0.06,0.33,0.06
		c0.7,0.96,1.78,1.19,2.83,1.46c-0.05,0.13-0.11,0.28-0.14,0.43c-0.03,0.15,0.16,0.29,0.21,0.25c0.85-0.66,0.71,0.9,1.39,0.61
		c-0.39,0.44,0.41,0.64,0.21,1.07c-0.13,0.27,0.14,0.51,0.2,0.77c0.03,0.12,0.19,0.22,0.12,0.34c-0.42,0.69,0.07,0.4,0.37,0.31
		c0.02,0.28-0.44,0.4-0.23,0.73c0.03,0.05-0.07,0.22,0.02,0.2c0.81-0.21,0.09,0.51,0.37,0.6c-0.15,0.44,0.1,0.93-0.18,1.35
		c-0.12,0.18-0.12,0.44-0.42,0.49c-0.09,0.02-0.23,0.21-0.21,0.29c0.15,0.59-0.37,0.97-0.45,1.47c-0.03,0.2-0.2,0.19-0.32,0.25
		c-0.21,0.11-0.37,0.21-0.37,0.51c0,0.32-0.61,0.88-0.95,0.97c-0.13,0.03-0.26,0.09-0.29,0.22c-0.07,0.39-0.26,0.42-0.58,0.26
		c-0.33-0.16-0.43,0.01-0.36,0.32c0.05,0.21,0.37,0.56-0.22,0.32c-0.41,0.81-1.82,0.39-1.84,1.57c-0.33,0.03-0.15-0.42-0.43-0.31
		c-0.15,0.06-0.15,0.24-0.13,0.39c0.03,0.23-0.11,0.23-0.29,0.29c-0.72,0.24-0.95,1-0.53,1.61c0.04,0.05,0.11,0.11,0.1,0.15
		c-0.2,0.97,0.67,0.73,1.1,0.98c0.35,0.2,0.92,0.15,0.92,0.78c0,0.15,0.16,0.26,0.31,0.27c0.56,0.05,0.98,0.47,1.52,0.59
		c0.52,0.12,1.04,0.21,1.41,0.69c0.16,0.2,0.49-0.16,0.65,0c0.57,0.56,1.21,0.3,1.86,0.33c0.25,0.01,0.82-0.21,1.02,0.37
		c0.03,0.09,0.56,0.13,0.77,0.02c0.54-0.27,1.02-0.13,1.52,0.06c0.21,0.08,0.44,0.06,0.62-0.03c0.34-0.17,0.64-0.14,0.94,0.07
		c0.19-0.15-0.03-0.46,0.26-0.54c0.3-0.08,0.26,0.2,0.37,0.33c0.26,0.29,0.91,0.24,1.1-0.11c0.08-0.13,0.02-0.39,0.26-0.36
		c0.28,0.03,0.09,0.32,0.2,0.52c0.34-0.58,0.73-0.94,1.46-0.7c0.4,0.14,0.78,0.05,1.13-0.34c0.48-0.54,1.29-0.52,1.89-0.88
		c0.64-0.4,1.38-0.58,2.05-0.93c0.53-0.27,1.07-0.91,1.48-0.84c0.85,0.15,1.06-0.94,1.82-0.7c0.33-0.51,1.04-0.49,1.36-1.06
		c0.24-0.44,0.74-0.59,1.54-0.67c-0.13-0.55,0.54-1.23,1.11-1.09c0.11,0.03,0.27,0.06,0.27-0.03c0-0.46,0.73-0.94,0.22-1.28
		c-0.63-0.42-1.02-0.86-1.03-1.61c-0.56-0.1-0.54-0.5-0.61-0.94c-0.04-0.23-0.4-0.41-0.63-0.6c-0.09-0.08-0.31-0.16-0.23-0.25
		c0.48-0.58,0.06-1.11-0.15-1.56c-0.32-0.69-0.04-1.3,0-1.94c0.01-0.11,0.16-0.22-0.03-0.3c-0.21-0.1-0.35-0.22-0.29-0.48
		c0.08-0.37,0.43-0.01,0.59-0.27c-0.47-0.3-0.39-0.65-0.12-1.1c0.37-0.62,0.42-1.4,0.86-1.99c0.43-0.59,0.7-1.3,1.34-1.72
		c0.18-0.12,0.18-0.33,0.3-0.47c0.31-0.37,0.63-0.74,1.16-0.21c0.14-0.58,0.14-1.19,0.88-1.32c0.62-0.1,1.24-0.25,1.84-0.44
		c0.47-0.15,0.92-0.3,1.41-0.21c0.32,0.06,0.51-0.12,0.69-0.35c0.17-0.22,0.33-0.42,0.52,0.03c0.11,0.25,0.4,0.53,0.59-0.02
		c0.02-0.06,0.14-0.08,0.21-0.12c0.31,0.57,0.79,0.23,1.22,0.23c0.32,0,0.27,0.3,0.31,0.51c0.28-0.13,0.59-0.8,0.74,0.05
		c0.59,0.07,0.68,0.88,1.33,0.88c0.26,0,0.52,0.23,0.49,0.42c-0.08,0.53,0.63,0.85,0.31,1.41c-0.02,0.03,0.07,0.15,0.13,0.19
		c0.6,0.39,0.57,1.03,0.65,1.62c0.03,0.19-0.08,0.47,0.3,0.36c0.11-0.03,0.22,0.02,0.23,0.15c0.01,0.46,0.17,0.96,0.08,1.35
		c-0.09,0.39,0.2,0.96-0.36,1.21c0.43,0.31-0.01,0.79,0.23,1.14c0.08,0.11,0.16,0.26,0.03,0.33c-0.54,0.28-0.42,0.54-0.03,0.84
		c0.08,0.06,0.06,0.14-0.05,0.19c-0.34,0.16-0.26,0.32-0.01,0.5c0.15,0.11,0.26,0.31,0.03,0.4c-0.54,0.22-0.58,0.72-0.74,1.15
		c-0.07,0.19-0.09,0.39-0.35,0.48c-0.3,0.11-0.25,0.14-0.21,0.55c0.02,0.17-0.11,0.45-0.38,0.4c-0.27-0.05-0.45,0.02-0.59,0.24
		c0.13,0.18,0.53-0.05,0.52,0.32c-0.01,0.22-0.26,0.21-0.88-0.04c0,0.4,0.04,0.81-0.48,0.95c-0.11,0.03-0.37,0.19-0.27,0.43
		c0.1,0.26-0.03,0.33-0.24,0.4c-0.39,0.14-0.53,0.57-0.38,0.82c0.18,0.3,0.02,0.89,0.69,0.87c0.45-0.01,0.58,0.51,0.62,0.8
		c0.07,0.5,0.3,0.56,0.68,0.46c0.43-0.11,0.68,0.19,0.95,0.4c0.28,0.22,0.07,0.44-0.2,0.74c0.59-0.24,0.98-0.01,1.37,0.2
		c0.26,0.14,0.52,0.28,0.83,0.28c0.14,0,0.22,0.02,0.3,0.16c0.21,0.37,0.4,0.88,0.98,0.41c0.02-0.01,0.09,0,0.11,0.02
		c0.25,0.42,0.7,0.34,1.06,0.49c0.58,0.24,1.23,0.21,1.74,0.54c0.34,0.22,0.39-0.33,0.77-0.13c0.45,0.24,1.11-0.01,1.47,0.57
		c0.01,0.02,0.18,0,0.23-0.05c0.34-0.31,0.63-0.12,0.89,0.09c0.23,0.19,0.4,0.47,0.53-0.08c0.04-0.19,0.21-0.06,0.29,0.02
		c0.27,0.27,0.54,0.42,0.87,0.1c0.14-0.13,0.25-0.11,0.36,0.06c0.23,0.35,0.57,0.35,0.95,0.33c0.72-0.03,1.47-0.04,2.17-0.11
		c1.09-0.12,2.14-0.56,3.2-0.86c0.15-0.77,1.06-0.5,1.47-1.07c0.26-0.36,1.04-0.57,1.69-0.41c-0.16-0.36,0.2-0.75,0.62-0.7
		c0.08,0.01,0.21,0.09,0.23,0.07c0.35-0.43,0.46-1.03,1-1.36c0.08-0.05-0.25-0.5-0.44-0.75c-0.33-0.43-0.69-0.82-0.91-1.38
		c-0.14-0.35-0.47-0.71-0.59-1.16c-0.08-0.3-0.11-0.59,0.03-0.92c-0.62,0.29-0.74,0.24-0.68-0.36c0.05-0.52-0.06-1.06,0.09-1.54
		c0.1-0.33-0.2-0.3-0.26-0.42c-0.22-0.46,0.28-0.93-0.12-1.38c-0.14-0.16,0.34-0.37,0.55-0.55c-0.69-0.62,0.31-1.47-0.44-2.13
		c1.03,0.12,0.72-0.65,0.82-1.04c0.07-0.27,0.01-0.56,0.25-0.79c0.06-0.05,0.11-0.16,0.1-0.23c-0.1-0.8,0.49-1.3,0.82-1.91
		c0.26-0.49,0.73-0.79,1.05-1.19c0.42-0.53,0.89-0.99,1.36-1.45c0.42-0.41,1.01-0.63,1.42-1.08c0.02-0.02,0.1-0.04,0.12-0.02
		c0.58,0.69,0.67-0.06,0.94-0.31c0.24-0.22,0.42-0.09,0.56,0.14c0.17-0.13,0.17-0.33,0.26-0.5c0.07-0.14,0.21-0.31,0.33-0.21
		c0.35,0.32,0.77,0.25,1.17,0.34c0.4,0.09,0.78,0.26,1.19,0.08c0.17-0.07,0.37-0.07,0.46,0.1c0.27,0.51,0.99,0.24,1.26,0.78
		c0.07,0.13,0.34-0.21,0.62-0.1c-0.37,0.28-0.16,0.49,0.11,0.57c0.28,0.08,0.5,0.18,0.66,0.42c0.15,0.21,0.71,0.01,0.55,0.58
		c-0.03,0.09,0.55,0.19,0.42,0.61c-0.01,0.03,0.11,0.14,0.18,0.15c0.32,0.05,0.42,0.14,0.49,0.53c0.07,0.36,0.56,0.69,0.93,0.94
		c0.18,0.12,0.21,0.06,0.17,0.34c-0.09,0.56,0.16,1.13,0.37,1.67c0.12,0.32,0.44,0.6,0.2,1c-0.02,0.04-0.02,0.13,0.01,0.16
		c0.84,0.86,0.51,1.93,0.48,2.93c-0.01,0.23-0.05,0.45,0.03,0.66c0.09,0.26-0.01,0.45-0.2,0.62c-0.13,0.12-0.27,0.24-0.15,0.43
		c0.1,0.17,0.27-0.07,0.44,0.06c-0.21,0.27-0.2,0.66-0.67,0.79c-0.37,0.1-0.11,0.42-0.05,0.64c0.08,0.28,0.43,0.71-0.3,0.56
		c-0.21-0.04-0.18,0.1-0.14,0.23c0.07,0.21-0.01,0.45-0.18,0.48c-0.64,0.1-0.42,0.78-0.78,1.07c-0.1,0.08-0.08,0.23,0.01,0.34
		c0.12,0.15,0.03,0.3-0.1,0.24c-0.54-0.27-0.5,0.18-0.62,0.45c-0.06,0.15-0.08,0.34-0.31,0.32c-0.12-0.01-0.25,0.04-0.25,0.15
		c0.05,0.69-0.17,0.74-0.67,0.32c-0.05-0.04-0.37,0.15-0.5,0.29c-0.23,0.27,0.31,0.29,0.22,0.55c-0.62-0.07-0.94,0.3-0.76,0.9
		c0.03,0.11,0.22,0.28,0.23,0.28c0.4-0.29,0.68,0.34,1.06,0.13c0.06-0.03,0.2-0.01,0.24,0.04c0.35,0.42,0.91,0.29,1.34,0.52
		c0.32,0.17,0.73,0.45,1.06-0.04c0.07-0.11,0.22-0.07,0.28,0.01c0.48,0.54,1.08,0.07,1.61,0.19c0.6,0.14,1.23,0.2,1.82,0.09
		c0.35-0.07,0.78,0.08,0.98-0.02c0.65-0.32,1.29-0.3,1.97-0.29c0.31,0,0.51-0.77,0.94-0.15c0,0.01,0.13-0.04,0.15-0.08
		c0.3-0.68,0.88-0.42,1.38-0.42c0.46,0,0.51-0.49,0.84-0.69c0.39-0.24,0.67-0.27,1.12-0.04c-0.2-0.46,0.03-0.59,0.38-0.63
		c0.21-0.03,0.41-0.04,0.59-0.19c0.12-0.1,0.53-0.01,0.21-0.36c-0.01-0.01,0.05-0.15,0.08-0.14c0.51,0.04,0.6-0.63,1.23-0.58
		c-1.3-1.2-2.24-2.55-3.36-3.77c0.26-0.15,0.39,0.19,0.59,0.02c0.06-0.4-0.38-0.56-0.49-0.9c-0.05-0.17-0.26,0.03-0.34,0.13
		c-0.11,0.14-0.19,0.15-0.3,0.02c-0.08-0.09-0.26-0.19-0.14-0.3c0.32-0.32,0.32-0.99,1.07-0.88c-0.34-0.34-0.6-0.15-1.04,0.07
		c0.43-0.51,0.15-0.93,0.23-1.25c0.14-0.56-0.2-1.09,0.04-1.62c0.09-0.2,0-0.41,0-0.62c0-0.29-0.13-0.65,0.31-0.79
		c0.07-0.02,0.14-0.16,0.16-0.25c0.21-1.06,0.87-1.87,1.36-2.79c0.73-1.37,1.92-2.17,3.03-3.11c0.28-0.23,0.65-0.29,0.93-0.31
		c0.71-0.04,1.13-0.37,1.38-1c0.19,0.23,0.34,0.41,0.52,0.63c0.09-0.44,0.25-0.59,0.52-0.17c0.18,0.29,0.43,0.34,0.61,0.09
		c0.36-0.47,0.76-0.2,1.06-0.04c0.25,0.13,0.49,0.26,0.76,0.25c0.68-0.02,1.07,0.33,1.34,0.9c0.05,0.11,0.16,0.28,0.23,0.27
		c1.15-0.03,0.54,1.07,1.2,1.45c0.36-0.06,0.39-0.05,0.45,0.54c0.01,0.08,0.02,0.13,0.08,0.14c0.65,0.17,0.65,0.84,0.86,1.27
		c0.11,0.24,0.08,0.72,0.17,1.07c0.18,0.75,0.5,1.48,0.62,2.25c0.1,0.62,0.14,1.27-0.13,1.9c-0.15,0.35-0.32,0.74,0.11,1.06
		c0.15,0.11,0.17,0.29,0.1,0.46c-0.13,0.34-0.17,0.69-0.08,1.05c0.01,0.06,0,0.13,0,0.19c-0.03,0.4-0.43,0.34-0.65,0.52
		c-0.24,0.19,0.4,0.29-0.01,0.69c-0.39,0.37-0.65,0.96-1.11,1.35c-0.02,0.02-0.02,0.13,0.01,0.16c0.26,0.22,0.05,0.36-0.1,0.43
		c-0.26,0.11-0.07-0.31-0.29-0.29c-0.09,0.16-0.19,0.31-0.27,0.48c-0.05,0.09-0.1,0.2-0.09,0.29c0.05,0.32,0.97,0.97,1.29,0.93
		c0.47-0.06,0.87-0.16,1.21,0.42c0.23,0.4,0.87,0.32,1.35,0.21c0.23-0.05,0.45-0.22,0.51,0.17c0.02,0.13,0.13,0.16,0.24,0.16
		c1.17,0.02,2.31,0.38,3.49,0.3c0.84-0.06,1.68-0.17,2.51-0.28c0.13-0.02,0.26-0.13,0.38-0.21c0.09-0.06,0.17-0.22,0.23-0.2
		c0.7,0.18,0.74-0.49,1.08-0.79c0.41-0.36,0.89-0.66,1.49-0.56c0.14,0.02,0.2-0.02,0.22-0.15c0.08-0.45,0.38-0.68,0.8-0.79
		c0.2-0.05,0.3-0.21,0.4-0.38c0.11-0.2,0.29-0.28,0.53-0.27c0.51,0.02,0.75-0.27,0.91-0.73c0.2-0.6,0.06-0.88-0.58-1.04
		c-0.63-0.16-0.27-0.68-0.27-1.07c-0.58,0.04-0.98-0.41-0.74-0.94c0.18-0.39-0.01-0.73-0.19-0.84c-0.43-0.26-0.46-0.73-0.73-1.06
		c-0.03-0.03-0.06-0.1-0.06-0.11c0.64-0.62-0.09-1.09-0.19-1.63c-0.02-0.11,0.01-0.15,0.11-0.17c0.61-0.14,0.33-0.53,0.19-0.82
		c-0.29-0.62-0.31-0.61,0.32-0.93c-0.02-0.03-0.03-0.08-0.06-0.1c-0.19-0.17-0.53-0.02-0.67-0.29c-0.18-0.35,0.29-0.25,0.35-0.49
		c0.14-0.58,0.71-1.11,0.16-1.75c-0.08-0.09,0.02-0.18,0.06-0.28c0.17-0.36,0.1-0.62-0.42-0.66c0.76-0.16,0.5-0.74,0.59-1.17
		c0.14-0.65,0.38-1.27,0.95-1.68c0.22-0.16-0.01-0.43,0.24-0.59c0.29-0.18,0.69-0.15,0.81-0.73c0.06-0.32,0.8-0.7,1.45-0.78
		c0.73-0.09,1.5-0.06,2.2-0.39c0.09-0.04,0.22-0.06,0.31-0.03c0.62,0.26,1.64,0.31,2.25,0.2c0.28-0.05,0.57,0.17,0.91,0.16
		c0.43-0.01,0.72,0.55,1.29,0.31c0.26-0.11,0.47,0.33,0.41,0.63c-0.06,0.3,0.07,0.41,0.27,0.29c0.33-0.19,0.29-0.28,0.48,0.2
		c0.3,0.73,0.45,1.5,0.79,2.21c0.45,0.92,0.36,1.98,0.65,2.95c-0.68,0.87,0.44,2-0.43,2.84c0.33,0.27-0.52,0.66,0.09,0.91
		c0.01,0,0,0.1-0.02,0.11c-0.78,0.28-0.39,1.03-0.61,1.53c-0.24,0.55-0.42,1.13-0.38,1.76c0,0.06-0.02,0.14-0.06,0.18
		c-0.7,0.53-0.71,1.39-1.01,2.11c-0.22,0.54-0.21,1.04-0.1,1.58c0.04-0.15,0.09-0.3,0.19-0.64c0.14,0.86,0.66,1.06,1.27,1.14
		c-0.22,0.18-0.47,0.36,0.02,0.45c0.16,0.03,0.32,0.09,0.49,0.11c0.55,0.05,0.73,0.32,0.52,0.88c0.34-0.54,0.78-0.4,1.23-0.23
		c0.45,0.17,1.01,0.04,1.38,0.48c0.08,0.09,0.22-0.04,0.32-0.13c0.1-0.09,0.23-0.16,0.31,0.01c0.26,0.54,0.74,0.44,1.16,0.37
		c0.35-0.05,0.64-0.04,0.97,0.1c0.72,0.31,1.49,0.09,2.22,0.01c0.71-0.08,1.4,0.01,2.1,0c0.45-0.01,0.89,0.07,1.2-0.35
		c0.12-0.16,0.25-0.1,0.39-0.04c0.67,0.32,1.11-0.03,1.66-0.4c0.56-0.37,1.13-1.06,2.05-0.56c-0.46-0.2-0.44-0.5-0.36-0.85
		c0.05-0.23,0.06-0.54-0.15-0.64c-0.43-0.19-0.37-0.41-0.06-0.71c-0.67,0.09-0.8,0.09-0.79-0.76c0.01-0.85-0.26-1.58-0.58-2.3
		c-0.13-0.3,0.14-0.8-0.41-0.91c-0.01,0-0.02-0.09,0-0.12c0.76-0.86,0.04-1.89,0.33-2.8c-0.57-0.55,0-1.03,0.09-1.54
		c0.06-0.36,0.27-0.67,0.04-1.07c-0.2-0.35,0.43-0.53,0.34-0.94c-0.02-0.09,0.22-0.2,0.07-0.32c-0.38-0.32-0.05-0.54,0.15-0.62
		c0.39-0.15,0.48-0.48,0.58-0.78c0.28-0.9,1.04-1.41,1.59-2.09c0.34-0.41,0.95-0.56,1.12-1.16c0.07-0.24,1.25-0.54,1.54-0.45
		c0.07-0.12-0.13-0.24,0.04-0.37c0.03,0.01,0.09,0.01,0.13,0.04c0.11,0.12,0.12,0.38,0.4,0.14c0.71-0.6,1.58-0.6,2.44-0.6
		c0.1,0,0.22,0.09,0.3,0.06c0.93-0.38,1.79,0,2.66,0.23c0.08,0.02,0.18,0.06,0.24,0.03c0.88-0.37,1.42,0.1,2.01,0.68
		c0.2,0.2,0.58,0.23,0.58,0.64c0,0.03,0.1,0.07,0.16,0.08c0.8,0.12,1,0.4,1.06,1.36c0.01,0.17-0.13,0.55,0.37,0.41
		c0.24-0.07,0.37,0.2,0.36,0.47c-0.01,0.39-0.08,0.8,0.26,1.12c0.04,0.03,0.06,0.14,0.03,0.18c-0.47,0.71-0.1,1.27,0.29,1.84
		c0.11,0.17-0.08,0.26-0.13,0.38c-0.13,0.31-0.34,0.61,0.06,0.9c0.11,0.08,0.11,0.25,0.05,0.35c-0.32,0.58-0.18,1.3-0.59,1.84
		c-0.04,0.05-0.09,0.12-0.08,0.17c0.24,0.89-0.43,1.52-0.67,2.27c-0.08,0.26,0.21,0.5,0.06,0.73c-0.22,0.35-0.12,0.91-0.69,1.03
		c-0.07,0.02-0.14,0.16-0.17,0.26c-0.16,0.49-0.41,0.89-0.85,1.21c-0.22,0.15-0.42,0.41-0.32,0.81c0.08,0.34-0.29,0.42-0.52,0.31
		c-0.39-0.18-0.5-0.03-0.64,0.29c-0.08,0.18-0.22,0.34-0.45,0.47c-0.51,0.29-0.47,0.93-0.55,1.42c-0.1,0.63,0.15,0.74,0.76,0.46
		c0.1-0.05,0.21-0.13,0.29-0.05c0.4,0.43,0.96,0.49,1.47,0.64c1.58,0.46,3.07,0.17,4.49-0.62c0.14-0.08,0.27-0.22,0.35-0.36
		c0.21-0.38,0.38-0.59,0.58,0c0.02,0.07,0.1,0.16,0.16,0.16c0.13,0.01,0.16-0.11,0.17-0.22c0.04-0.34,0.11-0.66,0.45-0.92
		c0.14,0.37,0.33,0.64,0.7,0.24c0.11-0.11,0.2-0.1,0.03-0.32c-0.18-0.25,0.17-0.32,0.42-0.24c0.23,0.08,0.32,0.14,0.42-0.22
		c0.06-0.23,0.38-0.84,1.02-0.49c0.32,0.18,0.37-0.24,0.45-0.45c0.11-0.31,0.18-0.56,0.59-0.29c0.27,0.18,0.48-0.06,0.67-0.21
		c0.24-0.19-0.01-0.26-0.11-0.38c-0.14-0.17-0.08-0.23,0.13-0.29c0.46-0.12,1.13-1.11,1.12-1.6c0-0.11,0.02-0.23-0.15-0.19
		c-0.18,0.05-0.27-0.06-0.22-0.2c0.32-0.93-0.09-1.93,0.32-2.88c0.2-0.46-0.13-1.03-0.28-1.54c-0.07-0.23-0.13-0.41,0.01-0.65
		c0.35-0.64,0.3-1.37,0.41-2.07c0.03-0.22-0.1-0.45,0.15-0.63c0.11-0.08,0.13-0.3,0-0.31c-0.74-0.04-0.23-0.3-0.15-0.56
		c0.2-0.64,0.77-1.1,0.86-1.81c0.02-0.19,0.17-0.41,0.33-0.53c0.77-0.57,1.22-1.46,2.04-1.97c0.37-0.23,0.8-0.31,1.22-0.3
		c0.62,0.02,0.62,0.05,0.64-0.49c0.73-0.01,1.43,0.21,2.14,0.31c1.26,0.19,2.23,0.91,3.3,1.44c0.1,0.05,0.19,0.14,0.32,0.18
		c0.87,0.29,1.32,0.88,1.3,1.82c-0.01,0.38,0.3,0.65,0.37,1.03c0.07,0.33,0.4,0.61,0.16,1.01c-0.05,0.08,0.04,0.2,0.16,0.24
		c0.2,0.07,0.28,0.29,0.23,0.4c-0.25,0.46,0.09,0.9,0.01,1.36c-0.04,0.25-0.03,0.5-0.2,0.71c-0.26,0.33-0.29,0.62,0.35,0.81
		c-0.78,0.21-1.04,0.62-1.14,1.25c-0.06,0.41-0.32,0.84-0.66,1.13c-0.26,0.21-0.32,0.46-0.38,0.76c-0.06,0.33-0.25,0.64-0.02,0.97
		c-0.55,0.11-0.53,0.6-0.71,0.97c-0.08,0.16-0.31,0.28-0.36,0.49c-0.1,0.41-0.36,0.64-0.77,0.61c-0.4-0.03-0.29,0.41-0.53,0.5
		c-0.51,0.18-0.19,0.42-0.04,0.65c0.05,0.08,0.04,0.12-0.02,0.2c-0.24,0.34-0.31,0.75-0.36,1.17c0.48,0.04,1.06-0.29,1.23,0.56
		c0.04,0.21,0.79,0.32,1.22,0.38c0.15,0.02,0-0.34,0.12-0.49c0.18,0.06,0.22,0.21,0.25,0.35c0.05,0.19,0.3,0.34,0.36,0.28
		c0.51-0.45,0.78,0.17,1.16,0.23c0.39,0.06,0.77,0.24,1.15-0.04c0.1-0.07,0.32-0.1,0.42-0.04c0.97,0.61,2.04,0.33,3.08,0.39
		c0.38,0.02,0.76,0.05,1.12,0.15c0.69,0.19,1.41,0.01,2.06-0.05c0.81-0.08,1.58-0.03,2.37,0.04c0.16,0.02,0.29-0.05,0.39-0.17
		c0.06-0.06,0.16-0.18,0.17-0.17c0.72,0.48,1.29-0.19,1.94-0.22c0.11-0.01,0.24,0.08,0.34,0.14c0.06,0.04,0.09,0.13,0.14,0.2
		c0.47-0.43,1.03-0.07,1.52-0.17c0.36-0.07,0.64-0.03,0.89,0.15c0.31,0.22,0.07,0.48-0.06,0.72c-0.1,0.18-0.08,0.36,0.07,0.52
		c0.56,0.59,0.9,1.13,0.32,2.01c-0.2,0.29-0.34,0.71-0.65,0.99c0.17,0.18,0.4-0.13,0.53,0.15c-0.02,0.03-0.04,0.09-0.08,0.11
		c-0.52,0.31-1.25,0.15-1.65,0.73c-0.02,0.02-0.08,0.03-0.12,0.02c-0.78-0.24-0.63,0.47-0.81,0.82c-0.06,0.12,0.05,0.32-0.21,0.36
		c-0.24,0.04-0.32-0.02-0.28-0.25c0.01-0.1-0.04-0.18-0.15-0.1c-0.44,0.35-0.85,0-1.23-0.12c-0.26-0.08-0.46-0.1-0.69-0.01
		c-0.17,0.07-0.65-0.05-0.23,0.4c0.14,0.15-0.07,0.2-0.19,0.2c-0.24-0.01-0.44-0.09-0.63-0.25c-0.33-0.29-0.67-0.21-0.93,0.12
		c-0.09,0.12-0.26,0.2-0.31,0.15c-0.44-0.49-0.81-0.12-1.15,0.14c-0.15-0.24,0.06-0.39-0.02-0.58c-0.9,0.12-1.8,0.16-2.53-0.52
		c-0.22,0.2-0.03,0.39-0.07,0.57c-0.09,0.09-0.14-0.02-0.21-0.04c-0.58-0.17-0.99,0.44-1.43,0.4c-0.43-0.05-0.83-0.61-1.34-0.49
		c-0.38,0.08-0.54,0.23-0.37-0.29c0.04-0.12-0.14-0.23-0.27-0.18c-0.16,0.06-0.46,0.03-0.38,0.35c0.05,0.19-0.06,0.36-0.2,0.22
		c-0.27-0.26-0.44-0.23-0.68,0.01c-0.09,0.09-0.24-0.02-0.22-0.12c0.14-0.62-0.35-0.22-0.53-0.34c0.01-0.16,0.04-0.32,0.03-0.48
		c-0.01-0.12-0.11-0.18-0.23-0.16c-0.11,0.02-0.07,0.09-0.07,0.18c-0.01,0.32-0.33,0.53-0.51,0.49c-0.26-0.05-0.68-0.19-0.49-0.6
		c-0.68-0.07-1.37-0.01-1.88-0.63c-0.28-0.34-0.76-0.27-1.14-0.47c-0.3-0.17-0.44-0.33-0.53-0.6c-0.08-0.25-0.11-0.09-0.34-0.13
		c-0.57-0.11-1.14-0.33-1.66-0.6c-0.2-0.1-0.12-0.72-0.61-0.31c0,0-0.08-0.07-0.1-0.12c-0.25-0.55-0.54-0.54-0.86-0.06
		c-0.19,0.29-0.42,0.16-0.46-0.04c-0.07-0.37-0.31-0.32-0.54-0.34c-0.32-0.03-0.22,0.21-0.27,0.38c-0.1,0.3-0.3,0.16-0.45,0.04
		c-0.3-0.25-0.54-0.11-0.52,0.19c0.02,0.4-0.1,0.48-0.45,0.44c-0.25-0.02-0.37,0.13-0.43,0.37c-0.05,0.2-0.16,0.38-0.24,0.58
		c-0.34-0.37-0.34-0.37-0.54,0.02c-0.02,0.03-0.04,0.06-0.06,0.09c-0.47-0.43-0.66,0.27-1.03,0.25c-0.1,0-0.25-0.19-0.23,0.09
		c0.01,0.16,0.08,0.23,0.25,0.17c0.13-0.05,0.28-0.06,0.3,0.1c0.03,0.2-0.16,0.24-0.3,0.25c-0.14,0.01-0.29-0.03-0.43-0.05
		c-0.31-0.05-0.56,0-0.78,0.28c-0.24,0.31-0.5,0.6-0.81,0.85c-0.12,0.1-0.22,0.3-0.38,0.24c-0.21-0.09-0.08-0.29-0.03-0.44
		c0.03-0.1,0.07-0.19,0.08-0.33c-0.48,0.84-1.48,0.79-2.16,1.3c-0.53,0.39-1.06,0.03-1.09-0.63c-0.2,0.22-0.21,0.22-0.18,0.57
		c0.01,0.14-0.01,0.26-0.13,0.32c-0.11,0.06-0.23,0.09-0.35-0.02c-0.58-0.55-1.18-0.65-1.8-0.05c-0.11,0.11-0.18-0.03-0.27-0.07
		c-0.35-0.14-0.7-0.26-1.07-0.02c-0.3,0.19-0.68-0.17-0.76-0.13c-0.52,0.29-0.8-0.14-1.12-0.34c-0.34-0.21-0.63-0.49-1.06-0.46
		c-0.04,0-0.11,0-0.12-0.03c-0.42-0.72-1.25-0.7-1.87-1.07c-0.18-0.11-0.42-0.11-0.6-0.16c-0.46-0.14-0.58-0.71-0.9-0.74
		c-0.58-0.05-0.83-0.56-1.31-0.69c-0.12,0.16,0.13,0.24,0.06,0.43c-0.17,0.15-0.76-0.46-0.67,0.3c0,0.01-0.03,0.03-0.05,0.03
		c-0.49-0.09-0.98-0.01-1.47-0.03c-0.09,0-0.15-0.3-0.33-0.12c-0.1,0.1-0.05,0.24,0.07,0.33c0.17,0.13,0.19,0.32,0.08,0.45
		c-0.15,0.18-0.3,0.01-0.44-0.09c-0.21-0.14-0.47-0.08-0.58,0.05c-0.26,0.3-0.48,0.48-0.94,0.6c-0.43,0.11-0.7,0.11-1.01-0.11
		c-0.19,0.13-0.09,0.25-0.05,0.36c0.04,0.13-0.02,0.2-0.14,0.23c-0.12,0.02-0.25,0.09-0.37,0c-0.11-0.09-0.04-0.19,0.03-0.28
		c0.07-0.08,0.16-0.16,0.05-0.26c-0.08-0.08-0.17-0.12-0.27-0.02c-0.53,0.49-1.22,0.47-1.86,0.59c-0.23,0.04-0.43,0.16-0.63,0.3
		c-0.14-0.2-0.04-0.55-0.45-0.59c-0.13,0.21,0.04,0.65-0.39,0.71c-0.03-0.03-0.08-0.05-0.09-0.08c-0.07-0.2,0.16-0.52-0.16-0.6
		c-0.22-0.05-0.44,0.06-0.57,0.31c-0.13,0.26-0.27,0.26-0.37-0.03c-0.05-0.14-0.01-0.42-0.26-0.33c-0.27,0.1-0.01,0.27,0.01,0.41
		c0.01,0.08,0.01,0.16,0.02,0.34c-0.31-0.49-0.75-0.17-1.11-0.39c-0.5-0.31-0.51,0.4-0.88,0.62c0.08-0.53,0.05-0.82-0.53-0.45
		c-0.41,0.27-1.36-0.01-1.68-0.37c-0.25-0.28-0.64,0.22-0.86-0.28c-0.1,0.39,0.22,0.47,0.19,0.7c-0.49,0.07-0.47,0.06-0.56-0.35
		c-0.04-0.16-0.17-0.41-0.28-0.43c-0.21-0.03-0.48,0.04-0.59,0.29c-0.07,0.16-0.11,0.4-0.31,0.18c-0.39-0.45-1.07-0.32-1.4-0.66
		c-0.45-0.47-1.23-0.18-1.53-0.82c-0.09-0.19-0.16-0.04-0.23,0.01c-0.12,0.08-0.27,0.12-0.36,0.04c-0.39-0.35-1.12-0.29-1.3-0.8
		c-0.2-0.59-0.59-0.45-0.99-0.51c-0.42-0.07-0.58-0.66-0.96-0.68c-0.55-0.03-0.71-0.58-1.16-0.67c-0.46-0.09-0.94-0.25-1.27,0.28
		c-0.19,0.3-0.35,0.02-0.52-0.03c-0.13-0.04-0.27-0.22-0.4-0.07c-0.11,0.13,0.02,0.26,0.1,0.39c0.06,0.11,0.36,0.24,0.2,0.26
		c-0.3,0.04-0.26,0.65-0.71,0.34c-0.16-0.11-0.62-0.45-0.5,0.23c0.01,0.04-0.02,0.11-0.02,0.11c-0.66-0.15-0.81,0.93-1.58,0.63
		c-0.22-0.08-0.37,0.33-0.29,0.58c0.09,0.32,0,0.5-0.3,0.56c-0.58,0.11-1.07,0.42-1.47,0.79c-0.26,0.24-0.54,0.12-0.76,0.18
		c-0.58,0.16-0.53,0.87-1.07,0.98c-0.08,0.02-0.15,0.13-0.27,0.11c-0.83-0.13-1.67-0.25-2.5-0.38c-0.1-0.02-0.26-0.13-0.27,0
		c-0.11,0.79-0.51,0.21-0.65,0.1c-0.31-0.25-0.58-0.01-0.83-0.05c-0.42-0.06-0.58-0.02-0.6,0.4c0,0.04-0.08,0.11-0.13,0.12
		c-0.14,0.01-0.14-0.1-0.17-0.21c-0.11-0.41-0.44-0.36-0.58-0.11c-0.18,0.33-0.33,0.27-0.52,0.09c-0.15-0.15-0.34-0.17-0.53-0.18
		c-0.2-0.01-0.29-0.2-0.48-0.28c-0.11,0.22,0.14,0.91-0.56,0.36c-0.23-0.18-0.84-0.49-1.15-0.39c-0.75,0.23-1.14-0.34-1.69-0.51
		c-0.1-0.03-0.21-0.06-0.3-0.04c-0.93,0.19-1.58-0.24-2.11-0.95c-0.04-0.06-0.16-0.14-0.2-0.12c-0.85,0.49-1.37-0.29-2.01-0.54
		c-0.36-0.14-0.86-0.04-1.07-0.53c-0.03-0.07-0.21-0.06-0.29,0.02c-0.59,0.61-1.35,0.75-2.15,0.79c-0.07,0-0.21,0.1-0.2,0.12
		c0.17,0.57-0.47,0.59-0.62,0.93c-0.08,0.19-0.24,0.19-0.37,0.11c-0.63-0.42-0.74,0.1-0.89,0.49c-0.06,0.16-0.19,0.28-0.31,0.27
		c-0.51-0.02-0.94,0.38-1.52,0.21c-0.22-0.07-0.62,0.36-0.91,0.59c-0.19,0.15-0.35,0.32-0.61,0.22c-0.11-0.04-0.19-0.05-0.28,0.05
		c-0.52,0.6-1.15,0.91-1.96,0.8c-0.02,0-0.05,0.01-0.06,0.02c-0.46,0.86-0.82-0.05-1.22-0.1c-0.27,0.89-0.52,0.98-1.29,0.48
		c-0.04-0.02-0.07-0.08-0.1-0.07c-0.66,0.04-1.36-0.09-1.97,0.22c-0.38,0.19,0.25,0.3,0.13,0.54c-0.25,0.02-0.45-0.1-0.63-0.23
		c-0.32-0.23-0.61-0.57-0.99-0.08c-0.06,0.08-0.2,0.06-0.29-0.02c-0.18-0.17,0.03-0.33,0.08-0.52c-0.5,0.07-0.93,0.18-1.31,0.33
		c-0.57,0.22-0.7-0.36-1.12-0.4c-0.06,0.14-0.11,0.31-0.19,0.45c-0.15,0.25-0.28,0.54-0.56,0.05c-0.13-0.24-0.46-0.41-0.78-0.29
		c-0.46,0.17-0.91-0.32-1.36,0c-0.5-0.57-1.31-0.51-1.9-0.95c-0.3-0.22-0.74-0.65-1.22-0.24c-0.2-0.26,0.16-0.39,0.07-0.65
		c-0.48,0.1-0.83-0.15-1.26-0.35c-0.5-0.24-1.07-0.52-1.66-0.6c-0.13-0.02-0.22,0.11-0.27,0.24c-0.26,0.67-0.47,0.41-0.68-0.03
		c-0.04-0.08-0.05-0.21-0.25-0.22c0.03,0.63-0.34,0.79-0.92,0.81c-0.45,0.02-0.53,0.41-0.51,0.8c0.01,0.25-0.64,0.7-0.83,0.55
		c-0.19-0.16-0.36-0.07-0.44,0.03c-0.33,0.38-0.87,0.38-1.2,0.75c-0.1,0.12-0.24,0.15-0.4,0.1c-0.39-0.1-0.69-0.14-0.47,0.45
		c0.09,0.24-0.17,0.33-0.37,0.22c-0.13-0.07-0.21-0.24-0.34-0.41c-0.26,0.5-1.03,0.41-1.13,1.08c0,0.03-0.26,0.18-0.21-0.08
		c0.04-0.24-0.06-0.32-0.25-0.33c-0.21-0.01-0.3,0.13-0.32,0.32c-0.02,0.12,0.02,0.28-0.17,0.28c-0.19,0-0.11-0.26-0.3-0.33
		c0.03,0.45-0.1,0.65-0.56,0.36c-0.47-0.3-0.89-0.09-1.28,0.2c-0.15,0.11-0.28,0.25-0.43,0.37c-0.15,0.11-0.38,0.25-0.5,0.04
		c-0.12-0.22,0.15-0.24,0.3-0.29c0.21-0.08,0.27-0.23,0.16-0.4c-0.16-0.24-0.24,0.03-0.34,0.09c-0.55,0.33-1.15,0.51-1.79,0.6
		c-0.14,0.02-0.24-0.03-0.35-0.1c-0.37-0.27-0.76-0.33-1.17-0.07c-0.19,0.12-0.49,0.12-0.61,0.01c-0.56-0.51-1.08-0.03-1.62,0
		c-0.05,0-0.12,0.09-0.15,0.07c-0.15-0.08-0.25-0.38-0.46-0.2c-0.27,0.24,0.17,0.25,0.18,0.41c0,0.07-0.04,0.16-0.1,0.21
		c-0.1,0.08-0.21,0.04-0.27-0.06c-0.45-0.74-1.21-0.55-1.88-0.67c-0.28-0.05-0.45,0.84-0.68,0.13c-0.13-0.4-0.49-0.47-0.6-1.03
		c-0.16,0.67-0.35,0.98-0.84,0.55c-0.06-0.06-0.2-0.07-0.29-0.05c-0.32,0.06-0.71,0.21-0.4-0.39c0.05-0.1-0.06-0.19-0.18-0.21
		c-0.09-0.02-0.19,0-0.19,0.1c-0.01,0.55-0.48,0.44-0.74,0.42c-0.36-0.03-0.47-0.37-0.37-0.9c-0.5,0.65-0.99,0.31-1.34,0.13
		c-0.76-0.4-1.62-0.62-2.29-1.19c-0.19-0.16-0.36-0.28-0.67-0.24c-0.46,0.05,0.1-0.34-0.15-0.44c-0.31-0.03-0.54,0.14-0.78,0.54
		c0-0.24-0.03-0.34,0-0.39c0.2-0.33,0.2-0.38-0.23-0.62c-0.45-0.25-0.84-0.31-1.29-0.36c-0.08-0.01-0.19,0.01-0.21-0.09
		c-0.21-0.85-0.96-1.05-1.63-1.35c-0.3-0.13-0.19-0.63-0.62-0.71c-0.15-0.03-0.26-0.28-0.52-0.18c-0.17,0.06-0.3-0.07-0.4-0.23
		c-0.29-0.47-0.63-0.95-1.23-0.95c-0.65,0-1.12,0.37-1.29,1.02c-0.29-0.06-0.19-0.34-0.37-0.49c-0.26,0.41-0.7,0.58-1.05,0.88
		c-0.2,0.17-0.41,0.29-0.55,0.55c-0.16,0.31-0.46,0.54-0.88,0.22c0.04,0.46,0,0.86-0.4,1.13c-0.11,0.07-0.19,0.18-0.33,0.11
		c-0.4-0.21-0.6-0.07-0.62,0.36c-0.01,0.12-0.08,0.16-0.16,0.12c-0.7-0.34-1.07,0.26-1.53,0.56c-0.25,0.16-0.39,0.33-0.68,0.04
		c-0.24-0.24-0.55-0.29-0.6,0.21c-0.01,0.15-0.09,0.27-0.22,0.27c-0.49,0.03-0.82,0.24-0.88,0.84c-0.29-0.71-0.62-0.47-1.03-0.25
		c-0.45,0.24-0.87,0.47-1.01,1.01c-0.03,0.14-0.16,0.2-0.3,0.14c-0.56-0.27-0.98-0.11-1.31,0.4c-0.13,0.2-0.35,0.09-0.53,0.11
		c-0.44,0.04-0.89,0.04-0.99,0.62c-0.03,0.16-0.22,0.21-0.27,0.08c-0.37-0.87-0.72-0.26-1.11-0.02c-0.14,0.09-0.02,0.45-0.35,0.31
		c-0.32-0.13,0.01-0.38-0.13-0.57c-0.22,0.08-0.38,0.34-0.66,0.25c-0.07-0.02-0.21,0.04-0.18,0.12c0.26,0.88-0.31,0.34-0.53,0.3
		c-0.42-0.07-0.83-0.12-1.24-0.33c-0.4-0.2-0.87,0.07-1.17,0.44c-0.38,0.48-0.71,0.53-1.1,0c-0.15-0.21-0.41-0.52-0.67-0.32
		c-0.28,0.22,0.27,0.4,0.19,0.67c-0.03,0.02-0.06,0.04-0.09,0.06c-0.52-0.81-1.55-0.13-2.15-0.73c-0.09-0.08-0.25-0.09-0.34,0.03
		c-0.21,0.28,0.2,0.29,0.27,0.49c-0.31,0.12-0.56-0.03-0.56-0.24c0-0.63-0.45-0.39-0.76-0.44c-0.05-0.01-0.15,0-0.17,0.03
		c-0.06,0.14,0.21,0.46-0.15,0.4c-0.32-0.05-0.79-0.23-0.86-0.45c-0.15-0.5-0.43-0.52-0.82-0.49c-0.04,0-0.08-0.04-0.12-0.04
		c-0.04,0-0.08,0.02-0.12,0.03c-0.13,0.2,0.2,0.26,0.13,0.46c-0.05,0.01-0.15,0.05-0.16,0.03c-0.18-0.29-0.9,0.02-0.74-0.66
		c0.02-0.07-0.14-0.11-0.2-0.05c-0.33,0.33-0.55,0.17-0.76-0.13c-0.02-0.03-0.06-0.09-0.09-0.09c-0.95,0.16-1.52-0.92-2.46-0.74
		c-0.02,0-0.05-0.01-0.06-0.02c-0.23-0.57-0.93-0.6-1.25-1.07c-0.13-0.19-0.3-0.27-0.51-0.34c-0.55-0.18-1.05-0.38-1.54-0.8
		c-0.51-0.43-1.14-0.84-1.78-1.16c-0.22-0.11-0.37-0.26-0.5-0.46c-0.41-0.61-1.25-0.88-1.98-0.75
		C120.38,25.96,119.89,26.23,119.58,25.66z M193.76,14.38c0.41,0.34,0.61,0.63,0.13,0.98c-0.09,0.06,0.03,0.28,0.1,0.24
		c0.55-0.38,0.41,0.15,0.4,0.34c-0.06,0.76,0.22,1.47,0.23,2.22c0.01,0.78,0.42,1.1,0.95,0.9c0.47-0.18,0.92-0.48,1.29-0.75
		c0.27-0.2,0.53-0.52,0.86-0.76c0.58-0.43,1.23-0.84,1.54-1.53c0.21-0.45,0.22-1,0.81-1.21c0.1-0.04,0.2-0.31,0.17-0.45
		c-0.09-0.4,0.11-0.81-0.09-1.19c-0.13-0.25-0.13-0.58-0.01-0.71c0.42-0.47-0.14-0.96,0.11-1.41c-0.59-0.23-0.69-0.82-0.99-1.26
		c-0.12-0.18-0.34-0.25-0.22-0.52c0.08-0.19-0.04-0.2-0.19-0.21c-0.21-0.02-0.46-0.01-0.61-0.11c-0.75-0.51-1.27,0.1-1.86,0.34
		c-0.15,0.06-0.3,0.18-0.26,0.39c0.12,0.63-0.28,0.32-0.64,0.19c0.47,0.71-0.6,1.04-0.21,1.67c0.02,0.02-0.12,0.2-0.2,0.22
		c-0.56,0.11-0.57,0.56-0.47,0.92c0.12,0.43-0.1,0.46-0.51,0.45c0.52,0.43,0.25,0.86,0.18,1.24
		C194.24,14.55,194.02,14.33,193.76,14.38z M274.5,16.07c0.15-0.52,0.68-0.2,0.84-0.54c0.35-0.73,1.4-0.73,1.59-1.6
		c0.89-0.06,0.85-0.99,1.31-1.45c0.43-0.45,0.54-1.21,0.77-1.85c0.23-0.64,0.21-1.32,0.33-1.98c0.09-0.52,0.54-0.98,0.13-1.56
		c-0.08-0.11,0.22-0.21,0.09-0.36c-0.2-0.02-0.23,0.26-0.43,0.21c-0.1-0.13-0.06-0.29-0.09-0.43c-0.09-0.49-0.88-0.87-1.26-0.66
		c-0.66,0.37-1.22,1.13-2.15,0.66c-0.04-0.02-0.16,0.02-0.16,0.04c-0.04,0.41-0.46,0.46-0.65,0.72c-0.11,0.15-0.27,0.28-0.05,0.54
		c0.36,0.42,0.08,0.66-0.36,0.69c-0.44,0.03-0.47,0.23-0.49,0.62c-0.04,0.69-0.02,1.47-0.35,2.02c-0.27,0.44-0.03,0.46,0.13,0.65
		c0.1,0.11,0.3,0.04,0.36,0.22c-0.18,0.14-0.65,0.12-0.47,0.44c0.35,0.62,0.11,1.23,0.13,1.84c0.03,0.6,0.23,0.84,0.88,0.83
		C274.37,15.37,274.26,15.62,274.5,16.07z M225.57,11.22c0-0.08,0.05-0.28-0.01-0.32c-0.6-0.41-0.61-1.16-1.08-1.68
		c-0.69-0.75-1.79-0.73-2.41,0.19c-0.26,0.38-0.43,0.83-1.01,0.81c-0.12-0.01-0.27,0.12-0.24,0.25c0.09,0.45,0.05,0.77-0.42,1.05
		c-0.49,0.3-0.46,0.97-0.61,1.46c-0.08,0.26-0.35,0.58-0.19,0.91c0.21,0.4,0.32,0.81,0.16,1.25c-0.09,0.25-0.02,0.42,0.15,0.62
		c0.21,0.25,0.93,0.13,0.59,0.79c0.06,0.02,0.12,0.06,0.17,0.05c0.5-0.06,0.56,0.38,0.66,0.66c0.2,0.56,0.77,0.77,1.23,0.39
		c0.74-0.6,1.42-1.26,1.96-2.04c0.31-0.45,0.8-0.89,0.7-1.52c-0.06-0.37,0.05-0.61,0.27-0.87c0.16-0.19,0.31-0.43-0.04-0.63
		c-0.1-0.06-0.28-0.32-0.19-0.34C225.96,12.09,225.43,11.59,225.57,11.22z M250.62,6.6c0.02-0.67-0.18-1-0.57-1.25
		c-0.4-0.24-0.72-0.22-1.04,0.15c-0.27,0.32-0.92-0.04-1.07,0.56c0,0-0.04-0.01-0.06-0.01c-0.49,0.09-0.72,0.45-0.62,0.96
		c0.04,0.23,0.1,0.46-0.12,0.64c-0.16,0.12-0.17,0.29-0.12,0.46c0.32,1.21,0.09,2.45,0.18,3.67c0.03,0.42,0.16,0.84,0.32,1.23
		c0.13,0.32,0.58,0.51,0.3,0.98c-0.08,0.13,0.1,0.19,0.23,0.23c0.45,0.14,0.68-0.15,0.85-0.47c0.32-0.62,0.47-1.38,0.93-1.85
		c0.66-0.67,0.55-1.52,0.71-2.25C250.76,8.61,251.1,7.48,250.62,6.6z M163.78,9.51c-0.02-0.38,0.04-0.82-0.32-0.87
		c-0.33-0.05-0.67-0.31-1.09,0.01c-0.27,0.21-0.69,0.44-1.14,0.31c-0.08-0.02-0.35-0.02-0.3,0.25c0.1,0.58-0.08,0.75-0.69,0.68
		c-0.12-0.01-0.26,0.02-0.25,0.12c0.05,0.5-0.49,0.75-0.5,1.26c0,0.33,0.17,0.87-0.46,0.97c-0.06,0.01-0.14,0.3-0.09,0.4
		c0.42,0.82,0.35,1.91,1.29,2.46c0.09,0.05,0.03,0.15,0.04,0.22c0.03,0.45,0.47,0.66,0.91,0.56c0.65-0.15,0.75-0.84,1.2-1.13
		c1.19-0.77,0.84-2.17,1.38-3.2c0.01-0.01-0.07-0.1-0.12-0.11c-0.25-0.04-0.11-0.28-0.16-0.34c-0.37-0.48,0.42-0.24,0.28-0.44
		C163.43,10.22,163.9,9.84,163.78,9.51z M26.69,17.28c0.01,0.36,0.28,0.7,0.5,0.83c0.23,0.14-0.02,0.59,0.34,0.45
		c0.79-0.3,1.12-1.05,1.52-1.72c0.28-0.46,0.3-1.02,0.55-1.5c0.4-0.79,0.65-1.62,0.09-2.45c-0.09-0.13-0.04-0.21-0.02-0.34
		c0.09-0.61-0.43-1.13-1.05-1.14c-0.26-0.01-0.48,0.3-0.63,0.18c-0.59-0.45-0.63,0.1-0.74,0.39c-0.18,0.44-0.85,0.77-0.34,1.39
		c0.06,0.07-0.07,0.19-0.18,0.21c-0.21,0.05-0.22,0.21-0.25,0.38c-0.17,0.84,0.02,1.67,0.04,2.5
		C26.51,16.77,26.77,16.97,26.69,17.28z M57.29,14.63c0.48,0.08,0.48,0.08,0.48,0.53c0.01,0.5,0.04,1.01,0.01,1.51
		c-0.02,0.27,0.08,0.49,0.26,0.6c0.17,0.11,0.38-0.1,0.48-0.22c0.27-0.33,0.67-0.56,0.9-0.9c0.51-0.75,1.08-1.46,1.49-2.28
		c0.14-0.27-0.1-0.49,0.03-0.66c0.35-0.47,0.31-1.06,0.29-1.54c-0.02-0.44-0.27-1.03-0.78-1.26c-0.62-0.28-1.74,0.29-2.11,0.94
		c-0.43,0.76-0.57,1.59-0.65,2.42C57.67,14.13,57.57,14.39,57.29,14.63z M124.35,17.55c-0.01-0.38,0.22-0.55,0.44-0.75
		c0.42-0.38,0.95-0.6,1.4-0.93c0.38-0.27,0.63-0.79,1.02-0.85c0.81-0.12,0.89-0.8,1.23-1.28c0.07-0.1,0.07-0.22,0.21-0.29
		c0.3-0.14,0.48-0.44,0.33-0.72c-0.14-0.26-0.12-0.68-0.26-0.75c-0.35-0.18-0.67-0.73-1.19-0.28c-0.05,0.04-0.2,0.06-0.23,0.03
		c-0.24-0.24-0.39-0.05-0.65,0.01c-0.59,0.13-0.92,0.4-1.38,0.77c-0.5,0.4-0.35,0.83-0.54,1.21c-0.2,0.43,0.05,1.01-0.34,1.4
		c-0.22,0.22-0.82,0.29-0.24,0.75c-0.24,0.28,0.33,0.76-0.24,0.98c-0.13,0.05-0.06,0.16,0.02,0.25
		C124.08,17.24,124.21,17.39,124.35,17.55z M92.84,15.95c0.04-0.01,0.1,0,0.12-0.03c0.54-0.71,1.59-0.88,1.87-1.94
		c0.16-0.59,0.25-1.22,0.56-1.78c0.13-0.23,0.03-0.49-0.08-0.73c-0.06-0.13-0.27-0.18-0.06-0.44c0.16-0.19-0.12-0.68-0.35-0.67
		c-0.33,0.02-0.87-0.2-1.01,0.17c-0.18,0.5-0.4,0.84-0.9,1.01c-0.09,0.03-0.13,0.12-0.09,0.2c0.13,0.28-0.05,0.46-0.17,0.69
		c-0.25,0.48,0.02,1.11-0.42,1.54c0.42,0.54,0.35,1.18,0.37,1.8C92.69,15.88,92.74,15.93,92.84,15.95z M299.06,11.99
		c0.08-0.02,0.15-0.04,0.23-0.06c0.49-0.12,0.32-0.65,0.55-0.91c0.57-0.64,1.05-1.35,1.57-2.02c0.28-0.37,0.26-0.77,0.38-1.15
		c0.09-0.27-0.04-0.49-0.36-0.53c0.19-0.26-0.28-0.38-0.15-0.61c0.35-0.59-0.28-0.34-0.42-0.5c-0.27,0.24-0.76,0.1-0.92,0.53
		c-0.79-0.26-0.21,0.48-0.45,0.63c-0.04,0.02-0.01,0.14-0.05,0.18c-0.73,0.7-0.42,1.6-0.43,2.42c-0.01,0.32-0.22,0.71,0.14,1.01
		C299.6,11.35,299.61,11.67,299.06,11.99z"/>
</g>
</svg>
