<?xml version="1.0" encoding="utf-8"?>
<!-- Generator: Adobe Illustrator 24.3.0, SVG Export Plug-In . SVG Version: 6.00 Build 0)  -->
<svg version="1.1" id="Layer_1" xmlns="http://www.w3.org/2000/svg" xmlns:xlink="http://www.w3.org/1999/xlink" x="0px" y="0px"
	 viewBox="0 0 323.49 23.84" style="enable-background:new 0 0 323.49 23.84;" xml:space="preserve">
<style type="text/css">
	.st0{fill:#FFDB70;}
</style>
<g>
	<path class="st0" d="M136.54,14.84c-0.3,0.89-0.65,1.02-1.39,0.49c-0.36-0.25-0.35,0.25-0.57,0.18c-0.14-0.14-0.04-0.31-0.07-0.45
		c-0.02-0.11-0.05-0.22-0.17-0.23c-0.12-0.02-0.18,0.08-0.23,0.17c-0.09,0.16-0.02,0.5-0.35,0.39c-0.19-0.06-0.43-0.25-0.38-0.46
		c0.11-0.45-0.2-0.3-0.4-0.34c-0.27-0.05-0.42,0.02-0.36,0.33c0.05,0.25-0.12,0.34-0.31,0.37c-0.16,0.02-0.39,0.16-0.34-0.22
		c0.03-0.19-0.17-0.19-0.27-0.08c-0.5,0.55-0.87,0.49-1.08-0.32c-0.38,0.92-0.9,1.06-1.71,0.54c-0.33-0.21-0.76-0.24-1.06-0.16
		c-0.53,0.14-0.99,0.34-1.37-0.23c-0.02-0.04-0.19-0.04-0.21,0c-0.3,0.42-0.82,0.22-1.12,0.36c-0.79,0.36-1.09-0.09-1.5-0.51
		c-0.05-0.05-0.12-0.1-0.19-0.15c-0.19,0.15-0.18,0.42-0.41,0.55c-0.26,0.14-0.23,0.18-0.47-0.07c-0.18-0.18-0.33,0.03-0.5,0.06
		c-0.64,0.12-1.17-0.22-1.18-0.81c-0.36,0.24-0.88,0.18-1.03,0.73c-0.09,0.32-0.27,0.09-0.4-0.04c-0.55-0.55-1.27-0.73-1.96-0.99
		c-0.19,0.29,0.15,0.52,0,0.83c-0.29-0.04-0.61-0.1-0.84-0.31c-0.27-0.25-0.49-0.26-0.74,0c-0.35,0.37-0.64-0.07-0.92-0.15
		c-0.35-0.1,0.15-0.29,0.08-0.48c-0.08-0.1-0.18-0.06-0.28-0.06c-0.27-0.02-0.56,0.46-0.75,0.11c-0.22-0.41-0.79-0.82-0.34-1.4
		c0.24-0.32,0.22-0.55-0.08-0.82c-0.17-0.15-0.37-0.47-0.17-0.61c0.2-0.14,0.22-0.63,0.64-0.41c0.18,0.09,0.3,0.01,0.4-0.14
		c0.67-1.01,1.79-0.79,2.7-0.8c1.37-0.01,2.74-0.03,4.11-0.02c0.7,0,1.41,0.25,2.12-0.13c0.24-0.13,0.69,0.02,0.97,0.23
		c0.47,0.35,1.03,0.06,1.54,0.27c0.28,0.12,0.12-0.46,0.4-0.57c0.9,0.48,1.84,0.58,2.81,0.2c0.19-0.07,0.33-0.1,0.52-0.01
		c0.64,0.31,1.31,0.49,2.04,0.38c0.95-0.14,2.01,0.29,2.8,0.02c0.85-0.29,1.42,0.19,2.09,0.13c0.65-0.06,1.26-0.06,1.9,0.01
		c1.3,0.14,2.65-0.3,3.87,0.69c0.31,0.25,1.09,0.72,1.76,0.24c0.25-0.18,0.31,0.04,0.36,0.23c0.06,0.23,0.12,0.44,0.34,0.6
		c0.28,0.21,0.8,0.41,0.63,0.78c-0.13,0.29-0.65,0.39-1.04,0.43c-0.17,0.02-0.37-0.1-0.4,0.22c-0.13,1.07-0.78,1.68-1.75,1.55
		c-0.4-0.05-0.76-0.2-1.02,0.25c-0.04,0.06-0.19,0.11-0.27,0.09c-0.79-0.18-1.04-0.14-1.56,0.27c-0.06,0.05-0.16,0.14-0.18,0.12
		c-0.75-0.6-1.64-0.15-2.44-0.31C136.57,15.32,136.71,15.04,136.54,14.84z"/>
	<path class="st0" d="M94.12,15.62c-0.6-0.06-1.11-0.58-1.73-0.3c-0.21-0.67-0.34-0.07-0.52,0.02c-0.64,0.31-1.32,0.23-1.9-0.06
		c-0.53-0.26-1.04,0.06-1.58-0.11c-0.16-0.05-0.47,0.08-0.63-0.2c-0.23-0.41-0.3,0.17-0.56,0.08c-0.6-0.21-1.3,0.17-1.89-0.26
		c-0.72,0.86-1.2-0.12-1.79-0.23c-0.32-0.06-0.63-0.06-0.94,0.07c-0.3,0.12-0.62,0.15-0.77-0.16c-0.33-0.7-0.83-0.23-0.97-0.02
		c-0.28,0.4-0.54,0.26-0.77,0.11c-0.39-0.25-0.72-0.16-1.06,0.03c-0.24-0.56-0.86-0.25-1.24-0.53c-0.23-0.17-0.55-0.24-0.83-0.06
		c-0.45,0.28-0.73,0.1-0.97-0.3c-0.12-0.2-0.26-0.41-0.35,0.02c-0.29-0.11-0.58-0.19-0.5-0.63c0.1-0.57-0.23-0.62-0.6-0.34
		c-0.29,0.22-0.49,0.23-0.59-0.1c-0.07-0.23-0.66-0.45-0.02-0.81c0.15-0.09,0.57-0.85-0.08-1.22c-0.13-0.08-0.22-0.19-0.13-0.32
		c0.11-0.16,0.15-0.47,0.42-0.4c0.33,0.09,0.57-0.06,0.68-0.27c0.25-0.5,0.52-0.71,1-0.28c0.1,0.08,0.19,0.08,0.28,0
		c0.85-0.79,1.7-0.19,2.52,0.06c0.42,0.13,0.79-0.03,1.15-0.06c0.96-0.06,1.93-0.03,2.86,0.09c1.37,0.17,2.78,0.21,4.11,0.71
		c0.19,0.07,0.37,0,0.54-0.08c0.66-0.35,1.38-0.24,2.01-0.08c0.91,0.23,1.81,0.27,2.73,0.18c0.28-0.03,0.59-0.1,0.85,0.1
		c0.65,0.48,1.34,0,2,0.06c0.13,0.01,0.32-0.12,0.45-0.04c1.09,0.66,2.31,0.09,3.46,0.38c1.33,0.34,2.78,0.11,4.06,0.8
		c0.26,0.14,0.61,0.17,0.92,0.16c0.27-0.01,0.46,0.01,0.57,0.29c0.12,0.31,0.35,0.37,0.65,0.25c0.2-0.08,0.37-0.04,0.5,0.12
		c0.23,0.27,0.71,0.47,0.66,0.83c-0.05,0.43-0.57,0.47-0.93,0.62c-0.51,0.22-1.26,0.25-0.9,1.16c0.06,0.14-0.09,0.37-0.25,0.33
		c-0.53-0.15-0.75,0.26-1.07,0.51c-0.24,0.19-0.47,0.63-0.76-0.02c-0.05-0.1-0.69,0.02-1.08-0.04c-0.37-0.06-0.8-0.07-1.15-0.16
		c-0.59-0.14-1.15,0-1.67,0.11c-1.03,0.22-2.04-0.15-3.07,0.06c-0.35,0.07-0.49-0.44-0.8-0.58c-0.15-0.07-0.2-0.4-0.42-0.21
		c-0.2,0.16,0.03,0.32,0.1,0.48C94.13,15.42,94.11,15.5,94.12,15.62z"/>
	<path class="st0" d="M178.85,16.6c-0.08-0.19,0.06-0.22,0.11-0.29c0.11-0.15,0.44-0.27,0.17-0.48c-0.24-0.19-0.32,0.11-0.48,0.23
		c-0.36,0.25-0.71,1-1.32,0.3c-0.08-0.09-0.22-0.07-0.27,0.03c-0.39,0.71-1.07,0.12-1.48,0.33c-0.74,0.38-1.46-0.7-2.18,0.09
		c-0.16,0.18-0.74,0.07-1.04-0.16c-0.52-0.39,0.33-0.31,0.18-0.67c-0.23-0.2-0.42,0.25-0.58,0.21c-0.48-0.14-0.69,0.03-1,0.39
		c-0.31,0.36-1.82,0.08-2.2-0.34c-0.11,0.59-0.38,0.36-0.78,0.31c-0.86-0.11-1.77-0.12-2.61,0.06c-0.72,0.16-1.35,0.03-1.96-0.21
		c-0.3-0.11-0.54-0.11-0.78-0.06c-1.19,0.26-2.4,0.02-3.6,0.05c-0.65,0.02-1.51-0.08-2.23-0.33c-0.12-0.04-0.32-0.09-0.38-0.03
		c-0.54,0.53-0.97,0.28-1.4-0.14c-0.07-0.07-0.14-0.12-0.27-0.04c-0.23,0.15-0.27,0.15-0.35-0.05c-0.14-0.38-0.37-0.44-0.75-0.34
		c-0.21,0.05-0.32,0.69-0.64,0.15c-0.28-0.47-1.06-0.77-0.57-1.52c0.15-0.23,0.12-0.45,0.1-0.68c-0.09-0.96,0.48-1.34,1.39-1.61
		c1.7-0.51,3.45-0.22,5.15-0.52c0.3-0.05,0.57-0.11,0.8,0.17c0.18,0.21,0.48,0.22,0.66,0.12c0.64-0.35,1.28-0.11,1.93-0.09
		c0.7,0.02,1.41,0.15,2.11-0.01c0.11-0.03,0.26,0.03,0.37,0.08c0.62,0.31,1.22,0.24,1.83-0.04c0.35-0.16,0.72-0.14,1.08,0
		c0.36,0.14,0.75,0.58,1.02-0.11c0.01-0.02,0.15-0.02,0.2,0.01c1.16,0.83,2.44,0.34,3.68,0.33c0.08,0,0.17-0.03,0.23,0
		c1.3,0.65,2.71,0.07,4.06,0.39c1.27,0.29,2.61,0.3,3.91,0.44c0.08,0.01,0.15,0.02,0.23,0.04c-0.23,0.8,0.51,0.29,0.74,0.51
		c0.31,0.3,0.74,0.48,1.14,0.66c0.93,0.42,0.93,0.54,0.3,1.25c-0.82,0.92-2.01,0.69-2.99,1.07C179.89,16.27,179.3,16.24,178.85,16.6
		z"/>
	<path class="st0" d="M199.61,13.13c-0.1,0.99-0.13,0.98-0.84,0.57c-0.33-0.19-0.66-0.56-1.15-0.21c-0.22,0.15-0.35-0.15-0.51-0.27
		c-0.16-0.12-0.24-0.4-0.51-0.27c-0.49,0.24-0.44-0.08-0.45-0.4c-0.02-0.66-0.31-0.83-1-0.69c-0.5,0.1-0.95,0.19-0.8-0.67
		c0.07-0.39,0.05-0.82,0.13-1.23c0.03-0.15,0.08-0.4,0.01-0.44c-0.99-0.63-0.21-0.41,0.21-0.58c0.46-0.18,1.12,0.03,1.39-0.6
		c0.02-0.04,0.12-0.08,0.13-0.07c0.69,0.67,1.74-0.08,2.42,0.63c0.23,0.24,0.58,0.3,0.89,0.29c0.99-0.03,1.93,0.39,2.87,0.42
		c0.57,0.02,1.14,0.14,1.71,0.11c0.58-0.03,1.01,0.7,1.7,0.29c0.16-0.09-0.1,0.35,0.11,0.57c0.24-0.38,0.9-0.18,0.87-0.86
		c0.57,0.48,1.11,0.71,1.83,0.47c0.51-0.17,1.08,0.24,1.64-0.04c0.15-0.07,0.25,0.15,0.28,0.31c0.02,0.09,0.06,0.29,0.14,0.21
		c0.56-0.56,1.05,0.23,1.65,0.05c0.63-0.19,1.36-0.1,2.03,0.05c0.16,0.03,0.37,0.04,0.41-0.14c0.25-0.98,0.53-0.24,0.76-0.01
		c0.27,0.27,0.43,0.41,0.84,0.12c0.53-0.37,1.26,0.02,1.86-0.24c0.12,0.53,0.4,0.19,0.68,0.16c0.56-0.07,0.57-0.03,0.77-0.6
		c0.24,0.25,0.64,0.23,0.72,0.67c0.03,0.2,0.22,0.17,0.39,0.16c0.97-0.02,1.88,0.15,2.73,0.65c0.38,0.22,0.91-0.09,1.27,0.24
		c0.33,0.3,0.89,0.34,0.38,1.17c-0.37,0.61-0.79,0.58-1.21,0.77c-0.93,0.42-1.79,1.02-2.83,1.17c-0.6,0.09-1.21,0.45-1.81-0.03
		c-0.13-0.1-0.28-0.03-0.34,0.08c-0.24,0.42-0.48,0.38-0.78,0.06c-0.08-0.09-0.3-0.11-0.34,0.06c-0.1,0.49-0.45,0.28-0.68,0.23
		c-0.58-0.12-1.19-0.46-1.57,0.33c-0.05,0.1-0.22,0.15-0.26,0.05c-0.3-0.71-0.75-0.3-1.17-0.19c-0.1,0.03-0.21,0.01-0.32-0.02
		c-1.35-0.32-2.73,0.02-4.06-0.16c-0.95-0.13-1.91-0.19-2.84-0.18c-1.17,0.01-2.23-0.65-3.36-0.47c-0.82,0.13-1.52-0.23-2.28-0.32
		C200.7,14.3,199.87,14.14,199.61,13.13z"/>
	<path class="st0" d="M57.84,10.55c0.67,0.67,0.65,0.65-0.21,1.07c-0.17,0.08-0.87,0.15-0.49,0.74c-0.33,0.18-0.66,0.35-0.99,0.53
		c-0.23-0.47-0.52-0.17-0.76-0.03c-0.41,0.23-0.89-0.16-1.24,0.21c-0.19-0.23,0.28-0.43-0.04-0.58c-0.18-0.09-0.37,0.04-0.47,0.21
		c-0.23,0.4-0.65,0.43-1.03,0.51c-0.28,0.06-0.57,0.06-0.77,0.34c-0.06,0.09-0.28,0.19-0.33,0.16c-0.62-0.48-1.12-0.18-1.64,0.19
		c-0.2,0.14-0.34-0.06-0.5-0.23c-0.26-0.28-0.55-0.42-0.97-0.1c-0.54,0.41-1.17,0.76-1.9,0.3c-0.16-0.1-0.26-0.14-0.48,0.09
		c-0.37,0.38-0.81,0.66-1.5,0.64c-1.02-0.03-2.11-0.07-3.11,0.33c-0.52,0.21-1.11,0.01-1.63,0.4c-0.24,0.18-0.5-0.38-0.85-0.49
		c-0.16,0.74-0.69,0.74-1.21,0.52c-0.27-0.11-0.24,0.1-0.34,0.15c-0.28,0.15-0.58,0.25-0.91,0.25c-0.11-0.25,0.28-0.42,0.08-0.65
		c-0.89,0.84-0.91,0.84-1.7-0.09c-0.34,0.23-0.6,0.8-1.11,0.46c-0.53-0.35-1.2-0.66-1.07-1.51c0.05-0.34,0.12-0.65-0.24-0.97
		c-0.37-0.34,0.21-1.28,0.68-1.6c0.94-0.64,2.15-0.56,3.06-1.22c0.08-0.06,0.2-0.11,0.28-0.09c1.15,0.37,2.29,0.16,3.44-0.05
		c1.46-0.26,2.89-0.67,4.35-0.9c0.72-0.11,1.58-0.07,2.21-0.26c1.15-0.36,2.31-0.22,3.44-0.46c0.84-0.18,1.72-0.58,2.61-0.16
		c0.07,0.03,0.19,0.06,0.22,0.02c0.5-0.6,1.16,0.01,1.72-0.22c0.07-0.03,0.21,0.06,0.28-0.09c0.36-0.73,0.87-0.31,1.12-0.01
		c0.54,0.64,1.25,0.47,1.9,0.58c0.17,0.03,0.36-0.1,0.51,0.08c0,0.01,0.46,0.72,0.46,0.73c0.33,0.5-0.05,0.58-0.4,0.74
		C58.15,10.18,58.01,10.39,57.84,10.55z"/>
	<path class="st0" d="M258.05,11.04c-0.9-0.23-1.33-0.77-1.22-1.66c0.03-0.21,0.22-0.55,0.37-0.57c0.97-0.16,1.64-1.04,2.67-1.04
		c1.41,0,2.83-0.06,4.24-0.07c0.54-0.01,0.96-0.33,1.55-0.34c1.45-0.01,2.91,0.44,4.36-0.07c0.18-0.06,0.41,0.02,0.62,0.04
		c0.48,0.04,0.92,0.15,1.44-0.11c0.5-0.25,1.15,0.03,1.7,0.13c0.82,0.15,1.52-0.31,2.31-0.2c0.83,0.12,1.7,0.02,2.53-0.03
		c0.95-0.06,1.87,0.29,2.85-0.02c0.44-0.14,1.08-0.1,1.62,0.18c0.66,0.35,1.44-0.03,2.15,0.25c0.29,0.11,0.54,0.09,0.43,0.51
		c-0.12,0.47,0.49,0.15,0.54,0.51c-0.25,0.09-0.54,0.13-0.78,0.28c-0.3,0.18-0.96,0.07-0.61,0.86c0.11,0.24-0.34,0.93-0.78,1.22
		c-0.27,0.18-0.26-0.14-0.32-0.29c-0.09-0.23-0.27-0.15-0.4-0.09c-0.36,0.16,0.01,0.19,0.06,0.27c0.08,0.12,0.06,0.35,0.01,0.33
		c-0.54-0.31-0.93,0.49-1.45,0.17c-0.06-0.04-0.19-0.11-0.2-0.09c-0.46,0.62-1.18,0.04-1.65,0.34c-0.95,0.61-1.85,0.16-2.76-0.05
		c-0.13-0.03-0.24-0.16-0.39-0.05c-0.44,0.31-0.67-0.01-0.87-0.31c-0.35,0.12-0.17,0.37-0.22,0.55c-0.05,0.2-0.17,0.4-0.38,0.23
		c-0.54-0.45-1.27,0.05-1.8-0.39c-0.06-0.05-0.12-0.02-0.18,0.06c-0.32,0.45-0.85,0.56-1.26,0.28c-0.35-0.24-0.64-0.39-0.99,0.07
		c-0.19,0.25-0.54,0.53-0.93,0.1c-0.18-0.2-0.43-0.29-0.73,0.03c-0.14,0.15-0.67,0-0.98-0.14c-0.11-0.05-0.2-0.17-0.37-0.14
		c-1.01,0.22-2.01,0.12-3.03,0.04c-0.65-0.05-1.37-0.17-1.98,0.25c-0.31,0.21-0.55,0.17-0.82-0.09c-0.17-0.16-0.4-0.21-0.66-0.11
		c-0.39,0.15-0.83,0.07-1.16-0.1c-0.85-0.43-1.71-0.44-2.6-0.25c-0.19,0.04-0.35-0.08-0.38-0.21
		C257.57,10.97,258.03,11.32,258.05,11.04z"/>
	<path class="st0" d="M23.2,14.7c-0.5,0.5-0.88,0.93-1.73,0.78c-0.8-0.14-1.71-0.2-2.49,0.31c-0.16,0.11-0.38,0.18-0.53,0.07
		c-0.65-0.5-1.38-0.22-2.07-0.24c-0.36-0.01-0.6-0.53-1.03-0.23c-0.01,0.01-0.11-0.3-0.24-0.03c-0.32,0.7-1.24-0.07-1.56,0.63
		c0,0.01-0.06,0.01-0.07,0c-0.97-1.14-2.19-0.12-3.26-0.37c-0.16-0.04-0.38,0.14-0.58,0.22c-0.02-0.44,0.33-0.6,0.61-0.8
		c-0.07-0.05-0.11-0.1-0.15-0.11c-0.6-0.06-0.99,0.91-1.32,0.62c-0.49-0.41-0.92-0.36-1.42-0.33c-0.24,0.01-0.48-0.06-0.52-0.27
		c-0.1-0.53-0.53-0.59-0.97-0.74c0.48-0.63,0.28-1.33,0.33-1.96c-0.28-0.25-0.38,0.41-0.59,0.08c-0.17-0.25,0.15-0.33,0.28-0.48
		c0.86-0.99,2.08-1.24,3.25-1.61c0.31-0.1,0.57,0.07,0.83,0.1c1.29,0.16,2.57-0.23,3.9,0.13c0.87,0.23,1.94,0.18,2.9-0.07
		c0.33-0.08,0.62-0.15,0.9,0.09c0.14,0.12,0.31,0.15,0.44,0.04c0.59-0.51,1.3-0.27,1.94-0.25c1.55,0.04,3.09,0.34,4.65,0.09
		c0.07-0.01,0.2,0,0.22,0.04c0.45,0.86,1.35,0.56,2.03,0.81c0.49,0.19,0.76,0.6,0.86,1.06c0.1,0.44-0.53,0.46-0.64,0.83
		c-0.01,0.02-0.09,0.03-0.13,0.02c-0.34-0.12-0.3-0.08-0.38,0.3c-0.05,0.21,0.34,0.39,0.09,0.42c-0.89,0.11-1.26,1.27-2.28,1.06
		c-0.1-0.02-0.24-0.02-0.3,0.03C23.64,15.45,23.36,15.17,23.2,14.7z"/>
	<path class="st0" d="M313.01,14.62c0.05,0.58-0.24,0.57-0.71,0.55c-1.61-0.08-3.22-0.31-4.85-0.17c-0.34,0.03-0.94,0.03-1.22-0.52
		c-0.2-0.4-0.62-0.22-0.83-0.03c-0.55,0.5-1.12,0.36-1.69,0.15c-0.59-0.22-1.15-0.47-1.81-0.42c-0.31,0.02-0.53-0.19-0.39-0.74
		c-0.54,0.71-1.06,0.83-1.67,0.48c-0.07-0.04-0.19-0.1-0.21-0.07c-0.51,0.47-0.79-0.27-0.92-0.25c-0.8,0.14-1.4-0.09-2.07-0.48
		c-0.15-0.09-0.67,0.35-0.81-0.29c-0.02-0.11-0.2-0.16-0.26-0.06c-0.35,0.6-0.58,0.09-0.85-0.07c-0.25-0.14-0.51-0.25-0.77-0.36
		c-0.46-0.19-0.95-0.51-0.62-1.19c0.23-0.46-0.36-0.99,0.15-1.45c0.18-0.16,0.2-0.54,0.57-0.21c0.19,0.17,0.34-0.04,0.3-0.17
		c-0.17-0.59-0.06-0.4,0.42-0.32c0.73,0.12,1.46,0.48,2.19,0.37c1.29-0.19,2.56,0.02,3.83,0.06c0.55,0.02,1.11,0.3,1.71,0.4
		c1.35,0.23,2.74,0.04,4.08,0.46c1.2,0.38,2.48,0.29,3.73,0.31c1.2,0.01,2.38,0.49,3.52,0.34c1.38-0.19,2.39,0.7,3.62,0.86
		c0.43,0.05,0.47,0.63,0.52,0.99c0.04,0.37-0.37,0.14-0.56,0.22c-0.21,0.1-0.46,0.14-0.69,0.17c-0.3,0.03-0.38,0.17-0.24,0.42
		c0.28,0.52-0.13,0.61-0.42,0.9c-0.55,0.55-1.26,0.42-1.88,0.64C313.8,15.28,313.46,14.79,313.01,14.62z"/>
	<path class="st0" d="M236.97,13.78c-0.63-0.14-1.19-0.57-1.91-0.4c-0.5,0.12-0.99,0.31-1.55,0.02c-0.46-0.24-1.13,0-1.49-0.57
		c-0.03-0.04-0.11-0.09-0.12-0.09c-0.61,0.7-1.12-0.34-1.54-0.14c-0.83,0.39-0.91-0.89-1.69-0.61c-0.27,0.1-0.17-0.64-0.62-0.87
		c-0.48-0.25,0.03-0.62,0.21-0.91c0.16-0.26,0.32-0.48,0.15-0.8c-0.13-0.26-0.05-0.48,0.12-0.73c0.4-0.59,0.77-1.02,1.49-0.37
		c0.45,0.41,1.06-0.01,1.61,0.2c0.74,0.27,1.55,0.2,2.33,0.29c0.27,0.03,0.67,0.15,0.98,0.26c0.99,0.35,1.93,0.27,2.89-0.02
		c0.09-0.03,0.24-0.03,0.31,0.03c0.99,0.87,2.13,0.57,3.27,0.47c0.74-0.07,1.39,0.42,2.14,0.47c1.26,0.09,2.54,0.12,3.79,0.37
		c0.94,0.19,1.91,0.21,2.63,0.97c0.05,0.06,0.16,0.14,0.19,0.13c0.7-0.38,0.94,0.11,1.26,0.58c0.11,0.16,0.34,0.19,0.23,0.47
		c-0.09,0.22-0.2,0.36-0.44,0.38c-0.53,0.06-1.23-0.17-1.31,0.72c-0.73,0.07-1.37,0.47-2.12,0.51c-0.88,0.05-1.75-0.15-2.65,0.3
		c-0.76,0.38-1.67-0.02-2.51-0.11c-1.28-0.14-2.54-0.33-3.82-0.49c-0.05-0.01-0.11-0.01-0.16-0.02c-0.36-0.07-0.52,0.46-0.99,0.25
		c-0.45-0.19-0.11-0.74-0.53-0.87C236.84,13.35,237.14,13.61,236.97,13.78z"/>
</g>
</svg>
