<?xml version="1.0" encoding="utf-8"?>
<!-- Generator: Adobe Illustrator 24.3.0, SVG Export Plug-In . SVG Version: 6.00 Build 0)  -->
<svg version="1.1" id="Layer_1" xmlns="http://www.w3.org/2000/svg" xmlns:xlink="http://www.w3.org/1999/xlink" x="0px" y="0px"
	 viewBox="0 0 516.06 548.3" style="enable-background:new 0 0 516.06 548.3;" xml:space="preserve">
<style type="text/css">
	.st0{fill:#E4B0D2;}
</style>
<g>
	<path class="st0" d="M17.4,458.68c3.6-1.19,7.06-1.39,10.55-1.41c2-0.01,2.47-0.42,2.58-2.44c0.09-1.67,0.09-3.36,0-5.03
		c-0.14-2.3-0.1-4.59,0.06-6.88c0.02-0.27-0.03-0.55-0.06-0.82c-0.2-2.07-0.67-4.15,0.13-6.21c0.12-0.31,0.13-0.7,0.09-1.04
		c-0.42-3.22-0.11-6.48-0.46-9.71c-0.17-1.55-0.16-1.53-1.65-1.76c-1.25-0.19-2.5-0.06-3.72,0.15c-1.79,0.32-3.22-0.65-4.39-1.59
		c-1.61-1.3-0.47-4.04,1.85-4.56c1.96-0.44,3.96-0.8,6.01-0.63c1.65,0.14,1.85,0.03,1.93-1.63c0.22-4.29,0.45-8.57,0.17-12.88
		c-0.24-3.53-0.21-7.08,0.04-10.63c0.09-1.31-0.15-2.63-0.25-3.95c-0.07-0.9-0.76-0.87-1.39-0.89c-1.82-0.05-3.63-0.08-5.45-0.13
		c-0.35-0.01-0.71-0.01-1.03-0.1c-0.78-0.24-0.94-0.72-0.45-1.39c1.66-2.27,3.87-3.55,6.69-3.74c0.42-0.03,0.85,0.02,1.25-0.07
		c0.52-0.11,0.93-0.45,0.84-1.03c-0.52-3.23-0.38-6.5-0.34-9.73c0.04-3.38-0.26-6.76,0.19-10.17c0.22-1.64,0.03-3.44-0.16-5.17
		c-0.17-1.53-0.33-3.05-0.06-4.59c0.27-1.56-0.26-2.17-1.8-1.92c-1.42,0.23-2.78,0.17-4.15-0.17c-1.6-0.4-2.48-1.63-2.37-3.24
		c0.04-0.59,0.36-0.82,0.89-0.98c1.61-0.49,3.23-0.83,4.92-0.93c2.5-0.15,2.66-0.34,2.58-2.72c-0.11-3.38,0.04-6.77-0.02-10.16
		c-0.04-2.2,0.29-4.45,0.18-6.66c-0.2-4.1,0.1-8.2-0.39-12.29c-0.14-1.13-0.64-1.62-1.74-1.61c-2.17,0.01-4.34-0.01-6.5-0.01
		c-1.27,0-2.51-0.18-3.64-0.79c-0.75-0.41-1.27-0.95-0.58-1.83c0.29-0.37,0.43-0.78,0.14-1.15c-0.76-0.99,0.04-1.37,0.67-1.76
		c1.29-0.8,2.78-0.95,4.22-1.11c2.08-0.23,4.18-0.37,6.27-0.46c0.99-0.04,1.38-0.44,1.37-1.4c-0.03-3.35-0.12-6.69-0.02-10.03
		c0.11-3.6-0.27-7.21,0.13-10.8c0.16-1.44-0.45-2.86-0.12-4.34c0.33-1.47,0.23-2.94-0.03-4.48c-0.2-1.2,0.1-2.59,0.22-3.9
		c0.19-2.12-0.25-2.56-2.45-2.46c-2.01,0.09-4.03,0.38-6.04-0.03c-0.41-0.08-0.81-0.12-1.21-0.27c-2.07-0.78-2.33-1.14-2.42-3.22
		c-0.02-0.54,0.32-0.72,0.64-0.96c1.83-1.37,3.98-1.64,6.15-1.77c1.26-0.08,2.5-0.18,3.75-0.38c1.03-0.16,1.45-0.71,1.44-1.7
		c-0.01-0.77,0.04-1.54,0.02-2.3c-0.09-4.53,0.07-9.06-0.03-13.58c-0.06-2.7-0.05-5.42,0.07-8.1c0.08-1.98-0.18-3.96,0.12-5.93
		c0.23-1.52,0.18-1.59-1.41-1.59c-1.65,0-3.08-0.69-4.73-1.16c1-1.87,2.31-3.04,4.24-3.61c1.76-0.52,1.7-0.6,1.65-2.31
		c-0.13-4.32-0.11-8.65,0.09-12.95c0.14-3.08-0.5-6.11-0.13-9.15c0.29-2.42,0.03-4.84,0.11-7.26c0.04-1.24-0.16-1.47-1.36-1.61
		c-0.63-0.07-1.25,0-1.88,0.11c-0.84,0.15-1.67,0.09-2.46-0.29c-1.18-0.58-1.69-2.24-1-3.33c0.25-0.4,0.69-0.45,1.1-0.53
		c1.37-0.27,2.74-0.54,4.12-0.78c0.96-0.17,1.45-0.64,1.49-1.68c0.14-3.07,0.19-6.13-0.03-9.19c-0.07-0.91-0.18-1.81,0.05-2.69
		c0.29-1.12,0.14-2.23,0.08-3.35c-0.16-3.39-0.21-6.78,0.02-10.17c0.02-0.28,0-0.56-0.01-0.84c-0.07-2.72-0.54-3.28-3.24-3.01
		c-1.84,0.18-3.06-0.97-4.48-1.63c-0.77-0.35-0.52-1.42-0.33-2.29c0.26-1.19,0.92-1.91,2.05-2.04c0.97-0.12,1.86-0.55,2.87-0.54
		c0.95,0.01,1.91-0.27,2.91-0.42c0.01-1.29,0.05-2.52,0.34-3.75c0.28-1.21-0.26-2.44-0.23-3.7c0.07-2.76-0.06-5.53,0.03-8.29
		c0.07-2.16-0.46-4.31-0.03-6.48c0.1-0.53-0.26-0.98-0.8-1.08c-0.88-0.16-1.63-0.87-2.61-0.58c-0.61,0.18-0.9-0.23-1.14-0.67
		c-0.26-0.47,0.11-0.73,0.32-1.09c0.71-1.25,1.62-2.16,2.94-2.85c1.87-0.98,2.08-2.89,1.6-4.69c-0.53-2-0.13-3.97-0.25-5.95
		c-0.1-1.66,0.15-3.35-0.19-5.01c-0.31-1.51,0.29-2.98,0.22-4.51c-0.14-3.31-0.02-6.62-0.07-9.94c-0.02-1.34-0.35-1.68-1.8-1.77
		c-1.08-0.07-1.95-0.48-2.92-0.89c-1.31-0.55-1.32-1.48-1.33-2.5c-0.01-1.2,0.77-1.94,1.83-2.29c0.92-0.31,1.91-0.41,2.86-0.65
		c1.49-0.38,1.75-0.79,1.42-2.36c-0.29-1.38-0.11-2.79-0.08-4.15c0.09-4.38-0.45-8.78,0.23-13.16c0.19-1.21-0.31-2.43,0-3.69
		c0.18-0.74-0.58-0.97-1.28-0.99c-1.6-0.04-3.21-0.11-4.81-0.19c-0.7-0.03-1.4-0.06-2.09-0.2c-1.43-0.29-1.44-0.7-0.82-1.96
		c0.87-1.77,2.47-1.99,4.05-2.32c1.1-0.23,2.22-0.14,3.34-0.02c1.29,0.13,1.45-0.04,1.37-1.3c-0.03-0.51-0.04-0.97,0.27-1.4
		c0.26-0.36,0.36-0.7,0.19-1.17c-0.93-2.61-0.48-5.19,0.31-7.73c0.26-0.83,0.52-1.8,1.78-1.67c0.36,0.04,0.65-0.33,0.76-0.65
		c0.46-1.31,1.56-1.06,2.46-0.91c1.07,0.18,1.61,1.06,1.73,2.11c0.19,1.6,0.32,3.19,0.26,4.81c-0.09,2.09-0.26,4.2,0.09,6.28
		c0.25,1.53,0.31,1.46,1.91,1.5c2.91,0.08,5.82-0.03,8.74,0.14c2.32,0.14,4.73-0.17,7.1-0.29c0.98-0.05,1.14-0.69,1.09-1.44
		c-0.14-2.17,0.46-4.32,0.15-6.48c-0.16-1.11,0.22-1.89,1.24-2.38c0.37-0.18,0.83-0.39,1.01-0.72c0.89-1.6,2.57-0.97,3.85-1.32
		c0.68-0.19,1.59,0.48,1.79,1.46c0.14,0.68,0.43,1.38,0.39,2.05c-0.15,2.23,0.35,4.44,0.1,6.68c-0.22,1.94-0.01,1.98,2.01,2.19
		c3.69,0.37,7.38-0.05,11.08,0.22c3.59,0.27,7.24-0.02,10.85-0.16c1.52-0.06,2.03-0.68,1.7-2.12c-0.35-1.54,0.16-3.06-0.09-4.58
		c-0.05-0.33-0.05-0.8,0.27-0.96c0.81-0.4,0.34-1.05,0.46-1.59c0.25-1.08-0.13-2.71,1.78-2.8c0.17-0.01,0.45-0.23,0.46-0.37
		c0.14-2.04,2.03-1.17,3.01-1.81c0.07-0.05,0.35,0.07,0.35,0.09c-0.22,1.41,1.81,0.24,1.83,1.69c0.01,1.51,0.51,3,0.44,4.57
		c-0.1,2.16,0.01,4.33,0.01,6.5c0,1.04,0.38,1.43,1.52,1.41c4.05-0.08,8.09-0.04,12.14-0.01c2.93,0.02,5.85,0.08,8.78,0.15
		c1.43,0.03,1.66-0.13,1.94-1.55c0.25-1.31,0.33-2.6,0.08-3.95c-0.38-2.04,0.24-4.04,1.05-5.81c0.69-1.52,2.36-2.27,4.11-2.48
		c0.47-0.06,0.77,0.11,1.09,0.45c1.06,1.16,1.5,2.51,1.32,4.05c-0.29,2.51,0.29,5.01,0.02,7.53c-0.13,1.17,0.38,1.51,1.66,1.56
		c4.39,0.16,8.78,0.2,13.17-0.01c1.82-0.09,3.61,0.27,5.43,0.24c1.39-0.02,2.78-0.18,4.17-0.11c1.17,0.06,1.51-0.31,1.52-1.47
		c0.01-2.23,0.06-4.48-0.12-6.7c-0.12-1.46,0.4-2.42,1.49-3.21c0.22-0.16,0.53-0.21,0.74-0.38c0.5-0.41,0.82-1.41,1.65-0.89
		c0.83,0.52,1.76,0.87,2.14,2.11c0.53,1.7,0.81,3.37,0.73,5.13c-0.04,0.91-0.01,1.82,0,2.73c0.03,2.54,0.12,2.57,2.58,2.57
		c2.3,0,4.6,0.13,6.9,0.19c1.25,0.04,2.51-0.1,3.75-0.16c3.28-0.17,6.54,0.32,9.82,0.01c1.8-0.17,3.63,0.1,5.44,0.04
		c2.99-0.1,4.05,0.18,3.43-3.6c-0.3-1.82,0.39-3.77,1.23-5.51c0.16-0.33,0.49-0.49,0.83-0.59c0.48-0.13,1-0.24,1.13-0.8
		c0.32-1.42,1.57-1.11,2.37-1.04c0.89,0.08,1.85,0.57,2.14,1.69c0.22,0.88,0.66,1.76,0.51,2.66c-0.3,1.75,0.12,3.48-0.05,5.22
		c-0.14,1.48,0.42,2.08,1.88,2.15c1.39,0.07,2.79-0.04,4.19-0.02c5.43,0.11,10.86-0.58,16.29-0.01c1.25,0.13,2.5-0.03,3.76,0.07
		c1.75,0.13,2.03-0.31,2.37-2.08c0.23-1.21,0.43-2.44,0.83-3.64c0.27-0.8,0.35-1.42,1.44-1.22c0.57,0.11,0.83-0.41,0.93-0.93
		c0.12-0.59,0.3-1.09,1.07-0.97c0.82,0.12,1.54,0.39,1.64,1.33c0.13,1.11,0.18,2.23,0.23,3.34c0.04,0.77-0.01,1.54,0.03,2.31
		c0.07,1.56,0.1,1.54,1.71,1.6c4.88,0.19,9.75-0.21,14.62-0.02c3.41,0.13,6.83-0.16,10.22,0.1c3,0.22,5.97-0.36,8.98-0.03
		c1.71,0.19,2.04-0.21,2.14-1.99c0.1-1.69,0.7-3.23,1.21-4.76c0.4-1.18,1.4-2.28,2.84-2.5c0.56-0.08,0.81-0.26,1.1-0.74
		c0.66-1.13,0.79-1.09,1.92-0.43c0.86,0.51,1.22,1.16,1.27,2.2c0.1,2.16,0.28,4.3,0.22,6.47c-0.04,1.54,0.39,1.73,1.89,1.76
		c4.04,0.09,8.08-0.01,12.12,0.05c3.4,0.05,6.82,0.56,10.24-0.1c0.93-0.18,1.94,0.07,2.92,0.11c0.49,0.02,0.98,0.09,1.46,0.05
		c2.2-0.18,2.3-0.3,2.38-2.51c0.01-0.35,0.07-0.7,0.03-1.05c-0.31-2.98,1.86-4.28,3.89-5.56c1.41-0.89,2.22-0.44,2.49,1.21
		c0.18,1.1,0.23,2.22,0.3,3.34c0.05,0.77,0,1.54,0.06,2.31c0.16,1.95,0.54,2.31,2.48,2.26c4.72-0.13,9.44,0.02,14.15-0.07
		c2.92-0.06,5.84,0.2,8.77-0.04c1.77-0.15,3.61,0.02,5.42-0.12c1.02-0.08,1.58-0.5,1.51-1.56c-0.19-2.72,0.92-5.21,1.66-7.71
		c0.33-1.12,1.93-1.82,2.82-2.9c0.53-0.64,1.65,0.07,1.72,1.04c0.12,1.81,0.14,3.63,0.21,5.45c0.04,0.98,0.06,1.95,0.15,2.93
		c0.24,2.82,0.25,2.98,3.12,2.94c5.7-0.08,11.41,0.48,17.12-0.29c1.36-0.18,2.78,0.16,4.17,0.21c1.82,0.07,2.05-0.09,1.85-1.78
		c-0.23-1.95,0.68-3.86,0.12-5.81c-0.12-0.41,0.24-0.8,0.51-1.11c1.06-1.23,2.33-2.21,3.74-3.01c0.35-0.2,0.67-0.25,0.93,0.07
		c0.44,0.52,0.93,0.96,1.24,1.65c1.12,2.54,1.24,5.22,1.29,7.92c0.01,0.35,0.02,0.7,0.02,1.05c0,0.78,0.37,1.12,1.17,1.12
		c1.32,0,2.65,0.12,3.97,0.1c5.22-0.08,10.44-0.19,15.66-0.3c0.92-0.02,1.81,0,2.63,0.53c0.22,0.14,0.55,0.27,0.78,0.2
		c2.66-0.78,5.39-0.37,8.09-0.5c0.67-0.03,1.07-0.37,1.13-1c0.06-0.62,0.08-1.27-0.01-1.88c-0.23-1.46-0.21-2.92-0.05-4.39
		c0.1-0.89-0.13-2.11,0.66-2.55c1.34-0.74,2.06-2.32,3.7-2.6c0.37-0.06,0.82-0.19,0.87,0.21c0.11,0.89,0.91,1.38,1.13,2.02
		c0.26,0.75,0.56,1.55,0.75,2.35c0.07,0.28,0.2,0.57-0.04,0.79c-1.39,1.23-0.91,2.82-0.86,4.33c0.02,0.49,0.03,0.98,0.08,1.47
		c0.09,0.92,0.26,1.35,1.54,1.27c2.69-0.19,5.44,0.33,8.11,0.08c2.86-0.27,5.68,0.05,8.52,0c3.38-0.06,6.76-0.21,10.15-0.13
		c2.91,0.07,5.86,0.07,8.78-0.06c1.45-0.07,1.62-0.36,1.44-1.8c-0.03-0.21-0.16-0.48-0.08-0.61c1.26-1.85-0.2-3.7,0.02-5.54
		c0.06-0.52-0.7-1.47,0.72-1.3c0.21,0.02,0.26-0.6,0.2-0.95c-0.15-0.79,0.14-1.52,0.25-2.28c0.09-0.62,0.41-1.13,1.05-1.11
		c0.89,0.03,1.27-0.31,1.28-1.18c0.01-0.3,0.38-0.59,0.58-0.45c0.79,0.55,1.44,0.07,2.14-0.14c0.29-0.09,0.55,0.04,0.74,0.27
		c1.08,1.3,2.13,2.61,2.11,4.44c-0.02,2.93,0,5.85-0.03,8.78c-0.02,1.65,0.05,1.87,1.7,1.89c1.59,0.02,3.18,0.23,4.79,0.05
		c1.86-0.21,3.78-0.33,5.53,0.67c0.28,0.16,0.67,0.19,1.01,0.19c1.02,0.01,1.44,0.37,1.45,1.52c0.03,1.88-0.19,2.32-2.12,2.86
		c-3.29,0.92-6.63,0.82-9.99,0.57c-0.35-0.03-0.7-0.1-1.04-0.07c-1.09,0.07-1.49,0.5-1.42,1.62c0.21,3.2-0.15,6.41-0.01,9.6
		c0.12,2.65,0.18,5.28,0.03,7.93c-0.07,1.27,0.45,1.88,1.74,1.82c2.52-0.13,5.02,0.2,7.53,0.16c2.32-0.04,2.67,0.27,2.89,2.63
		c0.22,2.46-0.08,2.81-2.41,3.42c-2.41,0.64-4.87,0.14-7.3,0.44c-0.48,0.06-0.98,0.02-1.47,0.07c-0.77,0.07-1.03,0.49-1.02,1.28
		c0.07,5.64,0.13,11.27,0.13,16.91c0,2.3-0.18,4.6-0.26,6.9c-0.02,0.49,0.03,0.98,0.04,1.46c0.01,0.69,0.29,0.96,1.03,0.96
		c2.23-0.02,4.46-0.09,6.68-0.14c2.06-0.05,3.82,0.63,5.66,1.24c0.65,0.22,0.95,2.44,0.58,3.06c-0.61,1.02-1.48,1.43-2.6,1.75
		c-2.62,0.75-5.25,0.58-7.9,0.55c-3.4-0.05-3.56,0.18-3.47,3.53c0.18,6.27,0.11,12.54-0.02,18.81c-0.02,0.91,0.03,1.81,0.05,2.72
		c0.04,1.36,0.08,1.39,1.44,1.42c2.65,0.04,5.3,0.11,7.95,0.13c1.07,0.01,2.08,0.34,3.07,0.62c1.61,0.46,1.9,1.76,0.81,3.12
		c-0.49,0.61-1.09,1-1.89,1.2c-2.33,0.59-4.69,0.68-7.07,0.72c-0.91,0.01-1.82,0.06-2.73-0.01c-1.1-0.08-1.54,0.51-1.63,1.46
		c-0.07,0.69-0.12,1.4-0.05,2.09c0.28,2.85-0.02,5.72,0.11,8.56c0.21,4.46-0.25,8.92,0.08,13.38c0.15,2.06,0.34,2.21,2.45,2.23
		c2.38,0.02,4.76-0.01,7.13-0.02c0.21,0,0.42-0.05,0.63-0.03c0.95,0.08,2.02-0.07,2.59,0.93c0.29,0.51-0.96,2.05-1.85,2.53
		c-2.17,1.15-4.52,1.35-6.91,1.41c-1.23,0.03-2.61-0.58-3.66,0.27c-1.11,0.9-0.27,2.26-0.28,3.4c-0.06,6.56,0.09,13.13-0.05,19.68
		c-0.07,3,0.25,5.99,0.06,8.98c-0.07,1.12,0.42,1.48,1.46,1.5c2.01,0.04,4.03-0.04,6.04,0.03c1.4,0.05,2.43,0.65,3.43,1.31
		c1.15,0.76,0.6,3.18-0.79,3.83c-1.82,0.85-3.79,0.89-5.74,0.94c-5.28,0.14-4.5-0.09-4.39,4.56c0.09,3.97-0.01,7.93,0.03,11.9
		c0.05,3.95-0.33,7.92,0.29,11.86c0.28,1.75,0.31,1.76,2,1.89c1.88,0.14,3.67,0.71,5.47,1.22c0.36,0.1,0.66,0.25,0.55,0.72
		c-0.16,0.72-0.04,1.63-1.05,1.84c-1.23,0.26-2.45,0.59-3.72,0.6c-0.63,0-1.26,0.02-1.89,0.06c-1.01,0.07-1.45,0.59-1.44,1.65
		c0.02,3.48,0.16,6.98,0.03,10.45c-0.09,2.51,0.27,4.97,0.15,7.45c-0.28,5.71,0.03,11.42-0.1,17.13c-0.01,0.48,0.09,0.97,0.17,1.46
		c0.27,1.64,0.28,1.75,2.02,1.59c2.18-0.21,4.13,0.6,6.17,1.06c0.38,0.09,0.59,0.35,0.6,0.75c0.01,0.28-0.01,0.58,0.28,0.73
		c0.54,0.28,1.36,0.4,1.12,1.25c-0.28,0.96-0.89,1.79-1.89,2.1c-0.92,0.28-1.9,0.55-2.85,0.52c-1.35-0.04-2.64,0.31-3.96,0.37
		c-0.83,0.04-1.23,0.35-1.26,1.28c-0.1,3.26-0.46,6.5-0.17,9.79c0.26,2.97,0.1,5.98,0.13,8.98c0.03,2.65,0.03,5.29-0.18,7.93
		c-0.1,1.22,0.29,2.45,0.2,3.71c-0.07,0.92,0.78,1.04,1.5,1.07c1.4,0.06,2.79,0.09,4.19,0.15c0.42,0.02,0.85,0.03,1.24,0.16
		c0.92,0.29,1.42,1.21,1.42,2.33c0,1.04-0.75,1.26-1.5,1.45c-1.63,0.41-3.3,0.57-4.98,0.71c-1.59,0.14-1.82,0.31-1.9,1.9
		c-0.1,1.88,0,3.76,0,5.65c0.02,5.37,0.36,10.73-0.01,16.11c-0.09,1.31,0.08,2.65,0.16,3.97c0.08,1.32,0.27,2.64-0.05,3.97
		c-0.11,0.45,0.01,0.97,0.05,1.45c0.06,0.81,0.4,1.34,1.32,1.21c3.08-0.45,5.87,1.06,8.83,1.35c0.67,0.07,1.23,0.37,1.26,1.15
		c0.03,0.74-0.4,1.16-1.06,1.38c-1.34,0.44-2.7,0.71-4.12,0.71c-1.54-0.01-3.08,0.02-4.62,0.03c-1.05,0-1.44,0.49-1.46,1.56
		c-0.07,3.48-0.09,6.95,0.09,10.43c0.11,2.28-0.2,4.58-0.19,6.87c0.01,2.64,0.38,5.28,0.11,7.94c-0.13,1.23,0.38,1.75,1.61,1.56
		c2.1-0.33,4.18,0.04,6.26,0.02c0.7-0.01,1.23,0.27,1.72,0.65c1.52,1.16,1.44,2.49-0.31,3.19c-2.32,0.93-4.66,1.86-7.26,1.83
		c-1.76-0.02-2.08,0.19-1.98,1.92c0.18,3.19-0.51,6.37,0.15,9.56c0.31,1.49,0.09,3.08,0.03,4.59c-0.21,5.09,0.04,10.17-0.07,15.25
		c-0.09,3.87-0.63,4.21,4.18,4.04c1.61-0.06,3.2-0.13,4.8,0.15c0.8,0.14,1.42,0.47,1.78,1.27c0.37,0.83,0.41,1.26-0.59,1.78
		c-3.31,1.71-3.64,1.8-5.49,1.96c-0.93,0.08-1.6-0.35-2.38-0.58c-0.61-0.17-1.27-0.27-1.85,0.03c-0.69,0.36-0.09,1.02-0.24,1.53
		c-0.62,2.08,0.26,4.15,0.02,6.22c-0.39,3.39,0.1,6.78,0,10.16c-0.1,3.65,0.19,7.28-0.07,10.93c-0.22,3.12,0.01,6.27,0.14,9.4
		c0.05,1.34,0.61,1.71,2.04,1.82c1.31,0.1,2.61,0.08,3.92,0.06c1.82-0.03,3.76-0.42,5.4,0.93c0.53,0.43,1.34,0.26,2.26,0.4
		c-0.57,0.77-0.54,1.39-0.06,2.09c0.45,0.65,0.16,1.2-0.5,1.76c-1.57,1.36-3.42,1.73-5.38,1.99c-1.88,0.25-3.76-0.04-5.64,0.11
		c-1.97,0.16-1.99,0.19-1.79,2.12c0.04,0.42,0.17,0.86,0.07,1.25c-0.56,2.24-0.38,4.52-0.4,6.79c-0.01,0.94-0.52,2-1.12,2.09
		c-1.63,0.25-2.2,2.78-4.32,1.84c-0.98-0.44-1.46-1.24-1.58-2.06c-0.22-1.62-1.35-2.93-1.44-4.5c-0.09-1.54-0.56-3.01-0.67-4.53
		c-0.04-0.48-0.06-0.98-0.01-1.46c0.17-1.5,0.05-1.67-1.42-1.67c-8.58-0.01-17.16-0.01-25.74-0.01c-2.16,0-2.35,0.21-2.41,2.42
		c-0.04,1.61-0.15,3.21-0.1,4.82c0.07,2.42-0.75,4.29-2.81,5.69c-1.99,1.35-1.93,1.43-3.59,1.54c-0.66-2.82-1.17-5.65-1.01-8.59
		c0.08-1.46-0.02-2.93-0.05-4.4c-0.02-0.93-0.51-1.42-1.44-1.44c-1.19-0.02-2.38-0.03-3.57-0.04c-5.94-0.06-11.87-0.2-17.81-0.13
		c-2.37,0.03-4.75,0.06-7.12,0.15c-1.86,0.07-2.64,1.2-2.11,3.02c0.59,2.01,0.55,4.11-0.49,5.8c-1.07,1.74-2.71,3.19-4.98,3.4
		c-1.3,0.12-2.78-1.62-2.84-3.38c-0.07-2.16-0.05-4.33-0.05-6.49c0-1.75-0.4-2.28-2.17-2.34c-3-0.09-6-0.12-9-0.11
		c-4.83,0.01-9.65,0.05-14.48,0.09c-2.32,0.02-2.6,0.34-2.48,2.76c0.06,1.26,0.2,2.51,0,3.77c-0.01,0.07,0.01,0.14,0,0.21
		c-0.17,1.89-0.49,2.08-2.3,1.28c-0.32,0.73,0.11,1.93-0.88,2.16c-0.98,0.23-1.57-0.79-2.18-1.39c-1.73-1.71-1.84-3.97-1.87-6.23
		c0-0.28,0.08-0.56,0.08-0.83c-0.02-1.44-0.42-1.84-1.87-1.83c-4.26,0.02-8.53,0.07-12.79,0.09c-4.48,0.02-8.95,0.01-13.43,0.03
		c-2.73,0.01-2.93,0.2-2.69,2.85c0.09,0.93-0.04,1.81-0.17,2.71c-0.05,0.34-0.12,0.75-0.34,0.97c-1.31,1.32-2.53,2.79-4.46,3.24
		c-1.34,0.31-1.58,0.15-1.92-1.17c-0.51-1.98-0.66-3.99-0.47-6.03c0.2-2.18-0.22-2.53-2.42-2.52c-5.72,0.02-11.44-0.04-17.17-0.02
		c-2.02,0.01-4.05,0.1-6.06,0.28c-1.21,0.11-2.35-0.31-3.55-0.21c-1.87,0.16-2.49,0.54-2.37,2.41c0.12,1.89-0.22,3.75,0,5.62
		c0.13,1.11,0.21,2.25-0.36,3.27c-0.78,1.39-2.32,1.97-3.45,3c-0.35,0.32-0.8,0.07-1.15-0.19c-0.28-0.21-0.56-0.33-0.96-0.26
		c-1.34,0.25-2.17-0.22-2.33-1.48c-0.32-2.56-0.72-5.11-0.67-7.71c0.02-1.25-0.15-2.5-0.24-3.76c-0.03-0.51-0.3-0.74-0.8-0.76
		c-0.49-0.02-0.98-0.12-1.46-0.08c-4.18,0.35-8.36,0.13-12.54,0.21c-6.22,0.12-12.43,0.11-18.65,0.19
		c-1.78,0.02-1.82,0.08-1.72,1.91c0.14,2.6-0.08,5.13-0.93,7.6c-0.45,1.31-3.71,3.66-5.04,3.56c-0.29-0.02-0.54-0.15-0.71-0.39
		c-0.83-1.21-1.74-2.4-1.68-3.98c0.08-2.16-0.36-4.3-0.13-6.49c0.21-1.94-0.3-2.46-2.26-2.31c-3.69,0.28-7.39-0.01-11.08,0.19
		c-2.54,0.14-5.13-0.02-7.7,0c-2.93,0.01-5.85,0.13-8.78,0.18c-0.89,0.02-1.43,0.38-1.63,1.29c-0.18,0.82-0.51,1.6-0.73,2.41
		c-0.2,0.72-0.28,1.49-1.33,0.77c-0.4-0.27-0.6,0.15-0.81,0.42c-0.4,0.5-0.24,1.24-0.87,1.79c-1.67-1.34-3.35-2.61-3.1-5.16
		c0.1-1.04-0.51-1.53-1.54-1.54c-2.37-0.03-4.75-0.1-7.12-0.09c-6.43,0.03-12.86,0.09-19.29,0.13c-0.28,0-0.56-0.01-0.84,0
		c-2.19,0.06-2.43,0.24-2.46,2.4c-0.02,1.57-0.23,2.93-1.99,3.49c-0.29,0.09-0.47,0.5-0.71,0.75c-0.53,0.55-2.31,0.94-3.02,0.69
		c-0.4-0.14-0.41-0.48-0.53-0.81c-0.49-1.41-0.48-2.87-0.54-4.34c-0.08-1.89-0.39-2.24-2.28-2.09c-3.76,0.3-7.52,0.07-11.28,0.15
		c-2.62,0.05-5.28,0.02-7.92-0.06c-1.87-0.05-3.76,0.12-5.64,0.15c-1.5,0.02-2.09,0.68-2.16,2.25c-0.09,1.84-0.96,3.29-2.07,4.64
		c-1.22,1.48-2.87,1.55-4.57,1.17c-0.68-0.15-0.99-0.8-1.14-1.41c-0.29-1.21-0.73-2.41-0.55-3.71c0.05-0.41,0.07-0.84,0.01-1.25
		c-0.19-1.36-0.5-1.68-1.88-1.75c-2.78-0.13-5.57-0.08-8.35-0.02c-2.92,0.06-5.84,0-8.76,0.02c-0.63,0-1.25,0.09-1.87,0.19
		c-0.86,0.13-1.38,0.55-1.36,1.53c0.02,1.02-0.25,1.9-1.58,1.4c-0.56-0.21-0.59,0.09-0.59,0.45c0.01,0.43-0.06,0.82-0.3,1.19
		c-0.57,0.86-1,0.88-1.58-0.06c-0.3-0.5-0.64-0.92-1.16-1.17c-0.68-0.33-1.17-0.93-1.34-1.55c-0.5-1.77-1.77-1.94-3.27-1.86
		c-4.05,0.21-8.1,0.09-12.15,0.13c-4.11,0.04-8.23,0.05-12.34-0.01c-1.75-0.02-1.6,0.03-2.4,1.66c-0.5,1.02-0.76,2.48-2.35,2.67
		c-0.42,0.05-0.64,0.48-0.91,0.81c-1.32,1.66-3.7,1.29-4.43-0.72c-0.31-0.85-0.55-1.75-0.62-2.64c-0.11-1.33-0.23-1.65-2.06-1.7
		c-0.97-0.02-1.93,0.01-2.91,0c-5.08-0.07-10.17-0.04-15.25,0.02c-1.62,0.02-1.98,0.49-2.06,2.22c-0.06,1.26-0.02,2.52-0.18,3.77
		c-0.1,0.8-0.29,1.78-1.54,1.48c-0.73-0.17-0.73,0.4-0.96,0.81c-0.68,1.17-0.81,1.07-1.9,0.48c-1.82-1-1.98-2.64-2.02-4.38
		c-0.01-0.41,0.11-0.83,0.16-1.24c0.33-2.65-0.14-3.04-2.76-2.9c-2.81,0.15-5.63,0.03-8.41-0.43c-1.11-0.19-1.36-1.04-1.5-2.2
		c-0.2-1.69,0.68-2.18,2.01-2.51c2.55-0.64,4.95-1.68,7.68-1.9c2.48-0.2,2.6-0.04,2.81-2.89c0.4-5.56-0.19-11.11,0.08-16.66
		c0.13-2.73,0.12-5.42-0.18-8.13c-0.1-0.89-0.03-1.82,0.06-2.72c0.15-1.55,0.18-1.58-1.45-1.61c-2.1-0.03-4.2-0.09-6.29,0.03
		c-1.51,0.08-2.7-0.51-3.91-1.24C17.51,460.89,17.86,459.69,17.4,458.68z M253.99,260.46c-2.48,0-4.29-0.07-6.11,0.01
		c-4.55,0.2-4.52,0.15-4.45,4.67c0.04,2.99,0.21,5.98,0.27,8.97c0.16,7.6,0.27,15.19,0.45,22.79c0.06,2.63,0.23,2.68,2.74,2.85
		c3.47,0.23,6.95-0.44,10.43,0.08c0.2,0.03,0.42-0.03,0.63-0.04c2.49-0.13,4.98-0.29,7.47-0.38c2.7-0.11,5.4-0.02,8.11,0.04
		c2.15,0.05,4.31-0.27,6.47-0.24c1.09,0.02,1.35-0.36,1.31-1.31c-0.12-2.52,0.26-5.05-0.21-7.57c-0.17-0.93,0.02-1.95,0-2.89
		c-0.04-2.21,0.1-4.41-0.03-6.63c-0.14-2.33,0.02-4.7-0.18-7.06c-0.02-0.2-0.04-0.46,0.07-0.61c0.62-0.95,0.25-1.9,0.01-2.83
		c-0.64-2.46,0.3-5-0.41-7.45c-0.03-0.11,0.08-0.26,0.12-0.39c0.55-1.99,0-2.65-2.05-2.54c-4.87,0.26-9.76,0.26-14.63,0.37
		C260.44,260.36,256.88,260.68,253.99,260.46z M441.05,278.77c0.14,4.7,0.29,10.14,0.45,15.58c0.01,0.28,0.03,0.56,0.07,0.84
		c0.12,0.81,0.59,1.33,1.42,1.2c2.44-0.39,4.87-0.07,7.3-0.07c3.12,0,6.25-0.38,9.37-0.17c2.1,0.14,4.16-0.27,6.25-0.23
		c2.15,0.04,4.32,0.09,6.45-0.13c0.83-0.09,1.86,0.19,2.58-0.56c0.82-0.84,0.03-1.72,0.06-2.58c0-0.07,0-0.14,0.01-0.21
		c0.2-3.96,0.08-7.92,0-11.88c-0.08-3.83-0.06-7.67-0.04-11.5c0-1.32-0.11-2.63-0.08-3.95c0.03-1.72-0.36-3.44,0.23-5.16
		c0.12-0.35-0.1-0.82-0.2-1.22c-0.1-0.4-0.34-0.79-0.13-1.21c0.61-1.24-0.25-1.25-1.07-1.28c-0.49-0.02-0.98-0.01-1.47-0.01
		c-9.43-0.11-18.85,0.26-28.27,0.43c-3.34,0.06-3.36,0.02-3.32,3.4C440.72,266.05,441.15,272.04,441.05,278.77z M257.9,457.82
		c-2.59,0-5.17-0.08-7.76,0.02c-2.34,0.09-2.64,0.44-2.49,2.83c0.14,2.23,0.12,4.45,0.16,6.68c0.02,1.1,0.03,2.24,0.02,3.33
		c-0.04,3.31,0.58,6.58,0.44,9.89c-0.05,1.18,0,2.37-0.04,3.56c-0.08,2.58,0.21,5.14,0.32,7.71c0.08,1.87,0.28,2.21,2.09,2.02
		c2.99-0.32,5.99-0.12,8.98-0.14c3.48-0.02,6.96-0.06,10.43-0.19c2.35-0.09,4.69,0.13,7.03,0.07c1.75-0.05,3.47,0.34,5.22,0.08
		c1.63-0.24,1.62-0.25,1.83-1.94c0.2-1.61,0.04-3.2-0.01-4.81c-0.18-5.72,0.06-11.45-0.19-17.18c-0.07-1.52-0.37-3.05-0.17-4.58
		c0.27-2.09,0.03-4.18-0.09-6.26c-0.08-1.31-0.35-1.52-1.68-1.62c-0.49-0.04-0.98-0.01-1.47-0.01
		C272.97,457.17,265.44,457.65,257.9,457.82z M434.41,282.6c-0.13-7.06-0.25-13.34-0.37-19.61c-0.03-1.4-0.03-2.8-0.13-4.19
		c-0.11-1.58-0.53-1.85-2.08-1.97c-2.59-0.19-5.15,0.27-7.74,0.25c-6.92-0.05-13.83,0.03-20.75,0.26c-1.72,0.06-2.03,0.42-2.03,2.14
		c0.02,3.81-0.02,7.63-0.01,11.44c0.01,5.29,0.59,10.55,0.56,15.84c0,1.05-0.42,2.19-0.18,3.03c0.55,1.89,0.26,3.74,0.3,5.6
		c0.03,1.55,0.47,2.03,2.04,1.83c2.77-0.34,5.56-0.61,8.34-0.35c1.82,0.17,3.6-0.22,5.42-0.17c3.67,0.1,7.36,0.4,11.02-0.18
		c1.24-0.2,2.46-0.33,3.74-0.18c1.69,0.2,2.06-0.22,2.18-1.97c0.03-0.42,0.07-0.85,0-1.26C434.1,289.37,434.66,285.58,434.41,282.6z
		 M242.13,199.81c0,3.46-0.03,7.1,0.01,10.73c0.02,1.95,0.15,3.91,0.27,5.86c0.06,0.92,0.42,1.61,1.53,1.61
		c1.53,0,3.06,0.08,4.59,0.06c3.49-0.05,6.98-0.27,10.46-0.15c2.1,0.08,4.18,0.18,6.26-0.08c1.66-0.21,3.36-0.25,4.99-0.18
		c2.64,0.12,5.26-0.24,7.89-0.11c1.61,0.08,2.31-0.92,1.86-2.47c-0.28-0.94-0.26-1.76,0.06-2.65c0.12-0.32,0.18-0.68,0.19-1.02
		c0.08-2.18-0.19-4.37-0.37-6.53c-0.28-3.26-0.37-6.51-0.39-9.77c-0.02-3.05-0.02-6.1,0.06-9.14c0.05-1.66-0.28-2.18-1.97-2.02
		c-1.96,0.18-3.9,0.12-5.85,0.13c-5.01,0.02-10.03,0.14-15.04,0.21c-4.18,0.06-8.37,0.09-12.55,0.15c-2.21,0.03-2.43,0.21-2.42,2.4
		C241.74,191.11,241.66,195.38,242.13,199.81z M283.26,426.12c0-2.16,0.06-4.33-0.02-6.49c-0.05-1.54-0.53-1.95-1.86-1.92
		c-5.09,0.15-10.17,0.37-15.26,0.43c-3.49,0.04-6.97,0.23-10.47,0.06c-2.42-0.12-4.87,0.26-7.31,0.43c-0.97,0.07-1.65,0.5-1.51,1.57
		c0.37,2.99-0.02,5.98,0.09,8.97c0.11,2.78,0.25,5.56,0.33,8.35c0.14,4.52,0.22,9.05,0.37,13.57c0.05,1.59,0.41,1.89,2.06,1.98
		c0.56,0.03,1.12,0.02,1.68,0.01c6.69-0.14,13.38-0.36,20.07-0.39c3.69-0.02,7.37-0.57,11.07-0.26c1.07,0.09,1.36-0.6,1.35-1.44
		c-0.01-0.9-0.28-1.81-0.24-2.71C283.94,440.9,283.08,433.51,283.26,426.12z M327.79,285.3c0,3.08-0.02,6.15,0.01,9.23
		c0.01,0.76,0.09,1.54,0.25,2.28c0.32,1.48,0.44,1.53,1.96,1.49c2.16-0.05,4.31-0.08,6.47-0.13c3.06-0.08,6.12-0.25,9.17-0.22
		c2.02,0.02,4.05-0.19,6.05-0.06c2.11,0.14,4.18-0.03,6.27-0.14c1.65-0.08,1.96-0.48,1.94-2.07c-0.01-0.49-0.08-0.98-0.16-1.46
		c-0.34-2.12-0.19-4.27-0.25-6.4c-0.06-2.12-0.11-4.24-0.04-6.36c0.05-1.68-0.21-3.35-0.14-5.01c0.16-4.11,0.26-8.21-0.08-12.31
		c-0.09-1.11-0.25-2.2-0.15-3.34c0.18-2.07-0.61-2.72-2.76-2.59c-5.3,0.31-10.62,0.07-15.93,0.38c-3.69,0.21-7.4,0.11-11.1,0.19
		c-1.67,0.04-1.91,0.26-1.93,2.01c-0.04,3-0.1,6.02,0.03,9.02C327.64,274.97,327.82,280.13,327.79,285.3z M406.39,492.87
		c0.48,0.07,0.82,0.17,1.17,0.17c1.47-0.01,2.95,0.07,4.39-0.13c1.49-0.21,2.88,0.34,4.46,0.06c2.18-0.38,4.53-0.25,6.82,0.15
		c2.83,0.49,5.7-0.22,8.55-0.08c1.72,0.08,3.42-0.5,5.15-0.07c0.55,0.14,0.98-0.17,1.11-0.71c0.14-0.54,0.26-1.11,0.22-1.65
		c-0.14-2.17,0-4.33-0.03-6.49c-0.14-9.42-0.34-18.84-0.53-28.26c-0.04-2.17-0.33-2.42-2.46-2.32c-3.91,0.18-7.81,0.5-11.72,0.39
		c-5.31-0.14-10.6,0.35-15.91,0.41c-2,0.03-2.5,0.67-2.03,2.61c0.15,0.62,0.15,1.21,0.2,1.83c0.2,2.68-0.55,5.36,0.05,8.02
		c0.27,1.16,0.24,2.35-0.04,3.45c-0.41,1.56-0.18,3.05,0.1,4.55c0.29,1.52,0.38,3.04,0.21,4.58c-0.08,0.7-0.07,1.38-0.02,2.09
		C406.31,485.2,406.5,488.94,406.39,492.87z M255.83,344.41c-3.27,0-5.85-0.02-8.44,0.01c-1.85,0.02-2.2,0.38-2.17,2.24
		c0.07,4.03,0.18,8.06,0.26,12.09c0.05,2.3,0.24,4.61,0.2,6.9c-0.06,3.41,0.42,6.81,0.1,10.24c-0.17,1.81,0.55,2.29,2.43,2.26
		c1.95-0.03,3.89-0.08,5.84-0.08c3.89,0,7.79,0,11.68-0.04c5.01-0.05,10.02-0.57,15.05-0.31c1.68,0.09,2.09-0.41,1.93-2.14
		c-0.46-4.91,0.06-9.84-0.26-14.76c-0.11-1.74,0.1-3.49-0.01-5.23c-0.2-3.2-0.44-6.4-0.41-9.61c0.02-1.86-0.11-2.01-2.01-2.01
		c-3.14,0-6.28,0.02-9.42,0.09C265.46,344.15,260.3,344.3,255.83,344.41z M320.61,279.26c0.21-4.15-0.31-8.82-0.1-13.5
		c0.08-1.8-0.21-3.61-0.3-5.42c-0.05-1.02-0.55-1.54-1.58-1.53c-0.42,0-0.84-0.01-1.26,0.03c-6.61,0.69-13.25,0.17-19.87,0.59
		c-2.3,0.15-4.61,0.1-6.91,0.25c-1.44,0.09-1.71,0.48-1.59,1.84c0.43,4.8,0.05,9.62,0.25,14.44c0.13,3.03,0.08,6.13,0.16,9.17
		c0.1,3.91,0.08,7.81,0.22,11.72c0.06,1.74,0.5,2.24,2.29,2.11c1.19-0.08,2.36-0.06,3.55-0.01c1.81,0.08,3.63,0.17,5.44,0.04
		c5.71-0.41,11.43-0.38,17.14-0.44c2.47-0.02,2.92-0.41,2.97-2.84C321.11,290.4,320.7,285.1,320.61,279.26z M199.39,300.39
		c0.27-0.96-0.26-1.95,0.31-2.72c0.79-1.09-0.55-1.78-0.41-2.72c0.06-0.41,0.08-0.83,0.13-1.24c0.1-0.76,0.11-1.51,0.01-2.29
		c-0.17-1.32-0.12-2.64,0.03-3.97c0.2-1.86,0.23-3.7-0.03-5.59c-0.37-2.68-0.45-5.42-0.24-8.13c0.17-2.19,0.53-4.35-0.06-6.54
		c-0.33-1.24,0.11-2.49,0.13-3.74c0.01-1.32-0.24-1.63-1.53-1.73c-0.9-0.07-1.82-0.05-2.72-0.02c-3.34,0.12-6.69,0.3-10.03,0.38
		c-2.98,0.07-5.97,0.03-8.95,0.07c-2.16,0.03-4.31,0.14-6.47,0.15c-2.15,0.01-2.15-0.03-2.13,2.22c0.03,3.07,0.16,6.14,0.13,9.2
		c-0.04,3.89,0.25,7.77,0.1,11.66c-0.1,2.51,0.18,5,0.16,7.52c-0.02,2.35-0.13,4.73,0.13,7.09c0.13,1.17,0.75,1.55,1.64,1.27
		c1.75-0.55,3.46-0.06,5.19-0.12c4.12-0.15,8.23-0.25,12.35-0.41C191.14,300.56,195.19,300.95,199.39,300.39z M273.85,338.93
		c0,0,0-0.01,0-0.01c0.7,0,1.4,0.01,2.1,0c1.61-0.01,3.22-0.01,4.82-0.06c0.63-0.02,1.52-0.15,1.32-0.96
		c-0.5-2.03,0.18-4.05-0.13-6.05c-0.33-2.08-0.14-4.18-0.23-6.26c-0.12-2.78,0.45-5.57-0.21-8.34c-0.1-0.42-0.13-0.96,0.16-1.2
		c0.78-0.63,0.49-1.5,0.35-2.11c-0.46-2.05-0.74-4.05-0.48-6.17c0.2-1.62-0.47-2.07-2.23-2.05c-6.21,0.08-12.41,0.28-18.61,0.21
		c-4.68-0.06-9.34,0.43-14.01,0.2c-0.58-0.03-1.1,0.12-1.63,0.28c-0.37,0.12-0.59,0.38-0.6,0.76c-0.05,1.11-0.23,2.24-0.09,3.33
		c0.47,3.54,0.11,7.09,0.28,10.64c0.26,5.36,0.11,10.73,0.39,16.1c0.1,1.97,0.42,2.24,2.43,2.2
		C256.27,339.26,265.06,339.1,273.85,338.93z M262.42,255.48c0.94,0,2.33,0.01,3.72,0c4.19-0.03,8.38-0.05,12.57-0.1
		c1.7-0.02,1.81-0.17,1.84-1.77c0.05-2.89-0.76-5.8,0.12-8.69c0.05-0.17-0.1-0.4-0.13-0.6c-0.33-2.42-0.8-4.83,0.05-7.24
		c0.07-0.19,0.16-0.47,0.07-0.6c-0.99-1.49,0.51-3.27-0.57-4.74c0.65-2.08,0.01-4.13-0.16-6.19c-0.18-2.2-0.48-2.54-2.68-2.42
		c-5.57,0.3-11.14,0.27-16.71,0.35c-5.22,0.08-10.45,0.07-15.67,0.09c-2.12,0.01-2.28,0.15-2.32,2.21
		c-0.01,0.84-0.04,1.68,0.01,2.51c0.48,8.29,0.25,16.61,0.64,24.9c0.11,2.44,0.18,2.63,2.63,2.61
		C251.21,255.74,256.59,256.02,262.42,255.48z M445.85,483.84c-0.16,2.11-0.06,4.63,0.02,7.14c0.07,2.07,0.36,2.4,2.35,2.14
		c2.36-0.31,4.75-0.21,7.07-0.05c3.01,0.2,5.97-0.27,8.97-0.2c2.55,0.06,5.12-0.27,7.68,0.06c0.69,0.09,1.4,0.03,2.09,0.03
		c0.97,0,1.43-0.34,1.6-1.45c0.3-1.89,0.03-3.76,0.07-5.63c0.07-3.55,0.25-7.1,0.11-10.64c-0.08-2.01-0.19-4.04-0.16-6.04
		c0.08-4.86-0.18-9.73,0.1-14.59c0.08-1.4-0.43-1.87-1.87-1.88c-1.25-0.01-2.51-0.04-3.76,0.06c-5.37,0.45-10.76,0.21-16.13,0.35
		c-2.43,0.06-4.87,0.2-7.3,0.31c-1.11,0.05-1.58,0.62-1.59,1.75c-0.01,1.4,0.13,2.79,0.12,4.18
		C445.2,467.4,445.56,475.42,445.85,483.84z M439.4,204.98c0.03,3.37-0.04,6.09,0.26,8.81c0.2,1.8,0.48,2.13,2.31,1.97
		c1.18-0.1,2.37-0.06,3.54-0.11c1.33-0.05,2.65,0.23,3.96,0.04c3.54-0.53,7.1-0.26,10.65-0.29c1.95-0.02,3.89-0.08,5.83-0.1
		c2.39-0.02,4.8-0.48,7.2,0.32c1.25,0.42,2.03-0.53,1.71-1.86c-0.19-0.82-0.16-1.62-0.15-2.46c0.03-2.14,0.27-4.29,0.11-6.41
		c-0.08-1.11-0.22-2.32,0.06-3.28c0.34-1.16,0.23-2.16,0.01-3.23c-0.3-1.39-0.17-2.78,0.08-4.15c0.21-1.18,0.25-2.36-0.01-3.51
		c-0.14-0.61-0.28-1.22-0.33-1.85c-0.1-1.32-0.22-2.64,0.34-3.92c0.42-0.97,0.27-2.13,0.03-2.95c-0.25-0.86-1.61-0.49-2.49-0.48
		c-7.04,0.02-14.08,0.16-21.12,0.06c-3.63-0.05-7.23,0.51-10.87,0.26c-1.37-0.09-1.54,0.22-1.56,1.79
		C438.86,190.97,439.56,198.29,439.4,204.98z M237.02,281.22c-0.03,0-0.06,0-0.08,0c0-3.56,0.01-7.13,0-10.69
		c-0.01-2.16-0.12-4.32-0.04-6.49c0.09-2.78-0.27-3.08-3.04-3.16c-4.67-0.13-9.33,0.23-14,0.28c-3.68,0.04-7.39-0.08-11.08,0.25
		c-1.88,0.17-2.19,0.34-2.22,2.21c-0.04,2.7-0.13,5.42,0.05,8.08c0.33,4.81-0.07,9.61,0.2,14.42c0.22,3.9,0.08,7.83,0.11,11.74
		c0.02,2.26,0.36,2.52,2.52,2.55c3.33,0.04,6.67-0.68,10,0.11c0.51,0.12,1.11-0.04,1.66-0.15c2.26-0.46,4.56-0.35,6.85-0.4
		c2.65-0.06,5.31,0.03,7.96,0c1.39-0.02,1.49-0.18,1.47-1.4C237.25,292.79,237.14,287.01,237.02,281.22z M331.62,481.21
		c0,3.28-0.06,6.57,0.02,9.85c0.05,2.12,0.36,2.38,2.49,2.43c1.6,0.04,3.21-0.12,4.82-0.06c2.15,0.08,4.29,0.13,6.43-0.14
		c1.39-0.18,2.73-0.39,4.11,0.22c0.9,0.4,1.94,0.11,2.89-0.01c2.33-0.27,4.6-0.49,6.99-0.01c2.06,0.42,3.62-0.19,3.44-2.84
		c-0.09-1.32-0.16-2.65-0.2-3.97c-0.12-4.12,0.12-8.24-0.22-12.35c-0.19-2.29-0.26-4.61-0.14-6.9c0.18-3.42-0.16-6.83-0.1-10.24
		c0.03-1.67-0.38-1.9-2.04-1.83c-2.5,0.1-5.01,0.25-7.52,0.23c-5.31-0.06-10.6,0.24-15.9,0.4c-1.19,0.04-2.38,0.01-3.56,0.07
		c-1.74,0.08-1.94,0.26-1.97,1.96c-0.04,2.3-0.1,4.61,0.02,6.91C331.42,470.34,331.47,475.78,331.62,481.21z M323.93,465.66
		c0-2.37-0.02-4.75,0-7.12c0.02-2.09-0.5-2.49-2.67-2.3c-4.8,0.44-9.63,0.24-14.44,0.32c-4.39,0.08-8.77,0.38-13.17,0.31
		c-0.81-0.01-1.29,0.29-1.26,1.25c0.06,1.39-0.04,2.79-0.01,4.19c0.16,7.25,0.35,14.49,0.51,21.74c0.05,2.44-0.01,4.88,0.04,7.31
		c0.04,1.77,0.5,2.17,2.31,2.16c1.81-0.02,3.63-0.18,5.44-0.11c2.49,0.1,5.01,0.08,7.48,0.01c4.94-0.13,9.88,0.52,14.82-0.15
		c1.23-0.17,1.49-0.24,1.48-1.46c-0.03-3.63-0.15-7.26-0.13-10.88C324.36,475.84,323.84,470.76,323.93,465.66z M259.13,82.91
		c-5.11,0-9.86,0-14.61,0c-0.98,0-1.96-0.03-2.94,0.03c-1.43,0.08-1.66,0.34-1.64,1.81c0.15,8.24-0.07,16.48,0.44,24.72
		c0.24,3.88,0.46,4.2,4.24,3.88c6.4-0.55,12.82-0.17,19.22-0.54c3.98-0.23,7.99,0.04,11.99,0.08c1.49,0.01,1.91-0.41,2.32-1.82
		c0.56-1.95,0.4-3.96-0.1-5.77c-0.45-1.64-0.33-3.14-0.21-4.72c0.11-1.45,0.51-2.9-0.04-4.34c-0.16-0.43,0.01-0.85,0.21-1.21
		c0.4-0.73,0.34-1.43,0.16-2.22c-0.64-2.79-1.11-5.61-0.43-8.47c0.19-0.8-0.31-1.2-0.98-1.34c-0.61-0.12-1.25-0.11-1.88-0.11
		C269.53,82.85,264.15,82.73,259.13,82.91z M437.46,434.43c-0.16-6-0.13-12-0.55-18c-0.14-1.95-0.42-2.25-2.41-2.26
		c-2.44-0.01-4.9-0.09-7.31,0.04c-3.98,0.21-7.95,0.05-11.92,0.26c-2.99,0.15-5.99,0.2-8.98,0.32c-1.58,0.06-1.65,0.11-1.57,1.64
		c0.15,3.07,0.21,6.13,0.25,9.2c0.02,1.73-0.14,3.46-0.01,5.22c0.35,4.64,0.29,9.32,0.38,13.98c0.02,1.18-0.07,2.37,0.02,3.55
		c0.12,1.52,0.33,1.62,1.83,1.52c1.11-0.08,2.23-0.16,3.34-0.14c8.31,0.17,16.6-0.46,24.91-0.47c1.84,0,2.02-0.25,2.02-2.08
		C437.46,442.95,437.46,438.69,437.46,434.43z M259.35,149.62c0,0.03,0,0.07,0,0.1c-2.44,0-4.89-0.01-7.33,0
		c-3.07,0.01-6.13,0.09-9.2,0.04c-1.7-0.02-1.8-0.04-1.77,1.67c0.04,2.16,0.18,4.31,0.2,6.47c0.05,4.96,0.03,9.92,0.08,14.87
		c0.02,1.88,0.06,3.76,0.36,5.63c0.15,0.92,0.56,1.39,1.49,1.39c0.42,0,0.84,0.01,1.26,0.02c4.39,0.08,8.76-0.28,13.15-0.24
		c4.6,0.03,9.21-0.04,13.82-0.19c2.16-0.07,4.33,0.17,6.49-0.09c0.92-0.11,1.43-0.45,1.38-1.44c-0.02-0.42,0.08-0.85,0-1.25
		c-0.59-2.88-0.12-5.79-0.1-8.68c0.01-2.39,0.12-4.81,0.01-7.18c-0.12-2.68-0.4-5.36-0.34-8.06c0.06-2.64-0.32-3.07-2.94-3.07
		C270.39,149.62,264.87,149.62,259.35,149.62z M376.48,257.93c-1.47,0-2.94-0.01-4.4,0c-1.54,0.01-3.08-0.03-4.61,0.07
		c-1.53,0.1-1.79,0.41-1.77,1.97c0.01,1.04,0.2,2.09,0.22,3.13c0.08,6.56,0,13.12,0.35,19.68c0.22,4.11,0.07,8.23,0.12,12.35
		c0.03,2.23,0.5,2.79,2.75,2.6c2.5-0.21,5-0.05,7.5-0.24c2.98-0.23,5.99-0.14,8.99-0.16c2.48-0.02,4.96,0.27,7.43-0.13
		c1.53-0.24,1.7-0.29,1.69-1.79c-0.01-2.23-0.12-4.45-0.17-6.68c-0.07-2.86-0.25-5.72-0.18-8.58c0.08-3.2,0.25-6.48-0.2-9.57
		c-0.53-3.62,0.65-7.21-0.4-10.75c-0.05-0.18,0.06-0.41,0.12-0.61c0.31-1.02-0.29-1.48-1.13-1.6c-0.89-0.13-1.81-0.12-2.72-0.08
		C385.54,257.73,381.01,257.9,376.48,257.93z M411.25,182.36c-3,0-5.99-0.02-8.99,0.01c-2.58,0.02-2.89,0.35-2.86,2.9
		c0,0.28,0.07,0.56,0.07,0.83c0.14,3.96,0.26,7.92,0.42,11.88c0.04,1.05-0.27,2.05-0.2,3.11c0.28,4.16,0.65,8.32,0.23,12.49
		c-0.17,1.71,0.64,2.65,2.29,2.56c3.95-0.23,7.89,0.18,11.86-0.13c5.55-0.43,11.14,0.19,16.71-0.29c2.22-0.19,2.31-0.1,2.31-2.39
		c0-0.7-0.04-1.4-0.06-2.09c-0.11-3.41-0.26-6.83-0.31-10.24c-0.08-5.65,0.04-11.3-0.42-16.94c-0.15-1.87-0.3-1.94-2.08-2.12
		c-2.65-0.26-5.29,0.03-7.93,0.04C418.61,181.98,414.94,182.27,411.25,182.36z M442.68,353.54c0.06,0,0.13,0,0.19,0
		c0,2.58-0.05,5.16,0.01,7.74c0.08,3.84,0.19,7.68,0.38,11.52c0.09,1.81,0.6,2.2,2.36,2.19c3.9-0.02,7.81,0.04,11.71-0.12
		c3.63-0.14,7.25-0.28,10.88-0.22c1.87,0.03,3.77,0.07,5.64-0.32c0.92-0.19,1.3-0.54,1.29-1.51c-0.06-3.97,0.6-7.93,0.16-11.92
		c-0.13-1.15-0.28-2.39,0.68-3.36c0.15-0.16,0.18-0.39,0.05-0.58c-1.08-1.56-0.87-3.38-0.79-5.06c0.17-3.42-0.33-6.82-0.01-10.23
		c0.09-0.94-0.5-1.39-1.43-1.4c-2.93-0.01-5.88-0.25-8.79,0c-5.38,0.46-10.75,0.21-16.12,0.33c-1.61,0.04-3.17,0.52-4.8,0.34
		c-1.33-0.15-1.39-0.08-1.4,1.3C442.66,346,442.68,349.77,442.68,353.54z M412.68,341.48c-2.17,0-4.33-0.08-6.5,0.02
		c-3.53,0.15-2.92-0.17-2.92,2.93c0,1.59,0.24,3.21-0.29,4.79c-0.06,0.18-0.07,0.44,0.01,0.61c1.23,2.77,0.31,5.66,0.42,8.48
		c0.1,2.62,0.05,5.25,0.23,7.87c0.12,1.73,0.22,3.49,0.06,5.21c-0.1,1.05-0.14,1.9,0.15,3c0.37,1.43,0.92,1.42,1.96,1.3
		c0.48-0.06,0.97-0.01,1.46-0.02c4.18-0.09,8.34-0.33,12.53-0.2c3.4,0.11,6.81-0.19,10.21-0.36c1.32-0.06,2.63,0.2,3.97,0
		c2.18-0.33,2.37-0.47,2.32-2.58c-0.23-9.48-0.45-18.97-0.65-28.45c-0.06-2.99-0.09-3.05-3.08-3.04c-0.14,0-0.28,0.01-0.42,0.01
		C425.65,340.86,419.17,341.34,412.68,341.48z M208.56,478.32c0,4.43-0.01,8.06,0.01,11.7c0,0.98,0.09,1.95,0.15,2.93
		c0.05,0.79,0.46,1.1,1.25,0.99c1.17-0.15,2.38-0.47,3.53-0.35c3.69,0.37,7.38,0.08,11.07,0.25c4.64,0.22,9.31-0.05,13.97-0.1
		c1.64-0.02,1.68-0.05,1.62-1.6c-0.01-0.35-0.09-0.69-0.11-1.04c-0.08-2.29-0.43-4.62-0.17-6.88c0.42-3.69,0.26-7.37,0.1-11.02
		c-0.2-4.31-0.18-8.62-0.33-12.93c-0.07-1.99-0.13-2.15-2.13-2.13c-3.13,0.03-6.27,0.07-9.4,0.21c-5.09,0.23-10.18,0.25-15.28,0.27
		c-1.11,0-2.22,0.23-3.33,0.35c-0.65,0.07-1.07,0.4-1.03,1.08c0.1,1.61-0.26,3.23-0.14,4.81
		C208.72,469.61,208.42,474.36,208.56,478.32z M246.57,404.88c0.18,2.09-0.05,4.18-0.03,6.27c0.01,1.53,0.46,1.94,2,2.05
		c0.35,0.02,0.7,0.02,1.05-0.01c5.63-0.44,11.27-0.32,16.91-0.51c4.78-0.16,9.57-0.32,14.36-0.24c1.92,0.03,2.34-0.43,2.38-2.29
		c0.05-2.16-0.22-4.3-0.18-6.47c0.02-1.18,0.31-2.36,0.12-3.54c-0.46-2.9-0.22-5.81-0.27-8.72c-0.04-2.5,0.32-5-0.25-7.51
		c-0.36-1.58-0.23-1.64-1.75-1.6c-3.41,0.09-6.82,0.24-10.24,0.23c-4.89-0.02-9.77,0.09-14.66,0.19c-2.85,0.05-5.7,0.2-8.55,0.26
		c-0.98,0.02-1.33,0.42-1.32,1.41c0.02,2.65,0.11,5.29,0.08,7.94C246.16,396.52,246.43,400.7,246.57,404.88z M441.83,321.16
		c0.14,0,0.27,0,0.41,0c0,1.95-0.02,3.9,0,5.85c0.03,2.44,0.05,4.88,0.14,7.32c0.05,1.3,0.37,1.61,1.67,1.62
		c2.94,0.02,5.89,0.16,8.8-0.09c6.42-0.54,12.85-0.15,19.27-0.38c2.4-0.09,2.71-0.33,3.03-2.65c0.29-2.1-0.41-4.17,0.05-6.24
		c0.35-1.57,0.62-3.11-0.2-4.64c-0.3-0.57-0.13-1.24-0.06-1.86c0.15-1.53,0.09-3.07,0.1-4.61c0.01-1.39-0.26-2.83-0.03-4.13
		c0.45-2.53-0.09-5,0.01-7.5c0.03-0.81-0.49-1.28-1.3-1.36c-0.49-0.05-0.98-0.04-1.47-0.06c-4.4-0.18-8.78,0.16-13.18,0.18
		c-1.25,0-2.52-0.22-3.76-0.11c-3.97,0.35-7.95,0.33-11.93,0.43c-1.12,0.03-1.38,0.49-1.54,1.48c-0.28,1.75-0.03,3.48-0.03,5.22
		C441.83,313.47,441.83,317.32,441.83,321.16z M292.01,441.08c0.12,3.28,0.29,6.55,0.32,9.83c0.01,1,0.42,1.2,1.22,1.22
		c1.12,0.02,2.24,0.09,3.35,0.06c6.63-0.2,13.26-0.46,19.89-0.38c1.68,0.02,3.36,0.01,5.03-0.12c1.82-0.15,1.96-0.43,1.86-2.26
		c-0.24-4.53-0.22-9.08-0.28-13.61c-0.06-5.51-0.29-11.02-0.28-16.53c0-2.07-0.28-2.3-2.31-2.31c-2.09-0.01-4.19,0.12-6.28,0.03
		c-3-0.13-5.99,0.14-8.98,0.21c-1.39,0.03-2.78,0.16-4.18,0.15c-2.58-0.03-5.17-0.04-7.75,0.21c-1.81,0.18-2,0.31-1.95,2.18
		c0.08,2.72,0.03,5.44,0.13,8.15C291.97,432.3,292.02,436.69,292.01,441.08z M444.37,424.28c0.08,4.4,0.12,8.79,0.38,13.19
		c0.19,3.13,0.05,6.28,0.12,9.42c0.04,2.04,0.62,2.57,2.57,2.27c1.46-0.23,2.92-0.28,4.39-0.23c6.15,0.19,12.29-0.45,18.44-0.39
		c1.05,0.01,2.1-0.02,3.15-0.04c2.09-0.05,2.14-0.1,2.12-2.11c-0.02-1.68,0.01-3.36-0.05-5.03c-0.03-0.91,0.49-1.71,0.25-2.68
		c-0.39-1.56-0.29-3.19-0.28-4.8c0-4.81,0-9.62,0.09-14.43c0.03-1.37-0.49-2.78,0.21-4.14c0.1-0.2-0.04-0.53-0.1-0.8
		c-0.3-1.25-1.25-1.31-2.3-1.28c-6.42,0.15-12.85,0.33-19.27,0.41c-2.72,0.04-5.43,0.51-8.16,0.09c-0.97-0.15-1.64,0.22-1.62,1.37
		c0.01,0.41-0.17,0.84-0.13,1.25C444.44,418.97,444.46,421.62,444.37,424.28z M361.74,432.52c0-1.79,0.02-4.45,0-7.1
		c-0.02-2.72-0.04-5.44-0.13-8.15c-0.05-1.37-0.3-1.53-1.66-1.46c-1.25,0.06-2.5,0.17-3.75,0.26c-3.48,0.25-6.97,0.22-10.45,0.25
		c-4.53,0.04-9.05,0.35-13.58,0.28c-1.54-0.02-1.76,0.31-1.86,1.87c-0.03,0.42-0.02,0.84-0.01,1.26c0.13,4.95,0.28,9.89,0.38,14.84
		c0.05,2.58-0.02,5.17,0.04,7.75c0.06,2.44,0.19,4.88,0.36,7.31c0.1,1.49,0.35,1.67,1.77,1.77c0.28,0.02,0.56,0,0.84,0
		c8.58,0.02,17.15-0.56,25.74-0.46c0.55,0.01,1.11-0.13,1.66-0.19c0.76-0.09,1.09-0.52,1.07-1.27c-0.02-0.63,0.01-1.26,0-1.89
		C362.02,442.85,361.89,438.12,361.74,432.52z M141.66,301.61c5.07-0.08,10.15-0.34,15.22-0.12c1.04,0.04,2.09-0.13,3.13-0.19
		c0.75-0.04,1.07-0.4,1.19-1.16c0.22-1.34-0.08-2.65-0.09-3.98c-0.03-6.91-0.13-13.82-0.08-20.73c0.02-2.24-0.61-4.46-0.26-6.69
		c0.24-1.55-0.05-3.06-0.08-4.59c-0.02-1-0.48-1.64-1.52-1.57c-2.86,0.2-5.73-0.23-8.57,0.19c-0.91,0.13-1.81,0.13-2.72,0.14
		c-4.33,0.05-8.65,0.1-12.97,0.2c-1.84,0.04-1.89,0.11-1.91,1.93c-0.04,3.35-0.1,6.7-0.04,10.05c0.16,8.44,0.17,16.88,0.18,25.33
		c0,0.97,0.3,1.22,1.19,1.2C136.76,301.58,139.21,301.61,141.66,301.61z M196.7,454.14c0.14,0.01,0.28,0.04,0.42,0.03
		c0.7-0.03,1.39-0.07,2.09-0.11c1.92-0.11,2-0.35,2.19-2.26c0.27-2.72-0.17-5.4-0.08-8.11c0.09-2.61,0.07-5.23-0.04-7.86
		c-0.08-1.9-0.47-3.89,0.1-5.82c0.16-0.54,0.03-1.09-0.05-1.65c-0.3-2.22-0.4-4.45-0.28-6.68c0.03-0.52,0.6-1.09-0.01-1.55
		c-0.5-0.38-1.17-0.65-1.77-0.51c-1.33,0.31-2.64-0.03-3.96,0.02c-2.44,0.09-4.87,0.3-7.32,0.32c-5.51,0.04-11.02,0.22-16.53,0.38
		c-1.64,0.05-1.85,0.25-1.82,1.83c0.06,2.79,0,5.57,0.09,8.36c0.24,7.33,0.22,14.66,0.28,21.99c0.01,1.8,0.37,2.31,2.19,2.19
		c3.21-0.21,6.42-0.24,9.62-0.31C186.78,454.29,191.75,454.48,196.7,454.14z M369.75,485.2c0,2.17,0,4.41,0,6.65
		c0,0.92,0.34,1.38,1.39,1.36c1.67-0.03,3.35-0.12,5.01-0.08c3.13,0.08,6.24,0.11,9.38-0.03c3.44-0.16,6.9,0.03,10.35,0.12
		c1.73,0.04,1.91-0.08,1.98-1.84c0.04-1.12,0.13-2.23,0.1-3.35c-0.06-2.93-0.27-5.86-0.23-8.79c0.11-7.6-0.29-15.19-0.33-22.79
		c-0.01-1.44-0.3-1.62-1.72-1.75c-2.8-0.26-5.59,0.11-8.38,0.02c-5.52-0.18-11.02,0.54-16.54,0.45c-0.99-0.02-1.53,0.37-1.52,1.5
		c0.07,5.52-0.05,11.04,0.18,16.55C369.58,477.2,369.55,481.17,369.75,485.2z M435.21,307.84c-0.35-1.25-0.53-2.51-0.36-3.77
		c0.11-0.83-0.31-1.17-1.07-1.18c-0.56-0.01-1.12,0.03-1.67,0.04c-3.21,0.08-6.42,0.48-9.63,0.29c-3.63-0.22-7.23,0.29-10.87,0.19
		c-2.63-0.07-5.29,0.22-7.94,0.17c-1.41-0.02-1.93,0.58-1.53,1.97c0.32,1.11,0.26,2.21,0.32,3.32c0.07,1.47-0.36,2.92-0.25,4.35
		c0.23,3.11,0.52,6.21,0.38,9.35c-0.07,1.58-0.06,3.2,0.04,4.77c0.15,2.43,0.36,4.83-0.19,7.22c-0.09,0.4,0.06,0.63,0.22,0.95
		c0.65,1.35,1.82,1.31,3.05,1.24c2.51-0.14,5.01-0.3,7.52-0.34c5.17-0.08,10.34-0.01,15.51-0.17c1.66-0.05,3.34,0.09,5.01-0.22
		c1.65-0.31,1.67-0.29,1.63-2.02c-0.06-3-0.14-6.01-0.15-9.01C435.19,319.28,435.21,313.56,435.21,307.84z M66.29,289.99
		c-0.32,3.2,0.03,6.47-0.02,9.75c-0.04,2.54,0.11,2.62,2.55,2.67c0.35,0.01,0.7,0.02,1.05,0.01c5.1-0.05,10.2-0.21,15.29-0.1
		c2.65,0.06,5.29-0.24,7.94-0.1c1.39,0.07,1.61-0.21,1.61-1.56c0-3.83-0.02-7.66-0.07-11.5c-0.06-3.88-0.18-7.77-0.26-11.65
		c-0.08-3.83-0.1-7.66-0.22-11.49c-0.06-1.77-0.37-2-2.16-2c-1.05,0-2.09,0.1-3.14,0.12c-2.58,0.06-5.16,0.02-7.73,0.18
		c-2.99,0.19-5.97,0.09-8.96,0.15c-1.46,0.03-2.93-0.06-4.39-0.03c-1.25,0.03-1.48,0.33-1.64,1.63c-0.28,2.16,0.25,4.31-0.03,6.47
		c-0.16,1.24-0.18,2.51-0.08,3.76C66.39,280.83,66.11,285.37,66.29,289.99z M339.9,183.28c0-0.02,0-0.05,0-0.07c-3,0-6-0.01-9,0.01
		c-1.05,0.01-2.1,0.05-3.14,0.14c-1.51,0.12-1.88,0.46-1.84,1.91c0.04,1.46,0.06,2.92,0.07,4.38c0.06,8.44,0.23,16.89,0.5,25.33
		c0.06,1.88,0.06,1.88,2.03,2.02c0.28,0.02,0.56,0.08,0.83,0.05c4.03-0.41,8.07,0.1,12.11-0.22c2.29-0.18,4.61,0.16,6.89,0.05
		c2.99-0.15,5.98-0.07,8.96-0.36c0.48-0.05,0.82-0.12,0.85-0.66c0.09-2.35,0.35-4.71,0.2-7.04c-0.11-1.72-0.48-3.53-0.24-5.16
		c0.56-3.82-0.54-7.57,0.05-11.42c0.37-2.37-0.34-4.94-0.16-7.44c0.07-1.05-0.49-1.75-1.38-1.7c-2.03,0.1-4.04-0.21-6.06-0.16
		C347.01,183,343.45,183.15,339.9,183.28z M170.76,487.79c0,1.38-0.03,2.99,0.01,4.6c0.04,1.42,0.18,1.55,1.6,1.56
		c1.67,0.01,3.34-0.04,5.02-0.05c3.13-0.02,6.26-0.02,9.39-0.05c2.72-0.03,5.43-0.18,8.14-0.08c1.6,0.05,3.2,0.13,4.8,0.05
		c1.92-0.1,2.53-0.69,2.34-2.59c-0.31-3.19-0.35-6.37-0.39-9.57c-0.01-1.12,0.39-2.17,0.2-3.3c-0.41-2.48-0.21-5-0.27-7.5
		c-0.07-3.2-0.09-6.4-0.18-9.6c-0.05-1.94-0.51-2.43-2.41-2.22c-2.09,0.23-4.17,0.1-6.26,0.14c-5.44,0.12-10.87,0.28-16.31,0.43
		c-1.6,0.05-3.2,0.14-4.8,0.19c-1.08,0.03-1.32,0.58-1.37,1.62c-0.11,1.96,0.07,3.9,0.08,5.85
		C170.37,474.04,170.33,480.81,170.76,487.79z M208,436.57c0.07,0,0.15,0,0.22,0c0,4.6-0.06,9.19,0.02,13.79
		c0.07,4.1,0.14,3.58,3.38,3.53c6.55-0.1,13.1-0.39,19.66-0.36c2.28,0.01,4.6,0.08,6.9-0.2c0.99-0.12,1.23-0.46,1.38-1.36
		c0.34-2.1,0.01-4.19-0.04-6.26c-0.15-5.93-0.26-11.86-0.33-17.79c-0.03-2.58-0.11-5.16-0.15-7.75c-0.01-0.61-0.1-1.29-0.81-1.21
		c-1.41,0.16-2.77-0.33-4.17-0.17c-2.29,0.27-4.59,0.29-6.89,0.33c-5.71,0.11-11.43-0.34-17.13,0.35c-1.63,0.2-2.02,0.46-2.03,2
		C207.99,426.51,208,431.54,208,436.57z M171.38,185.24c0,0.07,0,0.14,0,0.21c-0.91,0-1.81,0.01-2.72,0c-2-0.04-2.5,0.46-2.36,2.43
		c0.31,4.18,0.13,8.37,0.15,12.55c0.01,2.79,0.06,5.59,0.1,8.38c0.04,2.29,0.21,4.59,0.1,6.87c-0.12,2.51,0.49,3.24,2.98,3.31
		c6.7,0.17,13.39-0.54,20.09-0.12c0.69,0.04,1.41,0.01,2.09-0.13c0.91-0.19,1.82-0.21,2.7,0.01c0.99,0.25,1.94-0.03,2.89-0.14
		c0.98-0.11,1.59-0.57,1.51-1.81c-0.2-2.97-0.19-5.95-0.38-8.91c-0.15-2.5,0.09-5.01-0.28-7.51c-0.19-1.29,0.2-2.61,0.14-3.96
		c-0.14-2.91-0.44-5.83-0.18-8.75c0.2-2.26-0.18-2.67-2.54-2.6c-2.51,0.08-5.02,0.23-7.53,0.21
		C182.55,185.2,176.96,185.24,171.38,185.24z M346.05,342.43c-4.95,0.44-9.92,0.05-14.86,0.62c-2.18,0.25-2.19,0.17-2.19,2.44
		c0,0.14,0,0.28,0,0.42c0.13,4.95,0.16,9.91,0.25,14.86c0.09,4.46,0.35,8.93,0.2,13.4c-0.08,2.31,0.07,2.26,2.27,2.58
		c3.39,0.49,6.8-0.66,10.17,0.14c5.54-0.82,11.13-0.14,16.69-0.58c1.92-0.15,2.14-0.28,2.3-2.19c0.03-0.42,0.04-0.84,0.03-1.26
		c-0.08-4.52-0.16-9.04-0.24-13.56c-0.07-4.6-0.15-9.2-0.19-13.81c-0.02-2.97-0.22-3.2-3.15-3.14c-0.28,0.01-0.56,0.07-0.84,0.07
		C353.02,342.43,349.54,342.43,346.05,342.43z M440.23,239.59c0,3.27-0.02,7.17,0.28,11.08c0.13,1.73,0.09,1.74,1.79,1.8
		c2.64,0.09,5.28,0.08,7.91-0.18c4.37-0.44,8.76,0.21,13.13-0.3c0.34-0.04,0.69,0.04,1.04,0.06c3.07,0.2,6.11-0.41,9.18-0.38
		c1.14,0.01,2.78-2.56,2.09-3.04c-1.31-0.9-0.48-1.85-0.48-2.75c0-0.62,0.13-1.23-0.1-1.85c-0.23-0.6-0.25-1.22,0-1.84
		c0.31-0.74,0.22-1.49,0.14-2.26c-0.29-2.63-0.37-5.26-0.37-7.91c0-2.97,0.36-5.96-0.14-8.93c-0.25-1.48-0.35-1.6-1.88-1.59
		c-5.5,0.02-10.99,0.06-16.49,0.07c-1.46,0-2.94-0.23-4.38-0.09c-3.33,0.34-6.67,0.03-10,0.3c-1.99,0.16-2.05,0.06-2.11,2.14
		c-0.01,0.49-0.01,0.98,0.01,1.47C439.96,229.9,440.09,234.42,440.23,239.59z M306.39,343.52c-0.81,0-1.44,0-2.06,0
		c-3.98,0.02-7.97,0.01-11.95,0.07c-1.64,0.03-2.09,0.61-2,2.23c0.35,6.11,0.27,12.24,0.35,18.36c0.05,3.69,0.26,7.38,0.2,11.08
		c-0.04,2.23,0.12,2.21,2.43,2.29c3.14,0.11,6.25-0.36,9.4-0.32c5.84,0.09,11.69,0.12,17.53-0.31c1.76-0.13,1.91-0.15,2.01-1.86
		c0.03-0.49,0-0.98,0.01-1.47c0.13-8.17-0.48-16.33-0.44-24.49c0.01-1.26,0.05-2.52-0.04-3.77c-0.15-2.07-0.35-2.22-2.42-2.22
		C315,343.13,310.6,343.12,306.39,343.52z M185.38,379.13c1.4,0,2.8-0.06,4.19,0.01c3.07,0.16,6.13-0.09,9.2-0.23
		c1.54-0.07,1.59-0.38,1.72-1.96c0.15-1.97,0.03-3.92,0-5.88c-0.02-1.1,0.49-2.29,0.22-3.3c-0.59-2.21-0.21-4.43-0.41-6.64
		c-0.29-3.17,0.12-6.36-0.01-9.55c-0.06-1.44-0.38-2.83-0.4-4.26c-0.02-1.77-0.32-2.11-2-2.02c-8.92,0.49-17.85,0.39-26.78,0.51
		c-0.55,0.01-1.1,0.15-1.66,0.23c-0.68,0.1-0.98,0.49-0.87,1.17c0.21,1.26-0.11,2.51-0.09,3.76c0.15,8.78,0.34,17.55,0.51,26.33
		c0.04,1.83,0.19,2,1.94,2.22c0.34,0.04,0.7,0.06,1.05,0.03C176.45,379.18,180.92,379.29,185.38,379.13z M176.33,307.45
		c0,0.02,0,0.05,0,0.07c-2.31,0-4.61,0.02-6.92-0.01c-1.06-0.01-1.46,0.46-1.57,1.49c-0.24,2.23,0.35,4.41,0.29,6.64
		c-0.04,1.37-0.22,2.76-0.21,4.15c0.02,2.15,0.56,4.28,0.13,6.44c-0.1,0.53,0.01,1.11,0.1,1.66c0.19,1.25,0.17,2.5,0.17,3.76
		c0,2.64,0.16,5.27,0.22,7.91c0.02,0.89,0.36,1.26,1.28,1.2c1.39-0.09,2.79-0.13,4.18-0.14c8.02-0.08,16.04-0.02,24.05-0.43
		c1.95-0.1,2.34-0.48,2.24-2.38c-0.15-2.96-0.47-5.91-0.4-8.88c0.06-2.99,0.14-5.99,0.14-8.98c0-3.46-0.77-6.88-0.27-10.4
		c0.34-2.46-0.11-2.61-2.71-2.55C190.13,307.16,183.23,307.3,176.33,307.45z M328.63,329.8c0,1.53-0.04,3.83,0.01,6.14
		c0.05,1.97,0.34,2.15,2.24,2.07c3.41-0.14,6.82-0.27,10.23-0.33c5.66-0.09,11.31-0.11,16.97-0.18c1.93-0.02,2.3-0.43,2.25-2.38
		c-0.07-2.65-0.43-5.29-0.17-7.95c0.11-1.11,0.24-2.24,0.13-3.35c-0.36-3.69-0.08-7.38-0.29-11.06c-0.14-2.35,0.4-4.73-0.32-7.06
		c-0.2-0.64-0.3-1.25-1.12-1.27c-2.16-0.05-4.33-0.21-6.48-0.09c-5.72,0.32-11.44,0.15-17.16,0.38c-1.81,0.07-3.62-0.24-5.43-0.03
		c-0.93,0.11-1.38,0.55-1.32,1.5c0.03,0.42,0.01,0.84,0.02,1.26C328.33,314.64,328.47,321.83,328.63,329.8z M319.56,206.5
		c-0.28-3.77-0.19-7.54-0.45-11.31c-0.22-3.2-0.1-6.43-0.18-9.64c-0.04-1.67-0.41-2.03-1.95-2.03c-3.35-0.01-6.7-0.01-10.05,0.05
		c-5.72,0.11-11.43,0.27-17.14,0.4c-1.62,0.03-1.96,0.31-1.89,1.98c0.13,2.86,0.2,5.75,0.07,8.58c-0.28,6,0.61,11.98,0.13,17.97
		c-0.08,1.07,0.01,2.22,0.12,3.33c0.09,0.94,0.49,1.59,1.56,1.6c2.43,0.02,4.87,0.19,7.29,0.03c2.29-0.16,4.57-0.1,6.86-0.11
		c1.74-0.01,3.49,0.16,5.21,0.08c2.84-0.14,5.66-0.45,8.5-0.01c1.11,0.17,1.67-0.35,1.87-1.47c0.07-0.41,0.04-0.84,0.05-1.25
		C319.56,211.95,319.56,209.22,319.56,206.5z M459.66,82.36c-3.63-0.1-7.25,0.23-10.89,0.04c-3.55-0.19-7.12,0.01-10.68,0.1
		c-1.3,0.03-1.65,0.37-1.54,1.7c0.3,3.42,0.22,6.83,0.2,10.26c-0.04,4.74,0.33,9.48,0.54,14.22c0.07,1.57,0.36,1.89,1.85,1.89
		c4.47-0.01,8.96,0.24,13.39-0.18c3.57-0.34,7.08,0.31,10.62-0.1c2.14-0.25,4.31-0.22,6.48-0.05c1.11,0.09,2.24-0.02,3.35-0.16
		c1.26-0.16,1.48-0.59,1.6-1.94c0.15-1.61,0.07-3.28-0.19-4.78c-0.28-1.6,1.04-3.29-0.34-4.74c0.67-1.87-0.01-3.9,0.39-5.66
		c0.68-3.01,0.17-5.87-0.05-8.79c-0.12-1.61-0.52-1.82-2.16-1.82C468.04,82.37,463.85,82.36,459.66,82.36z M305.09,305.32
		c-0.21,0-0.42,0-0.63,0c-4.39,0.02-8.79,0.02-13.18,0.06c-1.33,0.01-1.71,0.31-1.54,1.61c0.21,1.69-0.15,3.36-0.03,4.99
		c0.34,4.74,0.25,9.49,0.35,14.23c0.07,3.27,0.22,6.54,0.26,9.81c0.02,2.11,0.18,2.36,2.32,2.59c0.41,0.04,0.84,0.06,1.25,0.03
		c3.56-0.28,7.12-0.13,10.68-0.2c4.88-0.09,9.76-0.01,14.64-0.31c2.1-0.13,2.24-0.29,2.36-2.33c0.02-0.28-0.01-0.56,0.01-0.84
		c0.28-3.49-0.16-6.97-0.14-10.46c0.02-3.07-0.31-6.14-0.2-9.21c0.11-3.01-0.22-5.98-0.23-8.98c0-0.95-0.58-1.36-1.49-1.37
		c-0.56-0.01-1.12-0.04-1.68-0.04C313.58,304.97,309.34,305.34,305.09,305.32z M187.3,256.62c3.46,0,6.39,0.02,9.32-0.01
		c1.81-0.02,3.18-1.37,2.75-3.06c-0.43-1.67-0.25-3.28-0.35-4.93c-0.25-4.03-0.37-8.04,0.28-12.04c0.05-0.29,0.15-0.53-0.1-0.75
		c-0.82-0.72-0.53-1.68-0.5-2.56c0.03-0.82,0.39-1.7,0.21-2.45c-0.4-1.66-0.59-3.21-0.01-4.91c0.4-1.17-0.39-1.86-1.69-1.87
		c-1.25-0.01-2.51-0.08-3.76-0.04c-3.83,0.12-7.66,0.06-11.49,0.1c-4.04,0.04-8.08,0.52-12.12,0.14c-0.69-0.06-1.39,0.07-2.09,0.13
		c-0.48,0.04-0.76,0.33-0.78,0.82c-0.09,2.36-0.37,4.78-0.14,7.06c0.23,2.29,0.33,4.62,0.26,6.84c-0.17,5.62,0.31,11.22,0.06,16.83
		c-0.02,0.49,0.11,0.92,0.63,0.86c1.34-0.16,2.64,0.3,3.97,0.2C177.1,256.58,182.47,257.01,187.3,256.62z M207.72,372.58
		c0,1.61-0.05,3.22,0.02,4.82c0.05,1.25,0.48,1.69,1.71,1.58c3.42-0.3,6.84-0.25,10.26-0.29c3.48-0.05,6.96-0.1,10.44-0.25
		c2.1-0.09,4.18,0.22,6.28,0.03c1.98-0.18,1.99-0.12,1.97-2.04c-0.06-5.94-0.11-11.88-0.19-17.81c-0.06-3.97-0.16-7.93-0.26-11.9
		c-0.05-1.73-0.29-2.02-1.68-2c-9.01,0.15-18.02,0.32-27.04,0.49c-0.14,0-0.28,0.02-0.42,0.02c-0.91,0.04-1.43,0.49-1.46,1.43
		c-0.01,0.42-0.03,0.84-0.02,1.26c0.09,4.81,0.41,9.62,0.21,14.42C207.37,365.78,208.03,369.17,207.72,372.58z M433.48,235.6
		c0-1.12,0.03-2.24-0.01-3.35c-0.1-2.93-0.2-5.86-0.38-8.78c-0.09-1.38-0.38-1.58-1.68-1.6c-1.54-0.03-3.07-0.01-4.61-0.03
		c-7.12-0.09-14.24,0.35-21.36,0.16c-1.25-0.03-2.51,0.17-3.76,0.26c-0.83,0.06-1.36,0.52-1.28,1.35c0.25,2.44,0.06,4.88,0.08,7.31
		c0.01,1.95,0.29,3.9,0.28,5.84c-0.02,4.94,0.19,9.87,0.34,14.81c0.05,1.66,0.33,1.91,2,1.89c2.87-0.05,5.73-0.08,8.6-0.16
		c3.21-0.09,6.41-0.37,9.62-0.32c3.49,0.05,6.98-0.11,10.46-0.28c1.76-0.09,2.03-0.47,2-2.21
		C433.72,245.52,433.33,240.57,433.48,235.6z M438.58,168.6c0.05,0.99,0.17,2.8,0.01,4.62c-0.07,0.82,0.04,1.67,0.16,2.5
		c0.13,0.88,0.65,1.28,1.6,1.27c7.12-0.07,14.24-0.05,21.36-0.17c1.74-0.03,3.46-0.12,5.2-0.08c1.94,0.04,3.9,0.07,5.84-0.06
		c1.88-0.13,2.58-1.26,2.26-3.17c-0.3-1.77-0.48-3.55-0.37-5.37c0.06-1.06,0.78-2.1,0.45-3.07c-0.52-1.51-0.39-3.01-0.4-4.52
		c-0.02-2.64-0.11-5.28-0.03-7.92c0.12-3.61-0.18-3.97-3.78-3.95c-7.47,0.06-14.95,0.11-22.42,0.11c-1.54,0-3.05,0.53-4.58,0.2
		c-1.32-0.29-2.64-0.05-3.97-0.14c-1.21-0.08-1.62,0.38-1.74,1.59c-0.06,0.55-0.03,1.12-0.02,1.68
		C438.29,157.33,438.43,162.56,438.58,168.6z M342.45,222.53c0,0.05,0,0.1,0,0.14c-3.14,0-6.29,0-9.43,0c-1.6,0-3.2,0.22-4.81,0.02
		c-0.86-0.1-1.49,0.16-1.42,1.27c0.09,1.46-0.15,2.91-0.1,4.39c0.16,5.17,0.12,10.34,0.28,15.5c0.09,2.93,0.21,5.84,0.13,8.77
		c-0.04,1.55,0.74,2.28,2.16,2.2c5.3-0.3,10.6-0.33,15.9-0.29c4.19,0.03,8.38-0.14,12.57-0.28c1.09-0.04,1.33-0.69,1.27-1.51
		c-0.09-1.26-0.13-2.5-0.02-3.76c0.14-1.66,0.24-3.36,0.06-5.01c-0.37-3.34,0.09-6.71-0.58-10.02c-0.04-0.2-0.01-0.42,0.01-0.63
		c0.41-3.06,0.12-6.13,0.04-9.19c-0.04-1.4-0.25-1.59-1.59-1.6C352.09,222.52,347.27,222.53,342.45,222.53z M237.51,318.27
		c0-3.15,0.03-6.29-0.01-9.44c-0.03-2.25-0.33-2.49-2.6-2.45c-4.26,0.07-8.51,0.2-12.77,0.21c-4.11,0.01-8.21,0.18-12.32,0.3
		c-2.66,0.07-2.82,0.06-2.86,2.73c0,0.28,0.07,0.56,0.08,0.83c0.07,2.37,0.11,4.73,0.17,7.1c0.09,3.48-0.03,6.96,0.05,10.44
		c0.07,3.28-0.15,6.56,0.02,9.84c0.12,2.16,0.24,2.36,2.48,2.32c3.21-0.05,6.42-0.21,9.62-0.32c5.24-0.17,10.48-0.08,15.73-0.11
		c0.49,0,0.98,0,1.47-0.02c0.84-0.05,1.26-0.52,1.31-1.34c0.03-0.49,0.02-0.98,0.04-1.47C238.07,330.69,237.42,324.49,237.51,318.27
		z M206.06,205.78c0,3.07,0.01,6.15,0,9.22c-0.01,3.57-0.01,3.57,3.59,3.64c5.35,0.1,10.68-0.6,16.03-0.44
		c2.92,0.08,5.84,0.03,8.76-0.05c1.7-0.05,1.79-0.16,1.8-1.83c0.01-3.48-0.05-6.97-0.09-10.45c-0.06-5.01-0.32-10.02-0.31-15.04
		c0.01-1.54,0.02-3.08-0.08-4.61c-0.08-1.19-0.6-1.7-1.75-1.6c-2.51,0.22-5.01-0.1-7.5,0.01c-3.76,0.16-7.53,0.09-11.29,0.2
		c-2.5,0.07-5.01-0.27-7.51,0.12c-1.74,0.27-2.12,0.67-1.95,2.45c0.08,0.83,0.28,1.67,0.24,2.5
		C205.77,195.18,206.29,200.48,206.06,205.78z M89.29,456.01c2.45,0,4.2,0.03,5.94-0.01c1.43-0.03,1.89-0.59,1.54-1.98
		c-0.29-1.13-0.2-2.21,0-3.3c0.36-1.98-0.33-3.93-0.08-5.93c0.1-0.78-0.26-1.77-0.14-2.65c0.2-1.4,0.2-2.78-0.09-4.16
		c-0.15-0.69-0.11-1.39,0.02-2.08c0.18-0.9,0.18-1.81,0.09-2.71c-0.27-2.98-0.45-5.96-0.21-8.96c0.14-1.72-0.64-2.53-2.34-2.34
		c-4.94,0.54-9.89,0.19-14.83,0.33c-3.61,0.1-7.2,0.54-10.82,0.38c-0.9-0.04-1.52,0.25-1.54,1.26c-0.04,1.95-0.31,3.93-0.02,5.83
		c0.26,1.74,0.22,3.48,0.26,5.19c0.08,3.85-0.42,7.7,0.04,11.58c0.26,2.17-0.26,4.4,0.22,6.6c0.1,0.45-0.06,0.97-0.19,1.44
		c-0.52,1.86-0.5,1.9,1.47,1.96c0.49,0.01,0.98,0.01,1.47,0C76.74,456.39,83.37,456.4,89.29,456.01z M306.32,254.96
		c3.99,0,7.97,0.02,11.96-0.01c1.6-0.01,1.81-0.27,1.9-1.82c0.02-0.42,0.02-0.84,0.01-1.26c-0.13-4.81-0.29-9.62-0.37-14.42
		c-0.07-4.33-0.06-8.67-0.08-13c-0.01-1.4-0.28-1.68-1.52-1.66c-5.51,0.1-11.02,0.21-16.53,0.27c-3.7,0.04-7.41,0-11.11,0.03
		c-2.06,0.01-2.13,0.11-2.09,2.12c0.08,4.25,0.16,8.5,0.22,12.75c0.07,4.61,0.06,9.23,0.19,13.84c0.1,3.6,0.17,3.59,3.81,3.56
		c0.14,0,0.28,0,0.42-0.01C297.51,254.99,301.91,254.98,306.32,254.96z M368.97,440.51c-0.01,0-0.03,0-0.04,0
		c0,2.73-0.04,5.45,0.01,8.18c0.03,1.55,0.32,1.78,1.88,1.87c0.35,0.02,0.7,0.01,1.05,0.01c4.46-0.04,8.93-0.01,13.39-0.3
		c3.27-0.21,6.55-0.08,9.83-0.14c2.13-0.04,2.15-0.13,2.26-2.25c0.28-5.1-0.51-10.17-0.22-15.28c0.18-3.06-0.13-6.13-0.08-9.21
		c0.04-1.94,0.01-3.9-0.01-5.84c-0.03-1.79-0.67-2.51-2.36-2.39c-1.75,0.13-3.49-0.16-5.22,0c-3.27,0.29-6.56,0.2-9.83,0.35
		c-2.9,0.13-5.84,0.08-8.76,0.15c-2.08,0.05-2.39,0.35-2.41,2.47c-0.02,2.72,0.01,5.44,0.08,8.17
		C368.66,431.04,368.83,435.77,368.97,440.51z M170.84,83.08c-1.92,0.1-3.32,0.17-4.71,0.25c-0.68,0.04-1.36,0.27-1.26,1.08
		c0.23,1.87-0.12,3.78,0.15,5.59c0.56,3.77,0.04,7.52,0.16,11.27c0.11,3.53,0.29,7.07,0.21,10.62c-0.04,1.88,0.16,1.84,2.03,2.14
		c1.96,0.32,3.92-0.35,5.85,0.06c1.39,0.29,2.79,0.18,4.16,0.1c5.01-0.28,10.02-0.57,15.04-0.28c0.98,0.06,1.95,0,2.92-0.22
		c1.72-0.38,1.93-0.57,1.95-2.38c0.02-1.88-0.06-3.75-0.09-5.63c-0.06-3.87-0.34-7.75-0.09-11.62c0.2-2.98-0.5-5.95,0.1-8.94
		c0.22-1.11-0.43-1.66-1.68-1.87c-2.91-0.48-5.84-0.16-8.77-0.24c-2.36-0.07-4.73,0.24-7.09,0.21
		C176.57,83.19,173.44,83.55,170.84,83.08z M162.88,427.41c0-0.09-0.05-0.51-0.04-0.93c0.03-1.26,0.12-2.51,0.13-3.77
		c0.02-1.57-0.52-2.38-1.79-2.29c-2.57,0.19-5.14,0.15-7.72,0.17c-3.48,0.03-6.96,0.4-10.42,0.26c-2.53-0.1-5.01,0.4-7.52,0.22
		c-0.55-0.04-1.03,0.21-0.97,0.83c0.17,1.96-0.53,3.88-0.27,5.84c0.36,2.62-0.07,5.25,0.09,7.88c0.13,2.07-0.01,4.14,0.06,6.22
		c0.13,3.76,0.11,7.52,0.02,11.28c-0.04,1.72,0.18,2.15,1.84,2.13c1.4-0.01,2.79-0.04,4.19-0.08c3.7-0.12,7.39-0.06,11.1-0.25
		c3.11-0.16,6.25-0.13,9.38-0.16c2.05-0.02,2.24-0.23,2.27-2.33c0.03-1.96-0.03-3.91,0-5.87
		C163.34,440.29,162.97,434.02,162.88,427.41z M220.73,223.9c-0.91,0-1.81,0-2.72,0c-3.28,0.01-6.57,0.01-9.85,0.04
		c-1.67,0.02-1.69,0.04-1.75,1.79c-0.09,2.57-0.21,5.15-0.19,7.72c0.02,2.99,0.26,5.99,0.24,8.98c-0.03,3.97-0.13,7.95,0.01,11.92
		c0.06,1.58,0.3,1.73,1.85,1.91c2.17,0.25,4.32-0.03,6.48-0.03c6.56,0,13.11-0.05,19.67-0.1c1.57-0.01,2.14-0.57,2.2-2.14
		c0.04-1.33,0.22-2.67,0.13-3.97c-0.23-3.22-0.14-6.43-0.17-9.64c-0.03-3.06-0.25-6.12-0.13-9.19c0.08-2.08-0.16-4.18-0.25-6.27
		c-0.04-0.97-0.55-1.34-1.5-1.3C230.08,223.79,225.41,223.97,220.73,223.9z M149.62,460.23c-4.28-0.07-8.68,0.04-13.07,0.4
		c-1.78,0.15-2.19,0.62-1.99,2.4c0.07,0.55,0.23,1.11,0.23,1.66c-0.02,3.91,0.12,7.83-0.17,11.72c-0.19,2.58,0.3,5.13,0.06,7.7
		c-0.05,0.56-0.93,1.11-0.2,1.69c0.63,0.5,0.52,1.14,0.36,1.73c-0.33,1.28,0.83,2.81-0.66,3.89c-0.03,0.02,0,0.13,0.01,0.2
		c0.11,0.79,1.5,2.1,2.35,2.25c4.14,0.72,8.32,0.15,12.48,0.28c4.2,0.14,8.44-0.36,12.67-0.29c1.93,0.03,2.19-0.19,2.16-2.1
		c-0.06-4.32-0.16-8.64-0.22-12.96c-0.09-5.86-0.19-11.72-0.24-17.57c-0.01-1.01-0.37-1.42-1.33-1.39
		c-0.63,0.02-1.27-0.06-1.88,0.03C156.72,460.34,153.22,460.13,149.62,460.23z M437.61,131.42c0.35,3.32-0.1,6.96,0.47,10.58
		c0.16,0.98,0.33,1.48,1.5,1.45c4.3-0.12,8.6-0.08,12.9-0.2c1.67-0.05,3.37-0.17,5-0.08c5.07,0.28,10.11-0.03,15.16-0.23
		c1.86-0.08,1.77-0.13,1.89-1.93c0.19-2.72-0.16-5.43-0.11-8.13c0.05-2.76,0.13-5.53,0.03-8.29c-0.06-1.67-0.12-3.29,0.53-4.92
		c0.58-1.45-0.75-3.11-2.28-3.02c-2.72,0.16-5.43,0.05-8.14,0.06c-6.27,0.01-12.54,0.13-18.81,0.21c-2.16,0.03-4.32,0.04-6.47,0.15
		c-1.94,0.1-1.94,0.18-1.91,2.12C437.43,123.17,437.91,127.14,437.61,131.42z M367.61,358.93c0,2.3-0.02,4.6,0,6.91
		c0.02,2.72,0.08,5.44,0.13,8.17c0.01,0.79,0.07,1.71,0.95,1.9c1.28,0.27,2.62,0.4,3.93,0.39c2.43-0.02,4.87-0.1,7.29-0.33
		c2.07-0.2,4.12,0.17,6.18,0.06c2.07-0.12,4.14-0.42,6.23-0.21c0.89,0.09,1.81-0.06,2.72-0.06c0.91,0,1.21-0.48,1.2-1.33
		c-0.02-1.67,0.02-3.35-0.02-5.02c-0.15-8.29-0.32-16.58-0.49-24.87c-0.01-0.42-0.02-0.84-0.04-1.26c-0.04-0.94-0.56-1.38-1.47-1.41
		c-0.42-0.01-0.84,0-1.26-0.01c-7.74-0.22-15.48,0.44-23.22,0.33c-2.24-0.03-2.49,0.33-2.57,2.54
		C367.03,349.46,367.62,354.19,367.61,358.93z M171.5,150.47c-0.49,0-0.98,0-1.47,0c-0.56,0-1.12-0.01-1.68,0
		c-2.02,0.05-2.05,0.14-2.42,2.06c-0.35,1.83,0,3.63,0.05,5.44c0.1,3.77,0.13,7.54,0.09,11.31c-0.03,2.99,0.04,5.99-0.12,8.98
		c-0.1,1.9,0.26,2.4,2.19,2.42c3.14,0.04,6.29,0.03,9.43,0c5.79-0.04,11.59-0.04,17.38-0.39c0.84-0.05,1.69,0,2.51-0.15
		c0.77-0.14,1.34-0.7,0.96-1.52c-0.84-1.82,0.11-3.79-0.55-5.6c-0.04-0.12,0-0.28,0.03-0.41c0.41-1.96,0.51-3.91,0-5.88
		c-0.2-0.75-0.16-1.55,0.37-2.2c0.31-0.39,0.41-0.69-0.04-1.05c-0.29-0.23-0.44-0.62-0.27-0.95c0.54-1.06,0.04-2.05-0.13-3.06
		c-0.15-0.9-0.32-1.82-0.1-2.71c0.43-1.75-0.03-3.46-0.12-5.18c-0.05-1.03-0.69-1.48-1.67-1.46c-0.77,0.02-1.54,0.15-2.3,0.12
		c-3.54-0.14-7.09-0.04-10.63-0.02C179.17,150.24,175.34,150.48,171.5,150.47z M74.39,461.84c-1.4-0.28-3.35,0.28-5.3,0.11
		c-1.33-0.11-2.29,0.71-1.86,2.08c0.68,2.12-0.27,4.08-0.02,6.17c0.24,2,0.29,4.13,0.03,6.24c-0.17,1.4-0.46,2.95-0.11,4.33
		c0.42,1.68,0.34,3.31,0.32,4.98c-0.02,2.07-0.07,4.14-0.03,6.2c0.04,2.08,0.67,2.59,2.7,2.43c1.11-0.09,2.23-0.17,3.34-0.16
		c3.28,0.05,6.56,0.28,9.83,0.19c3.96-0.11,7.91-0.53,11.88-0.23c0.41,0.03,0.84-0.03,1.25-0.1c0.45-0.07,0.67-0.31,0.74-0.83
		c0.41-3.49-0.17-6.98,0.15-10.48c0.13-1.44,0.06-3.05-0.3-4.54c-0.38-1.53,0.73-3.11-0.19-4.61c0.43-2.92-0.2-5.84-0.02-8.77
		c0.18-3.01-0.29-3.45-3.24-3.39C87.35,461.58,81.15,461.71,74.39,461.84z M186.2,414.5c2.72-0.01,5.44-0.17,8.16-0.11
		c1.39,0.03,2.78-0.07,4.18,0c0.79,0.04,1.54-0.15,2.15-0.67c0.63-0.54,0.08-1.17,0.06-1.76c-0.01-0.34,0.02-0.7,0.08-1.04
		c0.39-2.5,0.08-5.03-0.03-7.51c-0.06-1.29,0.22-2.56,0.04-3.89c-0.32-2.39-0.2-4.84-0.19-7.26c0-0.68,0.53-1.44,0.34-2.01
		c-0.46-1.46-0.34-2.89-0.32-4.36c0.03-1.56-0.4-2.01-1.96-2.03c-1.88-0.03-3.78,0.18-5.66,0.07c-7.27-0.45-14.51,0.49-21.78,0.24
		c-1.8-0.06-2.13,0.37-2.25,2.24c-0.03,0.55,0.02,1.11,0.06,1.67c0.07,0.97,0.29,1.96,0.2,2.92c-0.47,5.01,0.17,10.02,0.02,15.04
		c-0.06,2.22,0.12,4.45,0.1,6.68c-0.01,1.8,0.34,2.26,2.13,2.11c1.18-0.1,2.35-0.32,3.54-0.31
		C178.79,414.51,182.49,414.5,186.2,414.5z M94.89,347.44c-0.88,0.22-1.77-0.11-2.67-0.06c-5.86,0.33-11.73,0.36-17.59,0.4
		c-2.16,0.01-4.31,0.21-6.47,0.21c-1.63,0-1.8,0.04-1.72,1.74c0.22,4.52-0.12,9.05,0.06,13.58c0.16,3.95-0.05,7.92,0.06,11.88
		c0.04,1.52,0.24,3.05,0.17,4.56c-0.05,1.05,0.45,1.18,1.23,1.18c1.12,0,2.23-0.02,3.35-0.02c4.54-0.01,9.08,0.07,13.62-0.08
		c2.86-0.09,5.71-0.38,8.58-0.35c2.28,0.03,2.57-0.34,2.31-2.71c-0.03-0.27-0.17-0.54-0.16-0.81c0.08-3.63,0.04-7.25-0.14-10.87
		c-0.14-2.76,0.26-5.52,0.06-8.28c-0.16-2.08-0.29-4.18-0.27-6.26C95.3,350.23,95.57,348.93,94.89,347.44z M76.6,309.13
		c-2.66,0-5.17-0.01-7.69,0c-2.44,0.02-2.62,0.2-2.66,2.61c-0.01,0.35,0,0.7,0,1.05c0.01,8.94,0.02,17.87,0.02,26.81
		c0,3.09,0.03,3.14,3.18,3.07c6.48-0.13,12.97-0.26,19.45-0.4c1.6-0.03,3.21-0.11,4.81-0.14c0.6-0.01,1.16-0.08,1.34-0.74
		c0.47-1.77-0.37-3.68,0.55-5.41c-0.62-1.17-1.11-2.35-0.42-3.67c-1-3.32,0.52-6.75-0.47-10.07c0.54-1.62,0.25-3.27,0.24-4.92
		c-0.01-2.3,0.01-4.59-0.05-6.89c-0.04-1.18-0.53-1.63-1.72-1.65c-2.23-0.03-4.48-0.08-6.68,0.07
		C83.14,309.08,79.8,309.02,76.6,309.13z M240.89,136.05c0,2.1-0.04,4.19,0.01,6.29c0.04,1.67,0.46,2.02,2.16,2.09
		c1.6,0.07,3.2-0.03,4.79-0.02c5.63,0.05,11.27-0.04,16.9-0.17c3.89-0.09,7.78,0.26,11.68,0c2.2-0.15,2.36-0.32,2.25-2.43
		c-0.13-2.5-0.18-5-0.18-7.5c0-0.85-0.13-1.68,0.44-2.58c0.33-0.52-0.55-1.68-0.5-2.53c0.15-2.92-0.63-5.81-0.14-8.72
		c0.17-1.03-0.14-1.49-1.27-1.64c-2.03-0.28-4.03,0.06-6.04,0.06c-6.14,0.02-12.29,0.17-18.43,0.22c-3.34,0.03-6.69-0.09-10.03-0.07
		c-1.72,0.01-2.01,0.37-2.05,2.15c-0.02,0.98,0.06,1.96,0.04,2.93C240.43,128.11,241.15,132.06,240.89,136.05z M162.14,358.78
		c-0.09-4.24-0.24-7.44-0.12-10.66c0.06-1.66-0.28-1.86-1.94-1.95c-2.65-0.15-5.29,0.18-7.94,0.22c-5.59,0.1-11.17,0.08-16.76,0.11
		c-0.28,0-0.56,0.03-0.83,0.07c-0.82,0.12-1.19,0.51-1.09,1.43c0.15,1.31,0.18,2.63,0.2,3.95c0.07,5.5,0.28,11.01,0.09,16.5
		c-0.09,2.61,0.26,5.2-0.17,7.84c-0.46,2.84,0.58,3.77,3.46,3.73c2.78-0.04,5.56-0.2,8.34-0.26c5.09-0.1,10.18-0.15,15.27-0.23
		c1.51-0.03,1.7-0.17,1.69-1.69c-0.01-3.49-0.02-6.98-0.17-10.47C162.03,364.16,162.14,360.96,162.14,358.78z M409.01,82.36
		c-3,0.12-6.01,0.37-9.01,0.02c-0.41-0.05-0.84,0.02-1.25,0.07c-1.5,0.19-1.81,0.46-1.81,1.99c0,1.67,0.28,3.35,0.21,5.02
		c-0.09,2.16,0.56,4.31,0.13,6.45c-0.28,1.41-0.15,2.78,0.04,4.16c0.08,0.55,0.27,1.14,0.17,1.66c-0.59,2.93,0.5,5.8,0.18,8.71
		c-0.07,0.62,0.26,0.91,0.89,0.82c0.9-0.13,1.86-0.52,2.68-0.33c2.45,0.58,4.86,0.03,7.29,0.03c1.37,0,2.73,0.22,4.13,0.04
		c2.41-0.31,4.88-0.4,7.29-0.37c2.91,0.04,5.81,0.28,8.72,0c2.22-0.22,2.34-0.35,2.25-2.52c-0.13-3.21-0.25-6.41-0.31-9.62
		c-0.1-4.61,0.13-9.22-0.32-13.82c-0.18-1.9-0.33-2.17-2.25-2.15c-3.34,0.02-6.67,0.1-10.01-0.1
		C415.03,82.22,412.02,82.36,409.01,82.36z M238.63,396.77c0-3.55,0.01-7.82,0-12.08c0-1.47-0.11-1.57-1.5-1.6
		c-0.98-0.02-1.96,0.03-2.93,0c-4.96-0.14-9.9,0.59-14.87,0.34c-3.29-0.17-6.57,0.06-9.85,0.12c-1.6,0.03-1.7,0.15-1.75,1.67
		c-0.07,2.31-0.16,4.62-0.1,6.92c0.15,5.5,0.29,11.01,0.18,16.51c-0.02,1.25,0.15,2.51,0.26,3.76c0.1,1.09,0.73,1.61,1.81,1.63
		c0.49,0,0.98-0.01,1.47,0.01c5.38,0.15,10.75-0.29,16.13-0.41c3.33-0.07,6.67-0.14,10-0.26c1.39-0.05,1.6-0.3,1.49-1.65
		C238.56,406.98,239.08,402.22,238.63,396.77z M366.76,323.06c0.02,0,0.03,0,0.05,0c0.11,4.12,0.21,8.23,0.32,12.35
		c0.04,1.49,0.23,1.71,1.65,1.82c0.49,0.04,0.98,0,1.47,0.01c6.14,0.11,12.28-0.34,18.42-0.39c1.75-0.01,3.5,0.02,5.25-0.04
		c1.51-0.05,1.94-0.43,1.75-1.92c-0.24-1.96,0-3.9-0.1-5.85c-0.21-4.26-0.2-8.52-0.29-12.78c-0.08-3.62,0.02-7.24-0.33-10.86
		c-0.13-1.35-0.28-1.56-1.58-1.68c-0.35-0.03-0.7-0.01-1.05,0c-2.86,0.11-5.72,0.28-8.58,0.32c-4.96,0.07-9.93,0.04-14.89,0.07
		c-2.2,0.01-2.2,0.06-2.3,2.2c-0.08,1.68,0.15,3.34,0.18,5.01C366.8,315.24,366.76,319.15,366.76,323.06z M161.42,320.04
		c0-2.37,0-4.74,0-7.11c0-1.19,0.06-2.38-0.02-3.56c-0.09-1.36-0.4-1.53-1.8-1.64c-3.07-0.24-6.12,0.05-9.19,0.12
		c-4.46,0.09-8.93,0.06-13.39,0.15c-3.59,0.08-3.85,0.41-3.76,4.07c0.06,2.49,0.29,5,0.1,7.47c-0.24,3.06-0.24,6.1,0.02,9.15
		c0.08,0.97,0.18,1.96,0.1,2.93c-0.23,2.79,0.09,5.57,0.05,8.35c-0.01,0.95,0.28,1.44,1.3,1.44c3.14-0.02,6.28,0.09,9.42-0.05
		c2.3-0.1,4.59-0.25,6.9-0.24c2.86,0.02,5.73-0.04,8.59-0.13c1.75-0.05,2.17-0.43,2.03-2.13c-0.2-2.38,0.14-4.75-0.03-7.1
		C161.44,327.85,161.68,323.94,161.42,320.04z M421.58,177.29c2.73,0,5.45,0.05,8.18-0.01c2.3-0.05,2.53-0.36,2.49-2.59
		c-0.01-0.28-0.03-0.56-0.04-0.84c-0.12-4.53-0.26-9.06-0.34-13.59c-0.06-3.07-0.01-6.15-0.05-9.22c-0.02-1.85-0.21-1.96-2.03-2.13
		c-1.96-0.17-3.92,0.19-5.86,0.12c-5.78-0.23-11.56-0.04-17.34,0.06c-2.23,0.04-4.46-0.17-6.69,0.12c-0.76,0.1-1.27,0.31-1.37,1.24
		c-0.27,2.49,0.11,4.97,0.18,7.44c0.06,2.28,0.37,4.58,0.33,6.86c-0.06,3.72-0.1,7.43,0.27,11.14c0.14,1.42,0.46,1.82,1.98,1.81
		c2.44-0.02,4.88-0.04,7.3-0.1C412.93,177.49,417.25,177.34,421.58,177.29z M324.52,102.59c0,2.58,0.03,5.17-0.02,7.75
		c-0.02,1.06,0.45,1.56,1.43,1.66c0.48,0.05,0.98,0.12,1.46,0.09c6-0.37,12-0.28,18-0.25c1.12,0.01,2.25,0.01,3.35-0.14
		c1.27-0.17,2.43-0.12,3.69,0.27c2.89,0.89,4.41-0.41,4.32-3.44c-0.1-3.34-0.35-6.67-0.3-10.02c0.07-4.59-0.19-9.19,0.01-13.79
		c0.06-1.4-0.61-1.96-2.02-2.04c-0.7-0.04-1.41-0.21-2.09-0.12c-4.03,0.55-8.08,0.02-12.12,0.26c-3.33,0.2-6.68-0.36-10.03-0.11
		c-1.53,0.11-3.07,0.13-4.6,0.17c-1,0.02-1.65,0.42-1.56,1.5c0.18,2.37-0.12,4.74-0.03,7.12
		C324.16,95.18,324.67,98.88,324.52,102.59z M291.13,396.83c0.14,0,0.27,0,0.41,0c0,4.47-0.02,8.93,0.01,13.4
		c0.01,1.64,0.38,1.86,2.03,1.82c4.26-0.12,8.51-0.17,12.77-0.46c1.38-0.09,2.82,0.4,4.17,0.19c3.48-0.54,6.96-0.24,10.44-0.41
		c2.02-0.1,2.17-0.31,2.07-2.4c-0.18-3.83-0.28-7.66-0.34-11.49c-0.07-4.53-0.03-9.07-0.13-13.6c-0.04-1.9-0.36-2.13-2.28-2.15
		c-8.3-0.08-16.6,0.18-24.9,0.36c-0.77,0.02-1.54,0.05-2.3,0.08c-1.86,0.07-1.95,0.17-1.95,2.11c0,0.21,0.02,0.42,0.02,0.63
		C291.13,388.87,291.13,392.85,291.13,396.83z M325.6,163.89c0,1.27-0.02,2.8,0,4.34c0.04,2.79,0.05,5.59,0.16,8.38
		c0.07,1.92,0.14,1.94,2.11,1.97c1.19,0.02,2.38,0.01,3.56-0.01c3.14-0.05,6.27-0.12,9.41-0.17c4.95-0.08,9.89-0.14,14.84-0.25
		c1.54-0.03,1.84-0.34,1.88-1.87c0.08-2.78,0.11-5.57,0.1-8.36c0-1.18-0.32-2.38-0.19-3.54c0.24-2.1,0.18-4.18,0.07-6.27
		c-0.12-2.28-0.06-4.56-0.22-6.85c-0.13-1.88-0.04-2.1-1.89-2.03c-3.07,0.11-6.14,0.06-9.2-0.02c-3.28-0.08-6.55,0.2-9.84,0.06
		c-2.99-0.12-6-0.02-9,0.06c-2.1,0.06-2.18,0.15-2.13,2.15C325.37,155.53,325.21,159.58,325.6,163.89z M416.02,380.04
		c0,0.02,0,0.03,0,0.05c-3.29,0-6.57-0.04-9.86,0.01c-1.98,0.03-2.13,0.23-2.11,2.17c0.05,4.33,0,8.66,0.24,12.98
		c0.09,1.62-0.42,3.25-0.09,4.77c0.49,2.27-0.1,4.53,0.45,6.82c0.49,2.06,0.3,2.27,2.29,2.29c4.61,0.05,9.2-0.31,13.81-0.33
		c4.65-0.03,9.32-0.07,13.97-0.35c2.02-0.12,2.16-0.08,2.13-2.11c-0.04-3.21-0.09-6.42-0.26-9.63c-0.26-4.88-0.17-9.78-0.18-14.67
		c-0.01-2.2-0.11-2.35-2.37-2.39c-0.35-0.01-0.7-0.01-1.05-0.01C427.33,379.77,421.67,379.91,416.02,380.04z M392.2,195.76
		c0-0.42,0.01-0.84,0-1.25c-0.06-3.55-0.08-7.1-0.35-10.64c-0.08-0.96-0.4-1.28-1.42-1.3c-2.92-0.04-5.84-0.09-8.77,0.01
		c-4.52,0.16-9.05,0.14-13.58,0.23c-0.83,0.02-1.66,0.19-2.5,0.23c-0.98,0.05-1.31,0.5-1.25,1.48c0.46,7.88,0.34,15.77,0.39,23.65
		c0.02,2.3,0.18,4.59,0.26,6.89c0.04,1,0.49,1.68,1.52,1.57c2.36-0.25,4.73,0.14,7.07-0.07c4.32-0.4,8.64-0.28,12.95-0.25
		c1.58,0.01,3.16-0.02,4.74-0.08c0.99-0.04,1.56-0.44,1.48-1.56c-0.13-1.85-0.19-3.72-0.22-5.56
		C392.44,204.67,392.31,200.22,392.2,195.76z M339.06,381.34c-2.52,0-4.83-0.04-7.14,0.01c-2.01,0.04-2.11,0.32-2.26,2.3
		c-0.13,1.76,0.16,3.48,0.18,5.23c0.06,5.93,0.16,11.86,0.26,17.79c0.02,0.98,0.05,1.95,0.12,2.93c0.06,0.85,0.33,1.36,1.4,1.4
		c3.9,0.15,7.78-0.27,11.68-0.22c5.02,0.06,10.03-0.84,15.07-0.28c0.72,0.08,1.39-0.06,2.07-0.18c0.68-0.12,0.92-0.49,0.93-1.15
		c0.03-2.23,0.16-4.47,0.12-6.7c-0.08-4.67-0.25-9.34-0.36-14.02c-0.05-2.09-0.05-4.18-0.04-6.26c0-0.8-0.39-1.16-1.11-1.23
		c-0.49-0.04-0.98-0.04-1.47-0.03C351.95,381.06,345.4,381.2,339.06,381.34z M78.83,224.9c0,0.1,0,0.19,0,0.29
		c-3.56,0-7.12-0.01-10.68,0c-1.93,0.01-1.93,0.03-2.09,1.97c-0.32,3.96,0.06,7.92-0.07,11.9c-0.2,5.83,0.22,11.69,0.01,17.53
		c-0.05,1.45,0.22,1.73,1.68,1.73c3.84,0,7.67,0,11.51-0.08c2.57-0.05,5.15,0,7.73-0.09c1.86-0.07,3.75-0.25,5.62-0.12
		c0.89,0.06,1.7-0.4,1.62-1.24c-0.14-1.46,0.41-2.98,0.1-4.28c-0.85-3.56,0.41-7.15-0.46-10.66c-0.06-0.25,0.05-0.56,0.15-0.82
		c0.27-0.75,0.16-1.5,0.07-2.27c-0.48-3.86-0.5-7.74-0.18-11.61c0.15-1.77,0.2-1.78-1.63-2.1c-0.48-0.08-0.97-0.14-1.45-0.14
		C86.77,224.89,82.8,224.9,78.83,224.9z M301.88,82.77c0,0.01,0,0.03,0,0.04c-4.46,0-8.93,0.04-13.39-0.02
		c-2.04-0.03-2.5,0.3-2.46,2.32c0.04,2.3,0.22,4.6,0.15,6.9c-0.19,6.21,0.46,12.39,0.37,18.6c-0.02,1.69,0.05,1.85,1.82,1.9
		c2.69,0.09,5.4,0,8.09-0.14c3.68-0.18,7.37-0.19,11.03,0.03c2.92,0.18,5.8-0.39,8.71-0.2c0.9,0.06,1.39-0.56,1.43-1.47
		c0.02-0.56,0.01-1.12,0.03-1.67c0.2-6.14-0.63-12.26-0.33-18.4c0.1-2.09-0.01-4.19-0.1-6.28c-0.06-1.54-0.23-1.63-1.76-1.62
		C310.94,82.77,306.41,82.77,301.88,82.77z M318.46,162.94c0-3.57,0.05-7.42-0.02-11.26c-0.04-2.22-0.12-2.28-2.25-2.25
		c-3.41,0.06-6.82-0.03-10.23-0.03c-5.5,0-11,0.33-16.5-0.01c-1.72-0.11-2.47,0.7-2.33,2.42c0.13,1.53,0.09,3.06,0.14,4.59
		c0.24,6.69,0.26,13.38,0.35,20.07c0.03,2.23,0.25,2.55,2.49,2.56c3.63,0.01,7.27-0.01,10.9-0.02c4.75-0.02,9.49-0.02,14.24-0.06
		c0.83-0.01,1.66-0.17,2.5-0.24c0.77-0.07,1.09-0.54,1.13-1.26c0.02-0.42,0.05-0.84,0.01-1.26
		C318.42,171.86,318.78,167.53,318.46,162.94z M132.57,202.44c-0.1,4.61,0.03,9.22,0.03,13.84c0,0.63,0.01,1.26,0.1,1.88
		c0.13,0.88,0.64,1.4,1.59,1.27c3.21-0.41,6.42-0.01,9.64-0.1c4.82-0.14,9.65,0.2,14.46-0.3c1.5-0.15,1.65-0.25,1.69-1.74
		c0.06-2.86-0.03-5.72-0.12-8.57c-0.22-6.91,0.02-13.83-0.22-20.74c-0.06-1.72-0.29-2.07-1.96-2.35c-0.56-0.1-1.11-0.05-1.67-0.01
		c-2.72,0.17-5.46,0.41-8.16,0.32c-4.4-0.13-8.79,0.23-13.19,0.09c-1.97-0.06-2.17,0.17-2.18,2.14
		C132.55,192.93,132.57,197.68,132.57,202.44z M65.86,212.11c-0.2,1.8,0.34,4.22,0.19,6.67c-0.06,0.97,0.53,1.36,1.46,1.36
		c1.19,0,2.38,0.11,3.56,0.04c3.76-0.23,7.53-0.07,11.29-0.12c3.2-0.04,6.4-0.12,9.6-0.28c1.56-0.08,2.16-0.82,1.78-2.35
		c-0.35-1.41-0.3-2.75-0.07-4.12c0.17-0.97,0.14-1.91-0.21-2.86c-0.19-0.51-0.36-1.17-0.19-1.63c0.67-1.8,0.1-3.61,0.07-5.37
		c-0.1-4.94-0.35-9.87-0.05-14.8c0.09-1.54-0.39-2.03-1.91-2c-3.76,0.06-7.52-0.03-11.29,0.23c-4.17,0.29-8.38,0.14-12.57,0.19
		c-1.35,0.02-1.57,0.22-1.61,1.59c-0.05,1.61-0.03,3.21-0.02,4.82C65.92,199.47,66.04,205.46,65.86,212.11z M160.29,235.71
		c0-2.3,0-3.98,0-5.66c0-1.19,0.02-2.38-0.02-3.57c-0.05-1.9-0.27-2.1-2.24-2.14c-0.35-0.01-0.7,0-1.05,0
		c-6.14,0.02-12.28,0.03-18.42,0.07c-1.26,0.01-2.51,0.05-3.77,0.14c-1.89,0.14-2.16,0.41-2.17,2.29c-0.02,3.07,0.08,6.14,0.01,9.21
		c-0.08,3.84,0.12,7.68,0.24,11.52c0.09,2.72,0.04,5.45,0.08,8.17c0.02,1.58,0.16,1.79,1.61,1.73c3.55-0.16,7.11,0,10.66-0.14
		c3.7-0.14,7.39-0.17,11.08-0.24c0.98-0.02,1.96-0.02,2.94-0.04c0.94-0.02,1.4-0.54,1.41-1.46c0.01-1.47,0.07-2.94-0.01-4.4
		C160.36,245.83,160.36,240.46,160.29,235.71z M443.92,402.75c0.03,0,0.07,0,0.1,0c0,1.33-0.05,2.66,0.01,3.98
		c0.06,1.39,0.25,1.49,1.68,1.44c3.13-0.11,6.26-0.3,9.39-0.28c3.49,0.02,6.97-0.22,10.46-0.21c2.85,0.01,5.7-0.62,8.57-0.09
		c0.66,0.12,1.06-0.26,1.17-0.91c0.08-0.48,0.16-0.97,0.16-1.46c-0.02-3.21-0.1-6.41-0.09-9.62c0.01-2.91,0.14-5.82,0.13-8.73
		c0-2.21-0.14-4.41-0.2-6.62c-0.03-1-0.54-1.38-1.49-1.26c-1.67,0.22-3.35-0.04-5.02,0.04c-5.66,0.27-11.32,0.15-16.98,0.21
		c-2.09,0.02-4.18,0.13-6.28,0.08c-1.7-0.04-2.04,0.33-2.06,2.08c-0.03,2.02,0.08,4.05,0.12,6.07
		C443.7,392.56,443.81,397.65,443.92,402.75z M113.89,302.09c0-0.06,0-0.12,0-0.19c3.14,0,6.28,0,9.43,0c2.46,0,2.54-0.08,2.53-2.63
		c0-1.19-0.03-2.37-0.03-3.56c0-5.58,0.06-11.15,0-16.73c-0.02-2.16-0.11-4.31-0.04-6.47c0.08-2.57-0.28-5.15-0.01-7.73
		c0.1-0.93-0.45-1.42-1.41-1.39c-1.04,0.03-2.1,0.19-3.13,0.09c-3.2-0.3-6.38,0.17-9.59,0.1c-2.62-0.05-5.28,0.06-7.92,0.16
		c-1.46,0.06-1.69,0.09-1.68,1.42c0.02,2.43,0.15,4.85,0.09,7.29c-0.04,1.73,0.15,3.47,0.17,5.21c0.04,3.13,0,6.26,0.04,9.39
		c0.06,4.39,0.17,8.78,0.23,13.17c0.02,1.73,0.03,1.83,1.69,1.85C107.48,302.12,110.68,302.09,113.89,302.09z M235.66,165.22
		c-0.13,0-0.25,0-0.38,0c0-4.19,0.05-8.38-0.02-12.57c-0.04-2.4-0.72-2.92-3.07-2.84c-3,0.1-6,0.2-9,0.22
		c-4.88,0.04-9.76,0.01-14.64,0.02c-0.42,0-0.84,0.01-1.25,0.08c-1.35,0.23-1.79,0.73-1.78,2.13c0.03,4.54,0.21,9.08,0.12,13.62
		c-0.08,4.12,0.38,8.22,0.15,12.33c-0.08,1.44,0.48,2,2.01,2.01c2.79,0.02,5.58-0.01,8.37-0.06c3.13-0.06,6.26-0.19,9.4-0.24
		c2.79-0.05,5.59-0.02,8.38-0.08c1.64-0.03,1.72-0.17,1.72-1.87C235.66,173.72,235.66,169.47,235.66,165.22z M81.01,385.9
		c-0.5,0-1.2,0-1.9,0c-3.49,0.01-6.98,0-10.47,0.05c-1.57,0.02-1.84,0.31-1.95,1.81c-0.07,0.9-0.09,1.81-0.1,2.72
		c-0.01,2.69,0.36,5.36,0.16,8.06c-0.06,0.76-0.12,1.52-0.11,2.29c0.08,4.02,0.25,8.05,0.27,12.07c0.02,3.29-0.06,3.3,3.15,3.27
		c5.79-0.04,11.57-0.15,17.36-0.12c2.44,0.01,4.87-0.26,7.3-0.31c0.82-0.02,1.76-0.28,1.51-1.26c-0.36-1.44,0.19-2.77,0.12-4.13
		c-0.14-2.9-0.13-5.82-0.6-8.7c-0.11-0.68-0.22-1.48,0.03-2.07c0.7-1.6-0.44-3.35,0.54-4.89c0.07-0.11-0.08-0.39-0.18-0.56
		c-0.55-0.91-0.48-2.06-0.24-2.83c0.42-1.33,0.1-2.43-0.2-3.64c-0.49-1.97-0.57-2.23-2.4-2.07
		C89.28,385.91,85.23,385.35,81.01,385.9z M205.1,103.53C205.1,103.53,205.1,103.53,205.1,103.53c0.01,2.45,0.03,4.89,0,7.34
		c-0.02,2.25,0.25,2.57,2.43,2.65c3.62,0.14,7.25,0.02,10.87,0.01c4.53-0.02,9.06,0.13,13.59-0.17c2.12-0.14,2.72-0.58,2.46-2.65
		c-0.64-5.19-0.05-10.41-0.6-15.61c-0.31-2.89-0.01-5.84,0.07-8.76c0.02-0.72-0.13-1.39-0.22-2.07c-0.11-0.81-0.61-1.24-1.4-1.31
		c-0.49-0.05-0.98-0.05-1.47-0.06c-4.95-0.1-9.9,0.2-14.86,0.04c-2.93-0.1-5.86,0.16-8.79,0.17c-2.15,0.01-2.59,0.23-2.33,2.31
		c0.44,3.52-0.19,7.04,0.2,10.57C205.32,98.48,205.1,101.02,205.1,103.53z M365.57,244.34c0,2.51-0.07,5.03,0.02,7.54
		c0.08,2.18,0.2,2.22,2.31,2.25c0.28,0,0.56-0.01,0.84-0.01c5.93,0.07,11.85-0.28,17.77-0.38c1.75-0.03,3.49,0,5.24-0.03
		c1.71-0.03,2-0.28,1.93-1.94c-0.09-2.13,0.18-4.22-0.24-6.4c-0.42-2.16,0.06-4.5-0.15-6.81c-0.27-2.96-0.11-5.98-0.22-8.97
		c-0.06-1.64-0.29-3.31,0.05-4.99c0.37-1.81,0.01-2.07-1.86-2.39c-1.63-0.27-3.23,0.35-4.77,0.16c-3-0.37-5.96,0.2-8.96-0.05
		c-2.69-0.23-5.43,0.06-8.14,0.11c-0.83,0.01-1.67-0.12-2.5-0.06c-1.59,0.12-2.03,0.53-1.84,2.1c0.2,1.68,0.12,3.35,0.09,5.02
		C365.01,234.44,365.86,239.37,365.57,244.34z M413.77,117.15c0,0.08,0,0.16,0,0.24c-3.62,0-7.25,0-10.87,0
		c-1.18,0-2.37-0.02-3.55,0.07c-1.59,0.12-1.73,0.28-1.55,1.76c0.36,2.91,0.2,5.83,0.33,8.74c0.21,4.68-0.04,9.38,0.47,14.05
		c0.16,1.5,0.3,1.69,1.74,1.73c2.02,0.06,4.05,0.03,6.07,0.01c3.97-0.05,7.95-0.05,11.92-0.22c3.54-0.15,7.08,0.07,10.62,0.07
		c2.18,0,2.49-0.05,2.47-2.18c-0.05-6.56-0.11-13.11-0.2-19.67c-0.01-0.97-0.17-1.95-0.21-2.92c-0.04-1.04-0.57-1.5-1.58-1.54
		c-1.53-0.06-3.05-0.19-4.59-0.16C421.15,117.2,417.46,117.15,413.77,117.15z M147.53,384.68c-2.29,0-4.18,0.04-6.07-0.01
		c-1.74-0.05-3.47,0.2-5.23,0.1c-1.74-0.1-2.04,0.48-2.34,2.15c-0.39,2.18,0.06,4.31,0.07,6.47c0,1.78-0.48,3.58,0.03,5.36
		c0.25,0.89,0.18,1.78,0.11,2.7c-0.31,4.11,0.15,8.22,0.17,12.33c0.01,1.05,0.57,1.5,1.6,1.49c3.9-0.04,7.81-0.04,11.71-0.12
		c4.32-0.09,8.65-0.3,12.97-0.39c2.16-0.05,2.27-0.08,2.24-2.2c-0.12-8.64-0.25-17.28-0.39-25.92c-0.03-2.09-0.43-2.54-2.5-2.3
		C155.65,384.82,151.38,384.3,147.53,384.68z M258.18,54.44c0-0.03,0-0.06,0-0.09c-5.52,0-11.04,0-16.56,0
		c-0.35,0-0.7,0.01-1.05,0.03c-0.83,0.04-1.3,0.45-1.31,1.3c-0.01,0.49,0,0.98,0,1.47c0.03,4.33,0.48,8.65,0.34,12.98
		c-0.06,1.74,0.01,3.49,0.03,5.24c0.01,0.97,0.35,1.59,1.47,1.6c4.61,0.01,9.22,0.03,13.82-0.05c2.71-0.05,5.45-0.16,8.15-0.02
		c4.27,0.22,8.52-0.13,12.78,0.05c1.35,0.06,1.98-0.83,1.72-2.19c-0.13-0.71,0.03-1.4-0.03-2.06c-0.11-1.15,0.71-2.36-0.24-3.46
		c-0.15-0.17-0.15-0.57-0.06-0.81c0.69-1.82-0.45-3.75,0.33-5.57c0.07-0.16,0.02-0.46-0.09-0.6c-0.77-1.01-0.36-2.15-0.42-3.24
		c-0.06-1.04-0.06-2.09-0.09-3.14c-0.04-1.02-0.53-1.46-1.6-1.46C269.64,54.45,263.91,54.44,258.18,54.44z M335.86,118.21
		c0-0.03,0-0.07,0-0.1c-0.7,0-1.4,0-2.1,0c-2.44,0.01-4.89-0.01-7.33,0.05c-1.65,0.04-1.94,0.41-1.75,2.06
		c0.21,1.81,0.14,3.63,0.12,5.44c-0.05,5.51,0.11,11.02,0.41,16.52c0.1,1.71,0.26,1.87,2,1.95c0.7,0.03,1.4,0.04,2.1,0.03
		c5.57-0.02,11.15-0.02,16.72-0.1c2.99-0.04,5.99,0.18,8.99-0.18c1.96-0.24,2.01-0.23,2.12-2.29c0.09-1.73,0.19-3.47,0-5.2
		c-0.33-2.98,0.18-5.97-0.04-8.97c-0.18-2.56-0.5-5.13-0.24-7.72c0.13-1.29-0.7-1.89-2.19-1.86
		C348.41,117.98,342.13,118.09,335.86,118.21z M80.01,182.17c0-0.13,0-0.26,0-0.39c3.83,0,7.67,0.01,11.5-0.01
		c1.17-0.01,2.99-2.66,2.22-3.25c-1.08-0.83-0.44-1.72-0.58-2.52c-0.11-0.63,0.01-1.37-0.09-2.06c-0.44-3.19-0.18-6.39-0.16-9.58
		c0.02-2.77,0.12-5.54-0.05-8.32c-0.06-1.05-1.12-2.43,0.44-3.37c0.17-0.1-0.07-0.52-0.24-0.74c-0.55-0.75-1.25-0.89-2.19-0.85
		c-4.6,0.17-9.2,0.31-13.8,0.27c-1.65-0.01-3.31,0.42-4.95,0.03c-1.61-0.38-3.2,0.02-4.8,0.02c-0.97,0-1.33,0.44-1.34,1.43
		c-0.01,2.16-0.14,4.32-0.21,6.48c-0.04,1.33,0.63,2.65,0.28,3.94c-0.54,1.94-0.16,3.88-0.21,5.81c-0.11,3.77-0.02,7.53,0.2,11.29
		c0.09,1.56,0.36,1.82,1.65,1.81C71.8,182.16,75.91,182.17,80.01,182.17z M396.71,387.1c-0.07,0-0.14,0-0.21,0
		c0-1.6,0.04-3.21-0.01-4.81c-0.04-1.47-0.44-1.92-1.6-1.91c-8.44,0.13-16.89,0.27-25.33,0.41c-1.45,0.03-1.56,0.13-1.55,1.55
		c0.04,6.84,0.01,13.69,0.19,20.53c0.05,1.94-0.02,3.9,0.22,5.85c0.13,1.01,0.49,1.48,1.6,1.41c2.29-0.15,4.59-0.1,6.88-0.28
		c2.58-0.21,5.17,0.19,7.74-0.08c3.2-0.34,6.41-0.34,9.62-0.28c2.2,0.04,2.44-0.17,2.44-2.3
		C396.71,400.49,396.71,393.79,396.71,387.1z M70.63,84.16c-0.64,0-0.85,0-1.06,0c-0.63,0-1.26,0-1.89,0c-1.72,0-1.88,0.06-1.9,1.67
		c-0.04,3.48-0.29,6.98-0.14,10.44c0.13,3.14,0.02,6.28,0.17,9.42c0.06,1.38,0.23,2.84,0.04,4.12c-0.2,1.34-0.24,2.56-0.05,3.86
		c0.24,1.58,0.2,1.59,1.73,1.73c0.35,0.03,0.7,0.04,1.05,0.02c4.24-0.29,8.48,0,12.73-0.17c2.82-0.11,5.7-0.55,8.55-0.08
		c1.08,0.18,1.79-0.24,2.17-1.44c0.67-2.12,0.07-4.25,0.15-6.36c0.06-1.54-0.16-3.18-0.21-4.77c-0.08-2.55,0.24-5.07,0-7.65
		c-0.23-2.48-0.47-5.03,0.08-7.52c0.52-2.36-0.74-4.16-3.11-3.82c-2.58,0.37-5.13,0.27-7.71,0.29
		C77.56,83.93,73.88,84.07,70.63,84.16z M159.56,165.74c-0.05,0-0.1,0-0.15,0c0-2.87,0.01-5.74,0-8.6
		c-0.01-1.54-0.03-3.07-0.08-4.61c-0.05-1.31-0.47-1.94-1.42-1.93c-2.08,0.03-4.16-0.25-6.25,0.01c-1.24,0.16-2.51,0.24-3.76,0.2
		c-3.19-0.11-6.37-0.48-9.56-0.12c-0.48,0.05-0.97-0.08-1.46-0.1c-1.17-0.06-2.34-0.05-3.5,0.21c-0.74,0.17-1.13,0.59-1.02,1.32
		c0.21,1.33-0.15,2.65-0.07,3.96c0.44,7.54,0.21,15.09,0.2,22.63c0,1.98,0.29,2.38,2.24,2.4c2.3,0.03,4.6,0.01,6.91-0.01
		c5.31-0.05,10.63-0.1,15.94-0.18c1.67-0.03,1.78-0.18,1.94-1.77c0.03-0.35,0.05-0.7,0.05-1.05
		C159.56,173.99,159.56,169.86,159.56,165.74z M132.03,102.02c0.05,0,0.1,0,0.15,0c0,1.61,0,3.21,0,4.82c0,1.88-0.05,3.77,0.02,5.65
		c0.06,1.6,0.22,1.75,1.86,1.88c1.87,0.14,3.77,0.44,5.61,0.24c2.78-0.3,5.55-0.08,8.32-0.2c1.31-0.06,2.65-0.3,3.93-0.13
		c1.83,0.24,3.61-0.09,5.41-0.09c0.91,0,1.26-0.42,1.27-1.26c0.01-1.19,0.06-2.37,0.05-3.56c-0.05-6.13-0.11-12.27-0.19-18.4
		c-0.02-1.6-0.06-3.2-0.01-4.81c0.06-2.26-0.63-2.83-2.87-2.83c-0.63,0-1.26,0.06-1.89,0.04c-3.55-0.09-7.09,0.35-10.66,0.01
		c-3.19-0.3-6.38,0.33-9.57,0.29c-0.87-0.01-1.28,0.3-1.28,1.21c0,1.05-0.14,2.09-0.14,3.14
		C132.02,92.68,132.03,97.35,132.03,102.02z M452.3,54.78c-1.84,0.03-3.22,0.16-4.63,0.11c-3.14-0.12-6.28-0.12-9.42-0.06
		c-1.72,0.03-2.2,0.49-2.19,2.12c0.07,5.72,0.18,11.43,0.35,17.14c0.06,1.92,0.29,2.04,2.33,2.05c3.21,0.02,6.43-0.05,9.64,0.04
		c6.14,0.16,12.27-0.44,18.41-0.14c1.74,0.08,3.49-0.07,5.23-0.15c1.89-0.09,2.23-0.24,2.31-2.18c0.06-1.54,0.49-3.11-0.03-4.67
		c-0.2-0.59-0.29-1.23-0.06-1.86c0.33-0.88,0.21-1.85,0.08-2.67c-0.35-2.29,0.02-4.52,0.22-6.76c0.17-1.89-0.21-2.8-2.01-2.83
		c-1.95-0.03-3.91,0.32-5.84,0.14C461.74,54.6,456.79,55.1,452.3,54.78z M125.43,202.71c0-4.12,0.04-8.25-0.01-12.37
		c-0.06-4.14,1-4.36-4.57-4.24c-5.51,0.12-11.03,0.31-16.54,0.38c-2.91,0.04-2.93-0.03-3.03,2.93c0,0.14,0,0.28,0,0.42
		c0.08,5.78,0.18,11.57,0.24,17.35c0.04,3.35-0.01,6.71,0.02,10.06c0.02,2.16,0.41,2.49,2.57,2.68c1.13,0.1,2.2-0.24,3.32-0.26
		c2.59-0.03,5.18,0.37,7.74,0.2c2.64-0.18,5.29-0.3,7.93-0.36c1.96-0.04,2.51-0.52,2.44-2.52
		C125.36,212.21,125.49,207.46,125.43,202.71z M302.66,144.19c0-0.01,0-0.02,0-0.03c4.54,0,9.08,0.01,13.62-0.01
		c1.79-0.01,1.85-0.08,1.84-1.7c-0.04-7.61,0.08-15.22-0.39-22.82c-0.05-0.82-0.09-1.25-1.14-1.19c-5.98,0.33-11.97-0.33-17.96,0.08
		c-0.35,0.02-0.7-0.03-1.04-0.05c-3.14-0.23-6.26,0.32-9.41,0.14c-1.22-0.07-1.4,0.28-1.39,1.52c0.04,3.82,0.05,7.64,0.11,11.46
		c0.05,3.54,0.12,7.09,0.24,10.63c0.06,1.82,0.2,1.95,1.91,1.96C293.59,144.21,298.12,144.19,302.66,144.19z M181.68,119.84
		c-4.41,0-8.81-0.01-13.22,0.01c-0.7,0-1.4,0.05-2.09,0.12c-0.44,0.05-0.8,0.23-0.79,0.78c0.04,2-0.3,3.99-0.1,5.99
		c0.23,2.37,0.26,4.74,0.25,7.12c-0.01,3.07-0.02,6.14,0.04,9.21c0.03,1.47,0.3,1.78,1.75,1.69c1.75-0.11,3.49,0.05,5.22-0.03
		c7.26-0.33,14.53-0.04,21.79-0.15c0.56-0.01,1.13,0.03,1.68-0.05c1.22-0.16,1.54-0.56,1.46-1.81c-0.05-0.7-0.08-1.38-0.06-2.09
		c0.09-3.81,0.21-7.61-0.07-11.42c-0.17-2.28-0.05-4.59,0.17-6.87c0.18-1.87-0.37-2.74-2.21-2.69c-0.91,0.03-1.82,0.21-2.72,0.13
		C189.06,119.45,185.37,119.84,181.68,119.84z M363.86,163.86c0.12,0,0.24,0,0.36,0c0,1.4-0.01,2.79,0,4.19
		c0.02,2.79,0.01,5.58,0.08,8.38c0.03,1.41,0.32,1.65,1.8,1.71c0.98,0.04,1.96,0.04,2.94,0c5.99-0.27,11.98-0.31,17.97-0.36
		c1.26-0.01,2.52,0,3.77-0.05c0.88-0.03,1.28-0.29,1.25-1.41c-0.05-1.82-0.47-3.58-0.48-5.4c-0.03-4.58-0.13-9.15-0.23-13.73
		c-0.04-2.02-0.11-4.04-0.21-6.06c-0.08-1.63-0.39-1.91-2.01-2.01c-0.28-0.02-0.56,0.01-0.84,0.01c-3.35,0.01-6.71,0-10.06,0.02
		c-4.05,0.02-8.11,0.03-12.16,0.09c-1.83,0.03-2.12,0.38-2.17,2.28c-0.02,0.63-0.01,1.26-0.01,1.89
		C363.86,156.88,363.86,160.37,363.86,163.86z M101.93,243.58c0,0.7-0.01,1.4,0,2.1c0.04,3.42,0.05,6.84,0.13,10.27
		c0.04,1.54,0.36,1.82,1.85,1.94c0.63,0.05,1.26,0.04,1.89,0.03c3.07-0.05,6.14-0.1,9.2-0.17c3.06-0.07,6.12-0.12,9.18-0.25
		c1.39-0.06,1.55-0.28,1.56-1.66c0.02-3.41,0.19-6.84-0.04-10.23c-0.41-6.14-0.1-12.28-0.17-18.41c-0.02-2.09-0.26-2.42-2.4-2.43
		c-5.66-0.02-11.31-0.01-16.97,0.02c-4.56,0.02-5.08,0.49-4.72,5.02C101.83,234.38,101.77,238.98,101.93,243.58z M37.68,265.52
		c0,3.68-0.02,7.16,0,10.64c0.05,8.36-0.32,16.71-0.03,25.07c0.05,1.35,0.19,1.58,1.59,1.58c5.65,0.02,11.3,0.01,16.95-0.05
		c1.94-0.02,2.02-0.2,2.12-2.26c0.14-3.06-0.01-6.11-0.05-9.17c-0.11-8.17,0.01-16.34,0.01-24.51c0-1.91-0.48-2.3-2.42-2.07
		c-1.31,0.15-2.63,0.57-3.92,0.47C47.21,264.85,42.5,265.12,37.68,265.52z M362.96,96.86c0.03,0,0.05,0,0.08,0
		c0,4.13-0.03,8.25,0.01,12.38c0.02,1.83,0.29,2.14,2.05,2.12c2.83-0.02,5.65,0.29,8.5,0.14c4.83-0.26,9.68-0.17,14.52-0.21
		c1.41-0.01,1.81-0.44,1.77-2.01c-0.01-0.27,0.06-0.56,0.17-0.81c0.4-0.87,0.46-1.72,0.05-2.62c-0.17-0.37-0.2-0.81-0.22-1.23
		c-0.14-3.61-0.05-7.22-0.26-10.84c-0.17-3.12-0.25-6.26-0.23-9.4c0.01-1.65-0.2-1.9-1.82-1.72c-3.69,0.4-7.41,0.15-11.06-0.02
		c-3.83-0.18-7.65,0.53-11.48-0.12c-1.85-0.31-2.41,0.34-2.45,2.19c-0.01,0.42,0.03,0.84,0.04,1.26
		C362.76,89.61,362.86,93.23,362.96,96.86z M125.87,324.96c0,0-0.01,0-0.01,0c0-4.81,0.01-9.63-0.01-14.44
		c-0.01-1.97-0.25-2.3-2.1-2.27c-3.41,0.06-6.81,0.12-10.22,0.15c-3.2,0.03-6.4,0.45-9.6,0.17c-0.92-0.08-1.24,0.21-1.23,1.14
		c0.03,2.99-0.08,5.99-0.03,8.99c0.12,6.96,0.22,13.93,0.13,20.89c-0.02,1.9,0.27,2.27,2.11,2.27c6.27-0.02,12.55-0.07,18.82-0.15
		c1.79-0.02,2.12-0.34,2.13-2.09C125.9,334.73,125.87,329.85,125.87,324.96z M100.28,93.75c-0.07,3.02-0.58,5.53,0.12,8.02
		c0.12,0.44-0.02,0.97-0.06,1.45c-0.24,3.28,0.2,6.54,0.15,9.82c-0.03,1.92,0.16,1.93,2.06,1.94c5.57,0.04,11.13-0.13,16.69-0.41
		c1.39-0.07,2.74,0.46,4.16,0.19c0.74-0.14,1.15-0.42,1.24-1.15c0.06-0.48,0.17-0.97,0.18-1.45c0.05-3.55,0.16-7.09,0.09-10.64
		c-0.08-4.45-0.28-8.91-0.02-13.36c0.07-1.13-0.26-2.22-0.2-3.33c0.04-0.7-0.37-1.01-0.99-1.12c-0.55-0.09-1.11-0.24-1.65-0.2
		c-1.8,0.14-3.61,0.08-5.41,0.15c-4.66,0.17-9.34,0.11-14.01,0.1c-2.14,0-2.41,0.2-2.34,2.39C100.38,88.86,99.86,91.56,100.28,93.75
		z M116.49,455.5c2.66,0,5.31,0.01,7.97-0.01c1.58-0.01,1.96-0.27,1.75-1.84c-0.36-2.73,0.27-5.4,0.13-8.12
		c-0.29-5.79,0.14-11.59-0.15-17.38c-0.07-1.39,0-2.8,0.1-4.19c0.15-2.23,0.17-2.27-1.98-2.41c-3.12-0.21-6.24-0.24-9.36-0.06
		c-3.13,0.18-6.27,0.16-9.41,0.32c-1.69,0.08-1.76,0.25-1.75,1.86c0.05,4.39,0.3,8.78,0.13,13.18c-0.04,0.97-0.12,1.96-0.04,2.92
		c0.42,4.74-0.01,9.5,0.25,14.24c0.09,1.7,0.14,1.91,1.88,1.96c0.42,0.01,0.84,0.01,1.26-0.03
		C110.35,455.65,113.42,455.63,116.49,455.5z M103.18,367.14c-0.1,2.67,0.16,7.13,0.34,11.59c0.07,1.69,0.09,1.74,1.79,1.73
		c2.16-0.01,4.33-0.26,6.49-0.14c4.12,0.23,8.22-0.25,12.33-0.28c1.6-0.01,1.81-0.19,1.84-1.83c0.09-5.7,0.12-11.39,0.11-17.09
		c-0.01-3.9-0.12-7.8-0.19-11.7c-0.04-2.29-0.24-2.55-2.54-2.52c-4.95,0.05-9.9,0.14-14.85,0.26c-1.11,0.03-2.22-0.09-3.34,0.09
		c-1.75,0.29-2.01,0.41-2.13,2.2c-0.07,1.1,0.14,2.22,0.14,3.33C103.19,356.97,103.18,361.16,103.18,367.14z M219.06,119.38
		c-3.91,0.05-7.82,0.04-11.73,0.17c-1.94,0.07-2.13,0.14-2.12,2.14c0.04,5.58,0.11,11.16,0.15,16.74c0.01,1.46-0.13,2.91,0.2,4.37
		c0.35,1.56,0.4,1.74,2.05,1.76c4.19,0.03,8.37-0.03,12.56-0.02c4.05,0.01,8.1,0.02,12.16-0.1c2.56-0.08,2.7-0.03,2.79-2.59
		c0.02-0.49,0.02-0.98,0-1.47c-0.1-3.14-0.22-6.28-0.3-9.43c-0.04-1.47-0.42-2.93-0.16-4.39c0.33-1.9-0.1-3.77-0.12-5.65
		c-0.01-1.23-0.65-1.77-1.86-1.76c-0.76,0.01-1.53,0.22-2.29,0.22C226.61,119.39,222.83,119.38,219.06,119.38z M47.95,456.9
		c0-0.02,0-0.05,0-0.07c2.66,0,5.31,0.01,7.97,0c3.79-0.02,3.12,0.09,3.23-3.32c0.05-1.67-0.35-3.35-0.27-4.99
		c0.22-4.32-0.02-8.63,0.11-12.94c0.08-2.37-0.28-4.72-0.14-7.11c0.1-1.64,0.12-3.33,0.03-5c-0.04-0.82-0.2-1.14-1.28-0.94
		c-2.17,0.41-4.41,0.55-6.63,0.44c-4.26-0.21-8.5,0.27-12.75,0.26c-0.97,0-1.23,0.54-1.08,1.36c0.18,0.98,0.04,1.95,0.04,2.93
		c-0.01,6.07-0.02,12.15-0.03,18.22c-0.01,3.2-0.05,6.41,0,9.61c0.02,1.48,0.13,1.53,1.58,1.54C41.8,456.92,44.88,456.9,47.95,456.9
		z M125.2,166.87c0.07-4.97,0.13-9.29-0.02-13.61c-0.08-2.22-0.36-2.51-2.62-2.4c-2.65,0.13-5.31,0.24-7.95,0.21
		c-2.38-0.02-4.73-0.14-7.09,0.2c-0.34,0.05-0.72,0.07-1.04-0.04c-1.46-0.47-2.92-0.02-4.37-0.01c-1.06,0.01-1.3,0.54-1.23,1.47
		c0.11,1.39,0.25,2.79,0.21,4.19c-0.2,7.4,0.1,14.79,0.06,22.19c0,0.42,0.07,0.84,0.09,1.25c0.04,0.74,0.39,1.17,1.17,1.19
		c0.42,0.01,0.84,0.03,1.26,0.03c6.14-0.02,12.29-0.03,18.43-0.06c0.7,0,1.4-0.07,2.09-0.08c0.77-0.01,1.16-0.41,1.2-1.15
		c0.03-0.63,0.06-1.26,0.02-1.89C125.18,174.32,125.49,170.26,125.2,166.87z M184.46,77.27c3.43-0.15,6.99-0.4,10.54-0.09
		c1.04,0.09,1.59-0.31,1.71-1.34c0.24-2-0.22-4.06,0.54-6.01c0.04-0.1-0.05-0.28-0.12-0.39c-0.81-1.36-0.61-2.91-0.47-4.31
		c0.13-1.33-1.09-2.91,0.56-4.02c0.05-0.04,0.02-0.29-0.04-0.39c-0.37-0.63-0.23-1.2,0.14-1.77c0.14-0.22,0.33-0.59-0.04-0.7
		c-1.19-0.37-0.59-1.18-0.51-1.86c0.18-1.56-0.24-2.14-1.73-2.15c-4.32-0.01-8.65,0.14-12.96-0.02c-2.71-0.1-5.42,0.05-8.15-0.12
		c-2.42-0.15-4.87-0.11-7.31-0.07c-1.48,0.03-2.07,0.52-1.94,1.86c0.16,1.67,0,3.33,0.05,5c0.09,3.13,0.19,6.27-0.02,9.39
		c-0.13,1.91,0.09,3.76,0.24,5.62c0.1,1.19,0.63,1.62,1.84,1.46c1.34-0.18,2.64,0.03,3.95-0.01
		C175.28,77.2,179.81,77.31,184.46,77.27z M104.47,479.77c0,1.15-0.02,1.99,0,2.83c0.1,3.21-0.23,6.42,0.13,9.64
		c0.14,1.27,0.65,1.73,1.79,1.76c1.74,0.05,3.48,0.12,5.22,0.13c2.44,0.02,4.88-0.04,7.31,0.03c1.74,0.05,3.46-0.23,5.23-0.07
		c1.79,0.16,2.2-0.51,2.3-2.36c0.13-2.44,0-4.88-0.01-7.32c0-1.67,0.18-3.34,0.08-5.01c-0.33-5.37-0.2-10.75-0.2-16.13
		c0-2.42-0.08-2.59-2.58-2.61c-0.77-0.01-1.54-0.03-2.31,0.03c-4.46,0.35-8.93,0.35-13.4,0.38c-3.93,0.02-4.2,0.2-3.94,4.17
		C104.42,470.19,104.25,475.14,104.47,479.77z M413.15,54.78c-4.96,0-9.93-0.02-14.89,0.01c-1.86,0.01-1.89,0.09-1.85,1.89
		c0.01,0.77-0.02,1.53,0,2.3c0.12,5.16,0.27,10.32,0.38,15.48c0.03,1.51,0.24,1.88,1.83,1.79c5.03-0.28,10.04,0.27,15.07,0.07
		c4.68-0.19,9.36-0.09,14.04-0.15c2.23-0.03,2.44-0.18,2.4-2.39c-0.09-5.73-0.24-11.45-0.41-17.18c-0.04-1.51-0.22-1.64-1.72-1.71
		C423.06,54.64,418.11,54.77,413.15,54.78z M46.73,309.61c-1.89,0-4.61,0.01-7.33,0c-1.83-0.01-1.98,0.14-1.97,2.04
		c0.03,3.97,0.17,7.94,0.04,11.9c-0.19,5.65-0.03,11.3-0.14,16.94c-0.05,2.45,0.1,2.64,2.6,2.64c4.53,0,9.06-0.11,13.59-0.18
		c1.25-0.02,2.51-0.05,3.76-0.09c0.74-0.02,1.09-0.33,1.15-1.15c0.34-4.45,0.24-8.91,0.17-13.35c-0.06-3.82,0.24-7.66-0.26-11.47
		c-0.06-0.48-0.01-0.98,0.08-1.46c0.32-1.6-0.15-3.19,0-4.79c0.08-0.88-0.41-1.41-1.45-1.28C53.84,309.76,50.69,309.43,46.73,309.61
		z M59.13,478.41c-0.01,0-0.01,0-0.02,0c0-0.77,0-1.54,0-2.31c0.03-3.91,0.06-7.82,0.09-11.72c0.01-1.63-0.29-1.97-1.9-2.06
		c-0.63-0.03-1.26-0.02-1.89-0.01c-3.35,0.06-6.7,0.05-10.05,0.23c-2.23,0.12-4.47,0.14-6.7,0.21c-1.43,0.05-1.45,0.12-1.55,1.6
		c-0.12,1.67,0.08,3.36-0.01,5.01c-0.31,6,0.09,12-0.19,17.99c-0.09,1.95,0,3.9,0.01,5.86c0.01,0.84,0.36,1.22,1.29,1.22
		c6.27-0.03,12.54-0.02,18.8,0c1.86,0.01,2.09-0.13,2.1-1.97C59.16,487.76,59.13,483.09,59.13,478.41z M376.56,117.67
		c-3.69,0.23-7.39-0.11-11.09,0.16c-1.94,0.15-2.03,0.1-2.06,2.02c-0.05,3.84,0.09,7.68,0.01,11.51c-0.05,2.45,0.38,4.88,0.26,7.31
		c-0.06,1.28,0.17,2.5,0.18,3.75c0.01,0.84,0.5,1.2,1.3,1.36c0.98,0.2,1.95,0.02,2.92,0.02c6.55-0.02,13.09-0.04,19.64-0.03
		c3.13,0.01,2.76-0.19,3.27-3.06c0.04-0.2,0.03-0.42,0.01-0.63c-0.43-6.74-0.56-13.5-0.74-20.25c-0.05-1.92-0.38-2.38-2.42-2.25
		C384.09,117.82,380.33,117.49,376.56,117.67z M339.76,76.61c0-0.01,0-0.01,0-0.02c4.75,0,9.5,0.03,14.24-0.02
		c1.87-0.02,2.12-0.47,2.07-2.28c-0.09-3.41-0.06-6.81-0.09-10.22c-0.02-2.58-0.1-5.15-0.36-7.72c-0.11-1.12-0.67-1.63-1.76-1.61
		c-1.81,0.04-3.61-0.13-5.43-0.1c-7.11,0.12-14.23,0.2-21.34-0.11c-0.83-0.04-1.67,0.1-2.51,0.13c-0.7,0.02-1.01,0.38-1.01,1.05
		c0,0.42,0,0.84-0.01,1.26c-0.05,5.8,0.05,11.59,0.23,17.38c0.07,2.22-0.03,2.25,2.14,2.25C330.54,76.62,335.15,76.61,339.76,76.61z
		 M37.33,365.01C37.32,365.01,37.32,365.01,37.33,365.01c-0.01,4.68-0.02,9.36,0,14.04c0.01,2.06,0.23,2.27,2.32,2.27
		c5.72-0.02,11.45-0.07,17.17-0.13c1.56-0.02,1.96-0.43,1.99-1.99c0.02-0.98-0.09-1.95-0.09-2.93c-0.05-8.65-0.13-17.3-0.1-25.96
		c0.01-2.07-0.47-2.13-2.15-2.15c-2.86-0.05-5.72,0.13-8.59,0.09c-2.99-0.04-5.98,0.43-8.99,0.33c-0.95-0.03-1.43,0.45-1.49,1.36
		c-0.04,0.56-0.06,1.12-0.06,1.67C37.32,356.08,37.33,360.54,37.33,365.01z M285.79,65.8c0,2.9,0.02,6.19-0.01,9.46
		c-0.01,1.07,0.42,1.5,1.49,1.49c2.3-0.03,4.59,0.11,6.88,0.12c6.68,0.01,13.36-0.16,20.04-0.26c0.42-0.01,0.84-0.02,1.26-0.03
		c0.81-0.03,1.31-0.41,1.39-1.25c0.05-0.49,0.12-0.97,0.12-1.46c-0.05-5.93-0.12-11.86-0.19-17.79c-0.01-1.25-0.37-1.56-1.65-1.6
		c-4.31-0.14-8.63,0.12-12.94-0.06c-4.46-0.19-8.92,0.21-13.38-0.04c-0.62-0.03-1.26,0.01-1.88,0.05c-0.84,0.06-1.28,0.55-1.21,1.39
		C285.96,59.01,285.36,62.22,285.79,65.8z M126.05,391.07c0.04-0.9,0.11-1.81,0.12-2.71c0.04-3.14-0.12-3.32-3.29-3.27
		c-3,0.05-6.02,0.29-8.98,0.2c-3-0.09-5.97,0.42-8.97,0.13c-1.12-0.11-1.45,0.35-1.45,1.52c0,1.87-0.04,3.74,0.04,5.61
		c0.19,4.38,0.08,8.78,0.09,13.16c0.01,2.65-0.03,5.31,0.03,7.96c0.04,1.64,0.38,1.93,2,2.02c0.28,0.02,0.56-0.01,0.84,0.01
		c3.63,0.21,7.25-0.12,10.86-0.27c2.37-0.1,4.73,0.23,7.1-0.1c1.49-0.21,1.77-0.35,1.78-1.74c0.02-2.44,0-4.87-0.09-7.31
		c-0.09-2.5-0.19-5.03-0.11-7.5C126.11,396.21,125.57,393.63,126.05,391.07z M37.72,241.85c-0.03,0-0.07,0-0.1,0
		c0,4.81,0.03,9.62-0.01,14.42c-0.02,2.12,0.19,2.48,2.31,2.47c2.29-0.01,4.59-0.13,6.88-0.22c2.78-0.1,5.56,0.19,8.34,0.16
		c2.74-0.03,3.1-0.19,3.11-2.82c0-0.14,0-0.28,0-0.42c-0.07-5.71-0.36-11.43-0.13-17.13c0.14-3.7-0.21-7.39,0.1-11.08
		c0.14-1.61-0.4-2.1-1.94-1.9c-2.15,0.29-4.3,0-6.45,0.1c-3.26,0.15-6.54-0.23-9.81-0.13c-2.01,0.06-2.28,0.23-2.29,2.29
		C37.71,232.35,37.72,237.1,37.72,241.85z M57.87,199.76c0-3.41,0.04-7.04-0.02-10.67c-0.03-1.82-0.52-2.13-2.35-2.01
		c-2.16,0.13-4.32,0.25-6.47,0.29c-3.08,0.06-6.15,0.01-9.23,0.06c-1.8,0.03-2.05,0.29-2.04,2.11c0.01,1.32,0.2,2.65,0.19,3.97
		c-0.04,4.67-0.15,9.34-0.2,14c-0.01,0.9,0.26,1.84,0.13,2.71c-0.42,2.72-0.05,5.44-0.12,8.16c-0.05,1.92,0.21,2.11,2.2,2.14
		c2.02,0.03,4.04,0.02,6.06-0.01c3.27-0.05,6.54-0.11,9.8-0.21c1.74-0.06,1.96-0.27,2.07-1.93c0.14-2.02,0.42-4.06,0.23-6.06
		C57.71,208.2,58.19,204.09,57.87,199.76z M149.42,144.76c2.37,0,4.74-0.02,7.11,0c2.02,0.02,2.46-0.38,2.51-2.39
		c0.01-0.42,0-0.84-0.01-1.26c-0.03-6.27-0.07-12.55-0.09-18.82c-0.01-1.7-0.37-2.13-2.05-2.08c-3.97,0.11-7.94-0.19-11.92-0.01
		c-3.62,0.16-7.26,0.07-10.89,0.1c-1.57,0.01-1.83,0.25-1.9,1.79c-0.02,0.35,0,0.7,0.01,1.05c0.12,4.24,0.16,8.48,0.04,12.73
		c-0.07,2.43,0.19,4.86,0.09,7.3c-0.05,1.29,0.29,1.58,1.41,1.52C138.96,144.4,144.19,144.97,149.42,144.76z M219.81,54.18
		c-1.81,0-3.34-0.01-4.87,0c-2.79,0.02-5.58-0.15-8.36,0.15c-1.52,0.16-1.78,0.34-1.81,1.73c-0.07,3.69-0.04,7.39-0.1,11.08
		c-0.04,2.71,0.48,5.41-0.07,8.13c-0.25,1.22,0.52,1.83,1.9,1.83c3.84-0.02,7.68-0.14,11.52-0.04c4.32,0.11,8.64-0.04,12.96-0.04
		c2.08,0,2.77-0.77,2.62-2.81c-0.3-4.2,0.06-8.41-0.44-12.61c-0.21-1.8-0.19-3.62-0.1-5.44c0.07-1.4-0.31-1.84-1.4-1.84
		C227.63,54.32,223.58,54.42,219.81,54.18z M37.19,401.55c0,4.25-0.01,8.51,0,12.76c0.01,1.88,0.34,2.24,1.93,2.24
		c4.11,0,8.22,0.02,12.33-0.01c2.01-0.02,4.03-0.15,6.04-0.24c0.78-0.04,1.37-0.33,1.3-1.26c-0.14-2.02,0.23-4.01,0.14-6.04
		c-0.18-4.3-0.11-8.62-0.15-12.93c-0.02-2.57,0.02-5.15-0.08-7.72c-0.07-1.81-0.32-1.99-2.18-2c-5.44-0.01-10.88,0-16.33,0.05
		c-2.75,0.02-2.82,0.08-2.88,2.81C37.25,393.32,37.11,397.43,37.19,401.55z M65.86,137.5c0,1.81-0.05,3.63,0.01,5.44
		c0.06,1.65,0.4,1.99,1.98,2.04c1.53,0.04,3.06-0.06,4.58-0.01c4.45,0.13,8.91-0.28,13.36,0.01c1.66,0.11,3.35-0.01,5.02-0.09
		c0.69-0.04,1.53-0.17,1.67-0.99c0.14-0.8,0.44-1.64,0.38-2.4c-0.17-2.12,0.07-4.23-0.08-6.35c-0.02-0.3,0.23-0.6-0.08-0.92
		c-0.62-0.63-0.58-1.37-0.28-2.14c0.31-0.81,0.16-1.64,0.12-2.48c-0.12-2.21-0.24-4.42-0.19-6.63c0.03-1.66-0.64-2.44-2.27-2.34
		c-1.94,0.12-3.89,0.32-5.83,0.26c-5.43-0.17-10.85-0.03-16.27,0.17c-1.88,0.07-2.15,0.32-2.17,2.23c-0.01,1.18,0.12,2.38,0.02,3.55
		C65.53,130.4,65.98,133.95,65.86,137.5z M78.58,53.93c0,0,0-0.01,0-0.01c-3.63,0-7.27-0.01-10.9,0c-1.85,0.01-1.86,0.02-2.11,1.98
		c-0.11,0.83-0.32,1.65-0.17,2.5c0.43,2.56,0.47,5.15,0.35,7.71c-0.16,3.28,0.16,6.55,0.01,9.83c-0.08,1.69,0.41,2.02,2.15,1.95
		c2.86-0.13,5.71-0.26,8.57-0.15c2.02,0.08,4.05,0.15,6.07,0.01c2.49-0.18,4.98-0.16,7.46-0.23c1.51-0.04,1.86-0.35,1.83-1.84
		c-0.02-1.11-0.3-2.2-0.19-3.34c0.24-2.49-0.04-4.99,0.12-7.49c0.08-1.34-0.14-2.78-0.34-4.15c-0.19-1.3,0.25-2.52,0.11-3.86
		c-0.3-2.86-0.08-2.88-2.87-2.89C85.29,53.93,81.94,53.93,78.58,53.93z M58.01,166.72c-0.08,0-0.17,0-0.25,0
		c0-4.61-0.02-9.22,0.02-13.82c0.01-0.97-0.24-1.44-1.28-1.38c-1.74,0.09-3.48-0.11-5.22-0.11c-3.89,0-7.78,0.19-11.67,0.28
		c-1.41,0.03-1.63,0.2-1.6,1.51c0.13,5.5-0.36,10.99-0.03,16.5c0.21,3.46-0.14,6.95-0.25,10.42c-0.06,1.69,0.33,2.25,1.94,2.26
		c5.44,0.03,10.89,0.02,16.33-0.04c1.71-0.02,2.02-0.48,2.02-2.19C58,175.66,58.01,171.19,58.01,166.72z M142.92,54.02
		c-0.77,0-1.54,0.01-2.3,0c-2.23-0.02-4.47-0.1-6.7-0.06c-1.55,0.02-2.19,0.53-2.08,1.73c0.2,2.16,0.07,4.32,0.1,6.47
		c0.05,4.39,0.15,8.78,0.16,13.17c0,1.9,0,2.05,1.91,2.08c3.41,0.06,6.82,0.09,10.23,0.01c4.12-0.1,8.24,0.31,12.35-0.18
		c1.54-0.18,1.58-0.16,1.58-1.77c-0.01-1.74-0.2-3.49-0.15-5.23c0.13-4.67,0.13-9.33-0.22-13.99c-0.15-2.04-0.11-2.2-2.13-2.16
		C151.42,54.18,147.17,53.8,142.92,54.02z M57.54,100.14c-0.03,0-0.05,0-0.08,0c0-4.47,0.02-8.94-0.01-13.42
		c-0.01-2.23-0.34-2.57-2.57-2.57c-4.87,0.01-9.75,0.05-14.62,0.12c-1.86,0.03-2.07,0.22-2.1,2.04c-0.07,3.83-0.04,7.66-0.11,11.49
		c-0.09,4.67,0.19,9.34-0.12,14.01c-0.06,0.89,0.14,1.81,0.22,2.71c0.08,0.84,0.55,1.25,1.39,1.24c0.91-0.02,1.82-0.12,2.72-0.07
		c4.46,0.27,8.92-0.17,13.38-0.09c1.63,0.03,1.9-0.4,1.9-2.04C57.53,109.09,57.54,104.61,57.54,100.14z M125.13,131.14
		c-0.01,0-0.03,0-0.04,0c0-2.86-0.01-5.72,0-8.58c0.01-1.89-0.27-2.23-2.11-2.26c-2.3-0.05-4.59,0.12-6.89,0.15
		c-4.32,0.06-8.65,0.22-12.98,0.23c-2.23,0-2.42,0.18-2.43,2.38c-0.02,6.62,0,13.24,0.03,19.86c0.01,1.69,0.39,2.07,2.14,2.09
		c2.23,0.02,4.46-0.12,6.69-0.06c2.38,0.07,4.76-0.44,7.1-0.19c2.31,0.24,4.59-0.23,6.87,0.13c1.08,0.17,1.57-0.44,1.63-1.42
		c0.05-0.83-0.02-1.67-0.02-2.5C125.13,137.68,125.13,134.41,125.13,131.14z M112.31,53.98c0-0.02,0-0.04,0-0.07
		c-1.68,0-3.35-0.01-5.03,0c-1.88,0.01-3.77-0.01-5.65,0.05c-1.42,0.05-1.66,0.34-1.78,1.76c-0.02,0.28-0.01,0.56-0.01,0.84
		c0.07,6.35,0.12,12.69,0.2,19.04c0.02,1.62,0.22,1.83,1.79,1.84c7.03,0.04,14.07,0.04,21.1,0.1c0.85,0.01,1.33-0.28,1.49-1.11
		c0.09-0.48,0.29-0.96,0.28-1.43c-0.13-3.29,0.01-6.59-0.25-9.88c-0.12-1.52-0.33-3.12-0.01-4.57c0.37-1.71,0.04-3.33,0.03-4.99
		c-0.01-1.32-0.35-1.56-1.68-1.57C119.29,53.97,115.8,53.98,112.31,53.98z M374.39,54.78c-2.19-0.12-5.76,0.11-9.32-0.2
		c-2.32-0.2-2.92,0.29-2.88,2.41c0.1,5.87,0.24,11.73,0.4,17.59c0.04,1.57,0.27,1.86,1.86,1.89c4.05,0.08,8.11,0.19,12.15,0.02
		c3.14-0.14,6.27-0.19,9.4-0.04c3.04,0.14,3.48-0.24,3.27-3.19c-0.27-3.83-0.56-7.65-0.52-11.49c0.02-1.81,0.15-3.62-0.07-5.43
		c-0.18-1.46-0.14-1.53-1.6-1.54C383.31,54.76,379.53,54.78,374.39,54.78z M47.79,121.27c-0.06,0-0.41-0.04-0.76-0.05
		c-2.51-0.08-5.02-0.05-7.53,0.16c-1.11,0.1-1.68,0.51-1.55,1.69c0.18,1.67-0.06,3.34,0.08,5.02c0.17,2.01,0.08,4.05,0.01,6.08
		c-0.1,3.2-0.13,6.4-0.02,9.61c0.03,1.02,0.51,1.35,1.43,1.35c5.09-0.01,10.18,0.03,15.27-0.02c2.97-0.03,3.14-0.28,3.09-3.33
		c-0.01-0.49-0.04-0.98-0.06-1.47c-0.22-5.58-0.44-11.15,0.01-16.73c0.16-1.96-0.23-2.41-2.16-2.45
		C53.11,121.07,50.59,121.03,47.79,121.27z M48.08,77.84c2.31,0,4.61,0.01,6.92,0c2.23-0.02,2.51-0.34,2.4-2.6
		c-0.01-0.28-0.08-0.56-0.08-0.83c-0.02-1.81-0.16-3.63-0.02-5.43c0.35-4.33-0.16-8.65-0.07-12.97c0.04-2.04-0.29-2.18-2.39-2.2
		c-2.79-0.02-5.59-0.09-8.37,0.03c-2.16,0.09-4.29-0.43-6.47,0.03c-1.66,0.35-1.78,0.35-1.79,2.14c-0.01,3.21,0.04,6.43-0.1,9.63
		c-0.15,3.41,0.26,6.82-0.03,10.23c-0.12,1.38,0.19,1.62,1.62,1.8C42.49,78.02,45.29,77.78,48.08,77.84z"/>
</g>
</svg>
