<?xml version="1.0" encoding="utf-8"?>
<!-- Generator: Adobe Illustrator 24.3.0, SVG Export Plug-In . SVG Version: 6.00 Build 0)  -->
<svg version="1.1" id="Layer_1" xmlns="http://www.w3.org/2000/svg" xmlns:xlink="http://www.w3.org/1999/xlink" x="0px" y="0px"
	 viewBox="0 0 595.28 595.28" style="enable-background:new 0 0 595.28 595.28;" xml:space="preserve">
<style type="text/css">
	.st0{fill:#B6D697;}
</style>
<g>
	<path class="st0" d="M294.67,590.77c-5.59-8.82-12.02-17.05-17.93-25.64c-3.95-5.74-8.52-11-11.77-17.36
		c-3.44-6.73-9.14-12.27-12.59-19.12c-3.39-6.72-7.82-12.79-11.17-19.59c-3.02-6.12-6.29-12.22-9.65-18.23
		c-2.77-4.95-4.87-10.17-6.67-15.55c-1.1-3.28-4.24-5.45-4.69-9.34c-0.54-4.64-2.37-8.98-4.8-13.12c-2.49-4.24-2.19-9.36-3.33-14.02
		c-1.47-6-3.87-11.78-5.33-17.84c-0.91-3.78-2.81-7.36-1.04-11.45c1.08-2.51-1.3-4.58-1.48-7.25c-0.38-5.76-1.69-11.72-4.24-17.81
		c-3.1,4.18-2.89,8.82-3.72,12.92c-1.46,7.24-2.69,14.53-4.51,21.69c-1.63,6.41-2.37,12.96-3.42,19.45
		c-0.76,4.67-1.28,9.37-1.86,14.07c-0.25,2.04-0.97,3.8-2.56,5.17c-1.43,1.23-2.96,3.96-4.74,2.34c-2.05-1.87-6.21-2.28-5.21-7.06
		c2.04-9.78,3.25-19.74,3.6-29.72c0.21-5.84-1.11-11.73-1.13-17.59c-0.03-9.4-1.06-18.76-1.1-28.18c-0.02-4.01-0.62-8.53-1.45-12.8
		c-1.39-7.18-1.49-14.61-2.56-21.86c-1.1-7.48-1.94-15.04-2.75-22.51c-0.63-5.83-2.67-11.29-3.12-16.85
		c-0.44-5.51-1.31-11.1-2.62-16.19c-0.84-3.25-4.04-6.63-4.4-10.46c-0.69-7.24-5.86-12.47-7.84-19.04
		c-3.71-12.32-9.33-23.99-12.18-36.6c-2.03-8.97-3.12-18.08-3.7-27.21c-0.23-3.59,0.64-7.34,0.63-11.07
		c-0.01-1.98,0.14-3.89-1.37-6.53c-3.37,7.02-9.85,11.46-9.79,20.02c0.04,5.77-1.22,11.45,1,17.16c0.71,1.84,3.14,4.72,0.27,6.08
		c-3.06,1.46-6.89,3.15-10.22,0.19c-4.42-3.93-9.24-7.19-11.83-13.22c-2.12-4.93-6.45-8.75-8.59-14.15
		c-4.86-12.33-4.78-23.55,1.66-35.62c4.95-9.29,9.2-19.13,13.58-28.79c4.36-9.63,5.76-19.82,8.64-29.67
		c1.57-5.37,0.99-11.67,1.66-17.39c0.95-8.12-2.03-15.81-0.96-23.73c0.26-1.9-0.73-3.44-1.45-4.97c-0.63-1.34-1.49-2.56-1.54-4.09
		c-0.39-12.08-8.43-21.17-12.44-31.83c-1.73-4.61-3.59-9.19-7.27-12.71c2.97,0,5.94,0,8.91,0c5.2,9.89,11.54,19.18,15.49,29.73
		c2.4,6.41,4.75,12.69,6.07,19.57c1.2,6.25,1.32,12.03,0.93,18.25c-0.15,2.38,1.4,5.77,1.82,8.75c0.31,2.19,0.86,4.66-1.79,6.17
		c-0.73,0.42-1.73,0.89,0.14,1.82c1.13,0.57,1.27,2.98,1.08,4.8c-1.39,13.34-5.89,25.69-10.67,38.16
		c-4.73,12.35-11.56,23.6-16.54,35.74c-2.96,7.22-2.37,14.33,1.79,21.41c2.09,3.55,3.08,7.92,4.9,11.78
		c0.75,1.58,1.34,4.19,3.35,3.6c1.67-0.48,2.73-3.48,2.33-4.94c-1.73-6.3,1.96-10.63,4.63-15.47c4.28-7.75,8.46-15.59,14.43-22.18
		c2.82-3.11,5.36-6.52,9.07-8.88c1.93-1.23,3.49-1.51,4.75-0.08c1.35,1.53,4.4,2.23,3.2,5.42c-0.63,1.68-0.4,3.86-1.39,5.21
		c-5.13,7.03-3.73,15.28-4.62,23.07c-1.24,10.8-0.23,21.63,2.52,32c3,11.32,7.77,22.17,11.32,33.36
		c2.77,8.73,7.27,16.73,10.11,25.36c3.7,11.2,7.3,22.42,8.59,34.31c0.94,8.65,3.23,17.11,3.98,25.88
		c1.1,12.92,2.99,25.78,4.79,38.63c0.65,4.6-1.36,9.19,0.35,13.72c0.27,0.7,0.49,1.41,1.04,3.01c2.98-6.89,4.51-13.2,5.76-19.58
		c2.43-12.39,4.87-24.7,4.05-37.55c-0.37-5.79,0.4-11.8,0.51-17.71c0.29-16.72-3-33.05-5.43-49.48c-0.6-4.05-1.14-8.16-1.11-12.23
		c0.02-2.07,0.32-4.96,3.4-5.31c2.9-0.33,4.63,1.79,5.71,3.96c1.37,2.75,2.57,5.74,3.05,8.75c1.35,8.44,2.08,16.98,3.44,25.41
		c2.83,17.5,2.01,35.07,2,52.67c-0.01,10.42,1.61,20.9,2.25,31.29c0.62,9.97,2.42,19.65,3.84,29.4c1.83,12.55,4.29,25,7.55,37.35
		c4.14,15.71,10.67,30.39,16.82,45.24c3.92,9.46,9.17,18.36,14.25,27.31c6.62,11.64,14.21,22.56,21.73,33.58
		c3.59,5.26,6.98,10.72,10.51,16.05c1.01,1.52,1.79,3.53,4.03,4.17c0.78-1.92,0.42-3.92-0.39-5.27
		c-6.61-11.01-9.86-23.28-13.1-35.46c-3.46-13.01-8.28-25.57-12.15-38.44c-3.2-10.65-7.7-20.93-10.36-31.77
		c-4.38-17.88-9.35-35.72-12.68-53.74c-3.53-19.12-7.12-38.4-7.22-58.18c-0.08-14.85-0.44-29.83-2.22-44.68
		c-0.29-2.38,0.47-4.89,0.81-7.33c0.18-1.28,0.19-3.07,1.68-3.24c1.5-0.17,3.14,0.18,4.44,1.53c2.7,2.8,2.76,6.36,2.65,9.72
		c-0.48,15.94,4.56,30.63,11.6,44.34c4.51,8.8,9.22,17.63,13.85,26.39c5.36,10.14,11.46,19.86,17.17,29.75
		c3.26,5.65,7.77,11.13,12.16,16.36c7.66,9.14,15.12,18.43,21.84,28.36c3,4.44,7.56,7.82,10.64,12.53
		c9.05,13.84,18.59,27.32,27.24,41.47c7.29,11.91,12.74,24.77,20.43,36.45c3.23,4.91,5.49,10.66,7.95,16.16
		c2.95,6.6,7.19,12.68,9.83,19.5c2.81,7.26,8.23,13.29,9.79,21.11c-3.3,0-6.6,0-9.9,0c-0.08-2.58-0.96-5.14-2.61-6.82
		c-4.31-4.39-5.06-10.51-8.17-15.55c-5.7-9.25-9.48-19.66-14.82-29.15c-8.95-15.89-17.31-32.11-26.83-47.7
		c-8.85-14.48-19.05-27.92-29.3-41.37c-6.26-8.22-13.74-15.53-19.05-24.42c-5.58-9.35-13.51-16.88-18.53-26.89
		c-3.7-7.38-9.15-14.31-13.16-21.79c-6.12-11.41-11.66-23.13-17.49-34.7c-0.46-0.91-0.55-2.58-2.23-2
		c-1.09,0.38-1.16,1.57-0.96,2.55c2,9.96,1.55,20.21,3.19,30.16c1.99,12.06,5.27,23.9,7.44,35.94c1.31,7.26,3.39,14.31,4.91,21.49
		c1.88,8.92,3.29,17.92,6.47,26.54c1.56,4.24,2.82,8.62,4.17,12.92c2.54,8.1,5.06,16.21,7.69,24.29c2.74,8.41,6.05,16.63,8.23,25.24
		c2.63,10.42,5.65,20.75,9.52,30.77c2.64,6.84,6.25,13.37,8.84,20.16c2.64,6.9,4.77,13.95,8.54,20.35
		C304.57,590.77,299.62,590.77,294.67,590.77z"/>
	<path class="st0" d="M225.37,590.77c-4.96-10.73-10.23-21.33-14.8-32.22c-4.89-11.64-10.95-22.85-14.34-35.03
		c-1.88-6.76-5.46-12.76-6.96-20.6c-3.91,4.35-5.94,8.54-6.52,13.24c-0.26,2.11-0.33,4.26-0.9,6.31
		c-4.03,14.44-3.03,28.97-0.8,43.51c0.36,2.35-0.4,4.65-2.22,4.79c-2.26,0.18-5.71,1.31-6.98-1.85
		c-5.11-12.74-14.54-23.49-17.07-37.39c-0.39-2.16-2.41-3.33-3.12-5.47c-5.46-16.54-10.56-33.01-11.78-50.69
		c-0.91-13.18,2.01-25.59,3.55-38.34c2.35-19.44,6.76-38.7,5.51-58.48c-1.05-16.53-0.82-33.28-5.28-49.34
		c-2.71-9.76-5.53-19.56-9.66-28.95c-3.84-8.74-8.35-17.11-12.65-25.61c-0.52-1.02-0.85-2.21-3.04-1.72
		c3.07,8.04,3.32,16.64,6.14,24.8c1.42,4.12,0.96,9.05,0.67,13.57c-0.32,5.05-1.58,10.04-1.06,15.16c0.25,2.48-2.09,3.89-2.45,6.31
		c-1.62,10.78-6.15,20.6-10.1,30.67c-2.33,5.95-3.89,12.36-6.02,18.48c-2.45,7.05-5.27,13.97-8.02,20.91
		c-3.38,8.51-8.34,16.26-12.04,24.65c-1.16,2.64-2.69,5.52-3.45,8.19c-2.74,9.64-3.62,19.49,0.12,29.23c1.19,3.1,1.48,6.29-2.1,8.18
		c-4.77,2.52-7.23-1.8-8.62-4.37c-6.85-12.73-14.72-25.09-18.26-39.32c-3.01-12.1-2.23-24.44-1.69-36.79
		c0.46-10.41,2.92-20.39,4.93-30.5c0.58-2.9,3.23-5.13,2.42-8.41c-5.71,5.33-9.66,12.04-13.21,18.66c-4.01,7.49-9.32,14.39-11,23.23
		c-0.87,4.55-2.42,9.36-5.01,13.57c-2.2,3.58-2.42,7.87-3.22,11.83c-2.68,13.43-3.44,27.26-1.76,40.67
		c1.59,12.73,3.94,25.56,10.68,37.31c3.9,6.8,7.38,14.13,10.01,21.83c2.72,7.96,8.44,14.85,11.81,22.66
		c6.48,15.03,12.63,31.29,9.91,48.32c-1.98,0-3.96,0-5.94,0c0.04-6.74,1.3-14.8-0.78-21.1c-2.3-6.95-5.39-13.73-7.95-20.66
		c-3.85-10.39-11.23-18.92-15.21-29.24c-1.65-4.29-3.01-8.72-5.09-12.79c-5.33-10.45-10.94-20.58-12.71-32.63
		c-0.73-4.99-0.29-10.49-2.81-15.25c0-9.9,0-19.8,0-29.7c1.32-6.16,2.35-12.4,4.01-18.47c5.81-21.32,13.03-42.06,27.57-59.28
		c5.52-6.54,11.27-12.99,17.68-18.62c2.82-2.48,6.55-3.95,8.77-7.38c0.89-1.37,2.77-1.46,4.02-0.44c2.06,1.67,4.91,2.72,4.53,6.41
		c-0.48,4.65-3.79,7.61-6.15,11.06c-7.98,11.61-14.12,23.9-16.1,38.06c-1.16,8.27-2.46,16.62-1.57,24.88
		c0.7,6.44-0.34,12.95,1.16,19.29c1.85,7.83,6.02,14.61,9.87,21.8c0.95-12.67,6-23.87,11.87-34.27
		c6.64-11.78,11.15-24.42,15.96-36.78c3.38-8.67,6.73-17.61,9.63-26.59c3.42-10.59,7.32-21.05,8.02-32.21
		c0.69-10.92,1.08-21.7-2.78-32.54c-4.08-11.43-8.2-22.86-12.45-34.22c-5.79-15.48-14.69-28.96-29.59-37.42
		c-3.81-2.16-6.76-4.53-6.27-9.56c0.27-2.75,0.96-3.56,3.95-3.24c6.05,0.64,10.46,4.35,14.44,7.99
		c14.55,13.27,25.62,29.41,36.26,45.84c9.46,14.63,17.6,30.02,23.75,46.25c3.73,9.84,7.87,19.78,8.88,30.5
		c0.21,2.2,2.31,3.45,2.53,5.78c1.44,15.24,2.83,30.43,2.7,45.83c-0.09,10.98,0.12,21.96-1.59,32.76
		c-1.15,7.25-2.9,14.43-3.73,21.75c-0.83,7.32-3.18,14.62-3.13,21.79c0.08,10.77-0.41,21.7,1.65,32.4
		c2.1,10.91,5.89,21.32,10.07,31.55c2.23,5.46,2.7,11.57,6.21,16.53c0.67,0.95,0.21,3.16,2.22,2.57c1.93-0.56,2.57-2.22,2.4-4.3
		c-0.87-10.9,1.5-21.29,5.34-31.39c3.27-8.59,6.64-17.13,10.08-25.65c1.04-2.59,2.6-6.28,5.12-6.03c3.06,0.3,3.75,4.48,5.13,7.18
		c0.26,0.52,0.15,1.3,0.04,1.93c-1.66,9.7,1.26,18.62,4.29,27.65c2.18,6.49,3.75,13.4,6.62,19.41c4.03,8.41,8.07,16.86,11.76,25.39
		c4.91,11.37,12.07,21.8,14.62,34.17C231.31,590.77,228.34,590.77,225.37,590.77z"/>
	<path class="st0" d="M535.24,590.77c-3.42-6.5-4.07-13.72-5.13-20.79c-0.29-1.94-0.9-3.64-1.34-5.45
		c-1.9-7.85-4.29-15.6-6.18-23.45c-1.42-5.89-3.63-11.89-5.67-17.77c-2.17-6.28-4.91-12.46-5.92-19.13
		c-0.16-1.05,0.24-2.92-2.06-2.53c-0.37,0.06-1.26-0.78-1.28-1.23c-0.33-7.69-6.5-12.94-8.23-20.32
		c-1.49-6.35-6.55-11.71-11.27-16.8c-4.76-5.13-8.32-11.34-12.71-16.83c-3.15-3.93-5.58-8.27-8.24-12.49
		c-1.2-1.91-3.15-3.59-1.37-6.17c0.24-0.34,0.36-1.22,0.23-1.29c-4.46-2.42-3.08-7.62-5.11-11.31c-2.53-4.58-2.43-10.66-3.27-16.12
		c-0.8-5.21-2.4-10.33-1.91-15.71c0.09-1.02-0.45-1.99-1.7-2.01c-1.24-0.02-1.48,1.01-1.9,1.93c-2.17,4.71-2.4,9.79-2.53,14.79
		c-0.23,9.02-0.26,18.07,0.07,27.08c0.16,4.41-1.9,6.05-5.65,7.23c-3.84,1.2-7.17-1.26-7.93-3.33c-2.14-5.86-7.63-7.68-11.62-11.04
		c-6.23-5.23-13.66-9.26-18.6-15.79c-4.35-5.74-9-11.31-13.27-17.14c-4.95-6.75-8.79-14.3-14.45-20.52c-0.41-0.46-0.58-1.32-1.42-1
		c-0.87,0.33-1.26,1.11-1,2.01c0.54,1.9,1.17,3.77,1.74,5.66c3.15,10.53,3.54,21.7,8.08,31.99c2.81,6.36,3.16,13.87,6.28,20.02
		c3.29,6.48,6.18,13.85,13.92,17.12c2.54,1.08,6.78,2.75,5.19,5.95c-1.31,2.64-5.48,4.41-9.14,3.33
		c-6.12-1.81-12.36-3.54-18.08-6.28c-4.27-2.04-9.54-1.5-13.06-5.3c-0.58-0.62-1.64-0.37-2.23,0.31c-0.92,1.05,0.01,1.78,0.62,2.5
		c1.81,2.14,3.43,4.47,5.47,6.36c11.21,10.34,20.12,22.79,28.32,35.29c11.98,18.27,22.45,37.62,29.63,58.56
		c2.5,7.28,4.86,14.66,7.78,21.82c0.83,2.04,0.9,4.45,1.02,6.71c0.33,6.39,2.5,12.43,3.3,18.72c0.1,0.77-0.29,1.59-0.45,2.39
		c-2.97,0-5.94,0-8.91,0c-1.26-2.72-1.91-5.49-1.88-8.58c0.09-9.76-4.03-18.78-6.07-28.11c-1.48-6.78-5.6-13.51-7.82-20.41
		c-5.81-18.12-15.93-33.96-25.69-49.92c-3.59-5.88-7.7-11.77-12.77-16.84c-4.15-4.14-7.14-9.41-11.12-13.75
		c-6.85-7.46-14.14-14.48-22.01-20.9c-1.12-0.91-2.03-2.14-2.87-3.34c-1.32-1.9-1.83-4.08-0.12-5.92c1.82-1.94,4.12-2.63,6.73-1.27
		c4.77,2.48,9.94,3.79,15.08,5.18c1.23,0.33,2.53,0.95,3.45,1.81c4.15,3.91,9.27,5.44,15.49,6.74c-1.29-5.05-3.23-9.41-4.72-13.79
		c-0.87-2.57-2.49-4.8-2.23-7.77c0.17-1.97-0.21-3.86-1.99-5.3c-1.16-0.94-1.94-2.49-1.71-3.97c1.05-6.74-3.22-12.12-4.56-18.25
		c-2.33-10.63-4.97-21.13-4.67-32.13c0.15-5.43,0.25-10.91-0.38-16.28c-0.48-4.07,0.73-7.01,4.09-8.54
		c2.22-1.01,8.37,5.03,7.96,7.99c-0.82,5.96,2.64,10.32,4.96,15.05c4.23,8.62,9.83,16.44,15.11,24.43
		c9.19,13.93,20.18,26.14,33.96,35.71c1.08,0.75,2.16,1.54,3.08,2.47c1.12,1.13,1.99,3.22,3.87,2.05c1.41-0.88,1.27-2.91,1.19-4.57
		c-0.63-13.46,2.3-26.3,5.85-39.21c3.06-11.15,8.22-21.4,11.97-32.23c1.1-3.19,3.23-5.33,7.18-4.24c4.58,1.27,5.07,5.13,3.81,8.21
		c-3.56,8.71-1.93,17.63-2.63,26.47c-0.66,8.38,0.6,16.62,0.37,24.91c-0.08,2.71,1.82,6.88,2.9,10.35
		c2.19,7.05,4.51,14.07,6.53,21.17c1.09,3.83,4.12,6.27,6.18,9.36c5.17,7.78,10.32,15.75,16.71,22.49
		c6.41,6.77,9.5,15.32,14.6,22.74c2.54,3.69,4.17,8.34,4.97,12.78c0.66,3.7,3.79,5.71,4.47,9.18c1.56,7.97,5.71,15.28,7.26,23.05
		c1.55,7.83,5.59,14.75,6.35,23.02c0.46,4.98,2.39,10.84,4.22,16.15c2.67,7.75,5.22,15.56,3.81,23.97
		C541.18,590.77,538.21,590.77,535.24,590.77z"/>
	<path class="st0" d="M276.85,3.7c0.23,14.19-2.88,27.51-8.79,40.49c-3.24,7.11-6.28,14.4-9.17,21.71c-0.3,0.77-0.38,1.76-0.92,2.27
		c-7.65,7.23-10.49,17.36-14.56,26.4c-6.26,13.94-12.37,28.21-13.19,44.03c-0.52,10.01-1.44,20.08-0.26,29.99
		c1.1,9.22,3.81,18.26,6.02,27.34c1.2,4.95,2.81,9.8,4.23,14.69c0.34,1.17,0.74,2.26,2.25,2.12c1.58-0.15,1.78-1.2,2.26-2.62
		c3.71-10.93,5.91-22.36,13.79-31.74c2.45-2.91,4.42-7.04,6.61-10.61c0.26-0.42,0.56-0.82,0.86-1.21c2.58-3.41,6.21-5.66,10.22-4.56
		c3.97,1.1,4.38,5.49,4.54,9.06c0.39,8.71-0.8,17.28-2.45,25.85c-4.12,21.35-6.28,42.82-5.03,64.67c0.89,15.55,5.3,30.36,7.7,45.57
		c1.85,11.76,5.43,22.96,8.8,34.26c0.62,2.09,1.37,4.03,3.83,4.8c1.72-3-0.4-5.82-0.21-8.69c0.91-13.83-0.38-27.8,1.97-41.5
		c2.27-13.24,4.23-26.6,11.32-38.63c2.09-3.55,1.32-8.62,4.03-12.55c4.35-6.32,6.7-13.65,12.11-19.72
		c3.27-3.68,5.35-9.69,8.34-14.41c4.71-7.43,11.74-12.86,18.15-18.58c5.26-4.7,10.29-9.47,13.39-15.54c2.6-5.1,7.37-8.19,9.85-13.33
		c4.09-8.49,7.32-16.95,8.79-26.46c0.96-6.19,2.81-12.53,4.14-18.81c1.09-5.17,1.33-10.64,1.15-15.95
		c-0.28-8.39-0.41-16.75-0.1-25.14c0.38-10.17-1.38-20.17-3.03-30.12c-2.04-12.29-4.81-24.45-7.24-36.67
		c-0.45-2.27-0.86-4.54-2.36-6.42c2.97,0,5.94,0,8.91,0c2.78,12.6,5.69,25.17,8.25,37.81c0.73,3.61,0.8,7.35,1.45,11.05
		c2.97,16.74,1.91,33.7,2.41,50.58c0.46,15.69-4.22,30.38-7.15,45.4c-1.08,5.55-3.14,10.97-4.25,16.61
		c-0.84,4.25-4.7,6.64-7.13,9.89c-2.5,3.35-4.57,7.28-8.54,9.26c-2.12,1.06,0.33,2.62-0.78,3.89c-3.38,3.82-6.06,7.92-11.11,10.45
		c-4.27,2.15-7.1,7.08-10.71,10.64c-5.8,5.71-9.7,12.86-14.4,19.35c-3.75,5.19-7.56,10.78-9.98,16.67
		c-5.25,12.82-10.41,25.58-13.8,39.29c-5.05,20.43-5.05,40.58-3.97,61.18c0.51,9.81,2.4,19.55,1.64,29.42
		c-0.08,1.02,0.03,2.28-1.28,2.23c-2.38-0.09-4.64-0.41-6.61-2.3c-3.64-3.48-3.55-8.54-5.95-12.6
		c-8.1-13.73-12.47-29.07-16.19-44.33c-2.73-11.19-4.49-22.76-6.39-34.21c-1.91-11.51-3.38-23-3.73-34.58
		c-0.29-9.71,0.33-19.48,2.47-29.08c0.53-2.36,0.3-4.91,0.37-7.34c0.32-11.07,3.83-21.57,5.26-32.43c0.19-1.46,0.34-2.91-0.75-5.33
		c-3.16,4.89-7.81,8.26-9.68,12.73c-5.28,12.62-11.34,25.06-13.33,38.87c-0.33,2.3,0.28,6.18-3.16,6.45
		c-3.69,0.29-5.86-2.36-7.76-5.74c-4.58-8.11-5.49-17.39-9-25.85c-1.6-3.85-2.2-8.56-2.52-12.89c-0.28-3.8-2.79-6.48-3.29-10.18
		c-2.81-20.52-2.16-40.91,2.1-61.1c1.32-6.27,3.85-12.37,7.22-18c0.98-1.63,0.91-3.87,1.84-5.55c2.11-3.82,1.94-8.92,6.42-11.46
		c0.6-0.34,1.16-1.43,1.12-2.13c-0.38-6.92,5.46-10.81,8.25-16.08c2.92-5.53,5.18-11.23,7.36-16.98c2.17-5.72,5.99-10.63,8.03-16.19
		c2.8-7.64,5.74-15.51,5.19-24c-0.07-1.14,0.14-2.29,0.22-3.44C272.89,3.7,274.87,3.7,276.85,3.7z"/>
	<path class="st0" d="M577.81,131.41c-14.15,1.98-27.03,7.88-40.09,13.16c-12.89,5.21-25.39,11.13-36.69,19.45
		c-10.14,7.46-20.95,14.05-30.89,21.75c-7.85,6.08-15.54,12.68-22.04,20.14c-7.44,8.56-11.71,19.27-15.62,29.9
		c-5.15,14.01-9.77,28.21-13.12,42.77c-1.76,7.66-1.7,15.57-2.19,23.39c-0.08,1.26,0.13,2.32,1.39,2.87
		c1.47,0.64,2.64-0.03,3.46-1.12c0.79-1.04,1.33-2.27,1.93-3.44c6.85-13.42,15.63-25.36,26.82-35.49
		c4.12-3.73,8.27-7.45,12.19-11.39c10.91-10.96,24.8-16.82,38.47-23.24c5.53-2.6,11.66-3.54,16.86-6.89
		c2.72-1.75,4.92,0.41,6.47,2.08c2.13,2.28,1.94,5.34,0.01,7.72c-1.84,2.28-4.23,4.1-6.33,6.17c-17.4,17.07-24.35,38.15-23.78,62.1
		c0.01,0.49-0.08,1.02,0.05,1.48c0.53,1.92-0.48,4.87,2.22,5.39c2.28,0.44,3.19-2.18,3.98-3.84c3.71-7.8,9.96-13.26,16.26-18.82
		c4.16-3.67,7.67-8.01,12.76-10.63c7.81-4.02,15.15-8.86,23.06-12.82c8.13-4.07,15.23-10.19,22.78-15.41
		c0.68-0.47,1.35-0.95,2.02-1.42c0,3.3,0,6.6,0,9.9c-6.38,6.93-15.02,10.39-22.99,14.85c-10.72,6.01-21.49,11.62-30.82,20.11
		c-6.6,6.01-12.33,12.41-17.18,19.68c-4.12,6.16-6,13.13-5.15,20.68c0.34,2.99,0.43,6.5-3.6,6.53c-3.17,0.02-6.43-0.72-7.2-5.37
		c-0.92-5.62-3.59-10.97-4.33-16.59c-1.52-11.46-1.04-23,0.7-34.43c1.98-13.07,6.56-25.09,15-35.44c0.73-0.89,1.56-1.7,2.35-2.54
		c1.29-1.38,2.61-3.1,1.42-4.81c-1.31-1.89-3.01-0.09-4.35,0.54c-7.53,3.59-16.58,5.74-22.11,11.34
		c-7.57,7.68-17.85,12.21-23.88,21.47c-1.11,1.71-3.38,2.61-4.75,4.2c-9.86,11.48-18.14,23.9-24.02,37.99
		c-2.26,5.42-4.28,10.98-6.89,16.29c-1.94,3.95-4.97,2.4-7.67,2.34c-2.71-0.06-2.61-2.43-2.84-4.41
		c-1.21-10.38-0.65-20.82-0.49-31.21c0.2-12.94,1.77-25.81,7.42-37.77c1.9-4.01,0.7-8.78,3.39-12.68c4.67-6.76,5.02-15.2,8.4-22.51
		c4.23-9.16,9.84-17.31,16.49-24.86c11-12.5,24.7-21.68,37.79-31.71c12.22-9.36,26.01-15.91,39-23.89c2.48-1.52,5.4-2.47,8.23-3.26
		c4.43-1.24,7.78-4.37,11.58-6.27c4.31-2.15,9.93-2.65,14.77-4.25c7.15-2.36,14.86-2.41,21.72-5.68
		C577.81,126.13,577.81,128.77,577.81,131.41z"/>
	<path class="st0" d="M422.38,3.7c21.36,42.31,21.24,86.32,9.52,131.31c6.92-8.92,16.04-15.17,21.12-24.77
		c4.08-7.71,7.49-15.68,10.68-23.81c4.35-11.07,6.93-23.02,15.39-32.24c2.22-2.42,4.5-3.98,7.15-2.42c2.64,1.55,3.86,4.65,2.22,7.74
		c-7.15,13.54-4.44,27.89-3.5,42.07c0.16,2.38,0.77,5.82,3.12,6.14c1.97,0.27,3.07-3.55,3.66-5.22c3.11-8.79,9.69-14.43,16.06-20.59
		c5.61-5.42,12.1-9.49,18.2-14.15c4-3.05,8-5.77,13.17-6.24c1.84-0.17,4.3-2.07,5.26,0.4c1,2.56,2.68,5.75,0.44,8.42
		c-6.12,7.31-8.24,16.32-11.16,25.01c-0.42,1.25-0.74,2.68,0.25,3.77c1.24,1.37,2.47,0,3.59-0.41c10.47-3.81,21-7.36,32.25-8.01
		c2.79-0.16,4.95-2.9,8-1.87c0,2.97,0,5.94,0,8.91c-8.59,0.86-16.8,3.91-25.29,4.82c-5.62,0.6-8.9,4.81-13.81,6.18
		c-2.71,0.75-5.44,1.8-7.01,4.91c-0.96,1.9-6.5,0.01-8.38-2.61c-2.27-3.15-2.07-6.6-0.82-9.92c2.55-6.75,5.6-13.34,5.54-20.95
		c-4.24-0.06-7.36,1.42-10.28,4.82c-3.03,3.52-7.35,5.83-10.75,9.19c-2.04,2.01-3.84,4.09-4.93,6.55
		c-2.75,6.25-6.03,12.32-7.59,19.06c-0.25,1.1-0.77,2.16-0.96,3.27c-0.36,2.07,1.14,5.81-2.08,5.49c-3.09-0.31-7.2-0.32-8.8-4.9
		c-3.83-10.91-5.76-22.18-7.31-33.56c-0.15-1.06,0.61-2.7-0.95-2.96c-1.99-0.33-1.69,1.73-2,2.81c-1.93,6.75-4.91,13.16-7.45,19.63
		c-2.36,6.01-7.14,11.44-11.87,16.08c-6.37,6.25-11.25,13.73-17.73,19.82c-2.25,2.11-4.53,4.2-6.76,6.33
		c-2.03,1.95-4.04,0.62-5.98-0.07c-2.48-0.87-4-2.94-3.35-5.39c1.48-5.55,2.02-11.27,3.58-16.88c2.51-9,6.31-18.02,6.2-27.62
		c-0.09-7.43,4.22-14.25,2.47-21.87c-1.45-6.31,0.96-13.02-0.11-18.95c-2.21-12.18-2.79-24.78-7.9-36.44
		c-2.94-6.7-4.74-13.89-7.05-20.87C418.42,3.7,420.4,3.7,422.38,3.7z"/>
	<path class="st0" d="M76.87,3.7c-0.44,4.07,2.12,6.97,3.75,10.33c4.44,9.13,10.33,18.13,12.14,27.83
		c2.06,11.08,7.85,22.1,4.03,33.93c-0.56,1.74,0.02,3.32,0.26,4.73c1.05,6.3,0.1,12.21-2.59,17.86c-1.01,2.11,1.16,3.65,0.4,5.66
		c-4.87,12.95-5.42,27.06-13.33,39.41c-7.42,11.59-16.63,21.5-25.17,32.01c-4.49,5.52-5.61,11.32-6.07,17.6
		c-0.65,9,1.39,17.68,5.32,25.75c2.16,4.43,2.35,9.22,3.34,13.83c0.65,3.01-2.3,2.78-4.01,1.53c-3.85-2.81-7.8-5.62-11.08-9.03
		c-5.04-5.25-9.65-10.92-14.25-16.56c-5.65-6.93-7.78-15.6-11.16-23.64c-0.69-1.65-0.9-3.5-1.98-5.01c0-10.56,0-21.12,0-31.68
		c2.23-5.61,6.26-10.44,7.22-16.63c0.27-1.75,0.61-3.91,1.75-5.04c5.24-5.19,6.14-12.58,9.82-18.59
		c5.11-8.35,11.02-16.12,16.43-24.23c5.37-8.05,10.58-16.41,12.1-25.74c1.52-9.37,3.79-18.77,3.61-28.45
		c-0.08-4.31,0.22-8.83,0.22-13.02c0-3.88,0.18-9-2.65-12.83C68.95,3.7,72.91,3.7,76.87,3.7z M77.95,28.53
		c-2.83,10.43-2.51,19.97-5.06,29.03c-3.04,10.81-6.85,21.27-13.68,30.33c-7.7,10.21-15.27,20.41-20.68,32.18
		c-2.29,4.99-4.35,10.18-7.26,14.98c-2.78,4.58-4.82,9.72-6.46,14.84c-3.27,10.18-1.19,20.32,0.94,30.46
		c1.52,7.26,4.19,14.03,7.24,20.73c2.87,6.31,8.76,9.79,12.89,15.4c1.3-2.51,0.2-3.87-0.25-5.4c-3.6-12.15-7.05-24.41,1.43-35.98
		c2.46-3.36,3.86-7.85,6.45-10.31c6.29-5.97,12.12-12.19,16.95-19.32c2.71-3.99,5.01-8.16,6.65-12.94
		c1.19-3.48,2.26-6.96,3.36-10.51c2.33-7.49,3.88-15.04,4.44-22.78c0.29-4.04,2.98-7.54,2.68-11.42c-0.71-8.91,1.31-17.7,0.04-26.7
		C86.07,50.11,82.4,39.96,77.95,28.53z"/>
	<path class="st0" d="M303.58,3.7c-0.04,7.38,0.54,14.84-0.32,22.13c-0.59,4.98-2.98,9.87-4.44,14.71
		c-2.27,7.53-5.81,14.67-7.34,22.34c-1.05,5.24-6.17,7.58-7.29,12.51c-0.24,1.06-1.41,2-0.38,3.1c1.07,1.15,2.69,1.02,3.65,0.21
		c8.67-7.32,19.83-10.95,28.03-18.92c1.16-1.13,2.16-2.47,3.06-3.82c1.52-2.29,3.53-3.5,6.27-2.97c2.6,0.5,3.12,2.96,3.51,4.9
		c0.65,3.2,1.24,6.61,0.82,9.8c-1.89,14.28,1.15,28.56-0.2,42.78c-1.05,11.1-1.57,22.31-4.54,33.17c-0.31,1.13-1.99,2.82-0.37,3.38
		c1.37,0.47,3.54,0.2,4.76-1.73c4.53-7.2,9.07-14.4,13.82-21.45c3.57-5.3,4.01-11.72,6.24-17.16c5.35-13.01,5.4-26.34,4.9-39.48
		c-0.53-13.93-0.71-28.14-5.92-41.7c-2.75-7.14-4.94-14.57-7.65-21.79c2.97,0,5.94,0,8.91,0c8.22,22.22,13.92,44.81,12.53,68.88
		c-0.45,7.82,0.3,15.81-1.14,23.54c-1.11,5.93,0.11,12.82-3.68,17.65c-4.84,6.17-5.19,14.35-10.73,20.18
		c-3.33,3.5-4.18,8.85-7.73,12.76c-4.97,5.48-10.92,9.92-15.65,15.63c-2.75,3.32-6.22,6.04-8.91,9.39
		c-2.48,3.08-4.88,1.99-7.41,0.64c-2.58-1.38-4.02-3.21-2.49-6.43c2.88-6.09,6.35-11.87,9.06-18.09c2.53-5.81,3.86-11.79,5.15-17.82
		c3.86-17.97,2.31-36.22,2.31-54.39c0-2.1,0.27-4.57-2.1-5.67c-2.36-1.1-3.47,1.29-4.98,2.38c-10.29,7.44-21.38,13.53-32.45,19.69
		c-3.76,2.1-7.45,4.67-10.42,8c-1.8,2.03-8.05,2.95-9.62,1.24c-2.68-2.93-1.4-5.77,0.72-8.41c3.58-4.46,7.68-8.41,10.74-13.4
		c3.13-5.1,5.47-10.51,7.98-15.83c4.16-8.79,8.1-17.72,11.53-26.81c2.26-6,4.66-12.07,4.2-18.86c-0.32-4.72,0.37-9.52,0.61-14.28
		C298.96,3.7,301.27,3.7,303.58,3.7z"/>
	<path class="st0" d="M163,3.7c1.68,4.55,6.18,7.02,8.22,11.43c2.64,5.7,6.11,10.63,6.99,17.47c0.67,5.19,2.18,10.44,1.57,15.69
		c-0.5,4.29-1.36,8.3,1.67,11.96c0.09,0.11,0.1,0.34,0.05,0.48c-2.86,8.86,1.51,17.9-0.51,26.64c-1.38,5.97,0.9,11.91-0.93,17.78
		c-0.56,1.78,0.67,3.46,2.79,4.44c4.35-13.71,10.68-26.45,17.8-38.79c5.08-8.81,11.98-16.52,16.36-25.74
		c6.28-13.23,13.57-26.18,14.29-41.36c2.64,0,5.28,0,7.92,0c2.22,5.77,0.31,11.21-1.75,16.43c-1.07,2.7-2.46,4.97-2.55,8.19
		c-0.13,4.6-3.09,8.62-5.2,12.59c-4.45,8.38-10.23,16.02-14.53,24.54c-0.69,1.37-2.35,2.22-3.48,3.39
		c-3.49,3.62-5.36,8.04-6.97,12.78c-2.5,7.37-6.56,14.08-9.56,21.3c-3.88,9.34-3.31,19.09-5.44,28.5c-0.35,1.54-0.34,2.91-1.41,4.45
		c-3.17,4.59,0.01,9.5,0.62,14.09c0.61,4.53-2.12,5.96-4.58,6.97c-2.62,1.08-5.45-0.68-6.89-3.35c-3.63-6.74-4.35-14-4.75-21.62
		c-0.41-7.78-1.26-15.54-1.22-23.36c0.07-13-0.8-26.01,0.57-39.01c0.21-2.04-1.22-3.95-1.48-6.13c-0.8-6.7,0.57-13.34,0.33-19.92
		c-0.33-8.99-2.92-17.8-7.43-25.68c-2.9-5.06-6.35-9.87-10.4-14.16C156.4,3.7,159.7,3.7,163,3.7z"/>
	<path class="st0" d="M577.81,304.66c-2.82,0.98-4.35,3.4-6.26,5.44c-7.46,8.01-15.48,15.49-21.54,24.75
		c-6.85,10.46-14.48,20.54-19.55,31.95c-6.73,15.14-9.36,31.07-8.89,47.95c0.36,12.65,4.45,23.93,8.03,35.5
		c1.26,4.08,4.19,7.73,5.8,11.9c2.83,7.35,6.4,14.33,10.65,21c1.8,2.84,1.88,6.5,3.76,9.55c5.41,8.78,8.8,18.58,12.23,28.18
		c3.09,8.65,7.27,17.02,8.27,26.47c0.51,4.8,2.39,9.61,4.49,14.02c1.35,2.82,0.39,6.34,3.01,8.6c0,6.1-0.29,12.23,0.12,18.31
		c0.21,3.13-1.45,2.44-3.09,2.48c-2.81-6.73-3.4-14.04-5.58-20.96c-3.91-12.34-7.92-24.65-11.74-37.01
		c-5.37-17.35-14.16-33.19-20.83-49.95c-2.69-6.75-6.91-13.34-10.15-20.06c-7.63-15.84-13.24-32.2-13.49-50.35
		c-0.21-15.3,1.05-30.11,6.73-44.24c4.63-11.52,10.54-22.42,17.96-32.53c2.99-4.07,5.67-8.31,9.21-11.97
		c3.61-3.73,6.47-8.08,8.44-12.9c0.8-1.96,2.84-2.01,4.1-2.87c6.62-4.49,10.75-11.93,18.32-15.16
		C577.81,296.74,577.81,300.7,577.81,304.66z"/>
	<path class="st0" d="M139.24,590.77c0.8-1.44,0.54-2.84-0.07-4.27c-9.43-22.23-15.48-45.6-23.13-68.43
		c-2.07-6.19-3.1-12.74-4.65-19.11c-0.29-1.19-0.14-2.63-2.07-3.84c-1.54,7.65-2.6,14.91-1.83,22.31c0.84,8.16-1.83,10.29-9.88,8.23
		c-7.62-1.96-13.62-6.7-20.06-10.74c-0.99-0.62-1.85-2.36-3.32-1.09c-1.1,0.95-0.07,2.13,0.2,3.2c4.49,17.47,13.07,33.3,19.96,49.8
		c2.61,6.25,3.55,12.78,4.88,19.26c0.33,1.62,0.59,3.21,1.37,4.68c-2.64,0-5.28,0-7.92,0c-1.34-13.65-6.67-25.93-12.15-38.35
		c-5.54-12.57-11.89-24.9-14.88-38.52c-0.73-3.32-2.54-6.4-3.82-9.6c-0.55-1.38-1.25-2.9,0.01-4.16c1.23-1.24,2.87-0.6,4.22-0.17
		c5.22,1.67,10.16,4.18,14.45,7.41c4.8,3.61,10.63,5.26,15.28,8.94c1.88,1.49,2.54,0.28,2.48-1.12c-0.21-5.92,2.01-11.54,1.54-17.57
		c-0.52-6.74,1.94-13.27,2.93-19.91c0.52-3.47-0.04-7.09,2.01-10.25c0.7-1.08-0.59-3.83,1.76-3.25c2.15,0.53,5.31-0.31,6.34,2.81
		c1.02,3.11,2.4,6.23,2.73,9.43c1.63,15.82,6.44,30.95,10.38,46.2c2.67,10.31,6.51,20.42,9.93,30.59
		c3.92,11.67,8.82,23.01,11.65,35.05c0.21,0.9,1.03,1.66,1.56,2.48C145.84,590.77,142.54,590.77,139.24,590.77z"/>
	<path class="st0" d="M469.9,590.77c-1.36-7.45-3.16-14.79-4.93-22.15c-2.13-8.88-3.41-17.97-5.15-26.94
		c-2.81-14.47-4.42-29.2-9.33-43.25c-1.98-5.66-3.05-11.66-4.27-17.57c-0.34-1.63-0.91-4.13,0.98-4.95c1.94-0.84,4.31,0,5.9,1.5
		c2.74,2.59,5.84,5.08,7.73,8.25c5.54,9.28,13.19,17,18.42,26.62c4.56,8.41,10.49,16.29,14.24,25.04
		c3.31,7.72,6.87,15.43,9.17,23.77c1.83,6.62,3.78,13.4,5.92,20.03c1.03,3.19,1.26,6.43,1.91,9.64c-2.64,0-5.28,0-7.92,0
		c-2.62-3.06-2.81-6.96-3.39-10.62c-1.74-11.04-4.92-21.69-10.03-31.52c-4.78-9.19-7.93-19.08-14.37-27.67
		c-3.35-4.47-5.98-10.26-8.93-15.46c-1.38-2.43-3.11-3.94-6.02-5.35c0.18,2.54-0.24,4.75,0.54,6.38c3.46,7.19,3.57,15.05,4.71,22.64
		c2.21,14.74,5.16,29.3,8.37,43.84c1.29,5.86,4.56,11.42,3.37,17.76C474.52,590.77,472.21,590.77,469.9,590.77z"/>
	<path class="st0" d="M459.01,3.7c1.59,2.67,1.46,5.69,1.73,8.62c0.34,3.77,0.8,7.54,0.9,11.31c0.1,3.57,1.2,3.9,4.14,2.14
		c11.54-6.94,23.06-13.88,36.13-17.87c5.88-1.8,9.91-0.67,12.14,5.17c1.71,4.48,2.28,9.24,2.66,14c0.35,4.46,1.44,5.02,5.28,2.57
		c8.75-5.59,18.6-8.63,28.22-12.21c1.38-0.51,2.19,0.16,2.88,1.2c1.47,2.19,3.13,4.29,3.42,7.04c0.25,2.29,0.46,4.59,0.66,6.88
		c0.83,9.63,2.07,10.51,11.3,7.8c3.13-0.92,6.23-1.99,9.34-2.99c0,3.96,0,7.92,0,11.88c-5.61,2.17-11.66,1.66-17.48,2.56
		c-4.08,0.63-7.59-1.8-9.28-6.45c-1.94-5.32-2.13-10.92-3.78-16.12c-8-1.34-12.96,5.99-20.13,7.5c-1.3,0.27-1.9,1.72-2.81,2.66
		c-2.07,2.17-4.39,3.98-7.77,3.01c-3.5-1.01-6.39-2.41-6.77-6.72c-0.45-5.06-1.2-10.11-1.94-15.14c-0.65-4.46-5.36-6.68-8.19-3.48
		c-3.24,3.66-7.67,4.32-11.64,5.66c-2.28,0.77-4.44,1.63-6.14,3.02c-6.02,4.94-14.17,6.32-19.66,12.08
		c-2.02,2.12-4.16,0.19-5.89-0.53c-2.05-0.85-2.5-2.87-2.22-5.38c1.05-9.43,0.69-18.86-1.05-28.21C455.05,3.7,457.03,3.7,459.01,3.7
		z"/>
	<path class="st0" d="M332.29,590.77c-5.82-10.87-11.17-22.04-14.95-33.72c-2.14-6.61-3.99-13.49-5.29-20.42
		c-2.1-11.1-4.56-22.15-5.03-33.49c-0.12-2.84-1.07-6.83,1.87-7.74c2.96-0.91,5.31,2.35,7.35,4.83
		c8.58,10.42,15.21,22.09,22.41,33.43c4.99,7.86,8.79,16.2,13.11,24.33c2.91,5.46,6.21,10.73,8.81,16.32
		c2.47,5.32,4.27,10.95,6.36,16.45c-2.97,0-5.94,0-8.91,0c-1.64-5.22-4.95-9.65-6.99-14.65c-8.66-21.19-20.02-40.91-32.59-59.97
		c-0.63-0.95-0.77-3.07-2.6-2.22c-1.63,0.76-1.15,2.46-0.74,3.94c2.49,8.99,4.05,18.2,6.41,27.24c3.07,11.74,6.72,23.11,11.68,34.18
		c1.79,3.99,6.05,6.62,6.02,11.48C336.91,590.77,334.6,590.77,332.29,590.77z"/>
	<path class="st0" d="M577.81,380.89c-5.81,4.62-7.62,11.79-10.85,17.92c-4.77,9.07-7.66,19.16-9.01,29.23
		c-1.05,7.87,0.36,16.05,1.85,24.1c2.26,12.15,9.03,22.32,13.3,33.56c1.53,4.01,1.62,8.6,4.7,12.01c0,4.29,0,8.58,0,12.87
		c-6.15-2.65-7.68-8.62-9.88-14.01c-4.22-10.32-8.77-20.48-13.34-30.64c-3.05-6.78-4.02-14.47-5.2-22.02
		c-1.32-8.43-0.35-16.59,0.32-24.69c0.75-9.09,4.09-17.91,8.67-25.94c2.54-4.46,5.36-8.82,8.43-13.02c2.46-3.35,4.71-7.68,6.7-11.75
		c0.98-2.01,2.08-3.72,4.3-4.45C577.81,369.67,577.81,375.28,577.81,380.89z"/>
	<path class="st0" d="M16.48,353.17c14.01-9.96,23.89-22.6,27.76-39.84c2.46-10.97,3.06-21.93,2.27-32.98
		c-0.43-5.99-1.51-11.96-3.9-17.69c-6.46-15.48-15.44-29.33-26.13-42.16c0-4.62,0-9.24,0-13.86c9.97,10.97,17.29,23.86,25.94,35.79
		c3.52,4.85,4.65,10.85,7.01,16.26c6.59,15.05,5.81,30.89,3.8,46.5c-1.68,12.98-5.78,25.56-13.53,36.42
		c-4.9,6.86-12.05,11.47-18.7,16.5c-1.43,1.09-3.01,1.99-4.52,2.98C16.48,358.45,16.48,355.81,16.48,353.17z"/>
	<path class="st0" d="M577.81,197.74c-8.44-1.49-16.89-2.04-25.49-1.71c-8.84,0.34-17.15,2.72-25.52,5.09
		c-0.63,0.18-1.26,0.39-1.89,0.59c-2.72,0.87-5.48,0.65-7.35-1.43c-2.09-2.32-0.78-5.45,0.52-7.37
		c7.25-10.66,15.81-20.05,27.95-25.35c3.61-1.58,6.18-4.59,10.06-6.02c7.18-2.64,14.35-5.27,21.71-7.37c0,2.64,0,5.28,0,7.92
		c-3.68,0.13-7.08,1.42-10.31,2.94c-7.9,3.71-15.92,7.29-23.41,11.71c-4.8,2.83-9.67,6.09-12.6,11.24
		c-0.48,0.85-1.15,1.75-0.17,2.65c0.7,0.65,1.54,0.31,2.3,0c5.25-2.18,10.9-2.06,16.39-2.78c3.1-0.41,6.06-1.17,9.46-0.91
		c6.06,0.46,12.22,0.76,18.34,0.9C577.81,191.14,577.81,194.44,577.81,197.74z"/>
	<path class="st0" d="M16.48,93.79c4.5-3.04,7.11-7.75,9.84-12.12c7.24-11.58,10.47-24.44,12.4-37.98
		c1.92-13.42,1.54-26.64,0.52-39.99c2.97,0,5.94,0,8.91,0c1.88,3.37-0.15,6.8,0.16,10.19c0.88,9.87,0.98,19.85-0.54,29.54
		c-1.31,8.37-2.68,16.81-5.52,25.04c-3.99,11.55-9.97,21.44-18.48,30.06c-2.9,2.93-3.97,7.37-7.29,10.11
		C16.48,103.69,16.48,98.74,16.48,93.79z"/>
	<path class="st0" d="M35.29,591.76c-1.01-5.08-1.88-10.19-3.05-15.23c-2.24-9.62-5.75-19.76-10.6-28.38
		c-1.97-3.5-1.51-8.15-5.16-10.85c0-3.63,0-7.26,0-10.89c7.23,7.74,13.16,16.41,17.03,26.25c2.26,5.74,5.47,11.33,6.47,17.28
		c0.71,4.23,3.2,8.96,2.82,13.46c-0.24,2.9,0.42,5.91,2.4,8.35C41.89,591.76,38.59,591.76,35.29,591.76z"/>
	<path class="st0" d="M328.52,325.1c0-8.34,0.18-16.68-0.04-25.01c-0.33-12.29,2.28-24.08,5.53-35.8
		c2.41-8.68,3.92-17.68,8.56-25.59c2.88-4.92,5.87-9.72,9.52-14.23c3.92-4.84,6.48-10.78,11.03-15.3c1.35-1.34,1.8-3.74,4.5-2.31
		c0.3,0.16,0.88-0.19,1.32-0.3c-1.28-3.91,2.65-2.43,3.48-3.49c3.47-4.44,9.64-5.21,12.68-10c0.58-0.91,1.56-1.73,2.55-2.2
		c8.96-4.29,18.31-7.81,27.95-9.8c3.18-0.66,7.91-1.59,11.52,1.31c4.26,3.42,4.89,5.76,1.18,9.77c-4.34,4.69-8.22,9.87-12.07,14.81
		c-4.32,5.55-8.4,11.65-12.04,17.82c-3.38,5.72-7.51,10.8-11.6,15.92c-6.82,8.54-12.6,17.56-16.99,27.68
		c-5.44,12.55-11.34,24.9-17.74,37.04c-4.93,9.34-9.13,19.11-12.38,29.33c-2.67,8.4-0.84,16.7-1.71,24.98
		c-0.39,3.73,1.16,8.62-5.02,9.68c-2.98,0.51-4.89-0.5-4.98-3.15c-0.45-12.94-3.73-25.45-5.38-38.2c-0.13-0.97-0.02-1.97-0.02-2.96
		C328.42,325.1,328.47,325.1,328.52,325.1z M337.07,327.45c2.52-1.79,3.81-4.07,4.39-6.33c2.6-10,7.82-18.85,12.03-28.12
		c4.2-9.25,9.69-17.98,13.17-27.46c3.84-10.47,9.62-19.67,16.21-28.31c3.87-5.08,8.16-9.93,11.44-15.38
		c1.5-2.49,4.89-3.27,5.26-5.01c1.05-4.9,4.24-8.14,7.4-11.18c3.61-3.47,5.65-7.73,7.98-11.9c1.23-2.2,0.99-4.22-2.23-3.32
		c-3.77,1.06-8.17,1.22-11.06,3.84c-6.2,5.63-14.49,7.29-21.13,12.34c-5.92,4.51-10.61,10.02-15.87,15.02
		c-4.67,4.44-7.33,10.61-11.02,15.92c-3.3,4.76-7.04,9.66-8.28,15.53c-1.09,5.14-2.34,10.32-3.85,15.24
		c-3.86,12.57-5.75,25.28-5.62,38.32C335.97,313.41,334.04,320.34,337.07,327.45z"/>
	<path class="st0" d="M211.65,235.54c-9.64,0.33-18.56-0.86-27.31-5.35c-7.28-3.74-11.78-9.76-16.39-15.72
		c-9.73-12.57-5.44-26.61-3.09-40.28c0.78-4.56,4.39-3.69,7.82-3.59c3.66,0.12,5.13,1.92,5.38,5.07
		c1.05,13.18,8.73,21.75,18.67,29.64c6.72,5.34,13.64,10.81,19.04,17.79c2.22,2.87,5.66,4.51,5.32,9.24
		c-0.18,2.51-0.64,3.47-2.75,3.24C216.02,235.32,213.75,236.47,211.65,235.54z M206.17,226.11c-2.31-5.95-7.11-9.61-11.62-12.9
		c-6.34-4.61-12.01-9.68-16.83-15.8c-2.96-3.77-3.9-8.71-6.83-13.15C162.11,205.41,185.79,230,206.17,226.11z"/>
	<path class="st0" d="M63.41,240.01c8.05,0.85,14.09,5.82,19.97,10.62c4.15,3.39,7.72,7.61,11.06,11.84
		c5.23,6.62,7.46,13.76,6.48,22.78c-0.83,7.67-2.58,14.18-8.37,18.8c-5.05,4.02-9.86,8.55-16.26,10.81
		c-3.62,1.28-4.57-0.36-4.99-3.1c-0.3-1.93,0.23-3.88,0.66-5.84c3.77-16.91,3.61-33.09-8.12-47.49c-2.62-3.22-4.21-7.43-5.69-11.4
		C56.46,242.52,58.57,240.03,63.41,240.01z M80.39,301.12c0.56-0.51,1.05-1.16,1.7-1.5c9.59-5.04,14.07-17.52,9.57-27.23
		c-4.48-9.67-13.45-14.83-21.51-20.87c-0.49-0.36-1.3-1.21-2.43,0.37C79.45,266.04,82.69,282.62,80.39,301.12z"/>
</g>
</svg>
