<?xml version="1.0" encoding="utf-8"?>
<!-- Generator: Adobe Illustrator 24.3.0, SVG Export Plug-In . SVG Version: 6.00 Build 0)  -->
<svg version="1.1" id="Layer_1" xmlns="http://www.w3.org/2000/svg" xmlns:xlink="http://www.w3.org/1999/xlink" x="0px" y="0px"
	 viewBox="0 0 323.49 31.67" style="enable-background:new 0 0 323.49 31.67;" xml:space="preserve">
<style type="text/css">
	.st0{fill:#E4B0D2;}
</style>
<g>
	<path class="st0" d="M170.9,20.85c-0.47,0.87-0.86-0.05-0.92-0.11c-0.68-0.7-1.52-1.22-2.27-1.8c-0.79-0.61-1.33-1.44-2.14-1.99
		c-0.23-0.16-0.19-0.36,0.06-0.61c-0.37,0.07-0.52,0.37-0.85,0.16c-0.25-0.16-0.39,0.13-0.4,0.37c-0.02,0.29-0.11,0.54-0.23,0.81
		c-0.21,0.5-0.49,0.48-0.91,0.21c-0.06,0.31,0.25,0.63-0.1,0.87c-0.31,0.21-0.27,0.5-0.03,0.82c-0.41-0.03-0.73-0.47-1.09-0.1
		c-0.06,0.06-0.33,0.17-0.06,0.33c0.46,0.26,0.13,0.41-0.11,0.49c-0.28,0.09-0.5,0.15-0.41,0.53c0.05,0.23,0.15,0.56-0.11,0.66
		c-0.3,0.12-0.26-0.35-0.53-0.44c-0.14,0.3-0.33,0.6-0.42,0.92c-0.14,0.49-0.22,0.99-0.85,1.1c-0.09,0.02-0.2,0.14-0.22,0.23
		c-0.04,0.19,0.1,0.48-0.33,0.25c-0.14-0.07-0.17,0.35-0.25,0.54c-0.07,0.19-0.13,0.49-0.35,0.32c-0.76-0.6-0.76,0.32-1.11,0.52
		c-0.05,0.03-0.04,0.27-0.15,0.25c-0.58-0.09-0.64,0.15-0.59,0.66c0.03,0.25-0.24,0.12-0.36-0.03c-0.21-0.28-0.37-0.25-0.42,0.09
		c-0.05,0.34-0.12,0.4-0.53,0.39c-0.39-0.01-1.07-0.19-1.21,0.55c-0.03,0.17-0.16,0.1-0.26,0.05c-0.13-0.07-0.33-0.11-0.37-0.03
		c-0.31,0.62-0.66,0.23-1.06,0.13c-0.44-0.12-0.4,0.38-0.3,0.52c0.32,0.44,0.06,0.47-0.28,0.49c-0.17,0.01-0.27,0.16-0.4,0.21
		c-0.36,0.12-0.63,0.54-1.12,0.26c-0.17-0.1-0.44,0.01-0.58,0.22c-0.14,0.21-0.3,0.37-0.56,0.46c-0.19-0.29,0.22-0.47,0.1-0.79
		c-0.27,0.03-0.53,0.2-0.83,0.22c-0.32,0.02-0.17,0.28-0.08,0.45c0.06,0.11,0.08,0.22-0.03,0.3c-0.12,0.09-0.2,0.03-0.26-0.09
		c-0.02-0.04-0.05-0.07-0.07-0.11c-0.63,0.42-0.61-0.35-0.93-0.5c-0.31,0.54-0.67,0.51-1.35-0.09c-0.15,0.51-0.16,0.52-0.49,0.19
		c-0.14-0.14-0.22-0.1-0.31,0.03c-0.17,0.25-0.4,0.28-0.69,0.29c-0.69,0.03-0.69,0.06-0.64-0.76c-0.17,0.19-0.52-0.05-0.49,0.38
		c0,0.03-0.03,0.06-0.05,0.09c-0.06-0.04-0.11-0.08-0.17-0.11c-1.05-0.53-2.14-0.96-3.1-1.65c-0.16-0.12-0.37-0.27-0.54-0.16
		c-0.24,0.15-0.29,0.13-0.3-0.14c-0.01-0.16-0.16-0.23-0.29-0.21c-0.36,0.06-0.59-0.1-0.77-0.39c-0.09-0.14-0.23-0.24-0.39-0.1
		c-0.27,0.23-0.21-0.02-0.24-0.15c-0.05-0.25-0.07-0.53-0.44-0.3c-0.03,0.02-0.13-0.02-0.17-0.06c-0.92-1.12-1.2-1.31-2.42-1.87
		c-0.52-0.24-1.01-0.52-1.39-1c-0.21-0.26-0.62-0.39-0.93-0.58c-0.92-0.58-1.81-1.18-2.49-2.04c-0.2-0.25-0.51-0.19-0.77-0.38
		c-0.64-0.49-1-1.27-1.78-1.62c-0.24-0.11-0.46-0.39-0.56-0.64c-0.34-0.86-1.13-1.38-1.57-2.17c-0.14-0.25-1.45-0.04-1.54,0.23
		c-0.01,0.02-0.01,0.04-0.01,0.06c0.03,0.62-0.13,0.94-0.62,1.25c0.48,0.35,0.44,0.6-0.07,1c-0.19,0.15-0.56,0.24-0.31,0.69
		c0.16,0.29-0.45,0.89-0.9,0.97c-0.56,0.09-0.56,0.09-0.49,0.65c0.01,0.11-0.05,0.17-0.14,0.2c-0.27,0.09-0.56,0.15-0.82,0.26
		c-0.19,0.07-0.46-0.28-0.56,0.09c-0.07,0.26,0.24,0.34,0.46,0.64c-0.64-0.29-1.06,0.05-1.53,0.12c-0.23,0.04-0.39,0.22-0.41,0.47
		c-0.05,0.49-0.34,0.67-0.82,0.64c-0.15-0.01-0.36,0.02-0.44,0.11c-0.61,0.73-1.54,0.93-2.29,1.43c-0.14,0.09-0.12,0.22-0.15,0.35
		c-0.03,0.14-0.12,0.32-0.23,0.3c-0.38-0.09-0.84,0.14-1.18-0.29c0.16,0.53,0.08,0.95-0.45,1.2c-0.32,0.15-0.17-0.25-0.4-0.26
		c-0.14,0.83-0.63,0.99-1.39,0.67c-0.2-0.08-0.48-0.01-0.71,0.01c-0.2,0.02-0.23,0.18-0.13,0.28c0.62,0.59-0.04,0.37-0.28,0.47
		c-0.84,0.36-1.9,0.08-2.56,0.88c-0.2-0.06-0.18-0.23-0.25-0.33c-0.23-0.33-0.63-0.27-0.81-0.12c-0.25,0.21,0.08,0.35,0.25,0.47
		c0.11,0.08,0.23,0.18,0.11,0.32c-0.11,0.13-0.22,0.01-0.34-0.05c-0.86-0.46-1.71-0.58-2.68-0.17c-0.34,0.15-0.96,0.51-1.42-0.05
		c-0.13-0.17-0.29-0.03-0.4,0.08c-0.36,0.39-0.62,0.16-0.85-0.13c-0.08-0.1-0.08-0.25-0.27-0.21c-0.18,0.04-0.13,0.21-0.19,0.31
		c-0.14,0.26-0.11,0.71-0.7,0.31c-0.5-0.34-1.16,0.06-1.7,0.26c-0.22,0.08-0.29,0.17-0.52,0.03c-0.37-0.24-0.44-0.14-0.89,0.08
		c-0.26,0.13-0.58-0.03-0.56-0.43c0.01-0.2,0.08-0.43-0.22-0.45c-0.32-0.02-0.24,0.27-0.27,0.44c-0.04,0.17,0,0.37-0.22,0.44
		c-0.26,0.07-0.33-0.13-0.45-0.29c-0.33-0.46-1.18-0.5-1.54-0.08c-0.14,0.17-0.29,0.08-0.42,0.05c-0.31-0.09-0.57-0.2-0.94-0.13
		c-0.46,0.09-0.07-0.34-0.19-0.57c-0.31,0.2-0.65,0.51-0.99,0.03c-0.09-0.13-0.23-0.04-0.34,0.07c-0.07,0.07-0.23,0.15-0.29,0.12
		c-0.41-0.22-0.75-0.62-1.28-0.16c-0.11,0.1-0.17-0.38-0.38-0.39c-0.56-0.03-1-0.57-1.61-0.37c-0.09,0.03-0.35,0.13-0.32-0.17
		c0.01-0.11-0.12-0.2-0.14-0.17c-0.41,0.61-0.75,0.02-1.09-0.08c-0.42-0.12-0.8-0.37-1.2-0.56c-0.69-0.33-1.31-0.8-2.1-0.93
		c-0.37-0.06,0.01-0.46-0.15-0.68c-0.54,0.45-1,0.03-1.34-0.25c-0.4-0.33-0.92-0.57-1.14-1.09c-0.16-0.39-0.55-0.19-0.83-0.33
		c-0.92-0.49-1.59-1.32-2.45-1.76c-1.5-0.76-2.36-2.17-3.69-3.08c-0.19-0.13-0.36-0.36-0.43-0.57c-0.17-0.52-0.43-0.42-0.6-0.07
		c-0.22,0.44-0.8,0.44-1.01,0.94c-0.05,0.13-0.46,0.56-0.93,0.62c-0.31,0.04-0.54,0.52-0.51,0.91c0.03,0.37-0.12,0.39-0.38,0.3
		c-0.41-0.14-0.59,0.07-0.63,0.43c-0.02,0.21-0.13,0.32-0.28,0.42c-0.65,0.44-1.02,1.14-1.6,1.65c-0.24,0.22-0.5,0.44-0.81,0.41
		c-0.56-0.05-0.64,0.29-0.73,0.68c-0.04,0.17-0.03,0.43-0.26,0.4c-0.6-0.08-1.01,0.32-1.5,0.48c-0.42,0.14-0.36,0.25-0.15,0.58
		c-0.52-0.36-1.08-0.16-1.49-0.49c-0.18,0.22,0,0.31,0.08,0.43c0.22,0.33,0.33,0.61-0.26,0.53c-0.18-0.02-0.34,0-0.4,0.16
		c-0.31,0.91-1.03,0.68-1.7,0.61c-0.03,0.19-0.04,0.39-0.11,0.58c-0.04,0.12-0.16,0.2-0.24,0.31c-0.41-0.36-0.76,0.06-1.13,0.11
		c-0.54,0.07-1.14,0.03-1.61,0.33c-0.34,0.21-0.52,0.16-0.71-0.13c-0.12-0.18-0.23-0.43-0.51-0.26c-0.31,0.19-0.09,0.39,0.05,0.57
		c-0.2,0.16-0.37,0.04-0.44-0.06c-0.47-0.66-0.85-0.27-1.26,0.16c-0.11-0.47,0.37-0.57,0.42-0.88c-0.17-0.2-0.31-0.01-0.39,0.06
		c-0.47,0.44-1,0.45-1.57,0.25c-0.02-0.01-0.04-0.03-0.05-0.04c-0.68-0.07-0.68-0.07-0.55-0.84c-0.22,0.21-0.38,0.38-0.57,0.53
		c-0.15,0.12-0.36,0.54-0.43-0.05c-0.01-0.07-0.04-0.16-0.1-0.12c-0.74,0.53-0.97-0.52-1.55-0.49c-0.13,0.01-0.32-0.28-0.31,0.14
		c0,0.18-0.33,0.12-0.39,0.05c-0.22-0.25-0.38-0.58-0.81-0.36c-0.18-0.48-0.66-0.21-0.94-0.38c-0.72-0.43-1.62-0.34-2.29-0.99
		c-0.37-0.36-1.07-0.43-1.59-0.73c-0.39-0.23-0.92-0.29-0.9-0.91c0-0.12-0.07-0.12-0.17-0.12c-0.86-0.01-1.52-0.48-2.22-0.9
		c-0.42-0.25-0.82-0.48-1.05-0.93c-0.08-0.15-0.24-0.16-0.41-0.12c-0.14,0.03-1.26-0.6-1.33-0.72c-0.28-0.51-0.79-0.76-1.25-1.05
		c-1.16-0.74-2.07-1.74-2.98-2.75c-0.58-0.64-0.67-0.63-1.28-0.04c-0.21,0.2-0.42,0.4-0.6,0.62c-0.14,0.17-0.27,0.31-0.5,0.17
		c-0.1-0.06-0.3-0.07-0.27,0.01c0.25,0.71-0.36,0.33-0.56,0.46c-0.21,0.13-0.39,0.27-0.06,0.48c0.14,0.09,0.14,0.24,0.05,0.35
		c-0.13,0.16-0.22,0.03-0.31-0.08c-0.19-0.22-0.33-0.06-0.41,0.1c-0.18,0.3-0.52,0.4-0.75,0.65c-0.15,0.17-0.52,0.14-0.27,0.56
		c0.12,0.2-0.21,0.3-0.4,0.3c-0.56,0.01-0.97,0.29-1.31,0.7c-0.16,0.2-0.36,0.32-0.61,0.38c-0.23,0.05-0.39,0.2-0.51,0.39
		c-0.21,0.35-0.2,0.35-0.44,0.04c-0.18-0.23-0.37-0.07-0.39,0.09c-0.13,0.92-1,0.83-1.54,0.96c-0.44,0.11-0.62,0.41-0.92,0.6
		c-0.17,0.11-0.21,0.57-0.38,0.47c-0.37-0.21-0.76,0.1-1.12-0.17c-0.44-0.34-0.76-0.21-0.93,0.32c-0.06,0.17,0.02,0.5-0.28,0.38
		c-0.18-0.07-0.58,0.25-0.56-0.26c0-0.06-0.11-0.18-0.17-0.18c-0.65,0.07-1.18-0.46-1.9-0.27c-0.81,0.21-1.69,0.42-2.51-0.27
		c0.02,0.2-0.5,0.46,0.14,0.55c0.18,0.03,0.21,0.19,0.16,0.3c-0.08,0.18-0.24,0.08-0.33,0.01c-0.63-0.46-1.38-0.75-1.96-1.27
		c-0.14-0.12-0.27-0.23-0.47-0.1C9.3,22.57,9.12,22.77,9,22.52c-0.17-0.35,0.32-0.1,0.33-0.39c-0.35-0.28-1.07-0.17-1.18-0.86
		c-0.01-0.09-0.2-0.02-0.31-0.01c-0.38,0.04-0.7-0.05-0.91-0.41c-0.08-0.14-0.24-0.29-0.4-0.33c-0.46-0.14-0.71-0.47-0.98-0.84
		c-0.85-1.15-1.75-2.27-2.63-3.4c-0.08-0.11-0.01-0.21-0.01-0.32c0.02-0.36,0.17-0.77-0.3-0.98c0.42-0.47-0.51-0.64-0.25-1.2
		c0.19-0.4-0.82-0.75-0.53-1.31c0.28-0.57,0.01-0.87-0.22-1.33C1.37,10.59,1.51,9.97,1.9,9.46C2,9.31,2.14,9.19,2.16,9.01
		c0.06-0.52,0.31-0.7,0.82-0.51c0.16,0.06,0.41,0.14,0.48-0.07c0.21-0.68,0.65-0.37,1.05-0.28C5.54,8.35,5.89,9.09,6.2,9.99
		c0.12,0.34-0.15,0.99,0.53,1.09c-0.07,0.33-0.09,0.65,0.01,0.98c0.02,0.06,0.03,0.13,0.05,0.19c0.2,0.54,0.64,0.9,0.83,1.52
		c0.22,0.73,0.5,0.65,0.35,1.46c0.46-0.25,0.63-0.21,0.86,0.36c0.24,0.58,0.61,1.23,1.27,1.54c0.18,0.08,0.2,0.16,0.18,0.35
		c-0.03,0.3,0.4,0.44,0.46,0.39c0.42-0.33,0.53,0.06,0.73,0.25c0.22,0.21,0.5,0.31,0.78,0.34c0.63,0.08,1.28-0.2,1.91,0.11
		c0.13,0.06,0.28-0.05,0.42-0.14c0.35-0.21,0.69-0.46,1.13-0.07c0.08,0.07,0.76,0.35,0.89-0.31c0.04-0.21,0.35-0.15,0.53-0.21
		c0.41-0.12,0.79-0.31,1.23-0.36c0.31-0.03,0.17-0.47,0.25-0.8c0.51,0.43,0.88-0.05,1.19-0.24c0.59-0.36,1.34-0.5,1.7-1.28
		c0.24-0.53,0.88-0.81,1.45-0.99c0.3-0.1,0.51-0.21,0.65-0.48c0.34-0.69,1.05-1,1.57-1.51c0.68-0.67,1.25-1.41,1.78-2.19
		c0.2-0.29,0.46-0.52,0.79-0.69c0.49-0.26,0.66-0.85,1.12-1.17c0.97-0.68,1.5-1.76,2.34-2.56c0.29-0.27,0.54-0.46,0.99-0.28
		c0.43,0.18,0.78-0.02,0.82-0.77c0.41,0.84,1.03,0.69,1.51,0.69c0.54,0,0.8,0.06,0.87,0.66C35.46,6.59,35.74,7.28,35.8,8
		c0.07,0.91,0.32,1.86-0.22,2.73c-0.04,0.06-0.04,0.18-0.02,0.25c0.16,0.49-0.01,0.94-0.14,1.4c-0.05,0.2-0.05,0.42,0.05,0.64
		c0.18,0.42,0.27,0.86,0.22,1.37c0.59-0.23,0.79-0.13,0.99,0.55c0.13,0.43,0.7,0.97,1.18,1.32c0.15,0.11,0.39,0.2,0.59,0.34
		c0.2,0.15,0.38,0.4,0.68,0.39c0.6-0.02,1.01,0.36,1.43,0.68c0.19,0.14,0.25,0.53,0.61,0.25c0.08,0.47,0.63,0.25,0.83,0.57
		c0.15,0.23,0.68,0.4,1,0.36c0.11-0.01,0.19-0.01,0.22,0.08c0.2,0.56,0.6,0.24,0.94,0.2c0.1,0.25-0.24,0.26-0.21,0.44
		c0.04,0.01,0.09,0.05,0.12,0.03c0.67-0.32,1.1,0.17,1.5,0.52c0.18,0.16,0.21,0.27,0.46,0.15c0.42-0.19,0.75-0.17,1.16,0.21
		c0.38,0.35,0.89,0.71,1.53,0.6c0.25-0.04,0.36,0.23,0.52,0.37c0.34,0.29,0.47,0.24,0.57-0.16c0.02-0.06,0.12-0.15,0.19-0.15
		c0.2-0.01,0.29,0.17,0.28,0.31c-0.04,0.52,0.09,0.57,0.49,0.24c0.23-0.19,0.53,0,0.73,0.08c1.15,0.43,2.26,0.4,3.34-0.18
		c0.24-0.13,0.52-0.01,0.7-0.11c0.44-0.25,1.12-0.18,1.21-0.94c0.04-0.3,0.45-0.38,0.72-0.5c0.27,0.24-0.18,0.28-0.04,0.51
		c0.41-0.11,0.65-0.45,0.83-0.79c0.28-0.53,0.82-0.49,1.27-0.63c0.22-0.07,0.28,0.03,0.28-0.22c-0.01-0.41,0.18-0.56,0.54-0.71
		c1.06-0.45,1.69-1.44,2.55-2.12c0.9-0.71,1.58-1.63,2.44-2.36c0.6-0.51,1.16-1.13,1.11-2.12c-0.03-0.56,0.39-1.13,0.45-1.75
		c0.02-0.21,0.2-0.39,0.43-0.47c0.19-0.06,0.31-0.19,0.31-0.39c-0.03-1.04,0.83-1.51,1.4-2.17c0.1-0.11,0.25-0.22,0.42-0.13
		C70.01,7,70.37,6.72,70.7,6.31c0.05-0.07,0.14-0.17,0.2-0.16c0.62,0.11,1.25,0.18,1.83,0.39c0.13,0.05,0.23,0.54,0.28,0.8
		c0.16,0.77,0.81,1.42,0.58,2.27c0.51,0.34,0.29,1,0.61,1.42c0.04,0.05,0.11,0.15,0.1,0.16c-0.71,0.71,0.67,1.06,0.3,1.72
		c-0.02,0.03,0.08,0.17,0.15,0.19c0.56,0.16,0.35,1.05,1.07,1.09c0.2,0.01-0.47,0.39,0.11,0.49c0.29,0.05,0.45-0.16,0.68-0.16
		c0.12,0,0.24,0.03,0.27,0.15c0.05,0.26-0.03,0.48-0.28,0.61c0.02,0.04,0.04,0.1,0.06,0.11c0.69,0.16,1.03,0.61,1.16,1.29
		c0.05,0.26,0.07,0.21,0.34,0.12c0.23-0.08,0.49-0.12,0.69,0.17c0.26,0.39,0.54,0.78,1.09,0.85c0.17,0.02,0.37,0.16,0.45,0.37
		c0.13,0.35,0.46,0.41,0.74,0.59c0.7,0.45,1.54,0.59,2.21,0.96c0.75,0.41,1.7,0.58,2.25,1.3c0.3,0.38,0.64-0.1,0.96,0.17
		c0.18,0.15,0.53,0.08,0.82,0.29c0.36,0.25,0.26-0.38,0.57-0.53c-0.04,0.47,0.44,0.56,0.58,0.93c0.07,0.19,0.33,0.39,0.37-0.07
		c0.01-0.15,0.19-0.21,0.21-0.16c0.31,0.85,0.72,0.02,1.09,0.06c0.13,0.21-0.19,0.2-0.17,0.37c0.21,0.02,0.42,0.07,0.58,0.24
		c0.07,0.08,0.25,0.19,0.26,0.17c0.55-0.52,1.11,0.01,1.66-0.05c0.19-0.02,0.3,0.02,0.39,0.15c0.13,0.17,0.35,0.24,0.47,0.14
		c0.46-0.4,0.81,0.01,1.2,0.12c0.44,0.12,0.89,0.44,1.3-0.07c0.08-0.11,0.22-0.17,0.36-0.11c0.55,0.23,1.02,0.05,1.43-0.34
		c0.13,0.29-0.19,0.31-0.18,0.5c0.02,0.02,0.06,0.07,0.08,0.06c0.53-0.17,1.09-0.09,1.64-0.36c0.33-0.16,1,0.23,1.47-0.05
		c0.7-0.41,1.44,0.12,2.16-0.17c0.3-0.12,0.49-0.23,0.49-0.55c0.22,0.03,0.24,0.18,0.26,0.3c0.09,0.63,0.35,0.48,0.69,0.17
		c0.56-0.52,1.36-0.48,2.01-0.82c0.31-0.17-0.08,0.35,0.25,0.41c-0.04-0.38,0.65-0.27,0.51-0.78c0-0.01,0.11-0.07,0.16-0.07
		c0.88,0.15,1.39-0.7,2.18-0.81c0.1-0.01,0.14-0.03,0.1-0.16c-0.17-0.47,0.27-0.45,0.44-0.39c0.54,0.19,0.96-0.01,1.07-0.46
		c0.11-0.45,0.41-0.5,0.69-0.53c0.27-0.03,0.47-0.63,0.81-0.13c-0.05-0.36,0.35-0.37,0.47-0.6c0.15-0.29,0.42-0.43,0.71-0.56
		c0.31-0.14,0.59-0.28,0.75-0.66c0.15-0.37,0.54-0.55,1-0.4c0.3,0.1,0.31,0.09,0.34-0.26c0.01-0.08,0.02-0.1,0.1-0.13
		c1.12-0.34,1.59-1.32,2.07-2.23c0.27-0.52,0.64-0.98,0.83-1.55c0.08-0.25,0.27-0.45,0.23-0.74c-0.02-0.21,0.08-0.4,0.28-0.49
		c0.43-0.21,0.68-0.42,0.76-1.02c0.07-0.5,0.19-1.13,0.74-1.62c0.63-0.56,0.94-1.45,1.42-2.18c0.25-0.38,0.38-1.05,1.13-0.46
		c0.23,0.18,0.53-0.22,0.69-0.48c0.19-0.31,0.3-0.6,0.72-0.2c0.17,0.16,0.51,0.26,0.85,0.07c0.21-0.12,0.51-0.16,0.65,0.31
		c0.19,0.63,0.3,1.33,0.87,1.81c0.26,0.22,0.12,0.59,0.25,0.88c0.45,1.03,0.68,2.12,0.91,3.21c0.08,0.37,0.44,0.4,0.7,0.55
		c-0.36,0.57-0.3,0.69,0.35,0.75c0.26,0.02,0.56,0.8,0.43,1.17c-0.05,0.14-0.21,0.29,0.04,0.36c0.62,0.19,1.36,0.87,1.54,1.47
		c0.05,0.15,0.07,0.19,0.26,0.18c0.39-0.02,0.7,0.19,0.77,0.58c0.12,0.64,1.03,0.67,1.04,1.38c1.06-0.37,1.34,1.05,2.28,0.99
		c0.21-0.01,0.49,0.1,0.52,0.42c0.01,0.07,0.1,0.18,0.16,0.19c0.92,0.18,1.25,1.08,1.94,1.54c0.2-0.06,0.06-0.21,0.06-0.32
		c-0.01-0.14,0.06-0.22,0.2-0.21c0.07,0.01,0.2,0.08,0.2,0.13c0.11,0.83,0.9,0.95,1.42,1.36c0.13,0.1,0.49,0.06,0.3,0.44
		c-0.11,0.22,0.1,0.28,0.26,0.16c0.48-0.34,0.64-0.1,0.81,0.34c0.09,0.25,0.29,0.58,0.61,0.12c0.14-0.21,0.3-0.13,0.41,0.06
		c0.04,0.06-0.05,0.19,0.11,0.18c0.46-0.01,0.8,0.06,1.1,0.28c0.16,0.12,0.3,0.07,0.44,0.04c0.82-0.2,1.57,0.31,2.4,0.16
		c-0.13-0.28-0.28-0.58,0.35-0.36c0.31,0.11,0.79,0.04,1.08-0.14c0.7-0.44,1.57-0.25,2.25-0.69c0.54-0.35,1.01-0.85,1.72-0.87
		c0.05,0,0.14-0.11,0.13-0.13c-0.34-0.87,0.3-0.4,0.61-0.49c0.42-0.13,1-0.15,1.01-0.82c0.01-0.22,0.12-0.56,0.38-0.31
		c0.37,0.36,0.48,0.21,0.52-0.16c0.04-0.38,0.49-0.29,0.6-0.56c0.46-1.14,1.7-1.72,2.09-2.93c0.13-0.41,0.73-0.48,1.07-0.83
		c0.56-0.57,0.58-1.33,0.99-1.93c0.45-0.67,0.83-1.4,1.19-2.1c0.53-1.03,1.57-1.7,1.83-2.87c0.01-0.06,0.04-0.16,0.09-0.17
		c0.72-0.2,1.01-1.04,1.9-1.1c0.53-0.04,1.17,0.2,1.67-0.25c0.13-0.12,0.1,0.07,0.11,0.13c0.03,0.19,0.14,0.25,0.33,0.24
		c0.63-0.03,0.9,0.19,0.76,0.83c-0.07,0.32,0.05,0.42,0.17,0.61c0.56,0.88,0.86,1.86,1.17,2.85c0.25,0.79-0.02,1.83,1.03,2.36
		c0.28,0.14,0.29,0.82,0.9,0.65c0.12,0.45,0.72,0.78,0.3,1.4c0.47-0.44,0.87-0.58,1.2,0.09c0.11,0.23,0.36,0.4,0.48,0.63
		c0.26,0.52,0.82,0.61,1.24,0.89c0.23,0.15,0.4,0.68,0.81,0.2c0.02-0.03,0.12,0.02,0.18,0.02c-0.14,0.55,0.37,0.26,0.53,0.42
		c0.68,0.64,1.68,0.38,2.41,0.86c0.49-0.5,0.52,0.1,0.73,0.29c0.06,0.06,0.24,0.09,0.3,0.04c0.54-0.37,0.96-0.03,1.42,0.2
		c0.17,0.09,0.45,0.49,0.57-0.09c0.04-0.19,0.16-0.06,0.23,0.02c0.35,0.36,0.79,0.44,1.25,0.34c0.37-0.09,0.71-0.05,1.08-0.02
		c0.47,0.04,1.13,0.09,1.3-0.54c0.13-0.45,0.52-0.24,0.76-0.42c0.61-0.45,0.92-1.14,1.43-1.66c0.42-0.42,1.02-0.79,1.25-1.47
		c0.21-0.64,0.7-1.17,1.12-1.72c0.32-0.42,0.34-0.99,0.5-1.48c0.23-0.69,0.34-1.51,0.93-2c0.61-0.51,0.73-1.25,1.11-1.86
		c0.44-0.69,0.69-1.5,1.42-2.03c0.47-0.34,1-0.59,1.51-0.73c0.37-0.1,0.49-0.29,0.69-0.59c0.25,0.45,0.51,0.75,0.92,0.18
		c0.15-0.21,1.99,0.2,2.01,0.44c0.07,0.71,0.88,1.14,0.73,1.93c-0.01,0.07,0.1,0.19,0.18,0.26c0.68,0.64,0.95,1.4,0.68,2.32
		c-0.05,0.17-0.01,0.38,0.16,0.36c0.83-0.1,1.02,0.71,1.19,1.1c0.27,0.65,0.66,0.93,1.25,1.12c0.5,0.16,0.51,0.34-0.05,0.6
		c0.51-0.03,0.86,0.32,1.29,0.13c0.04-0.02,0.17,0.04,0.17,0.05c-0.03,0.7,0.67,0.61,1,0.93c0.13,0.12,0.2,0.27,0.43,0.24
		c0.42-0.05,0.64,0.05,0.27,0.47c-0.07,0.08,0.6,0.67,0.77,0.68c0.56,0.03,0.98,0.18,1.27,0.75c0.14,0.27,0.67,0.24,1.04,0.2
		c0.16-0.02,0.28-0.08,0.42,0.05c1.04,1.02,2.35,0.54,3.55,0.62c0.9,0.06,1.8-0.41,2.71-0.04c0.04,0.02,0.11,0.06,0.11,0.06
		c0.56-0.67,1.47-0.32,2.13-0.73c0.07-0.05,0.21-0.12,0.24-0.1c0.5,0.52,0.89-0.03,1.22-0.2c1.1-0.55,2.38-0.1,3.45-0.7
		c0.15-0.08,0.35-0.11,0.52-0.01c0.24,0.15,0.42,0.13,0.52-0.15c0.04-0.11,0.12-0.23,0.23-0.21c0.77,0.18,1.02-0.49,1.5-0.82
		c0.95-0.63,1.6-1.51,2.37-2.31c0.13-0.13,0.29-0.25,0.29-0.43c0.02-1.49,0.87-2.76,1.09-4.21c0.11-0.72,0.68-1.41,1.15-2.04
		c0.22-0.3,0.32-0.75,0.76-0.87c0.15,0.47,0.61,0.66,0.95,0.25c0.47-0.57,1.03-0.37,1.57-0.44c0.2-0.02,0.41,0.03,0.59-0.02
		c0.23-0.06,0.44-0.1,0.6,0.11c0.21,0.26-0.19,0.35-0.21,0.62c0.64-0.13,0.74,0.15,0.68,0.71c-0.04,0.35,0.06,0.81,0.6,0.86
		c0.08,0.01,0.16,0.07,0.24,0.11c-0.39,0.61,0.59,0.74,0.45,1.31c-0.13,0.53,0.37,0.99,0.32,1.54c-0.02,0.28,0.06,0.53,0.22,0.75
		c0.47,0.61,0.58,1.4,0.96,2.05c0.15,0.26,0.28,0.75,0.75,0.25c0.2-0.22,0.41-0.03,0.38,0.21c-0.11,0.78,0.67,0.75,1.02,1.09
		c0.15,0.15,0.59,0.51,1,0.18c0.05-0.04,0.28,0.05,0.34,0.14c0.23,0.33,0.24,0.89,0.9,0.69c0.1-0.03-0.13,0.26,0.05,0.43
		c0.19-0.25,0.34-0.29,0.63-0.01c0.17,0.16,0.74-0.11,0.94,0.05c0.68,0.53,1.64,0.18,2.32,0.85c0.3,0.3,1.03,0.19,1.39-0.49
		c0.2,0.57,0.37,0.89,0.99,0.49c0.21-0.13,0.78-0.46,1.19-0.04c0.03,0.03,0.16-0.04,0.25-0.06c0.54-0.18,1.02-0.61,1.67-0.4
		c0.16,0.05,0.26-0.13,0.38-0.24c0.11-0.11,0.23-0.29,0.35-0.3c1.08-0.05,1.34-1.09,2.01-1.61c0.3-0.23,0.64-0.41,0.91-0.66
		c0.5-0.47,0.77-1.31,1.24-1.59c1.08-0.64,0.9-1.98,1.71-2.58c0.92-0.69,0.82-1.55,0.87-2.43c0.02-0.31,0.37-0.56,0.36-0.64
		c-0.14-0.76,0.27-1.42,0.29-2.12c0.01-0.41,0.11-0.51,0.42-0.57c0.45-0.09,0.38-0.63,0.77-0.84c0.38-0.2,0.76-0.34,1.16-0.46
		c0.28-0.08,0.72,0.14,0.67-0.46c-0.01-0.17,0.23-0.16,0.37-0.04c0.16,0.13,0.43,0.3,0.53,0.16c0.41-0.56,0.74,0.18,1.11,0.04
		c0.03-0.01,0.16,0.16,0.15,0.18c-0.22,0.3,0.16,0.55,0.14,0.65c-0.16,0.65,0.25,1.16,0.56,1.48c1,1.03,0.58,2.48,1.26,3.58
		c0.1,0.16,0.07,0.35,0.33,0.43c0.17,0.06,0.51,0.29,0.08,0.55c-0.19,0.11-0.07,0.24,0.03,0.32c0.45,0.35,0.7,0.77,0.62,1.36
		c-0.02,0.16,0.14,0.24,0.28,0.17c0.5-0.24,0.47,0.05,0.5,0.41c0.04,0.52,0.67,0.72,0.74,1.25c0.26-0.06,0.51-0.12,0.83-0.19
		c-0.31,0.86,0.53,0.74,0.89,0.92c0.44,0.23,0.98,0.28,1.35,0.69c0.04,0.04,0.15,0.07,0.17,0.05c0.48-0.55,0.94,0.26,1.41,0.01
		c0.26,0.55,0.85,0.36,1.26,0.57c0.39,0.2,0.7,0.42,1.22,0.26c0.4-0.12,0.84,0.27,1.31,0.29c0.58,0.02,1.16,0.04,1.65,0.48
		c0.2,0.18,0.55,0.15,0.84,0.1c0.08-0.01,0.2-0.08,0.24-0.04c0.77,0.64,1.35,0.19,2-0.26c0.54-0.37,1.1-0.74,1.77-0.84
		c0.06-0.01,0.16-0.02,0.16-0.04c0.19-0.94,1.09-1.16,1.7-1.68c0.26-0.22,0.58-0.38,0.58-0.79c0-0.07,0.09-0.18,0.15-0.2
		c1.18-0.29,1.77-1.39,2.72-2.03c0.96-0.65,1.86-1.47,2.55-2.47c0.34-0.49,0.41-1.03,0.51-1.53c0.18-0.93,0.49-1.74,1.15-2.44
		c0.27-0.28,0.43-0.67,0.65-0.99c0.22-0.33,0.52-0.5,0.91-0.3c0.31,0.16,0.63,0.02,0.71-0.16c0.24-0.57,0.47-0.29,0.77-0.1
		c0.16,0.1,0.42,0.21,0.56,0.15c0.67-0.27,0.63,0.23,0.63,0.58c0,0.43,0.17,0.75,0.4,1.1c0.23,0.34,0.6,0.69,0.23,1.17
		c-0.1,0.13-0.01,0.19,0.13,0.21c0.06,0.01,0.16,0.08,0.16,0.09c-0.24,0.8,0.47,1.44,0.36,2.2c-0.04,0.24-0.06,0.68-0.48,0.24
		c-0.02-0.02-0.13,0.01-0.16,0.05c-0.07,0.09-0.1,0.24,0.01,0.29c0.33,0.16,0.63,0.31,0.23,0.71c0.49,0.25-0.07,0.85,0.38,1.11
		c0.1,0.06,0.15,0.13,0.13,0.27c-0.09,0.63,0.18,0.89,0.76,0.76c-0.02,0.88-0.01,0.81,0.93,0.97c0.26,0.04,0.63,0.36,0.91,0.59
		c0.3,0.24,0.61,0.36,0.96,0.32c0.22-0.02,0.39,0.08,0.45,0.21c0.22,0.46,0.88,0.22,1.09,0.69c0.02,0.05,0.33,0.04,0.43-0.03
		c0.54-0.38,0.68-0.02,0.8,0.4c0.65-0.62,0.89-0.57,1.27,0.29c0.06,0.14,0.11,0.15,0.24,0.12c1.09-0.3,2,0.42,3.01,0.54
		c0.73,0.09,1.39,0.42,2.17,0.39c0.68-0.03,1.37,0.25,2.06,0.4c0.11,0.02,0.23,0.16,0.3,0.13c0.81-0.35,1.46,0.54,2.31,0.23
		c0.4-0.15,0.81,0.37,1.23,0.55c0.24,0.1-0.12,0.35-0.37,0.41c0.21,0.26,0.72,0.32,0.41,0.79c-0.02,0.03-0.01,0.09,0.01,0.12
		c0.21,0.32,0.21,0.32-0.22,0.39c0.32,0.34,0.97,0.18,1.09,0.77c0.07,0.34-0.09,0.64-0.24,0.88c-0.22,0.34-0.58,0.6-0.88,0.89
		c-0.48,0.47-0.62-0.39-1.03-0.25c-0.16,0.2,0.14,0.4,0.03,0.61c-0.08,0.16-0.13,0.35-0.31,0.42c-0.21,0.08-0.23-0.15-0.31-0.26
		c-0.32-0.43-0.8-0.26-1.23-0.3c-0.03,0-0.08,0.09-0.09,0.15c-0.04,0.28-0.29,0.46-0.49,0.32c-0.4-0.27-0.77-0.58-1.1-0.94
		c-0.09-0.07-0.09,0.16-0.07,0.25c0.19,0.56-0.23,0.51-0.53,0.55c-0.37,0.04-0.57-0.23-0.71-0.53c-0.09-0.19-0.43-0.3-0.67-0.38
		c-0.13-0.04-0.41-0.18-0.43,0.08c-0.02,0.33-0.29,0.26-0.37,0.24c-0.53-0.14-1.08,0.11-1.61-0.15c-0.21-0.11-0.36-0.14-0.39-0.43
		c-0.06-0.51-0.49-0.49-0.72-0.22c-0.4,0.47-0.73,0-1.08-0.01c-0.35-0.01-0.84-0.08-0.75-0.69c0.03-0.17-0.14-0.26-0.31-0.28
		c-0.49-0.06-1.02,0.05-1.42-0.36c-0.07-0.07-0.23-0.01-0.29,0.09c-0.19,0.29-0.28,0.09-0.49-0.01c-0.32-0.16-0.66-0.23-0.88-0.55
		c-0.12-0.18-0.34-0.18-0.54-0.06c-0.12,0.07-0.26,0.1-0.38,0c-0.81-0.69-1.74-1.27-2.65-1.78c-0.58-0.32-1.08-0.8-1.7-1.05
		c-0.17-0.07-0.3-0.02-0.44,0.05c-0.14,0.08-0.3,0.06-0.34-0.08c-0.26-0.92-1.47-0.92-1.76-1.85c-0.07-0.23-0.48-0.07-0.72,0.05
		c-0.44,0.24-1.16,0.4-1.27,0.74c-0.24,0.78-1.11,0.82-1.4,1.47c-0.09,0.19-0.18,0.5-0.57,0.44c-0.24-0.04-0.35,0.23-0.51,0.38
		c-0.38,0.33-0.59,0.91-1.26,0.82c-0.08-0.01-0.18,0.11-0.26,0.18c-0.45,0.41-0.63,1.11-1.36,1.23c0.08,0.57-0.76,0.44-0.75,0.96
		c0,0.05-0.08,0.13-0.13,0.14c-0.95,0.13-1.37,0.96-2.02,1.49c-0.23,0.19-0.3,0.03-0.36-0.17c-0.04-0.14-0.03-0.36-0.27-0.24
		c-0.12,0.06-0.24,0.17-0.12,0.32c0.22,0.28-0.01,0.29-0.18,0.32c-0.23,0.04-0.37-0.07-0.32-0.29c0.1-0.46-0.1-0.41-0.43-0.32
		c-0.56,0.14-1.11,0.32-1.71,0.21c-0.44-0.08-0.92-0.17-1.24,0.33c-0.09,0.14-0.2,0.07-0.32-0.05c-0.38-0.39-0.82-0.53-1.4-0.64
		c-0.74-0.14-1.69,0.37-2.26-0.54c-0.14-0.22-0.3,0-0.41,0.14c-0.09,0.11-0.18,0.21-0.33,0.15c-0.17-0.07-0.11-0.21-0.09-0.34
		c0.03-0.24-0.08-0.42-0.24-0.67c-0.25,0.52-0.54,0.89-1.02,0.25c-0.03-0.04-0.33-0.41-0.41,0.05c-0.01,0.08-0.1,0.09-0.15,0.05
		c-0.83-0.72-2.15-0.47-2.86-1.44c-0.82,0.09-1.23-0.42-1.58-1.04c-0.17-0.3-0.5-0.03-0.78-0.13c-0.68-0.25-1.01-0.94-1.7-1.15
		c-0.32-0.1-0.53-0.5-0.96-0.32c-0.14,0.06-0.25-0.08-0.29-0.21c-0.2-0.56-0.69-0.85-1.12-1.19c-0.51-0.41-0.79-1.03-1.28-1.49
		c-0.22,0.75-0.19,1.64-1.22,1.85c-0.21,0.04-0.02,0.32-0.06,0.48c-0.04,0.17-0.14,0.46-0.29,0.24c-0.35-0.54-0.48,0.04-0.61,0.12
		c-0.26,0.14-0.18,0.31,0.07,0.54c0.22,0.19,0,0.47-0.29,0.49c-0.59,0.05-0.84,0.32-0.72,0.92c0.03,0.16-0.04,0.39-0.24,0.24
		c-0.48-0.35-0.47,0.11-0.64,0.32c-0.2,0.24-0.18,0.76-0.71,0.6c-0.03-0.01-0.1,0.06-0.1,0.06c0.33,0.68-0.41,0.6-0.63,0.89
		c-0.05,0.07-0.19,0.14-0.18,0.18c0.23,0.74-0.23,0.63-0.67,0.57c-0.04-0.01-0.1,0.01-0.12,0.04c-0.48,0.62-1.19,0.73-1.89,0.93
		c-0.58,0.17-1.23,0.28-1.64,0.88c-0.13,0.19-0.6,0.03-0.82-0.21c-0.14-0.15-0.27-0.28-0.54-0.35c0.09,0.32,0.18,0.63-0.18,0.84
		c-0.04-0.14-0.05-0.3-0.12-0.43c-0.08-0.16-0.23-0.31-0.41-0.29c-0.24,0.03-0.11,0.25-0.12,0.38c-0.03,0.3-0.17,0.51-0.46,0.59
		c-0.29,0.08-0.37-0.19-0.51-0.35c-0.32-0.36-0.93-0.32-1.16,0.11c-0.09,0.16-0.18,0.17-0.32,0.11c-0.27-0.11-0.54-0.2-0.8-0.33
		c-0.64-0.33-1.29-0.3-1.94-0.09c-0.55,0.18-1.09,0.25-1.57-0.12c-0.19-0.15-0.06-0.63-0.52-0.55c-0.17,0.18,0.11,0.5-0.12,0.59
		c-0.22,0.09-0.4-0.16-0.59-0.26c-0.64-0.35-1.28-0.75-2.01-0.9c-0.19-0.04-0.25-0.15-0.32-0.29c-0.04-0.08-0.11-0.18-0.18-0.19
		c-0.8-0.08-1.09-0.92-1.7-1.17c-0.72-0.3-1.27-0.83-1.97-1.13c-0.4-0.17-2.36-1.54-2.62-1.85c-0.43-0.52-0.9-0.2-1.25,0.02
		c-0.41,0.26-0.7,0.7-1.26,0.75c-0.16,0.01-0.05,0.17-0.02,0.27c0.12,0.42,0.26,0.82-0.47,0.66c-0.39-0.08-1.18,0.68-1.11,1.1
		c0.13,0.76-0.24,0.76-0.84,0.55c0.09,0.31,0.49,0.47,0.24,0.79c-0.2,0.26-0.49,0.21-0.77,0.27c-0.53,0.12-1.13,0.26-1.5,0.65
		c-0.51,0.54-0.66,0.25-0.84-0.2c-0.02-0.05-0.09-0.09-0.21-0.21c0.06,0.69-0.7,0.6-0.85,1.1c-0.04,0.12-0.15-0.04-0.22-0.11
		c-0.46-0.5-0.77-0.42-1.03,0.19c-0.14,0.32-0.42,0.38-0.69,0.1c-0.08-0.09-0.15-0.35-0.21-0.26c-0.37,0.56-1,0.26-1.47,0.48
		c-0.16,0.07-0.29,0.18-0.49,0.17c-0.42-0.03-0.42-0.01-0.37,0.45c0.01,0.05-0.04,0.13-0.08,0.15c-0.19,0.11-0.33,0.03-0.46-0.13
		c-0.23-0.28-0.24-0.28-0.41-0.02c-0.12,0.18-0.22,0.01-0.33-0.01c-0.5-0.08-1.04-0.27-1.32,0.44c-0.34-0.29-0.71-0.96-0.98,0.05
		c-0.02,0.08-0.59,0.05-0.89,0c-0.41-0.06-0.72-0.1-0.4,0.45c0.08,0.13,0.04,0.21-0.08,0.26c-0.15,0.06-0.28,0.03-0.31-0.13
		c-0.09-0.42-0.53-0.42-0.69-0.7c-0.27,0.15-0.14,0.26-0.08,0.37c0.14,0.26-0.04,0.39-0.21,0.26c-0.45-0.32-0.87-0.34-1.44-0.34
		c-0.55,0-1.18-0.11-1.74-0.04c-1.03,0.13-2,0.05-3.02-0.15c-0.43-0.09-0.7-0.35-0.91-0.54c-0.55-0.49-1.25-0.64-1.83-1.01
		c-0.32-0.2-0.46-0.8-1.01-0.42c-0.08-0.39-0.4-0.48-0.68-0.68c-1.12-0.82-2.47-1.34-3.42-2.36c-0.78-0.82-1.8-1.29-2.61-2.05
		c-0.35-0.33-0.74-0.64-0.98-1.04c-0.33-0.53-0.93-0.4-1.34-0.71c-0.04-0.03-0.19,0.03-0.23,0.09c-0.28,0.41-0.39,0.91-0.85,1.23
		c-0.22,0.15,0.58,0.16,0.24,0.55c-0.16,0.17-0.41,0.03-0.61,0.33c-0.37,0.55-0.42,1.15-0.62,1.73c-0.17,0.48-0.67,0.67-1.01,1
		c0.15,0.25,0.39-0.03,0.55,0.13c0.02,0.25-0.19,0.31-0.36,0.39c-0.31,0.15-0.58,0.31-0.7,0.66c-0.05,0.14-0.13,0.31-0.33,0.26
		c-0.4-0.1-0.44,0.19-0.51,0.45c-0.05,0.19-0.05,0.42-0.36,0.38c-0.05-0.01-0.16,0.09-0.15,0.09c0.43,0.76-0.4,0.44-0.59,0.66
		c-0.21,0.23-0.52,0.34-0.36,0.75c0.13,0.33-0.12,0.38-0.37,0.36c-0.66-0.06-1.06,0.16-1.26,0.87c-0.13,0.46-0.65,0.1-0.98,0.17
		c-0.17,0.04-0.37-0.1-0.57-0.16c-0.14,0.2,0.17,0.39-0.05,0.58c-1.21-0.93-0.51,0.44-0.82,0.7c-0.23-0.16-0.34-0.44-0.65-0.58
		c-0.31-0.14-0.45-0.19-0.72-0.01c-0.26,0.18-0.43-0.15-0.7-0.22c-0.03,0.45-0.16,0.67-0.55,0.23c-0.18-0.21-0.37-0.41-0.69-0.05
		c-0.21,0.24-0.56,0.24-0.84-0.11c-0.25-0.31-0.56-0.71-0.99-0.14c-0.11,0.15-0.36,0.15-0.53-0.05c-0.32-0.42-0.68-0.57-1.19-0.25
		c-0.19,0.12-0.47,0.11-0.71,0.16c-0.31,0.07-0.48-0.06-0.49-0.36c-0.01-0.24,0.1-0.56-0.22-0.59c-0.11-0.01-0.27,0.36-0.39,0.57
		c-0.06,0.11-0.06,0.25-0.15,0.42c-0.2-0.46-0.85-0.41-0.94-0.98c-0.02-0.13-0.18-0.12-0.29-0.11c-1.06,0.08-1.85-0.56-2.69-1.04
		c-0.47-0.27-0.84-0.7-1.43-0.79C171.08,21.64,171.1,21.18,170.9,20.85z"/>
</g>
</svg>
