<?xml version="1.0" encoding="utf-8"?>
<!-- Generator: Adobe Illustrator 24.3.0, SVG Export Plug-In . SVG Version: 6.00 Build 0)  -->
<svg version="1.1" id="Layer_1" xmlns="http://www.w3.org/2000/svg" xmlns:xlink="http://www.w3.org/1999/xlink" x="0px" y="0px"
	 viewBox="0 0 323.49 23.84" style="enable-background:new 0 0 323.49 23.84;" xml:space="preserve">
<style type="text/css">
	.st0{fill:#E8422E;}
</style>
<g>
	<path class="st0" d="M189.18,8.21c0.23-0.59,0.7-1.01,1.12-1.48c0.4-0.44,0.68-0.89,1.36-0.95c0.23-0.02,0.55-0.37,0.54-0.72
		c-0.01-0.25-0.19-0.52,0.24-0.56c0.32-0.03,0.61,0.05,0.64,0.42c0.04,0.45,0.21,0.5,0.54,0.23c0.19-0.15,0.42-0.23,0.62-0.06
		c0.35,0.3,0.65,0.61,1.11,0.08c0.05-0.06,0.79,0.29,0.8,0.72c0.01,0.39,0.24,0.41,0.46,0.48c0.59,0.2,1.1,0.5,1.51,0.97
		c0.04,0.05,0.09,0.11,0.15,0.12c1.95,0.27,1.67,2.12,2.36,3.28c0.59,0.99-0.16,2.18,0.41,3.19c-1.12,0.65,0.19,0.99,0.2,1.53
		c-0.34,0.09-0.67,0.21-1.01,0.25c-0.46,0.06-0.52,0.41-0.65,0.73c-0.11,0.28,0.46,0.72-0.13,0.87c-0.75,0.19-1.43,0.84-2.26,0.46
		c-0.54-0.25-0.74-0.04-0.79,0.41c-0.04,0.35-0.07,0.32-0.46,0.34c-1.26,0.07-2.61-0.31-3.77,0.54c-0.17,0.13-0.36,0.16-0.54,0.04
		c-0.8-0.51-1.87-0.25-2.62-0.93c-0.15-0.14-0.29,0.03-0.43,0.09c-0.4,0.18-0.52,0.18-0.49-0.38c0.05-0.9-0.74-0.37-1.23-0.55
		c0.25-0.38,0.45-0.76-0.15-1.05c-0.14-0.07-0.11-0.52-0.12-0.8c-0.01-0.5,0.07-0.97-0.48-1.33c-0.3-0.19-0.13-0.64,0.02-0.98
		c0.43-0.99,1.37-1.78,1.2-3.04c-0.02-0.18,0.33-0.47,0.57-0.61c0.47-0.26,0.55-0.66,0.6-1.13c0.02-0.23-0.2-0.55,0.17-0.66
		C189.03,7.65,188.83,8.22,189.18,8.21z"/>
	<path class="st0" d="M19.22,5.16c0.03,0.55-0.96,1.22,0.37,1.24c0.38,0.01,0.71,0.67,1.32,0.48c0.16-0.05,0.21,0.17,0.16,0.35
		c-0.14,0.5,0.35,0.68,0.59,0.72c1.02,0.13,0.83,0.87,0.81,1.5c0,0.16-0.25,0.34,0.07,0.39c0.49,0.07,0.3,0.33,0.26,0.62
		c-0.05,0.32-0.38,0.77,0.28,0.9c0.07,0.01,0.17,0.19,0.15,0.21c-0.54,0.8-0.06,1.96-0.98,2.66c-0.49,0.37-0.96,0.86-0.86,1.61
		c0.08,0.6-0.64,0.59-0.91,0.97c-0.35,0.49-0.77,0.96-1.07,1.51c-0.04,0.08-0.1,0.25-0.12,0.24c-1.09-0.21-1.52,0.92-2.45,1.19
		c-1.2,0.35-2.19-0.26-3.27-0.17c-0.85,0.07-1.37-0.27-1.5-1.12c-0.07-0.47-0.21-0.94-0.28-1.41c-0.1-0.66-0.26-1.18-1.13-1.06
		c-0.36,0.05-0.56-0.23-0.38-0.56c0.27-0.5,0.38-0.88-0.22-1.25c-0.21-0.13-0.18-0.54-0.08-0.89c0.14-0.54,0.18-1.05,0.01-1.68
		c-0.22-0.81-0.53-1.75-0.01-2.71c0.25-0.48,0.92-1.03,0.42-1.78c-0.05-0.07,0.25-0.55,0.42-0.57c1.21-0.14,2.07-1.36,3.42-1.04
		c0.27,0.06,0.63-0.09,0.9-0.23c0.33-0.17,0.59-0.29,0.75,0.17c0.03,0.09,0.12,0.23,0.15,0.14c0.33-0.86,0.87-0.22,1.15-0.08
		C17.95,5.85,18.58,5.65,19.22,5.16z"/>
	<path class="st0" d="M132.48,5.87c0.36,0.18,0.6,0.29,0.81,0.42c0.21,0.13,0.32,0.36,0.25,0.58c-0.42,1.34-0.45,1.71-0.2,2.9
		c0.03,0.16,0.11,0.33,0.06,0.47c-0.45,1.51-0.52,3.07-0.62,4.63c-0.01,0.13-0.03,0.26-0.19,0.28c-1.03,0.13-1.19,0.97-1.43,1.74
		c-0.06,0.18-0.09,0.5-0.29,0.34c-0.53-0.41-0.96-0.03-1.32,0.15c-0.98,0.5-1.99,0.18-2.95,0.14c-0.55-0.02-1.35-0.24-1.58-1.1
		c-0.29-1.08-1.32-1.44-2.15-1.97c-0.16-0.1-0.47-0.19-0.47-0.27c0.09-1.4-1.49-2.18-1.32-3.62c0.07-0.62,0.14-1.18,0.38-1.78
		c0.53-1.29,1.15-2.49,1.95-3.66c0.59-0.87,1.2-1.67,1.94-2.41c0.47-0.47,0.82-0.47,1.14,0.07c0.22,0.36,0.35,0.28,0.73,0.14
		c0.65-0.24,1.27-1.11,2.11-0.36c0.04,0.04,0.16,0.07,0.17,0.06c0.97-1.22,1.46,0.25,2.16,0.44c0.48,0.13,0.85,0.71,1.23,1.12
		C133.51,4.85,133.16,5.38,132.48,5.87z"/>
	<path class="st0" d="M95.27,8.58c-0.13-0.35-0.21-0.57-0.35-0.95c0.62,0.35,1.08,0.55,1.19,1.19c0.13,0.73,0.7,1.3,0.81,2.09
		c0.03,0.21,0.89,0.4,0.68,0.81c-0.41,0.81,0.01,1.76-0.49,2.49c-0.32,0.46-0.35,0.84,0.2,1.44c-1.16-0.4-1.42,1.37-2.66,0.38
		c0.39,0.69,0.78,0.82,1.29,0.56c0.32-0.17,0.63-0.09,0.7,0.22c0.08,0.35-0.31,0.32-0.54,0.38c-0.78,0.19-1.59-0.06-2.37,0.21
		c-0.38,0.13-0.71,0.12-0.47,0.66c0.15,0.34-0.29,0.53-0.26,0.86c0,0.04-0.15,0.1-0.22,0.15c-0.24-0.98-1.06,0.02-1.47-0.42
		c-0.12-0.13-0.31-0.24-0.52-0.1c-1.8,1.21-3.97,1.09-5.74-0.3c-0.12-0.1-0.33-0.12-0.23-0.33c0.38-0.77-0.2-1.25-0.53-1.8
		c-0.33-0.55-0.35-1.27-0.32-1.76c0.06-1.11-0.18-2.2-0.07-3.29c0.05-0.48,0.15-0.85,0.66-1.15c0.77-0.45,0.97-1.39,1.43-2.1
		c0.29-0.45,0.57-0.81,1.15-0.89c0.73-0.11,1.34-0.57,2-0.86c0.92-0.41,1.01,0.09,1.13,0.71c0.43-0.07,0.92-1.06,1.28,0.08
		c0.01,0.03,0.06,0.07,0.06,0.07c1.08-0.73,1.32,1.17,2.32,0.73c0.17-0.08,0.36,0.09,0.47,0.26C94.63,8.32,94.71,8.39,95.27,8.58z"
		/>
	<path class="st0" d="M308.37,19.11c-0.08-0.47,0.32-0.5,0.38-0.76c-0.19-0.13-0.32,0.02-0.41,0.12c-0.52,0.52-0.99,0.49-1.45-0.08
		c-0.1-0.12-0.27-0.34-0.34-0.31c-1.01,0.33-1.13-0.7-1.66-1.08c-0.55-0.39-0.36-0.72,0.47-0.8c-0.76-0.21-1.06-0.51-0.82-1.24
		c0.31-0.92-0.63-1.46-0.91-2.21c-0.2-0.55-0.49-1.03-0.34-1.63c0.09-0.36-0.02-0.69-0.16-1.02c-0.26-0.63-0.38-1.32-0.32-1.97
		c0.05-0.55-0.33-1.29,0.68-1.64c0.37-0.12,0.78-1.02,0.43-1.88c0.53,0.23,1.06,0.71,1.12-0.21c0.01-0.08,0.35-0.22,0.51-0.19
		c1.44,0.26,2.81-0.62,4.26-0.25c0.17,0.04,0.51-0.07,0.48,0.13c-0.18,1.07,0.79,0.86,1.27,1.18c0.29,0.19,0.62,0.31,0.81,0.64
		c0.77,1.35,1.99,2.39,2.67,3.82c0.16,0.34,0.88,0.13,0.84,0.75c-0.43,0.01-1.01-0.37-0.63,0.68c0.35,0.97-0.19,2.02-0.82,2.9
		c-0.32,0.45-0.81,0.83-0.83,1.45c-0.01,0.15-0.11,0.22-0.26,0.21c-0.8-0.04-0.56,0.27-0.2,0.61c0.18,0.18,0.28,0.37,0.05,0.57
		c-0.17,0.14-0.47,0.32-0.61,0.18c-1.09-1.08-1.05,0.38-1.19,0.65c-0.35,0.69-0.46,0.88-1.15,0.63c-0.22-0.08-0.36-0.04-0.51,0.1
		C309.37,18.82,308.86,18.83,308.37,19.11z"/>
	<path class="st0" d="M234.48,6.47c-1.08,0.38-0.64,0.92-0.31,1.31c0.41,0.49,0.52,0.93,0.11,1.45c-0.06,0.07-0.15,0.2-0.13,0.25
		c0.55,1.07-0.12,2.11-0.04,3.16c0.03,0.44-0.07,0.5-0.45,0.46c-0.88-0.09-1.57,0.14-1.9,1.08c-0.06,0.18-0.32,0.38-0.51,0.4
		c-1.28,0.15-1.97,1.19-2.93,1.82c-0.32,0.21-1.05,0.2-1.36-0.03c-0.83-0.61-1.47-0.18-2.15,0.15c-0.63,0.3-1.06,0.2-1.45-0.41
		c-0.67-1.05-1.5-2.01-2.08-3.1c-0.29-0.56-0.36-1.25-0.75-1.81c-0.1-0.15,0.04-0.28,0.19-0.37c1.07-0.65,1.1-1.62,0.76-2.66
		c-0.09-0.28-0.1-0.57,0.07-0.72c0.37-0.31,0.26,0.3,0.32,0.26c0.32-0.23,0.75-0.45,0.88-0.78c0.31-0.81,0.7-1.35,1.55-1.81
		c0.6-0.32,1.21-0.87,1.81-1.32c0.1-0.08,0.26-0.25,0.28-0.24c0.93,0.71,1.46-0.33,2.2-0.47c0.29-0.06,0.39,0.13,0.48,0.36
		c0.34,0.85,1.07,1.23,1.89,1.17c0.79-0.06,0.29,0.72,0.7,0.82c0.45,0.11,0.66-0.73,1.17-0.31c0.29,0.24,0.61,0.52,0.76,0.85
		C233.75,6.35,233.89,6.59,234.48,6.47z"/>
	<path class="st0" d="M53.91,18.62c-0.5-0.48-0.87-0.65-1.25-0.08c-0.25,0.37-0.55,1.19-0.73-0.04c-0.03-0.17-0.16-0.21-0.37-0.15
		c-0.82,0.25-1.62,0.3-2.18-0.52c-0.35-0.52-1.05-0.41-1.47-0.84c-0.18-0.18-0.39,0.06-0.31,0.36c0.13,0.45-0.31,0.31-0.48,0.42
		c-0.26,0.17-0.39-0.04-0.51-0.25c-0.48-0.81-1.09-1.4-2.04-1.74c-0.47-0.16-0.88-0.81-1.11-1.33c-0.38-0.86-0.18-1.07,0.77-1.08
		c-0.26-0.42-0.6-0.3-0.92-0.14c-0.26,0.13-0.63,0.37-0.69-0.03c-0.04-0.3-0.68-0.74,0.04-1.03c0.17-0.07,0.28-0.22,0.21-0.38
		c-0.4-0.9,0.23-1.65,0.41-2.44c0.14-0.6,0.76-1.04,0.98-1.68c0.05-0.14,0.32-0.36,0.52-0.02c0.15,0.26,0.42,0.11,0.46-0.03
		c0.22-0.78,1.28-0.34,1.52-1.07c1.07,0.29,1.6-0.85,2.48-0.93c0.57-0.05,1.16,0.27,1.75,0.43c0.22,0.06,0.33,0.31,0.67,0.14
		c0.45-0.22,0.59,0.18,0.6,0.56c0.03,1.19,0.8,2.08,1.23,3.11c0.16,0.39,0.53,0.77,0.09,1.21c-0.04,0.04-0.07,0.16-0.05,0.17
		c0.56,0.42,0.67,0.97,0.74,1.65c0.05,0.42,0.33,0.81,0.19,1.31c-0.07,0.26-0.16,0.54,0.05,0.89c0.49,0.8,0.25,1.28-0.68,1.82
		c-0.17,0.1-0.3,0.26-0.11,0.47c0.14,0.15,0.2,0.32,0.18,0.53C53.9,18.09,53.91,18.27,53.91,18.62z"/>
	<path class="st0" d="M273.71,13.31c-0.37-0.03-0.58,0.11-0.86,0.48c-0.47,0.6-1.29,0.86-2.01,1.01c-0.56,0.12-0.99-0.48-1.32-0.97
		c-0.14-0.21-0.32-0.4-0.43-0.62c-0.21-0.39-0.37-0.42-0.72-0.1c-0.15,0.14-0.7,0.89-0.77-0.13c0-0.05-0.08-0.14-0.1-0.14
		c-1.17,0.33-1.23-0.92-1.88-1.33c-0.3-0.19-0.53-0.51-0.87-0.71c-1-0.57-1.12-1.65-1.5-2.6c-0.2-0.49,0.31-0.92,0.22-1.16
		c-0.47-1.25,0.79-1.5,1.14-2.25c0.35-0.74,0.77-1.05,1.64-1.15c0.35-0.04,0.9-0.78,1.51-1.06c0.22-0.1,0.27-0.19,0.38,0.03
		c0.35,0.74,0.73,0.42,1-0.02c0.25-0.4,0.44-0.48,0.82-0.17c0.38,0.3,0.76,0.04,1.17-0.03c0.48-0.09,1.18-0.56,1.4,0.39
		c0.01,0.04,0.09,0.09,0.15,0.1c1.3,0.09,1.23,1.2,1.55,2.03c0.29,0.76,0.64,1.5,0.98,2.23c0.11,0.24,0.3,0.51,0.01,0.67
		c-0.8,0.44-0.33,0.92-0.02,1.29c0.44,0.53,0.48,0.99,0.1,1.55c-0.48,0.73-0.95,1.48-1.01,2.39
		C274.26,13.48,274.02,13.42,273.71,13.31z"/>
	<path class="st0" d="M166.06,11.97c-0.51,0.48-0.75,1-0.41,1.64c0.03,0.05-0.02,0.17,0,0.18c1.6,0.87,0.49,2.03,0.34,3.08
		c-0.11,0.75-0.82,0.54-1.22,0.57c-0.92,0.07-0.61,0.78-0.84,1.22c-0.19,0.39-1.27-0.15-0.95,0.85c0.09,0.3-0.14,0.32-0.3,0.47
		c-0.43,0.39-0.75-0.56-0.77-0.2c-0.05,0.98-0.49,0.1-0.68,0.16c-0.32,0.1-0.69,0.05-0.93,0.36c-0.1,0.13-0.17,0.29-0.29,0.38
		c-0.17,0.13-2.1-0.64-2.17-0.86c-0.09-0.31-0.14-0.6-0.52-0.72c-1.17-0.37-1.18-1.54-1.58-2.42c-0.16-0.34-0.05-0.82-0.29-1.18
		c-0.12-0.17-0.21-0.42-0.07-0.53c0.86-0.65,0.3-1.41,0.23-2.15c-0.04-0.47,0.65-0.42,0.71-0.98c0.09-0.92,0.84-1.6,1.25-2.41
		c0.37-0.74,1.46-0.77,2.18-0.45c0.93,0.41,1.73,1.27,2.97,0.83c0.38-0.13,1.02-0.04,1.26,0.79
		C164.19,11.41,165.3,11.43,166.06,11.97z"/>
</g>
</svg>
