<?xml version="1.0" encoding="utf-8"?>
<!-- Generator: Adobe Illustrator 24.3.0, SVG Export Plug-In . SVG Version: 6.00 Build 0)  -->
<svg version="1.1" id="Layer_1" xmlns="http://www.w3.org/2000/svg" xmlns:xlink="http://www.w3.org/1999/xlink" x="0px" y="0px"
	 viewBox="0 0 282.22 595.28" style="enable-background:new 0 0 282.22 595.28;" xml:space="preserve">
<style type="text/css">
	.st0{fill:#F29104;}
	.st1{fill:none;stroke:#F29104;stroke-width:5.5358;stroke-miterlimit:10;}
	.st2{fill:#1E1E1C;}
</style>
<g>
	<path class="st0" d="M258.98,571.91H29.42V19.85h229.55V571.91z M37.21,564.13h213.99V27.64H37.21V564.13z"/>
</g>
<g>
	<rect x="140.58" y="24.9" class="st0" width="7.78" height="541.75"/>
</g>
<g>
	<path class="st1" d="M129.29,396.47"/>
</g>
<g>
	<rect x="34.47" y="395.97" class="st0" width="221.47" height="7.51"/>
</g>
<g>
	<rect x="33.83" y="228.68" class="st0" width="221.47" height="7.51"/>
</g>
<g>
	<path class="st2" d="M68.75,73.16V99.9h-3.3V69.71h21.57V99.9h-3.3V73.16H68.75z"/>
	<path class="st2" d="M96.53,69.71V99.9h-3.3V69.71H96.53z M95.06,81.79h18.65v3.45H95.06V81.79z M114.8,69.71V99.9h-3.3V69.71
		H114.8z"/>
	<path class="st2" d="M73.61,157.5v26.74h-3.3v-30.19h21.57v30.19h-3.3V157.5H73.61z"/>
	<path class="st2" d="M95.37,154.05h17.29v3.45h-6.99v26.74h-3.3V157.5h-7V154.05z"/>
</g>
<g>
	<path class="st2" d="M74.08,322.19c0.84,1.58,1.94,2.82,3.3,3.72c1.36,0.9,2.83,1.34,4.42,1.34c1.15,0,2.21-0.17,3.16-0.5
		s1.82-0.8,2.61-1.4c0.78-0.6,1.45-1.3,2-2.09v4.29c-1.01,1-2.12,1.74-3.32,2.22c-1.2,0.48-2.68,0.73-4.46,0.73
		c-1.68,0-3.25-0.34-4.71-1.02c-1.46-0.68-2.75-1.64-3.85-2.88c-1.11-1.24-1.97-2.7-2.59-4.39c-0.62-1.69-0.93-3.53-0.93-5.52
		c0-1.99,0.31-3.83,0.93-5.52c0.62-1.69,1.49-3.15,2.59-4.39s2.39-2.2,3.85-2.88c1.46-0.68,3.03-1.02,4.71-1.02
		c1.77,0,3.26,0.24,4.46,0.73c1.2,0.48,2.3,1.23,3.32,2.22v4.29c-0.55-0.79-1.22-1.49-2-2.09c-0.78-0.6-1.65-1.07-2.61-1.4
		s-2.01-0.5-3.16-0.5c-1.59,0-3.06,0.45-4.42,1.34c-1.36,0.89-2.46,2.13-3.3,3.7c-0.84,1.57-1.26,3.41-1.26,5.5
		C72.82,318.78,73.24,320.61,74.08,322.19z"/>
	<path class="st2" d="M107.71,303.29v3.07H97.69v23.77h-2.94v-26.83H107.71z M96.38,314.03h4.94c1.57,0,2.96,0.33,4.2,0.98
		c1.23,0.65,2.21,1.58,2.94,2.78c0.73,1.2,1.09,2.63,1.09,4.29c0,1.64-0.36,3.06-1.09,4.27c-0.73,1.21-1.7,2.15-2.94,2.8
		c-1.23,0.65-2.63,0.98-4.2,0.98h-4.94v-3.07h4.94c1.04,0,1.95-0.18,2.75-0.56s1.42-0.93,1.87-1.67c0.45-0.74,0.67-1.66,0.67-2.76
		c0-1.1-0.22-2.02-0.67-2.76s-1.07-1.3-1.87-1.67c-0.79-0.37-1.71-0.56-2.75-0.56h-4.94V314.03z"/>
</g>
<g>
	<path class="st2" d="M71.96,466.23v26.83h-2.94v-26.83H71.96z M70.64,476.97h16.58v3.07H70.64V476.97z M88.19,466.23v26.83h-2.94
		v-26.83H88.19z"/>
	<path class="st2" d="M94.93,493.07v4.22h-2.59V490h24.53v7.28h-2.59v-4.22H94.93z M97.86,491.92h-3.11l9.84-27.03l9.84,27.03h-3.11
		l-6.74-19.63L97.86,491.92z"/>
</g>
<g>
	<path class="st2" d="M177.28,290.05l5.67-8.31l0.16,0.14c-0.35,0.48-0.75,0.8-1.21,0.95c-0.46,0.15-0.98,0.23-1.57,0.23
		c-0.74,0-1.44-0.16-2.09-0.49c-0.65-0.33-1.22-0.79-1.71-1.38c-0.49-0.59-0.88-1.29-1.15-2.08c-0.28-0.79-0.41-1.65-0.41-2.57
		c0-1.38,0.27-2.59,0.82-3.62c0.54-1.04,1.28-1.84,2.21-2.42c0.93-0.57,1.98-0.86,3.13-0.86c1.17,0,2.22,0.29,3.15,0.86
		c0.92,0.58,1.66,1.38,2.2,2.42s0.82,2.24,0.82,3.62c0,0.82-0.1,1.59-0.31,2.3c-0.21,0.71-0.48,1.33-0.83,1.87l-6.11,9.34H177.28z
		 M184.68,274.11c-0.35-0.7-0.84-1.25-1.45-1.65s-1.31-0.6-2.09-0.6c-0.78,0-1.47,0.2-2.08,0.6c-0.61,0.4-1.1,0.95-1.45,1.65
		c-0.35,0.7-0.53,1.51-0.53,2.43s0.18,1.73,0.53,2.44c0.35,0.71,0.84,1.27,1.45,1.68c0.61,0.41,1.31,0.62,2.08,0.62
		c0.78,0,1.47-0.21,2.09-0.62s1.1-0.97,1.45-1.68c0.35-0.71,0.53-1.52,0.53-2.44S185.03,274.81,184.68,274.11z"/>
	<path class="st2" d="M189.68,287.78c0.29-0.31,0.62-0.46,1-0.46c0.4,0,0.73,0.15,1.01,0.46c0.28,0.31,0.41,0.68,0.41,1.12
		c0,0.42-0.14,0.79-0.41,1.11c-0.28,0.32-0.61,0.47-1.01,0.47c-0.38,0-0.71-0.16-1-0.47c-0.29-0.32-0.43-0.69-0.43-1.11
		C189.25,288.46,189.39,288.08,189.68,287.78z"/>
	<path class="st2" d="M196.45,274.64c0.57-1.55,1.36-2.77,2.37-3.67c1.01-0.89,2.18-1.34,3.51-1.34c1.33,0,2.5,0.45,3.51,1.34
		c1.01,0.89,1.8,2.11,2.37,3.67c0.57,1.55,0.85,3.33,0.85,5.35c0,2.01-0.29,3.79-0.85,5.35c-0.57,1.55-1.36,2.77-2.37,3.67
		c-1.01,0.89-2.18,1.34-3.51,1.34c-1.33,0-2.5-0.45-3.51-1.34c-1.01-0.89-1.8-2.11-2.37-3.67c-0.57-1.55-0.85-3.33-0.85-5.35
		C195.6,277.97,195.88,276.19,196.45,274.64z M198.11,283.22c0.21,0.99,0.51,1.84,0.91,2.56s0.88,1.27,1.44,1.67
		c0.56,0.39,1.19,0.59,1.88,0.59c0.71,0,1.34-0.2,1.89-0.59c0.55-0.39,1.03-0.95,1.42-1.67s0.7-1.57,0.91-2.56
		c0.21-0.99,0.31-2.06,0.31-3.23c0-1.17-0.1-2.25-0.31-3.23c-0.21-0.99-0.51-1.84-0.91-2.56s-0.87-1.27-1.42-1.67
		c-0.55-0.39-1.18-0.59-1.89-0.59c-0.69,0-1.32,0.2-1.88,0.59c-0.56,0.39-1.04,0.95-1.44,1.67s-0.7,1.57-0.91,2.56
		c-0.21,0.99-0.31,2.07-0.31,3.23C197.8,281.16,197.9,282.23,198.11,283.22z"/>
	<path class="st2" d="M211.99,274.64c0.57-1.55,1.36-2.77,2.37-3.67c1.01-0.89,2.18-1.34,3.51-1.34s2.5,0.45,3.51,1.34
		c1.01,0.89,1.8,2.11,2.37,3.67c0.57,1.55,0.86,3.33,0.86,5.35c0,2.01-0.29,3.79-0.86,5.35c-0.57,1.55-1.36,2.77-2.37,3.67
		c-1.01,0.89-2.18,1.34-3.51,1.34s-2.5-0.45-3.51-1.34c-1.01-0.89-1.8-2.11-2.37-3.67c-0.57-1.55-0.86-3.33-0.86-5.35
		C211.14,277.97,211.42,276.19,211.99,274.64z M213.65,283.22c0.21,0.99,0.51,1.84,0.91,2.56s0.88,1.27,1.44,1.67
		c0.56,0.39,1.19,0.59,1.88,0.59c0.71,0,1.34-0.2,1.89-0.59c0.55-0.39,1.03-0.95,1.43-1.67c0.4-0.72,0.7-1.57,0.91-2.56
		c0.21-0.99,0.31-2.06,0.31-3.23c0-1.17-0.1-2.25-0.31-3.23c-0.21-0.99-0.51-1.84-0.91-2.56c-0.4-0.72-0.87-1.27-1.43-1.67
		c-0.55-0.39-1.18-0.59-1.89-0.59c-0.69,0-1.32,0.2-1.88,0.59c-0.56,0.39-1.04,0.95-1.44,1.67s-0.7,1.57-0.91,2.56
		c-0.21,0.99-0.31,2.07-0.31,3.23C213.34,281.16,213.45,282.23,213.65,283.22z"/>
	<path class="st2" d="M191.24,317.48h16.84v2.34h-16.84V317.48z"/>
	<path class="st2" d="M169.92,343.36l6.22-1.72v20.41h-2.2v-17.48l-4.02,1.32V343.36z"/>
	<path class="st2" d="M183.11,362.05l5.67-8.31l0.16,0.14c-0.35,0.48-0.75,0.8-1.21,0.95c-0.46,0.15-0.98,0.23-1.57,0.23
		c-0.74,0-1.44-0.16-2.08-0.49c-0.65-0.33-1.22-0.79-1.71-1.38s-0.88-1.29-1.15-2.08s-0.41-1.65-0.41-2.57
		c0-1.38,0.27-2.59,0.82-3.62s1.28-1.84,2.22-2.42c0.93-0.57,1.98-0.86,3.13-0.86c1.17,0,2.22,0.29,3.15,0.86
		c0.92,0.58,1.66,1.38,2.2,2.42s0.82,2.24,0.82,3.62c0,0.82-0.1,1.59-0.31,2.3s-0.48,1.33-0.83,1.87l-6.11,9.34H183.11z
		 M190.51,346.11c-0.35-0.7-0.84-1.25-1.45-1.65s-1.31-0.6-2.08-0.6s-1.47,0.2-2.09,0.6s-1.1,0.95-1.45,1.65
		c-0.35,0.7-0.53,1.51-0.53,2.43s0.18,1.74,0.53,2.44c0.35,0.71,0.84,1.27,1.45,1.68s1.31,0.62,2.09,0.62s1.47-0.21,2.08-0.62
		s1.1-0.97,1.45-1.68c0.35-0.71,0.53-1.52,0.53-2.44S190.86,346.81,190.51,346.11z"/>
	<path class="st2" d="M195.51,359.78c0.28-0.31,0.62-0.46,1-0.46c0.4,0,0.73,0.15,1.01,0.46s0.41,0.68,0.41,1.12
		c0,0.42-0.14,0.79-0.41,1.11c-0.28,0.32-0.61,0.47-1.01,0.47c-0.38,0-0.71-0.16-1-0.47c-0.29-0.32-0.43-0.69-0.43-1.11
		C195.08,360.46,195.22,360.08,195.51,359.78z"/>
	<path class="st2" d="M202.28,346.64c0.57-1.55,1.36-2.77,2.37-3.67c1.01-0.89,2.18-1.34,3.51-1.34c1.33,0,2.5,0.45,3.51,1.34
		c1.01,0.89,1.8,2.11,2.37,3.67c0.57,1.55,0.85,3.33,0.85,5.35c0,2.01-0.29,3.79-0.85,5.35c-0.57,1.55-1.36,2.77-2.37,3.67
		c-1.01,0.89-2.18,1.34-3.51,1.34c-1.33,0-2.5-0.45-3.51-1.34s-1.8-2.11-2.37-3.67c-0.57-1.55-0.86-3.34-0.86-5.35
		C201.42,349.97,201.71,348.19,202.28,346.64z M203.94,355.22c0.21,0.99,0.51,1.84,0.91,2.56c0.4,0.72,0.88,1.27,1.44,1.67
		c0.56,0.39,1.19,0.59,1.88,0.59c0.71,0,1.34-0.2,1.89-0.59c0.55-0.39,1.03-0.95,1.42-1.67s0.7-1.57,0.91-2.56
		c0.21-0.99,0.31-2.07,0.31-3.23c0-1.17-0.1-2.25-0.31-3.23s-0.51-1.84-0.91-2.56s-0.87-1.28-1.42-1.67s-1.18-0.59-1.89-0.59
		c-0.69,0-1.32,0.2-1.88,0.59c-0.56,0.39-1.04,0.95-1.44,1.67c-0.4,0.72-0.7,1.57-0.91,2.56c-0.21,0.99-0.31,2.06-0.31,3.23
		C203.63,353.16,203.73,354.23,203.94,355.22z"/>
	<path class="st2" d="M217.82,346.64c0.57-1.55,1.36-2.77,2.37-3.67c1.01-0.89,2.18-1.34,3.51-1.34c1.33,0,2.5,0.45,3.51,1.34
		c1.01,0.89,1.8,2.11,2.37,3.67c0.57,1.55,0.85,3.33,0.85,5.35c0,2.01-0.29,3.79-0.85,5.35c-0.57,1.55-1.36,2.77-2.37,3.67
		c-1.01,0.89-2.18,1.34-3.51,1.34c-1.33,0-2.5-0.45-3.51-1.34c-1.01-0.89-1.8-2.11-2.37-3.67c-0.57-1.55-0.85-3.34-0.85-5.35
		C216.97,349.97,217.25,348.19,217.82,346.64z M219.48,355.22c0.21,0.99,0.51,1.84,0.91,2.56s0.88,1.27,1.44,1.67
		c0.56,0.39,1.19,0.59,1.88,0.59c0.71,0,1.34-0.2,1.89-0.59c0.55-0.39,1.03-0.95,1.42-1.67s0.7-1.57,0.91-2.56
		c0.21-0.99,0.31-2.07,0.31-3.23c0-1.17-0.1-2.25-0.31-3.23s-0.51-1.84-0.91-2.56s-0.87-1.28-1.42-1.67s-1.18-0.59-1.89-0.59
		c-0.69,0-1.32,0.2-1.88,0.59s-1.04,0.95-1.44,1.67s-0.7,1.57-0.91,2.56c-0.21,0.99-0.31,2.06-0.31,3.23
		C219.17,353.16,219.27,354.23,219.48,355.22z"/>
</g>
<g>
	<path class="st2" d="M165.6,438.61l6.74-1.87v22.11h-2.39v-18.94l-4.35,1.43V438.61z"/>
	<path class="st2" d="M178.04,442.16c0.62-1.68,1.47-3.01,2.57-3.97c1.09-0.97,2.36-1.45,3.8-1.45c1.44,0,2.71,0.48,3.8,1.45
		c1.09,0.96,1.95,2.29,2.57,3.97c0.62,1.68,0.93,3.61,0.93,5.79s-0.31,4.11-0.93,5.79c-0.62,1.68-1.47,3.01-2.57,3.97
		c-1.09,0.97-2.36,1.45-3.8,1.45c-1.44,0-2.71-0.48-3.8-1.45c-1.1-0.96-1.95-2.29-2.57-3.97s-0.93-3.61-0.93-5.79
		S177.42,443.84,178.04,442.16z M179.83,451.46c0.22,1.07,0.55,1.99,0.98,2.77c0.43,0.78,0.95,1.38,1.56,1.81
		c0.61,0.43,1.29,0.64,2.04,0.64c0.77,0,1.45-0.21,2.05-0.64c0.6-0.43,1.11-1.03,1.54-1.81c0.43-0.78,0.76-1.7,0.98-2.77
		c0.22-1.07,0.34-2.24,0.34-3.5c0-1.27-0.11-2.43-0.34-3.5c-0.22-1.07-0.55-1.99-0.98-2.77c-0.43-0.78-0.95-1.38-1.54-1.81
		c-0.6-0.43-1.28-0.64-2.05-0.64c-0.75,0-1.43,0.21-2.04,0.64c-0.61,0.43-1.13,1.03-1.56,1.81c-0.43,0.78-0.76,1.7-0.98,2.77
		c-0.22,1.07-0.34,2.24-0.34,3.5C179.5,449.22,179.61,450.39,179.83,451.46z"/>
	<path class="st2" d="M195.96,456.39c0.31-0.33,0.67-0.5,1.08-0.5c0.43,0,0.79,0.17,1.09,0.5c0.3,0.33,0.45,0.74,0.45,1.21
		c0,0.46-0.15,0.86-0.45,1.2c-0.3,0.34-0.66,0.51-1.09,0.51c-0.41,0-0.77-0.17-1.08-0.51c-0.31-0.34-0.46-0.74-0.46-1.2
		C195.49,457.13,195.65,456.73,195.96,456.39z"/>
	<path class="st2" d="M203.3,442.16c0.62-1.68,1.47-3.01,2.57-3.97c1.09-0.97,2.36-1.45,3.8-1.45c1.44,0,2.71,0.48,3.8,1.45
		c1.09,0.96,1.95,2.29,2.57,3.97c0.62,1.68,0.93,3.61,0.93,5.79s-0.31,4.11-0.93,5.79c-0.62,1.68-1.47,3.01-2.57,3.97
		c-1.09,0.97-2.36,1.45-3.8,1.45c-1.44,0-2.71-0.48-3.8-1.45c-1.09-0.96-1.95-2.29-2.57-3.97c-0.62-1.68-0.93-3.61-0.93-5.79
		S202.68,443.84,203.3,442.16z M205.09,451.46c0.22,1.07,0.55,1.99,0.98,2.77c0.43,0.78,0.95,1.38,1.56,1.81s1.29,0.64,2.04,0.64
		c0.77,0,1.45-0.21,2.05-0.64c0.6-0.43,1.11-1.03,1.54-1.81c0.43-0.78,0.76-1.7,0.98-2.77c0.22-1.07,0.34-2.24,0.34-3.5
		c0-1.27-0.11-2.43-0.34-3.5c-0.22-1.07-0.55-1.99-0.98-2.77c-0.43-0.78-0.94-1.38-1.54-1.81c-0.6-0.43-1.28-0.64-2.05-0.64
		c-0.75,0-1.43,0.21-2.04,0.64s-1.13,1.03-1.56,1.81c-0.43,0.78-0.76,1.7-0.98,2.77c-0.22,1.07-0.34,2.24-0.34,3.5
		C204.76,449.22,204.87,450.39,205.09,451.46z"/>
	<path class="st2" d="M220.14,442.16c0.62-1.68,1.47-3.01,2.57-3.97c1.09-0.97,2.36-1.45,3.8-1.45c1.44,0,2.71,0.48,3.8,1.45
		c1.09,0.96,1.95,2.29,2.57,3.97s0.93,3.61,0.93,5.79s-0.31,4.11-0.93,5.79s-1.47,3.01-2.57,3.97c-1.09,0.97-2.36,1.45-3.8,1.45
		c-1.44,0-2.71-0.48-3.8-1.45c-1.09-0.96-1.95-2.29-2.57-3.97s-0.93-3.61-0.93-5.79S219.52,443.84,220.14,442.16z M221.93,451.46
		c0.22,1.07,0.55,1.99,0.98,2.77c0.43,0.78,0.95,1.38,1.56,1.81c0.61,0.43,1.29,0.64,2.04,0.64c0.77,0,1.45-0.21,2.05-0.64
		s1.11-1.03,1.54-1.81c0.43-0.78,0.76-1.7,0.98-2.77c0.22-1.07,0.34-2.24,0.34-3.5c0-1.27-0.11-2.43-0.34-3.5
		c-0.22-1.07-0.55-1.99-0.98-2.77c-0.43-0.78-0.95-1.38-1.54-1.81s-1.28-0.64-2.05-0.64c-0.75,0-1.43,0.21-2.04,0.64
		c-0.61,0.43-1.13,1.03-1.56,1.81c-0.43,0.78-0.76,1.7-0.98,2.77c-0.22,1.07-0.34,2.24-0.34,3.5
		C221.6,449.22,221.71,450.39,221.93,451.46z"/>
	<path class="st2" d="M190.72,486.29h16.84v2.34h-16.84V486.29z"/>
	<path class="st2" d="M171.13,510.61l6.74-1.87v22.11h-2.39v-18.94l-4.35,1.43V510.61z"/>
	<path class="st2" d="M185.42,530.85l6.15-9l0.17,0.16c-0.37,0.52-0.81,0.86-1.3,1.03s-1.06,0.25-1.7,0.25
		c-0.8,0-1.56-0.18-2.26-0.53c-0.7-0.35-1.32-0.85-1.85-1.49c-0.53-0.64-0.95-1.4-1.25-2.26c-0.3-0.86-0.45-1.79-0.45-2.79
		c0-1.5,0.29-2.8,0.88-3.92c0.59-1.12,1.39-1.99,2.4-2.62c1.01-0.62,2.14-0.94,3.4-0.94c1.27,0,2.41,0.31,3.41,0.94
		c1,0.62,1.8,1.49,2.39,2.62s0.88,2.43,0.88,3.92c0,0.89-0.11,1.72-0.34,2.49c-0.22,0.77-0.52,1.44-0.9,2.03l-6.62,10.12H185.42z
		 M193.43,513.58c-0.38-0.76-0.91-1.36-1.57-1.79s-1.42-0.65-2.26-0.65s-1.6,0.22-2.26,0.65c-0.67,0.44-1.19,1.03-1.57,1.79
		s-0.58,1.63-0.58,2.63s0.19,1.88,0.58,2.65s0.91,1.38,1.57,1.82c0.66,0.45,1.42,0.67,2.26,0.67s1.6-0.22,2.26-0.67
		c0.66-0.45,1.19-1.05,1.57-1.82s0.58-1.65,0.58-2.65S193.82,514.34,193.43,513.58z"/>
	<path class="st2" d="M198.85,528.39c0.31-0.33,0.67-0.5,1.08-0.5c0.43,0,0.79,0.17,1.09,0.5c0.3,0.33,0.45,0.74,0.45,1.21
		c0,0.46-0.15,0.86-0.45,1.2c-0.3,0.34-0.66,0.51-1.09,0.51c-0.41,0-0.77-0.17-1.08-0.51c-0.31-0.34-0.46-0.74-0.46-1.2
		C198.39,529.13,198.54,528.73,198.85,528.39z"/>
	<path class="st2" d="M206.19,514.16c0.62-1.68,1.47-3.01,2.57-3.97c1.09-0.97,2.36-1.45,3.8-1.45c1.44,0,2.71,0.48,3.8,1.45
		c1.09,0.96,1.95,2.29,2.57,3.97c0.62,1.68,0.93,3.61,0.93,5.79s-0.31,4.11-0.93,5.79c-0.62,1.68-1.47,3.01-2.57,3.97
		c-1.09,0.97-2.36,1.45-3.8,1.45c-1.44,0-2.71-0.48-3.8-1.45c-1.09-0.96-1.95-2.29-2.57-3.97s-0.93-3.61-0.93-5.79
		S205.57,515.84,206.19,514.16z M207.98,523.46c0.22,1.07,0.55,1.99,0.98,2.77c0.43,0.78,0.95,1.38,1.56,1.81s1.29,0.64,2.04,0.64
		c0.77,0,1.45-0.21,2.05-0.64s1.11-1.03,1.54-1.81c0.43-0.78,0.76-1.7,0.98-2.77c0.22-1.07,0.34-2.24,0.34-3.5
		c0-1.27-0.11-2.43-0.34-3.5c-0.22-1.07-0.55-1.99-0.98-2.77c-0.43-0.78-0.95-1.38-1.54-1.81s-1.28-0.64-2.05-0.64
		c-0.75,0-1.43,0.21-2.04,0.64s-1.13,1.03-1.56,1.81c-0.43,0.78-0.76,1.7-0.98,2.77c-0.22,1.07-0.34,2.24-0.34,3.5
		C207.65,521.22,207.76,522.39,207.98,523.46z"/>
	<path class="st2" d="M223.03,514.16c0.62-1.68,1.47-3.01,2.57-3.97c1.09-0.97,2.36-1.45,3.8-1.45c1.44,0,2.71,0.48,3.8,1.45
		c1.1,0.96,1.95,2.29,2.57,3.97s0.93,3.61,0.93,5.79s-0.31,4.11-0.93,5.79s-1.47,3.01-2.57,3.97c-1.09,0.97-2.36,1.45-3.8,1.45
		c-1.44,0-2.71-0.48-3.8-1.45c-1.09-0.96-1.95-2.29-2.57-3.97c-0.62-1.68-0.93-3.61-0.93-5.79S222.41,515.84,223.03,514.16z
		 M224.82,523.46c0.22,1.07,0.55,1.99,0.98,2.77c0.43,0.78,0.95,1.38,1.56,1.81c0.61,0.43,1.29,0.64,2.03,0.64
		c0.77,0,1.45-0.21,2.05-0.64s1.11-1.03,1.54-1.81c0.43-0.78,0.76-1.7,0.98-2.77c0.22-1.07,0.34-2.24,0.34-3.5
		c0-1.27-0.11-2.43-0.34-3.5c-0.22-1.07-0.55-1.99-0.98-2.77c-0.43-0.78-0.95-1.38-1.54-1.81s-1.28-0.64-2.05-0.64
		c-0.75,0-1.43,0.21-2.03,0.64c-0.61,0.43-1.13,1.03-1.56,1.81c-0.43,0.78-0.76,1.7-0.98,2.77c-0.22,1.07-0.34,2.24-0.34,3.5
		C224.49,521.22,224.6,522.39,224.82,523.46z"/>
</g>
<g>
	<path class="st2" d="M173.16,104.96l6.15-9l0.17,0.16c-0.37,0.52-0.81,0.86-1.3,1.03c-0.5,0.17-1.06,0.25-1.7,0.25
		c-0.8,0-1.56-0.18-2.26-0.53c-0.7-0.35-1.32-0.85-1.85-1.5c-0.53-0.64-0.95-1.4-1.25-2.26c-0.3-0.86-0.45-1.79-0.45-2.79
		c0-1.5,0.29-2.8,0.88-3.92c0.59-1.12,1.39-1.99,2.4-2.62c1.01-0.62,2.14-0.93,3.4-0.93c1.27,0,2.41,0.31,3.41,0.93
		c1,0.62,1.8,1.49,2.39,2.62c0.59,1.12,0.88,2.43,0.88,3.92c0,0.89-0.11,1.72-0.34,2.49s-0.52,1.44-0.9,2.02l-6.62,10.12H173.16z
		 M181.18,87.69c-0.38-0.76-0.91-1.35-1.57-1.79c-0.67-0.44-1.42-0.65-2.26-0.65s-1.6,0.22-2.26,0.65s-1.19,1.03-1.57,1.79
		c-0.38,0.76-0.58,1.64-0.58,2.63s0.19,1.88,0.58,2.65c0.38,0.77,0.91,1.38,1.57,1.82c0.66,0.45,1.42,0.67,2.26,0.67
		s1.59-0.22,2.26-0.67c0.66-0.45,1.19-1.05,1.57-1.82c0.38-0.77,0.58-1.65,0.58-2.65S181.56,88.45,181.18,87.69z"/>
	<path class="st2" d="M186.59,102.5c0.31-0.33,0.67-0.5,1.08-0.5c0.43,0,0.79,0.17,1.09,0.5c0.3,0.33,0.45,0.74,0.45,1.21
		c0,0.46-0.15,0.86-0.45,1.2c-0.3,0.34-0.66,0.51-1.09,0.51c-0.41,0-0.77-0.17-1.08-0.51c-0.31-0.34-0.46-0.74-0.46-1.2
		C186.13,103.24,186.28,102.83,186.59,102.5z"/>
	<path class="st2" d="M193.93,88.27c0.62-1.68,1.47-3.01,2.57-3.97c1.09-0.97,2.36-1.45,3.8-1.45c1.44,0,2.71,0.48,3.8,1.45
		s1.95,2.29,2.57,3.97c0.62,1.68,0.93,3.61,0.93,5.79s-0.31,4.11-0.93,5.79c-0.62,1.68-1.47,3.01-2.57,3.97
		c-1.09,0.97-2.36,1.45-3.8,1.45c-1.44,0-2.71-0.48-3.8-1.45c-1.09-0.97-1.95-2.29-2.57-3.97c-0.62-1.68-0.93-3.61-0.93-5.79
		S193.31,89.95,193.93,88.27z M195.73,97.57c0.22,1.07,0.55,1.99,0.98,2.77c0.43,0.78,0.95,1.38,1.56,1.81
		c0.61,0.43,1.29,0.64,2.04,0.64c0.77,0,1.45-0.21,2.05-0.64c0.6-0.43,1.11-1.03,1.54-1.81c0.43-0.78,0.76-1.7,0.98-2.77
		c0.22-1.07,0.34-2.24,0.34-3.5c0-1.27-0.11-2.43-0.34-3.5c-0.22-1.07-0.55-1.99-0.98-2.77c-0.43-0.78-0.94-1.38-1.54-1.81
		c-0.6-0.43-1.28-0.64-2.05-0.64c-0.75,0-1.43,0.21-2.04,0.64s-1.13,1.03-1.56,1.81c-0.43,0.78-0.76,1.7-0.98,2.77
		c-0.22,1.07-0.34,2.24-0.34,3.5C195.39,95.33,195.5,96.5,195.73,97.57z"/>
	<path class="st2" d="M210.77,88.27c0.62-1.68,1.47-3.01,2.57-3.97s2.36-1.45,3.8-1.45c1.44,0,2.71,0.48,3.8,1.45
		c1.09,0.97,1.95,2.29,2.57,3.97c0.62,1.68,0.93,3.61,0.93,5.79s-0.31,4.11-0.93,5.79c-0.62,1.68-1.47,3.01-2.57,3.97
		c-1.09,0.97-2.36,1.45-3.8,1.45c-1.44,0-2.71-0.48-3.8-1.45c-1.09-0.97-1.95-2.29-2.57-3.97c-0.62-1.68-0.93-3.61-0.93-5.79
		S210.15,89.95,210.77,88.27z M212.57,97.57c0.22,1.07,0.55,1.99,0.98,2.77c0.43,0.78,0.95,1.38,1.56,1.81
		c0.61,0.43,1.29,0.64,2.04,0.64c0.77,0,1.45-0.21,2.05-0.64c0.6-0.43,1.11-1.03,1.54-1.81c0.43-0.78,0.76-1.7,0.98-2.77
		c0.22-1.07,0.34-2.24,0.34-3.5c0-1.27-0.11-2.43-0.34-3.5c-0.22-1.07-0.55-1.99-0.98-2.77c-0.43-0.78-0.95-1.38-1.54-1.81
		s-1.28-0.64-2.05-0.64c-0.75,0-1.43,0.21-2.04,0.64c-0.61,0.43-1.13,1.03-1.56,1.81c-0.43,0.78-0.76,1.7-0.98,2.77
		c-0.22,1.07-0.34,2.24-0.34,3.5C212.23,95.33,212.34,96.5,212.57,97.57z"/>
	<path class="st2" d="M188.99,132.4h16.84v2.34h-16.84V132.4z"/>
	<path class="st2" d="M174.02,165.97c0.43-0.52,0.8-1.03,1.11-1.54c0.31-0.51,0.54-1.03,0.7-1.56s0.24-1.08,0.24-1.67
		c0-0.48-0.08-0.94-0.25-1.4c-0.17-0.46-0.42-0.87-0.74-1.25c-0.33-0.37-0.72-0.67-1.19-0.9s-1-0.34-1.6-0.34
		c-0.84,0-1.57,0.21-2.17,0.64c-0.61,0.43-1.07,1.04-1.39,1.84c-0.32,0.8-0.48,1.75-0.48,2.85h-2.38c0-1.56,0.25-2.92,0.76-4.1
		c0.51-1.17,1.24-2.09,2.2-2.74c0.96-0.65,2.12-0.98,3.47-0.98c1.08,0,2.02,0.2,2.81,0.61s1.43,0.92,1.94,1.56
		c0.5,0.63,0.88,1.31,1.12,2.04c0.24,0.73,0.37,1.42,0.37,2.09c0,1.12-0.24,2.23-0.73,3.33c-0.49,1.1-1.11,2.09-1.88,2.96
		l-6.26,7.07h8.95v2.49h-13.86L174.02,165.97z"/>
	<path class="st2" d="M182.19,160.27c0.62-1.68,1.47-3.01,2.57-3.97s2.36-1.45,3.8-1.45c1.44,0,2.71,0.48,3.8,1.45
		c1.09,0.97,1.95,2.29,2.57,3.97c0.62,1.68,0.93,3.61,0.93,5.79s-0.31,4.11-0.93,5.79c-0.62,1.68-1.47,3.01-2.57,3.97
		c-1.09,0.97-2.36,1.45-3.8,1.45c-1.44,0-2.71-0.48-3.8-1.45c-1.09-0.97-1.95-2.29-2.57-3.97c-0.62-1.68-0.93-3.61-0.93-5.79
		S181.57,161.95,182.19,160.27z M183.98,169.57c0.22,1.07,0.55,1.99,0.98,2.77c0.43,0.78,0.95,1.38,1.56,1.81
		c0.61,0.43,1.29,0.64,2.04,0.64c0.77,0,1.45-0.21,2.05-0.64c0.6-0.43,1.11-1.03,1.54-1.81c0.43-0.78,0.76-1.7,0.98-2.77
		c0.22-1.07,0.34-2.24,0.34-3.5c0-1.27-0.11-2.43-0.34-3.5c-0.22-1.07-0.55-1.99-0.98-2.77c-0.43-0.78-0.95-1.38-1.54-1.81
		c-0.6-0.43-1.28-0.64-2.05-0.64c-0.75,0-1.43,0.21-2.04,0.64c-0.61,0.43-1.13,1.03-1.56,1.81c-0.43,0.78-0.76,1.7-0.98,2.77
		c-0.22,1.07-0.34,2.24-0.34,3.5C183.65,167.33,183.76,168.5,183.98,169.57z"/>
	<path class="st2" d="M200.11,174.5c0.31-0.33,0.67-0.5,1.08-0.5c0.43,0,0.79,0.17,1.09,0.5c0.3,0.33,0.45,0.74,0.45,1.21
		c0,0.46-0.15,0.86-0.45,1.2c-0.3,0.34-0.67,0.51-1.09,0.51c-0.41,0-0.77-0.17-1.08-0.51c-0.31-0.34-0.46-0.74-0.46-1.2
		C199.64,175.24,199.8,174.83,200.11,174.5z"/>
	<path class="st2" d="M207.44,160.27c0.62-1.68,1.47-3.01,2.57-3.97s2.36-1.45,3.8-1.45c1.44,0,2.71,0.48,3.8,1.45
		c1.1,0.97,1.95,2.29,2.57,3.97c0.62,1.68,0.93,3.61,0.93,5.79s-0.31,4.11-0.93,5.79c-0.62,1.68-1.47,3.01-2.57,3.97
		c-1.09,0.97-2.36,1.45-3.8,1.45c-1.44,0-2.71-0.48-3.8-1.45c-1.09-0.97-1.95-2.29-2.57-3.97c-0.62-1.68-0.93-3.61-0.93-5.79
		S206.83,161.95,207.44,160.27z M209.24,169.57c0.22,1.07,0.55,1.99,0.98,2.77c0.43,0.78,0.95,1.38,1.56,1.81
		c0.61,0.43,1.29,0.64,2.03,0.64c0.77,0,1.45-0.21,2.05-0.64c0.6-0.43,1.11-1.03,1.54-1.81c0.43-0.78,0.76-1.7,0.98-2.77
		c0.22-1.07,0.34-2.24,0.34-3.5c0-1.27-0.11-2.43-0.34-3.5c-0.22-1.07-0.55-1.99-0.98-2.77c-0.43-0.78-0.95-1.38-1.54-1.81
		s-1.28-0.64-2.05-0.64c-0.75,0-1.43,0.21-2.03,0.64c-0.61,0.43-1.13,1.03-1.56,1.81c-0.43,0.78-0.76,1.7-0.98,2.77
		c-0.22,1.07-0.34,2.24-0.34,3.5C208.9,167.33,209.02,168.5,209.24,169.57z"/>
	<path class="st2" d="M224.28,160.27c0.62-1.68,1.47-3.01,2.57-3.97c1.09-0.97,2.36-1.45,3.8-1.45c1.44,0,2.71,0.48,3.8,1.45
		s1.95,2.29,2.57,3.97c0.62,1.68,0.93,3.61,0.93,5.79s-0.31,4.11-0.93,5.79c-0.62,1.68-1.47,3.01-2.57,3.97
		c-1.09,0.97-2.36,1.45-3.8,1.45c-1.44,0-2.71-0.48-3.8-1.45c-1.09-0.97-1.95-2.29-2.57-3.97c-0.62-1.68-0.93-3.61-0.93-5.79
		S223.67,161.95,224.28,160.27z M226.08,169.57c0.22,1.07,0.55,1.99,0.98,2.77c0.43,0.78,0.95,1.38,1.56,1.81
		c0.61,0.43,1.29,0.64,2.04,0.64c0.77,0,1.45-0.21,2.05-0.64c0.6-0.43,1.11-1.03,1.54-1.81c0.43-0.78,0.76-1.7,0.98-2.77
		c0.22-1.07,0.34-2.24,0.34-3.5c0-1.27-0.11-2.43-0.34-3.5c-0.22-1.07-0.55-1.99-0.98-2.77c-0.43-0.78-0.94-1.38-1.54-1.81
		c-0.6-0.43-1.28-0.64-2.05-0.64c-0.75,0-1.43,0.21-2.04,0.64c-0.61,0.43-1.13,1.03-1.56,1.81c-0.43,0.78-0.76,1.7-0.98,2.77
		c-0.22,1.07-0.34,2.24-0.34,3.5C225.74,167.33,225.86,168.5,226.08,169.57z"/>
</g>
<g>
	<path class="st1" d="M154.69,514.19"/>
</g>
</svg>
