<?xml version="1.0" encoding="utf-8"?>
<!-- Generator: Adobe Illustrator 24.3.0, SVG Export Plug-In . SVG Version: 6.00 Build 0)  -->
<svg version="1.1" id="Layer_1" xmlns="http://www.w3.org/2000/svg" xmlns:xlink="http://www.w3.org/1999/xlink" x="0px" y="0px"
	 viewBox="0 0 577.22 595.28" style="enable-background:new 0 0 577.22 595.28;" xml:space="preserve">
<style type="text/css">
	.st0{fill:#F29104;}
	.st1{fill:#1E1E1C;}
	.st2{fill:none;stroke:#F29104;stroke-width:6.9433;stroke-miterlimit:10;}
	.st3{fill:#020203;}
	.st4{fill:#F29100;}
	.st5{fill:none;stroke:#F29100;stroke-width:5.5358;stroke-miterlimit:10;}
	.st6{fill:#1D1D1B;}
</style>
<g>
	<g>
		<path class="st0" d="M554.34,571.87H324.66V19.92h229.68V571.87z M332.43,564.11h214.15V27.68H332.43V564.11z"/>
	</g>
</g>
<g>
	<g>
		<rect x="436.17" y="24.69" class="st0" width="7.19" height="543.42"/>
	</g>
</g>
<g>
	<g>
		<rect x="329.06" y="97.83" class="st0" width="221.61" height="6.94"/>
	</g>
</g>
<g>
	<g>
		<path class="st1" d="M363.26,49.94V76.7h-3.31V46.49h21.58V76.7h-3.31V49.94H363.26z"/>
	</g>
	<g>
		<path class="st1" d="M391.06,46.49V76.7h-3.31V46.49H391.06z M389.58,58.57h18.67v3.45h-18.67V58.57z M409.34,46.49V76.7h-3.31
			V46.49H409.34z"/>
	</g>
</g>
<g>
	<g>
		<path class="st1" d="M369.09,455.91c0.84,1.59,1.94,2.83,3.3,3.72c1.36,0.9,2.83,1.34,4.42,1.34c1.15,0,2.21-0.17,3.16-0.5
			c0.96-0.33,1.83-0.8,2.61-1.4c0.78-0.6,1.45-1.3,2-2.09v4.3c-1.01,1-2.12,1.74-3.32,2.22c-1.2,0.48-2.69,0.73-4.46,0.73
			c-1.68,0-3.26-0.34-4.72-1.02c-1.46-0.68-2.75-1.64-3.85-2.88c-1.11-1.24-1.97-2.7-2.59-4.39s-0.93-3.53-0.93-5.52
			c0-2,0.31-3.84,0.93-5.52s1.49-3.15,2.59-4.39c1.11-1.24,2.39-2.2,3.85-2.88c1.46-0.68,3.04-1.02,4.72-1.02
			c1.77,0,3.26,0.24,4.46,0.73c1.2,0.49,2.3,1.23,3.32,2.22v4.3c-0.55-0.79-1.22-1.49-2-2.09c-0.78-0.6-1.65-1.07-2.61-1.4
			s-2.01-0.5-3.16-0.5c-1.59,0-3.07,0.45-4.42,1.34c-1.35,0.89-2.46,2.13-3.3,3.7s-1.26,3.41-1.26,5.5
			C367.83,452.49,368.25,454.32,369.09,455.91z"/>
	</g>
	<g>
		<path class="st1" d="M402.74,437v3.07h-10.02v23.78h-2.94V437H402.74z M391.4,447.74h4.94c1.57,0,2.97,0.33,4.2,0.98
			c1.23,0.65,2.21,1.58,2.94,2.78s1.09,2.63,1.09,4.29c0,1.64-0.36,3.06-1.09,4.28c-0.73,1.21-1.71,2.15-2.94,2.8
			s-2.63,0.98-4.2,0.98h-4.94v-3.07h4.94c1.04,0,1.95-0.18,2.75-0.56c0.79-0.37,1.42-0.93,1.87-1.67c0.45-0.74,0.67-1.66,0.67-2.76
			s-0.22-2.02-0.67-2.76c-0.45-0.74-1.07-1.3-1.87-1.67c-0.8-0.37-1.71-0.56-2.75-0.56h-4.94V447.74z"/>
	</g>
</g>
<g>
	<g>
		<path class="st1" d="M364.25,512.49v26.85h-2.94v-26.85H364.25z M362.94,523.23h16.59v3.07h-16.59V523.23z M380.5,512.49v26.85
			h-2.94v-26.85H380.5z"/>
	</g>
	<g>
		<path class="st1" d="M387.24,539.34v4.22h-2.59v-7.29h24.54v7.29h-2.59v-4.22H387.24z M390.18,538.19h-3.11l9.85-27.04l9.85,27.04
			h-3.11l-6.74-19.64L390.18,538.19z"/>
	</g>
</g>
<g>
	<g>
		<path class="st2" d="M479.31,20.46"/>
	</g>
</g>
<g>
	<g>
		<rect x="328.88" y="175.15" class="st0" width="221.61" height="6.94"/>
	</g>
</g>
<g>
	<g>
		<rect x="328.88" y="252.64" class="st0" width="221.61" height="6.94"/>
	</g>
</g>
<g>
	<g>
		<rect x="328.51" y="174.8" class="st0" width="221.61" height="6.94"/>
	</g>
</g>
<g>
	<g>
		<rect x="328.88" y="331.34" class="st0" width="221.61" height="6.94"/>
	</g>
</g>
<g>
	<g>
		<rect x="328.51" y="253.5" class="st0" width="221.61" height="6.94"/>
	</g>
</g>
<g>
	<g>
		<rect x="328.88" y="408.83" class="st0" width="221.61" height="6.94"/>
	</g>
</g>
<g>
	<g>
		<rect x="328.51" y="330.99" class="st0" width="221.61" height="6.94"/>
	</g>
</g>
<g>
	<g>
		<rect x="328.88" y="486.32" class="st0" width="221.61" height="6.94"/>
	</g>
</g>
<g>
	<g>
		<rect x="328.51" y="408.48" class="st0" width="221.61" height="6.94"/>
	</g>
</g>
<g>
	<g>
		<path class="st2" d="M548.75,568.55"/>
	</g>
</g>
<g>
	<g>
		<rect x="328.77" y="487.24" class="st0" width="221.61" height="6.94"/>
	</g>
</g>
<g>
	<g>
		<path class="st1" d="M371.05,137.35h4.39c0.91,0,1.72-0.17,2.45-0.52c0.73-0.35,1.3-0.85,1.71-1.51c0.41-0.66,0.62-1.47,0.62-2.42
			c0-1.44-0.45-2.55-1.36-3.34c-0.91-0.79-2.05-1.19-3.42-1.19h-3.69v23.73h4.08c1.17,0,2.2-0.23,3.09-0.69
			c0.89-0.46,1.59-1.12,2.1-1.99c0.51-0.86,0.76-1.91,0.76-3.15c0-0.92-0.14-1.74-0.43-2.46s-0.69-1.32-1.22-1.81
			c-0.53-0.49-1.16-0.86-1.89-1.1c-0.73-0.24-1.53-0.37-2.41-0.37h-4.78v-2.03h4.78c1.32,0,2.54,0.16,3.66,0.47
			c1.11,0.32,2.09,0.8,2.94,1.45c0.84,0.65,1.5,1.47,1.96,2.48c0.47,1.01,0.7,2.2,0.7,3.58c0,1.98-0.41,3.63-1.23,4.94
			s-1.92,2.29-3.3,2.93c-1.39,0.65-2.96,0.97-4.72,0.97h-7.39v-30.21h7c1.63,0,3.05,0.27,4.26,0.82s2.14,1.37,2.82,2.48
			c0.67,1.11,1.01,2.52,1.01,4.25c0,1.41-0.34,2.62-1.01,3.62c-0.67,1.01-1.61,1.77-2.82,2.29c-1.21,0.52-2.62,0.78-4.26,0.78h-4.39
			v-2H371.05z"/>
	</g>
	<g>
		<path class="st1" d="M386.26,125.14h17.3v3.45h-7v26.75h-3.3v-26.75h-7C386.26,128.59,386.26,125.14,386.26,125.14z"/>
	</g>
</g>
<g>
	<g>
		<path class="st3" d="M367.15,225.83c0.95,1.78,2.18,3.18,3.71,4.19c1.53,1.01,3.19,1.51,4.98,1.51c1.3,0,2.48-0.19,3.56-0.56
			c1.08-0.37,2.05-0.9,2.94-1.58c0.88-0.68,1.63-1.46,2.26-2.35v4.83c-1.14,1.12-2.39,1.96-3.73,2.5c-1.35,0.55-3.02,0.82-5.02,0.82
			c-1.89,0-3.66-0.38-5.31-1.14s-3.09-1.84-4.34-3.24c-1.24-1.4-2.22-3.04-2.92-4.94c-0.7-1.9-1.05-3.97-1.05-6.21
			s0.35-4.31,1.05-6.21c0.7-1.9,1.67-3.55,2.92-4.94c1.24-1.4,2.69-2.47,4.34-3.24c1.65-0.76,3.42-1.14,5.31-1.14
			c2,0,3.67,0.27,5.02,0.82c1.35,0.55,2.59,1.38,3.73,2.5v4.83c-0.62-0.89-1.37-1.68-2.26-2.35c-0.88-0.68-1.86-1.2-2.94-1.57
			c-1.08-0.37-2.26-0.56-3.56-0.56c-1.79,0-3.45,0.5-4.98,1.51c-1.53,1.01-2.77,2.4-3.71,4.16c-0.95,1.77-1.42,3.83-1.42,6.19
			C365.73,221.99,366.2,224.05,367.15,225.83z"/>
	</g>
	<g>
		<path class="st3" d="M393.72,204.56v30.21h-3.31v-30.21H393.72z M392.25,204.56h5.56c1.76,0,3.34,0.37,4.72,1.1
			c1.39,0.73,2.49,1.78,3.31,3.13s1.22,2.96,1.22,4.83c0,1.84-0.41,3.45-1.22,4.81c-0.82,1.37-1.92,2.42-3.31,3.15
			s-2.96,1.1-4.72,1.1h-5.56v-3.45h5.56c1.76,0,3.19-0.48,4.3-1.42c1.1-0.95,1.65-2.34,1.65-4.19c0-1.87-0.55-3.27-1.65-4.21
			c-1.1-0.93-2.53-1.4-4.3-1.4h-5.56V204.56z"/>
	</g>
</g>
<g>
	<g>
		<path class="st3" d="M369.87,290.07c0,1.29,0.19,2.47,0.56,3.54c0.38,1.06,0.94,1.91,1.69,2.55c0.75,0.63,1.69,0.95,2.8,0.95v3.24
			c-1.79,0-3.29-0.45-4.51-1.36c-1.22-0.91-2.13-2.14-2.74-3.69c-0.61-1.55-0.91-3.29-0.91-5.22v-7.85h3.11V290.07z M374.92,297.1
			h8.44v3.24h-8.44V297.1z M384.45,282.21v30.21h-3.31v-30.21H384.45z"/>
	</g>
	<g>
		<path class="st3" d="M387.95,282.21h17.3v3.45h-7v26.75h-3.3v-26.75h-7V282.21z"/>
	</g>
</g>
<g>
	<g>
		<path class="st3" d="M368.12,363.39v26.75h-3.31v-30.21h21.58v30.21h-3.31v-26.75H368.12z"/>
	</g>
	<g>
		<path class="st3" d="M389.89,359.94h17.3v3.45h-7v26.75h-3.31v-26.75h-7v-3.45H389.89z"/>
	</g>
</g>
<g>
	<g>
		<path class="st1" d="M475.36,61.93c0.4-0.48,0.75-0.96,1.04-1.44c0.29-0.47,0.51-0.96,0.65-1.45c0.15-0.49,0.22-1.01,0.22-1.55
			c0-0.45-0.08-0.88-0.24-1.31c-0.16-0.43-0.39-0.81-0.69-1.16c-0.3-0.35-0.68-0.63-1.11-0.84c-0.44-0.21-0.93-0.32-1.49-0.32
			c-0.79,0-1.46,0.2-2.03,0.6c-0.57,0.4-1,0.97-1.3,1.71c-0.3,0.75-0.45,1.63-0.45,2.66h-2.23c0-1.45,0.24-2.73,0.71-3.82
			c0.47-1.09,1.16-1.95,2.05-2.56c0.9-0.61,1.98-0.92,3.23-0.92c1.01,0,1.89,0.19,2.62,0.57c0.73,0.38,1.33,0.86,1.81,1.45
			c0.47,0.59,0.82,1.23,1.05,1.9s0.34,1.33,0.34,1.95c0,1.05-0.23,2.08-0.68,3.11c-0.46,1.03-1.04,1.95-1.75,2.76l-5.84,6.6h8.35
			v2.32h-12.94L475.36,61.93z"/>
	</g>
	<g>
		<path class="st1" d="M482.98,56.62c0.58-1.57,1.38-2.8,2.4-3.71c1.02-0.9,2.2-1.35,3.55-1.35c1.34,0,2.53,0.45,3.55,1.35
			c1.02,0.9,1.82,2.14,2.4,3.71c0.58,1.57,0.86,3.37,0.86,5.41c0,2.03-0.29,3.84-0.86,5.4s-1.38,2.8-2.4,3.71
			c-1.02,0.9-2.21,1.35-3.55,1.35s-2.53-0.45-3.55-1.35c-1.02-0.9-1.82-2.14-2.4-3.71c-0.58-1.57-0.86-3.37-0.86-5.4
			C482.11,59.99,482.4,58.18,482.98,56.62z M484.65,65.29c0.21,1,0.51,1.86,0.92,2.59c0.4,0.73,0.89,1.29,1.45,1.69
			c0.57,0.4,1.2,0.6,1.9,0.6c0.72,0,1.35-0.2,1.91-0.6s1.04-0.96,1.44-1.69s0.71-1.59,0.92-2.59c0.21-1,0.31-2.09,0.31-3.27
			s-0.1-2.27-0.31-3.27c-0.21-1-0.52-1.86-0.92-2.59s-0.88-1.29-1.44-1.69c-0.56-0.4-1.2-0.6-1.91-0.6c-0.7,0-1.33,0.2-1.9,0.6
			c-0.57,0.4-1.05,0.96-1.45,1.69c-0.4,0.73-0.71,1.59-0.92,2.59s-0.31,2.09-0.31,3.27S484.45,64.29,484.65,65.29z"/>
	</g>
	<g>
		<path class="st1" d="M500.42,72.19l5.74-8.4l0.16,0.15c-0.35,0.48-0.75,0.8-1.22,0.96c-0.46,0.16-0.99,0.23-1.58,0.23
			c-0.75,0-1.45-0.16-2.11-0.49c-0.66-0.33-1.23-0.79-1.73-1.4c-0.5-0.6-0.89-1.3-1.17-2.11c-0.28-0.8-0.42-1.67-0.42-2.6
			c0-1.4,0.27-2.62,0.82-3.66c0.55-1.05,1.3-1.86,2.24-2.44c0.94-0.58,2-0.87,3.17-0.87c1.19,0,2.25,0.29,3.18,0.87
			c0.93,0.58,1.68,1.4,2.23,2.44c0.55,1.05,0.82,2.27,0.82,3.66c0,0.83-0.1,1.61-0.31,2.32c-0.21,0.72-0.49,1.35-0.84,1.89
			l-6.18,9.44L500.42,72.19L500.42,72.19z M507.89,56.08c-0.36-0.71-0.85-1.26-1.47-1.67s-1.32-0.61-2.11-0.61s-1.49,0.2-2.11,0.61
			s-1.11,0.96-1.47,1.67c-0.36,0.71-0.54,1.53-0.54,2.46s0.18,1.75,0.54,2.47c0.36,0.72,0.85,1.28,1.47,1.7
			c0.62,0.42,1.32,0.62,2.11,0.62s1.49-0.21,2.11-0.62c0.62-0.42,1.11-0.98,1.47-1.7c0.36-0.72,0.54-1.54,0.54-2.47
			S508.25,56.79,507.89,56.08z"/>
	</g>
	<g>
		<path class="st1" d="M528.23,58.82V61h-4.32v11.19h-2.09V58.82H528.23z"/>
	</g>
</g>
<g>
	<g>
		<path class="st1" d="M470.02,130.79l6.29-1.74v20.63h-2.23v-17.67l-4.06,1.34V130.79z"/>
	</g>
	<g>
		<path class="st1" d="M481.61,141.68c0.3-0.73,0.72-1.34,1.26-1.83c0.53-0.49,1.14-0.87,1.83-1.12s1.41-0.38,2.16-0.38
			s1.47,0.13,2.16,0.38s1.3,0.62,1.83,1.12s0.95,1.1,1.26,1.83c0.3,0.73,0.46,1.55,0.46,2.48c0,0.79-0.14,1.54-0.43,2.24
			s-0.69,1.32-1.2,1.86c-0.52,0.54-1.12,0.96-1.81,1.26c-0.69,0.3-1.44,0.45-2.26,0.45c-0.82,0-1.58-0.15-2.27-0.45
			s-1.29-0.72-1.81-1.26c-0.51-0.54-0.92-1.16-1.2-1.86s-0.43-1.44-0.43-2.24C481.15,143.23,481.3,142.4,481.61,141.68z
			 M482.47,131.62c0.45-0.78,1.05-1.41,1.81-1.87c0.76-0.46,1.62-0.7,2.58-0.7c0.96,0,1.82,0.23,2.58,0.7s1.36,1.09,1.81,1.87
			s0.67,1.66,0.67,2.63c0,0.79-0.12,1.51-0.37,2.14s-0.59,1.17-1.04,1.61c-0.45,0.45-0.98,0.78-1.6,1.02
			c-0.62,0.23-1.31,0.35-2.06,0.35s-1.44-0.12-2.06-0.35c-0.62-0.23-1.15-0.57-1.6-1.02s-0.79-0.98-1.03-1.61s-0.37-1.34-0.37-2.14
			C481.8,133.28,482.02,132.41,482.47,131.62z M483.78,145.99c0.34,0.58,0.79,1.03,1.34,1.34s1.13,0.47,1.74,0.47
			c0.61,0,1.19-0.15,1.74-0.47c0.55-0.31,1-0.76,1.33-1.34c0.34-0.58,0.51-1.29,0.51-2.12c0-0.74-0.17-1.4-0.51-1.99
			c-0.34-0.59-0.79-1.06-1.33-1.41c-0.55-0.35-1.13-0.52-1.74-0.52c-0.61,0-1.19,0.17-1.74,0.52s-1,0.82-1.34,1.41
			s-0.51,1.25-0.51,1.99C483.27,144.7,483.44,145.41,483.78,145.99z M484.33,136.23c0.27,0.48,0.63,0.86,1.07,1.13
			c0.45,0.27,0.93,0.41,1.45,0.41s1.01-0.14,1.45-0.41c0.45-0.27,0.8-0.65,1.07-1.13c0.27-0.48,0.41-1.05,0.41-1.69
			s-0.13-1.21-0.38-1.71s-0.6-0.9-1.03-1.18c-0.44-0.28-0.94-0.42-1.52-0.42c-0.56,0-1.06,0.14-1.51,0.42
			c-0.45,0.28-0.79,0.67-1.05,1.18c-0.25,0.5-0.38,1.08-0.38,1.71S484.06,135.74,484.33,136.23z"/>
	</g>
	<g>
		<path class="st1" d="M496.1,130.79l6.28-1.74v20.63h-2.23v-17.67l-4.06,1.34L496.1,130.79L496.1,130.79z"/>
	</g>
	<g>
		<path class="st1" d="M522.15,136.31v2.18h-4.32v11.19h-2.09v-13.37H522.15z"/>
	</g>
</g>
<g>
	<g>
		<path class="st1" d="M467.32,207.07l6.29-1.74v20.63h-2.23v-17.67l-4.06,1.34V207.07z"/>
	</g>
	<g>
		<path class="st1" d="M490.23,222.33c-0.33,0.87-0.79,1.6-1.39,2.18c-0.59,0.58-1.27,1.02-2.04,1.31c-0.77,0.29-1.6,0.44-2.49,0.44
			c-1.12,0-2.09-0.19-2.92-0.58c-0.83-0.39-1.54-0.91-2.12-1.55c-0.58-0.65-1.08-1.36-1.48-2.14l1.88-1.42
			c0.28,0.58,0.65,1.13,1.11,1.64c0.46,0.51,1,0.93,1.61,1.25s1.25,0.48,1.91,0.48c0.87,0,1.62-0.19,2.23-0.58
			c0.61-0.39,1.08-0.93,1.4-1.63c0.32-0.7,0.48-1.51,0.48-2.44c0-0.93-0.18-1.74-0.54-2.44c-0.36-0.7-0.85-1.24-1.47-1.63
			s-1.32-0.58-2.11-0.58c-0.58,0-1.1,0.05-1.58,0.16c-0.48,0.11-0.96,0.29-1.44,0.55c-0.48,0.26-1.04,0.63-1.66,1.12l2.41-10.84
			h8.64v2.18h-6.91l-1.23,5.38c0.44-0.25,0.89-0.44,1.35-0.57c0.46-0.13,0.92-0.19,1.38-0.19c1.05,0,1.99,0.29,2.81,0.87
			c0.83,0.58,1.48,1.39,1.95,2.41c0.47,1.03,0.71,2.22,0.71,3.57C490.73,220.44,490.56,221.46,490.23,222.33z"/>
	</g>
	<g>
		<path class="st1" d="M496.77,225.82c-0.72-0.29-1.33-0.69-1.83-1.21c-0.51-0.51-0.9-1.11-1.18-1.8s-0.42-1.43-0.42-2.22h2.25
			c0,0.64,0.15,1.21,0.46,1.71c0.3,0.5,0.73,0.9,1.27,1.19c0.54,0.29,1.16,0.44,1.86,0.44s1.3-0.15,1.82-0.45s0.91-0.72,1.19-1.26
			s0.42-1.18,0.42-1.92c0-0.62-0.11-1.17-0.33-1.64s-0.52-0.87-0.9-1.19c-0.38-0.32-0.83-0.56-1.33-0.71
			c-0.51-0.16-1.06-0.23-1.65-0.23v-1.6c0.89,0,1.72,0.11,2.5,0.32c0.78,0.21,1.47,0.55,2.07,1c0.6,0.46,1.07,1.04,1.41,1.76
			c0.34,0.72,0.51,1.58,0.51,2.59c0,1.14-0.25,2.14-0.75,2.99s-1.17,1.51-2.03,1.98s-1.83,0.7-2.93,0.7
			C498.29,226.25,497.49,226.11,496.77,225.82z M498.4,214.34c0.59,0,1.12-0.09,1.57-0.28c0.45-0.18,0.84-0.44,1.15-0.76
			c0.31-0.32,0.55-0.69,0.72-1.12s0.25-0.88,0.25-1.37c0-0.64-0.1-1.21-0.31-1.7c-0.21-0.49-0.52-0.88-0.93-1.15
			c-0.41-0.27-0.92-0.41-1.53-0.41c-0.86,0-1.58,0.3-2.17,0.89c-0.59,0.59-0.89,1.33-0.89,2.22h-2.12c0-1.06,0.22-2,0.67-2.79
			c0.45-0.79,1.06-1.42,1.83-1.87c0.78-0.46,1.66-0.68,2.66-0.68c1.05,0,1.95,0.25,2.71,0.76c0.76,0.5,1.34,1.16,1.75,1.98
			c0.41,0.81,0.62,1.71,0.62,2.67c0,0.95-0.25,1.82-0.76,2.62c-0.51,0.79-1.2,1.42-2.09,1.89c-0.89,0.46-1.93,0.7-3.12,0.7v-1.6
			H498.4z"/>
	</g>
	<g>
		<path class="st1" d="M522.44,212.59v2.18h-4.32v11.19h-2.09v-13.37H522.44z"/>
	</g>
</g>
<g>
	<g>
		<path class="st1" d="M469.72,285.77l6.29-1.74v20.63h-2.23v-17.67l-4.06,1.34V285.77z"/>
	</g>
	<g>
		<path class="st1" d="M488.6,294.4c0.4-0.48,0.75-0.96,1.03-1.44c0.29-0.47,0.51-0.96,0.65-1.45c0.15-0.49,0.22-1.01,0.22-1.55
			c0-0.45-0.08-0.88-0.24-1.31c-0.16-0.43-0.39-0.81-0.69-1.16c-0.3-0.35-0.68-0.63-1.11-0.84c-0.44-0.21-0.93-0.32-1.49-0.32
			c-0.79,0-1.46,0.2-2.03,0.6c-0.57,0.4-1,0.97-1.3,1.71c-0.3,0.75-0.45,1.63-0.45,2.66h-2.23c0-1.45,0.24-2.73,0.71-3.82
			c0.47-1.09,1.16-1.95,2.06-2.56c0.9-0.61,1.98-0.92,3.23-0.92c1.01,0,1.89,0.19,2.62,0.57s1.34,0.86,1.81,1.45
			c0.47,0.59,0.82,1.23,1.05,1.9c0.23,0.68,0.34,1.33,0.34,1.95c0,1.05-0.23,2.08-0.68,3.11c-0.45,1.03-1.04,1.95-1.75,2.76
			l-5.84,6.6h8.35v2.32h-12.94L488.6,294.4z"/>
	</g>
	<g>
		<path class="st1" d="M496.4,285.77l6.28-1.74v20.63h-2.23v-17.67l-4.06,1.34L496.4,285.77L496.4,285.77z"/>
	</g>
	<g>
		<path class="st1" d="M522.45,291.3v2.18h-4.32v11.19h-2.09V291.3H522.45z"/>
	</g>
</g>
<g>
	<g>
		<path class="st3" d="M477.43,380.42l5.73-8.4l0.16,0.14c-0.35,0.49-0.75,0.8-1.22,0.96c-0.46,0.16-0.99,0.23-1.58,0.23
			c-0.75,0-1.45-0.16-2.11-0.49c-0.65-0.33-1.23-0.79-1.73-1.4c-0.5-0.6-0.89-1.3-1.17-2.11c-0.28-0.81-0.42-1.67-0.42-2.6
			c0-1.39,0.28-2.62,0.83-3.66c0.55-1.04,1.3-1.86,2.24-2.44c0.94-0.58,2-0.87,3.17-0.87c1.19,0,2.25,0.29,3.18,0.87
			s1.68,1.4,2.23,2.44c0.55,1.05,0.83,2.27,0.83,3.66c0,0.83-0.1,1.61-0.31,2.32c-0.21,0.72-0.49,1.35-0.84,1.89l-6.18,9.45
			L477.43,380.42L477.43,380.42z M484.9,364.3c-0.36-0.71-0.85-1.26-1.47-1.67s-1.32-0.61-2.11-0.61c-0.79,0-1.49,0.2-2.11,0.61
			c-0.62,0.41-1.11,0.96-1.47,1.67c-0.36,0.71-0.54,1.53-0.54,2.46s0.18,1.75,0.54,2.47s0.85,1.28,1.47,1.7s1.32,0.62,2.11,0.62
			c0.79,0,1.49-0.21,2.11-0.62c0.62-0.42,1.11-0.98,1.47-1.7s0.54-1.54,0.54-2.47S485.26,365.01,484.9,364.3z"/>
	</g>
	<g>
		<path class="st3" d="M490.96,361.53l6.29-1.74v20.63h-2.23v-17.67l-4.06,1.34V361.53z"/>
	</g>
	<g>
		<path class="st3" d="M517.02,367.05v2.18h-4.32v11.19h-2.09v-13.37H517.02z"/>
	</g>
</g>
<g>
	<g>
		<path class="st1" d="M483.98,456.01c-0.33,0.87-0.79,1.6-1.39,2.18c-0.59,0.58-1.28,1.02-2.04,1.31c-0.77,0.29-1.6,0.44-2.49,0.44
			c-1.12,0-2.09-0.19-2.92-0.58c-0.83-0.39-1.54-0.91-2.12-1.55c-0.58-0.64-1.08-1.36-1.48-2.14l1.88-1.42
			c0.28,0.58,0.65,1.13,1.11,1.64c0.46,0.51,1,0.93,1.61,1.25s1.25,0.48,1.91,0.48c0.87,0,1.61-0.19,2.23-0.58
			c0.61-0.39,1.08-0.93,1.4-1.63c0.32-0.7,0.48-1.51,0.48-2.44s-0.18-1.74-0.54-2.44c-0.36-0.7-0.85-1.24-1.47-1.63
			s-1.32-0.58-2.11-0.58c-0.58,0-1.1,0.05-1.58,0.16c-0.48,0.11-0.96,0.29-1.44,0.55c-0.48,0.26-1.04,0.63-1.66,1.12l2.41-10.84
			h8.64v2.18h-6.91l-1.23,5.38c0.44-0.25,0.89-0.44,1.35-0.57c0.46-0.13,0.92-0.19,1.38-0.19c1.05,0,1.99,0.29,2.81,0.87
			c0.83,0.58,1.48,1.39,1.95,2.41c0.47,1.03,0.71,2.22,0.71,3.57C484.48,454.12,484.32,455.14,483.98,456.01z"/>
	</g>
	<g>
		<path class="st1" d="M498.75,456.01c-0.33,0.87-0.79,1.6-1.39,2.18c-0.59,0.58-1.27,1.02-2.04,1.31s-1.6,0.44-2.49,0.44
			c-1.12,0-2.09-0.19-2.92-0.58s-1.54-0.91-2.12-1.55s-1.08-1.36-1.48-2.14l1.89-1.42c0.28,0.58,0.65,1.13,1.11,1.64
			c0.46,0.51,1,0.93,1.61,1.25s1.25,0.48,1.91,0.48c0.87,0,1.61-0.19,2.23-0.58c0.61-0.39,1.08-0.93,1.4-1.63s0.48-1.51,0.48-2.44
			s-0.18-1.74-0.54-2.44c-0.36-0.7-0.85-1.24-1.47-1.63s-1.32-0.58-2.11-0.58c-0.58,0-1.1,0.05-1.58,0.16
			c-0.48,0.11-0.96,0.29-1.44,0.55c-0.48,0.26-1.03,0.63-1.66,1.12l2.41-10.84h8.64v2.18h-6.91l-1.23,5.38
			c0.44-0.25,0.89-0.44,1.35-0.57c0.46-0.13,0.92-0.19,1.38-0.19c1.05,0,1.99,0.29,2.82,0.87c0.83,0.58,1.48,1.39,1.95,2.41
			c0.47,1.03,0.71,2.22,0.71,3.57C499.25,454.12,499.08,455.14,498.75,456.01z"/>
	</g>
	<g>
		<path class="st1" d="M516.66,446.28v2.18h-4.32v11.19h-2.09v-13.37H516.66z"/>
	</g>
</g>
<g>
	<g>
		<path class="st3" d="M482.27,527.77c0.4-0.48,0.75-0.96,1.03-1.44c0.29-0.47,0.51-0.96,0.65-1.45c0.15-0.49,0.22-1.01,0.22-1.55
			c0-0.45-0.08-0.88-0.24-1.31s-0.39-0.81-0.69-1.16s-0.68-0.63-1.11-0.84c-0.44-0.21-0.93-0.32-1.49-0.32
			c-0.79,0-1.46,0.2-2.03,0.6s-1,0.97-1.3,1.71c-0.3,0.74-0.45,1.63-0.45,2.66h-2.23c0-1.45,0.24-2.73,0.71-3.82
			s1.16-1.95,2.06-2.56s1.98-0.91,3.23-0.91c1.01,0,1.89,0.19,2.62,0.57c0.73,0.38,1.33,0.86,1.81,1.45
			c0.47,0.59,0.82,1.22,1.05,1.9c0.23,0.68,0.34,1.33,0.34,1.95c0,1.05-0.23,2.08-0.68,3.11s-1.04,1.95-1.75,2.76l-5.84,6.6h8.35
			v2.32H473.6L482.27,527.77z"/>
	</g>
	<g>
		<path class="st3" d="M492.98,537.88c-0.72-0.29-1.33-0.69-1.83-1.21c-0.51-0.51-0.9-1.11-1.18-1.8s-0.42-1.43-0.42-2.22h2.25
			c0,0.64,0.15,1.21,0.46,1.71s0.73,0.9,1.27,1.19c0.54,0.29,1.16,0.44,1.86,0.44s1.3-0.15,1.82-0.45s0.91-0.72,1.19-1.26
			c0.28-0.54,0.42-1.18,0.42-1.92c0-0.62-0.11-1.17-0.33-1.64c-0.22-0.47-0.52-0.87-0.9-1.19s-0.83-0.56-1.34-0.71
			c-0.51-0.16-1.06-0.23-1.65-0.23v-1.6c0.89,0,1.72,0.11,2.5,0.32s1.47,0.55,2.07,1c0.6,0.46,1.07,1.04,1.41,1.76
			c0.34,0.72,0.51,1.58,0.51,2.59c0,1.14-0.25,2.14-0.75,2.99s-1.17,1.51-2.03,1.98c-0.86,0.46-1.83,0.7-2.93,0.7
			C494.5,538.32,493.7,538.17,492.98,537.88z M494.6,526.4c0.59,0,1.12-0.09,1.57-0.28c0.45-0.18,0.84-0.44,1.15-0.76
			s0.55-0.69,0.72-1.12s0.25-0.88,0.25-1.37c0-0.64-0.11-1.21-0.31-1.7s-0.52-0.88-0.93-1.15s-0.92-0.41-1.53-0.41
			c-0.86,0-1.58,0.3-2.17,0.89c-0.59,0.59-0.89,1.33-0.89,2.22h-2.12c0-1.06,0.22-2,0.67-2.79c0.45-0.79,1.06-1.42,1.83-1.88
			s1.66-0.68,2.66-0.68c1.05,0,1.95,0.25,2.71,0.75s1.34,1.16,1.75,1.98c0.41,0.81,0.62,1.71,0.62,2.67c0,0.95-0.25,1.82-0.76,2.62
			c-0.51,0.79-1.2,1.42-2.09,1.89s-1.93,0.7-3.12,0.7v-1.58H494.6z"/>
	</g>
	<g>
		<path class="st3" d="M518.64,524.66v2.18h-4.32v11.19h-2.1v-13.37H518.64z"/>
	</g>
</g>
<g>
	<path class="st4" d="M270.66,572.59H41.11V20.53h229.55V572.59z M48.89,564.81h213.98V28.31H48.89V564.81z"/>
</g>
<g>
	<rect x="152.26" y="25.58" class="st4" width="7.78" height="541.75"/>
</g>
<g>
	<path class="st5" d="M140.97,397.15"/>
</g>
<g>
	<rect x="46.15" y="378.64" class="st4" width="221.47" height="7.51"/>
</g>
<g>
	<path class="st6" d="M79.6,131.84v26.74h-3.3v-30.19h21.57v30.19h-3.3v-26.74H79.6z"/>
	<path class="st6" d="M107.39,128.39v30.19h-3.3v-30.19H107.39z M105.91,140.47h18.65v3.45h-18.65V140.47z M125.65,128.39v30.19
		h-3.3v-30.19H125.65z"/>
	<path class="st6" d="M92.56,198.01h16.84v2.34H92.56V198.01z"/>
	<path class="st6" d="M83.49,245.65c0.95,1.78,2.18,3.18,3.71,4.18c1.53,1.01,3.19,1.51,4.97,1.51c1.3,0,2.48-0.19,3.56-0.56
		c1.08-0.37,2.05-0.9,2.93-1.57c0.88-0.67,1.63-1.46,2.25-2.35v4.83c-1.14,1.12-2.38,1.96-3.73,2.5c-1.35,0.55-3.02,0.82-5.01,0.82
		c-1.89,0-3.66-0.38-5.3-1.14c-1.65-0.76-3.09-1.84-4.33-3.23c-1.24-1.39-2.22-3.04-2.91-4.94c-0.7-1.9-1.05-3.97-1.05-6.21
		c0-2.24,0.35-4.31,1.05-6.21c0.7-1.9,1.67-3.54,2.91-4.94c1.24-1.39,2.69-2.47,4.33-3.23c1.65-0.76,3.41-1.14,5.3-1.14
		c2,0,3.67,0.27,5.01,0.82c1.35,0.55,2.59,1.38,3.73,2.5v4.83c-0.62-0.89-1.37-1.67-2.25-2.35c-0.88-0.68-1.86-1.2-2.93-1.57
		c-1.08-0.37-2.26-0.56-3.56-0.56c-1.79,0-3.45,0.5-4.97,1.51c-1.53,1.01-2.77,2.39-3.71,4.16s-1.42,3.83-1.42,6.19
		C82.07,241.81,82.54,243.87,83.49,245.65z"/>
	<path class="st6" d="M121.32,224.39v3.45h-11.27v26.74h-3.3v-30.19H121.32z M108.57,236.47h5.56c1.76,0,3.34,0.37,4.72,1.1
		c1.39,0.73,2.49,1.78,3.3,3.13c0.82,1.35,1.22,2.96,1.22,4.83c0,1.84-0.41,3.44-1.22,4.81c-0.82,1.37-1.92,2.41-3.3,3.15
		c-1.39,0.73-2.96,1.1-4.72,1.1h-5.56v-3.45h5.56c1.17,0,2.2-0.21,3.09-0.62c0.89-0.42,1.59-1.04,2.1-1.88
		c0.51-0.83,0.76-1.87,0.76-3.1c0-1.24-0.25-2.27-0.76-3.1c-0.51-0.83-1.2-1.46-2.1-1.88c-0.89-0.42-1.92-0.62-3.09-0.62h-5.56
		V236.47z"/>
</g>
<g>
	<path class="st6" d="M80,458.41v26.83h-2.94v-26.83H80z M78.69,469.14h16.58v3.07H78.69V469.14z M96.23,458.41v26.83H93.3v-26.83
		H96.23z"/>
	<path class="st6" d="M102.97,485.24v4.22h-2.59v-7.28h24.53v7.28h-2.59v-4.22H102.97z M105.91,484.09h-3.11l9.84-27.03l9.84,27.03
		h-3.11l-6.74-19.63L105.91,484.09z"/>
</g>
<g>
	<path class="st6" d="M178.5,418.29l6.74-1.87v22.11h-2.39v-18.94l-4.35,1.43V418.29z"/>
	<path class="st6" d="M190.93,421.84c0.62-1.68,1.47-3.01,2.57-3.97c1.09-0.96,2.36-1.45,3.8-1.45c1.44,0,2.71,0.48,3.8,1.45
		c1.09,0.97,1.95,2.29,2.57,3.97c0.62,1.68,0.93,3.61,0.93,5.79s-0.31,4.11-0.93,5.79c-0.62,1.68-1.47,3-2.57,3.97
		c-1.09,0.96-2.36,1.45-3.8,1.45c-1.44,0-2.71-0.48-3.8-1.45c-1.09-0.97-1.95-2.29-2.57-3.97c-0.62-1.68-0.93-3.61-0.93-5.79
		S190.31,423.52,190.93,421.84z M192.72,431.13c0.22,1.07,0.55,1.99,0.98,2.77c0.43,0.78,0.95,1.38,1.56,1.81
		c0.61,0.43,1.29,0.64,2.04,0.64c0.77,0,1.45-0.21,2.05-0.64c0.6-0.42,1.11-1.03,1.54-1.81c0.43-0.78,0.76-1.7,0.98-2.77
		c0.22-1.07,0.34-2.24,0.34-3.5s-0.11-2.43-0.34-3.5c-0.22-1.07-0.55-1.99-0.98-2.77c-0.43-0.78-0.94-1.38-1.54-1.81
		c-0.6-0.43-1.28-0.64-2.05-0.64c-0.75,0-1.43,0.21-2.04,0.64c-0.61,0.43-1.13,1.03-1.56,1.81c-0.43,0.78-0.76,1.7-0.98,2.77
		c-0.22,1.07-0.34,2.24-0.34,3.5S192.5,430.06,192.72,431.13z"/>
	<path class="st6" d="M208.85,436.07c0.31-0.33,0.67-0.5,1.08-0.5c0.43,0,0.79,0.17,1.09,0.5s0.45,0.74,0.45,1.21
		c0,0.46-0.15,0.86-0.45,1.2c-0.3,0.34-0.66,0.51-1.09,0.51c-0.41,0-0.77-0.17-1.08-0.51c-0.31-0.34-0.46-0.74-0.46-1.2
		C208.39,436.81,208.54,436.4,208.85,436.07z"/>
	<path class="st6" d="M216.19,421.84c0.62-1.68,1.47-3.01,2.57-3.97c1.09-0.96,2.36-1.45,3.8-1.45c1.44,0,2.71,0.48,3.8,1.45
		c1.09,0.97,1.95,2.29,2.57,3.97c0.62,1.68,0.93,3.61,0.93,5.79s-0.31,4.11-0.93,5.79c-0.62,1.68-1.47,3-2.57,3.97
		c-1.09,0.96-2.36,1.45-3.8,1.45c-1.44,0-2.71-0.48-3.8-1.45c-1.09-0.97-1.95-2.29-2.57-3.97c-0.62-1.68-0.93-3.61-0.93-5.79
		S215.57,423.52,216.19,421.84z M217.98,431.13c0.22,1.07,0.55,1.99,0.98,2.77c0.43,0.78,0.95,1.38,1.56,1.81
		c0.61,0.43,1.29,0.64,2.04,0.64c0.77,0,1.45-0.21,2.05-0.64c0.6-0.42,1.11-1.03,1.54-1.81c0.43-0.78,0.76-1.7,0.98-2.77
		c0.22-1.07,0.34-2.24,0.34-3.5s-0.11-2.43-0.34-3.5c-0.22-1.07-0.55-1.99-0.98-2.77c-0.43-0.78-0.94-1.38-1.54-1.81
		c-0.6-0.43-1.28-0.64-2.05-0.64c-0.75,0-1.43,0.21-2.04,0.64c-0.61,0.43-1.13,1.03-1.56,1.81c-0.43,0.78-0.76,1.7-0.98,2.77
		c-0.22,1.07-0.34,2.24-0.34,3.5S217.76,430.06,217.98,431.13z"/>
	<path class="st6" d="M233.03,421.84c0.62-1.68,1.47-3.01,2.57-3.97c1.09-0.96,2.36-1.45,3.8-1.45c1.44,0,2.71,0.48,3.8,1.45
		c1.09,0.97,1.95,2.29,2.57,3.97c0.62,1.68,0.93,3.61,0.93,5.79s-0.31,4.11-0.93,5.79c-0.62,1.68-1.47,3-2.57,3.97
		c-1.09,0.96-2.36,1.45-3.8,1.45c-1.44,0-2.71-0.48-3.8-1.45c-1.09-0.97-1.95-2.29-2.57-3.97c-0.62-1.68-0.93-3.61-0.93-5.79
		S232.41,423.52,233.03,421.84z M234.82,431.13c0.22,1.07,0.55,1.99,0.98,2.77c0.43,0.78,0.95,1.38,1.56,1.81
		c0.61,0.43,1.29,0.64,2.03,0.64c0.77,0,1.45-0.21,2.05-0.64c0.6-0.42,1.11-1.03,1.54-1.81c0.43-0.78,0.76-1.7,0.98-2.77
		s0.34-2.24,0.34-3.5s-0.11-2.43-0.34-3.5s-0.55-1.99-0.98-2.77c-0.43-0.78-0.95-1.38-1.54-1.81c-0.6-0.43-1.28-0.64-2.05-0.64
		c-0.75,0-1.43,0.21-2.03,0.64c-0.61,0.43-1.13,1.03-1.56,1.81c-0.43,0.78-0.76,1.7-0.98,2.77s-0.34,2.24-0.34,3.5
		S234.6,430.06,234.82,431.13z"/>
	<path class="st6" d="M203.61,477.97h16.84v2.34h-16.84V477.97z"/>
	<path class="st6" d="M179.46,514.29l6.74-1.87v22.11h-2.39v-18.94l-4.35,1.43V514.29z"/>
	<path class="st6" d="M195.21,534.38c-0.77-0.31-1.42-0.74-1.96-1.29c-0.54-0.55-0.96-1.19-1.26-1.93c-0.3-0.74-0.45-1.53-0.45-2.38
		h2.41c0,0.68,0.16,1.3,0.49,1.84c0.33,0.54,0.78,0.97,1.36,1.28c0.58,0.31,1.24,0.47,1.99,0.47c0.75,0,1.4-0.16,1.95-0.48
		c0.55-0.32,0.98-0.77,1.28-1.35c0.3-0.58,0.45-1.27,0.45-2.06c0-0.66-0.12-1.25-0.35-1.76c-0.23-0.51-0.56-0.93-0.97-1.28
		c-0.41-0.34-0.89-0.6-1.43-0.76s-1.13-0.25-1.77-0.25v-1.71c0.95,0,1.85,0.12,2.68,0.34c0.83,0.23,1.57,0.59,2.22,1.08
		c0.65,0.49,1.15,1.12,1.52,1.88c0.36,0.77,0.55,1.69,0.55,2.77c0,1.22-0.27,2.29-0.8,3.21c-0.53,0.91-1.26,1.62-2.17,2.12
		c-0.92,0.5-1.96,0.75-3.14,0.75C196.84,534.84,195.98,534.69,195.21,534.38z M196.95,522.07c0.64,0,1.2-0.1,1.68-0.29
		c0.49-0.2,0.9-0.47,1.23-0.81c0.34-0.34,0.59-0.74,0.77-1.2c0.18-0.46,0.27-0.94,0.27-1.46c0-0.69-0.11-1.29-0.34-1.82
		s-0.56-0.94-1-1.23c-0.44-0.29-0.99-0.44-1.64-0.44c-0.92,0-1.69,0.32-2.33,0.95c-0.64,0.63-0.95,1.43-0.95,2.38h-2.27
		c0-1.14,0.24-2.14,0.72-2.99c0.48-0.85,1.13-1.52,1.96-2.01c0.83-0.49,1.78-0.73,2.85-0.73c1.12,0,2.09,0.27,2.9,0.81
		c0.81,0.54,1.44,1.25,1.88,2.12c0.44,0.87,0.66,1.83,0.66,2.87c0,1.02-0.27,1.95-0.81,2.8c-0.54,0.85-1.29,1.53-2.25,2.02
		c-0.95,0.5-2.07,0.75-3.34,0.75V522.07z"/>
	<path class="st6" d="M207.88,532.07c0.31-0.33,0.67-0.5,1.08-0.5c0.43,0,0.79,0.17,1.09,0.5c0.3,0.33,0.45,0.74,0.45,1.21
		c0,0.46-0.15,0.86-0.45,1.2c-0.3,0.34-0.66,0.51-1.09,0.51c-0.41,0-0.77-0.17-1.08-0.51c-0.31-0.34-0.46-0.74-0.46-1.2
		C207.42,532.81,207.57,532.4,207.88,532.07z"/>
	<path class="st6" d="M215.22,517.84c0.62-1.68,1.47-3.01,2.57-3.97c1.09-0.96,2.36-1.45,3.8-1.45c1.44,0,2.71,0.48,3.8,1.45
		c1.09,0.97,1.95,2.29,2.57,3.97c0.62,1.68,0.93,3.61,0.93,5.79s-0.31,4.11-0.93,5.79c-0.62,1.68-1.47,3-2.57,3.97
		c-1.09,0.96-2.36,1.45-3.8,1.45c-1.44,0-2.71-0.48-3.8-1.45c-1.09-0.97-1.95-2.29-2.57-3.97c-0.62-1.68-0.93-3.61-0.93-5.79
		S214.6,519.52,215.22,517.84z M217.02,527.13c0.22,1.07,0.55,1.99,0.98,2.77c0.43,0.78,0.95,1.38,1.56,1.81
		c0.61,0.43,1.29,0.64,2.03,0.64c0.77,0,1.45-0.21,2.05-0.64c0.6-0.42,1.11-1.03,1.54-1.81c0.43-0.78,0.76-1.7,0.98-2.77
		s0.34-2.24,0.34-3.5s-0.11-2.43-0.34-3.5s-0.55-1.99-0.98-2.77c-0.43-0.78-0.95-1.38-1.54-1.81c-0.6-0.43-1.28-0.64-2.05-0.64
		c-0.75,0-1.43,0.21-2.03,0.64c-0.61,0.43-1.13,1.03-1.56,1.81c-0.43,0.78-0.76,1.7-0.98,2.77s-0.34,2.24-0.34,3.5
		S216.79,526.06,217.02,527.13z"/>
	<path class="st6" d="M232.06,517.84c0.62-1.68,1.47-3.01,2.57-3.97c1.09-0.96,2.36-1.45,3.8-1.45c1.44,0,2.71,0.48,3.8,1.45
		c1.09,0.97,1.95,2.29,2.57,3.97c0.62,1.68,0.93,3.61,0.93,5.79s-0.31,4.11-0.93,5.79c-0.62,1.68-1.47,3-2.57,3.97
		c-1.09,0.96-2.36,1.45-3.8,1.45c-1.44,0-2.71-0.48-3.8-1.45c-1.09-0.97-1.95-2.29-2.57-3.97c-0.62-1.68-0.93-3.61-0.93-5.79
		S231.44,519.52,232.06,517.84z M233.85,527.13c0.22,1.07,0.55,1.99,0.98,2.77c0.43,0.78,0.95,1.38,1.56,1.81
		c0.61,0.43,1.29,0.64,2.04,0.64c0.77,0,1.45-0.21,2.05-0.64c0.6-0.42,1.11-1.03,1.54-1.81c0.43-0.78,0.76-1.7,0.98-2.77
		c0.22-1.07,0.34-2.24,0.34-3.5s-0.11-2.43-0.34-3.5c-0.22-1.07-0.55-1.99-0.98-2.77c-0.43-0.78-0.94-1.38-1.54-1.81
		c-0.6-0.43-1.28-0.64-2.05-0.64c-0.75,0-1.43,0.21-2.04,0.64c-0.61,0.43-1.13,1.03-1.56,1.81c-0.43,0.78-0.76,1.7-0.98,2.77
		c-0.22,1.07-0.34,2.24-0.34,3.5S233.63,526.06,233.85,527.13z"/>
</g>
<g>
	<path class="st6" d="M176.78,140.95c0.62-1.68,1.47-3.01,2.57-3.97s2.36-1.45,3.8-1.45c1.44,0,2.71,0.48,3.8,1.45
		c1.09,0.97,1.95,2.29,2.57,3.97c0.62,1.68,0.93,3.61,0.93,5.79s-0.31,4.11-0.93,5.79c-0.62,1.68-1.47,3.01-2.57,3.97
		c-1.09,0.97-2.36,1.45-3.8,1.45c-1.44,0-2.71-0.48-3.8-1.45c-1.09-0.97-1.95-2.29-2.57-3.97c-0.62-1.68-0.93-3.61-0.93-5.79
		S176.16,142.63,176.78,140.95z M178.58,150.24c0.22,1.07,0.55,1.99,0.98,2.77c0.43,0.78,0.95,1.38,1.56,1.81
		c0.61,0.43,1.29,0.64,2.03,0.64c0.77,0,1.45-0.21,2.05-0.64c0.6-0.43,1.11-1.03,1.54-1.81c0.43-0.78,0.76-1.7,0.98-2.77
		c0.22-1.07,0.34-2.24,0.34-3.5c0-1.27-0.11-2.43-0.34-3.5c-0.22-1.07-0.55-1.99-0.98-2.77c-0.43-0.78-0.95-1.38-1.54-1.81
		c-0.6-0.43-1.28-0.64-2.05-0.64c-0.75,0-1.43,0.21-2.03,0.64c-0.61,0.43-1.13,1.03-1.56,1.81c-0.43,0.78-0.76,1.7-0.98,2.77
		c-0.22,1.07-0.34,2.24-0.34,3.5C178.24,148.01,178.35,149.17,178.58,150.24z"/>
	<path class="st6" d="M195.47,157.64l6.15-9l0.17,0.16c-0.37,0.52-0.81,0.86-1.3,1.03c-0.5,0.17-1.06,0.25-1.7,0.25
		c-0.8,0-1.56-0.18-2.26-0.53s-1.32-0.85-1.85-1.5c-0.53-0.64-0.95-1.4-1.25-2.26c-0.3-0.86-0.45-1.79-0.45-2.79
		c0-1.5,0.29-2.8,0.88-3.92c0.59-1.12,1.39-1.99,2.4-2.62c1.01-0.62,2.14-0.93,3.4-0.93c1.27,0,2.41,0.31,3.41,0.93
		c1,0.62,1.8,1.49,2.39,2.62c0.59,1.12,0.88,2.43,0.88,3.92c0,0.89-0.11,1.72-0.34,2.49s-0.52,1.44-0.9,2.02l-6.62,10.12H195.47z
		 M203.49,140.37c-0.38-0.76-0.91-1.35-1.57-1.79c-0.66-0.44-1.42-0.65-2.26-0.65s-1.6,0.22-2.26,0.65
		c-0.66,0.44-1.19,1.03-1.57,1.79c-0.38,0.76-0.58,1.64-0.58,2.63s0.19,1.88,0.58,2.65c0.38,0.77,0.91,1.38,1.57,1.82
		c0.66,0.45,1.42,0.67,2.26,0.67s1.59-0.22,2.26-0.67c0.66-0.45,1.19-1.05,1.57-1.82c0.38-0.77,0.58-1.65,0.58-2.65
		S203.87,141.13,203.49,140.37z"/>
	<path class="st6" d="M208.9,155.18c0.31-0.33,0.67-0.5,1.08-0.5c0.43,0,0.79,0.17,1.09,0.5c0.3,0.33,0.45,0.74,0.45,1.21
		c0,0.46-0.15,0.86-0.45,1.2c-0.3,0.34-0.66,0.51-1.09,0.51c-0.41,0-0.77-0.17-1.08-0.51c-0.31-0.34-0.46-0.74-0.46-1.2
		C208.44,155.92,208.59,155.51,208.9,155.18z"/>
	<path class="st6" d="M216.24,140.95c0.62-1.68,1.47-3.01,2.57-3.97c1.09-0.97,2.36-1.45,3.8-1.45c1.44,0,2.71,0.48,3.8,1.45
		s1.95,2.29,2.57,3.97c0.62,1.68,0.93,3.61,0.93,5.79s-0.31,4.11-0.93,5.79c-0.62,1.68-1.47,3.01-2.57,3.97
		c-1.09,0.97-2.36,1.45-3.8,1.45c-1.44,0-2.71-0.48-3.8-1.45c-1.09-0.97-1.95-2.29-2.57-3.97c-0.62-1.68-0.93-3.61-0.93-5.79
		S215.62,142.63,216.24,140.95z M218.04,150.24c0.22,1.07,0.55,1.99,0.98,2.77c0.43,0.78,0.95,1.38,1.56,1.81
		c0.61,0.43,1.29,0.64,2.04,0.64c0.77,0,1.45-0.21,2.05-0.64c0.6-0.43,1.11-1.03,1.54-1.81c0.43-0.78,0.76-1.7,0.98-2.77
		c0.22-1.07,0.34-2.24,0.34-3.5c0-1.27-0.11-2.43-0.34-3.5c-0.22-1.07-0.55-1.99-0.98-2.77c-0.43-0.78-0.94-1.38-1.54-1.81
		c-0.6-0.43-1.28-0.64-2.05-0.64c-0.75,0-1.43,0.21-2.04,0.64c-0.61,0.43-1.13,1.03-1.56,1.81c-0.43,0.78-0.76,1.7-0.98,2.77
		c-0.22,1.07-0.34,2.24-0.34,3.5C217.7,148.01,217.81,149.17,218.04,150.24z"/>
	<path class="st6" d="M233.08,140.95c0.62-1.68,1.47-3.01,2.57-3.97s2.36-1.45,3.8-1.45c1.44,0,2.71,0.48,3.8,1.45
		c1.09,0.97,1.95,2.29,2.57,3.97c0.62,1.68,0.93,3.61,0.93,5.79s-0.31,4.11-0.93,5.79c-0.62,1.68-1.47,3.01-2.57,3.97
		c-1.09,0.97-2.36,1.45-3.8,1.45c-1.44,0-2.71-0.48-3.8-1.45c-1.09-0.97-1.95-2.29-2.57-3.97c-0.62-1.68-0.93-3.61-0.93-5.79
		S232.46,142.63,233.08,140.95z M234.88,150.24c0.22,1.07,0.55,1.99,0.98,2.77c0.43,0.78,0.95,1.38,1.56,1.81
		c0.61,0.43,1.29,0.64,2.03,0.64c0.77,0,1.45-0.21,2.05-0.64c0.6-0.43,1.11-1.03,1.54-1.81c0.43-0.78,0.76-1.7,0.98-2.77
		c0.22-1.07,0.34-2.24,0.34-3.5c0-1.27-0.11-2.43-0.34-3.5c-0.22-1.07-0.55-1.99-0.98-2.77c-0.43-0.78-0.95-1.38-1.54-1.81
		s-1.28-0.64-2.05-0.64c-0.75,0-1.43,0.21-2.03,0.64s-1.13,1.03-1.56,1.81c-0.43,0.78-0.76,1.7-0.98,2.77
		c-0.22,1.07-0.34,2.24-0.34,3.5C234.54,148.01,234.65,149.17,234.88,150.24z"/>
	<path class="st6" d="M202.88,197.07h16.84v2.34h-16.84V197.07z"/>
	<path class="st6" d="M179.08,233.39l6.74-1.87v22.11h-2.39V234.7l-4.35,1.43V233.39z"/>
	<path class="st6" d="M193.37,253.64l6.15-9l0.17,0.16c-0.37,0.52-0.81,0.86-1.31,1.03c-0.5,0.17-1.06,0.25-1.7,0.25
		c-0.8,0-1.56-0.18-2.26-0.53c-0.7-0.35-1.32-0.85-1.85-1.5c-0.53-0.64-0.95-1.4-1.25-2.26s-0.45-1.79-0.45-2.79
		c0-1.5,0.29-2.8,0.88-3.92c0.59-1.12,1.39-1.99,2.4-2.62c1.01-0.62,2.14-0.93,3.4-0.93c1.27,0,2.41,0.31,3.41,0.93
		c1,0.62,1.8,1.49,2.39,2.62c0.59,1.12,0.88,2.43,0.88,3.92c0,0.89-0.11,1.72-0.34,2.49s-0.52,1.44-0.9,2.02l-6.62,10.12H193.37z
		 M201.38,236.37c-0.38-0.76-0.91-1.35-1.57-1.79s-1.42-0.65-2.26-0.65c-0.84,0-1.6,0.22-2.26,0.65s-1.19,1.03-1.57,1.79
		c-0.38,0.76-0.58,1.64-0.58,2.63s0.19,1.88,0.58,2.65c0.38,0.77,0.91,1.38,1.57,1.82c0.66,0.45,1.42,0.67,2.26,0.67
		c0.84,0,1.59-0.22,2.26-0.67c0.66-0.45,1.19-1.05,1.57-1.82c0.38-0.77,0.58-1.65,0.58-2.65S201.76,237.13,201.38,236.37z"/>
	<path class="st6" d="M206.8,251.18c0.31-0.33,0.67-0.5,1.08-0.5c0.43,0,0.79,0.17,1.09,0.5c0.3,0.33,0.45,0.74,0.45,1.21
		c0,0.46-0.15,0.86-0.45,1.2c-0.3,0.34-0.66,0.51-1.09,0.51c-0.41,0-0.77-0.17-1.08-0.51c-0.31-0.34-0.46-0.74-0.46-1.2
		C206.33,251.92,206.49,251.51,206.8,251.18z"/>
	<path class="st6" d="M214.14,236.95c0.62-1.68,1.47-3.01,2.57-3.97s2.36-1.45,3.8-1.45c1.44,0,2.71,0.48,3.8,1.45
		c1.09,0.97,1.95,2.29,2.57,3.97c0.62,1.68,0.93,3.61,0.93,5.79s-0.31,4.11-0.93,5.79c-0.62,1.68-1.47,3.01-2.57,3.97
		c-1.09,0.97-2.36,1.45-3.8,1.45c-1.44,0-2.71-0.48-3.8-1.45c-1.09-0.97-1.95-2.29-2.57-3.97c-0.62-1.68-0.93-3.61-0.93-5.79
		S213.52,238.63,214.14,236.95z M215.93,246.24c0.22,1.07,0.55,1.99,0.98,2.77c0.43,0.78,0.95,1.38,1.56,1.81
		c0.61,0.43,1.29,0.64,2.03,0.64c0.77,0,1.45-0.21,2.05-0.64c0.6-0.43,1.11-1.03,1.54-1.81c0.43-0.78,0.76-1.7,0.98-2.77
		c0.22-1.07,0.34-2.24,0.34-3.5c0-1.27-0.11-2.43-0.34-3.5c-0.22-1.07-0.55-1.99-0.98-2.77c-0.43-0.78-0.95-1.38-1.54-1.81
		c-0.6-0.43-1.28-0.64-2.05-0.64c-0.75,0-1.43,0.21-2.03,0.64c-0.61,0.43-1.13,1.03-1.56,1.81c-0.43,0.78-0.76,1.7-0.98,2.77
		c-0.22,1.07-0.34,2.24-0.34,3.5C215.6,244.01,215.71,245.17,215.93,246.24z"/>
	<path class="st6" d="M230.98,236.95c0.62-1.68,1.47-3.01,2.57-3.97c1.09-0.97,2.36-1.45,3.8-1.45c1.44,0,2.71,0.48,3.8,1.45
		s1.95,2.29,2.57,3.97c0.62,1.68,0.93,3.61,0.93,5.79s-0.31,4.11-0.93,5.79c-0.62,1.68-1.47,3.01-2.57,3.97
		c-1.09,0.97-2.36,1.45-3.8,1.45c-1.44,0-2.71-0.48-3.8-1.45c-1.09-0.97-1.95-2.29-2.57-3.97c-0.62-1.68-0.93-3.61-0.93-5.79
		S230.36,238.63,230.98,236.95z M232.77,246.24c0.22,1.07,0.55,1.99,0.98,2.77c0.43,0.78,0.95,1.38,1.56,1.81
		c0.61,0.43,1.29,0.64,2.04,0.64c0.77,0,1.45-0.21,2.05-0.64c0.6-0.43,1.11-1.03,1.54-1.81c0.43-0.78,0.76-1.7,0.98-2.77
		c0.22-1.07,0.34-2.24,0.34-3.5c0-1.27-0.11-2.43-0.34-3.5c-0.22-1.07-0.55-1.99-0.98-2.77c-0.43-0.78-0.94-1.38-1.54-1.81
		c-0.6-0.43-1.28-0.64-2.05-0.64c-0.75,0-1.43,0.21-2.04,0.64c-0.61,0.43-1.13,1.03-1.56,1.81c-0.43,0.78-0.76,1.7-0.98,2.77
		c-0.22,1.07-0.34,2.24-0.34,3.5C232.44,244.01,232.55,245.17,232.77,246.24z"/>
</g>
<g>
	<path class="st5" d="M166.37,514.87"/>
</g>
</svg>
